<?xml version="1.0" encoding="utf-8"?>
<!-- Generator: Adobe Illustrator 28.0.0, SVG Export Plug-In . SVG Version: 6.00 Build 0)  -->
<svg version="1.1" id="Capa_1" xmlns="http://www.w3.org/2000/svg" xmlns:xlink="http://www.w3.org/1999/xlink" x="0px" y="0px"
	 viewBox="0 0 512 512" style="enable-background:new 0 0 512 512;" xml:space="preserve">
<style type="text/css">
	.st0{fill:#F34D23;}
</style>
<g>
	<g>
		<path class="st0" d="M256,363.7c-4.5,0-8.2,3.7-8.2,8.2v119.7c0,4.5,3.7,8.2,8.2,8.2s8.2-3.7,8.2-8.2V371.9
			C264.2,367.4,260.5,363.7,256,363.7z"/>
		<path class="st0" d="M224.3,345.1c-4.5,0-8.2,3.7-8.2,8.2v53.6c0,4.5,3.7,8.2,8.2,8.2c4.5,0,8.2-3.7,8.2-8.2v-53.6
			C232.5,348.8,228.8,345.1,224.3,345.1z"/>
		<path class="st0" d="M287.7,345.1c-4.5,0-8.2,3.7-8.2,8.2v53.6c0,4.5,3.7,8.2,8.2,8.2s8.2-3.7,8.2-8.2v-53.6
			C295.9,348.8,292.3,345.1,287.7,345.1z"/>
	</g>
	<path class="st0" d="M354.1,192.1l-1.2-1l-0.2,1.7c-1.2,10.4-3.5,20.5-6.8,30.2c0.6-7.5,1-15,1-22.5c0-77.4-33.4-147.7-89.2-187.9
		l-0.4-0.3l-0.4,0.3c-55.9,40.3-89.2,110.5-89.2,187.9c0,8.5,0.4,17.1,1.3,25.7c-4.1-11.1-6.8-22.7-8.1-34.7l-0.2-1.7l-1.2,1
		c-28.3,23.8-45.1,62.5-45.1,103.6c0,2.1,0,4.2,0.1,6.6l0,1h74l0.3,0.6c0.1,0.3,0.2,0.6,0.4,0.9l0.3,0.5c4.4,9.7,9.3,19,14.8,27.7
		l0.3,0.4h32.6v-59.7h38.1c0.2,19.9,0.3,39.8,0.3,59.7h34.7l0.3-0.4c5.4-8.7,10.4-18,14.8-27.7l0.3-0.5c0.1-0.3,0.3-0.6,0.4-0.9
		l0.3-0.6h71.4l0-1c0.1-2.4,0.1-4.5,0.1-6.6C397.7,254.2,381.4,215.9,354.1,192.1z M275.6,153.4c0,8.1-6.5,14.6-14.6,14.6h-9.8
		c-8.1,0-14.6-6.5-14.6-14.6v-31.7c0-8.1,6.5-14.6,14.6-14.6h9.8c8.1,0,14.6,6.5,14.6,14.6V153.4z"/>
</g>
</svg>
