<?xml version="1.0" encoding="utf-8"?>
<!-- Generator: Adobe Illustrator 24.3.0, SVG Export Plug-In . SVG Version: 6.00 Build 0)  -->
<svg version="1.1" xmlns="http://www.w3.org/2000/svg" xmlns:xlink="http://www.w3.org/1999/xlink" x="0px" y="0px"
	 viewBox="0 0 1920 1080" style="enable-background:new 0 0 1920 1080;" xml:space="preserve">
<style type="text/css">
	.st0{fill:#1D1D1B;}
	.st1{fill:#293D51;}
	.st2{fill:#FFFFFF;}
	.st3{fill:url(#SVGID_5_);}
	.st4{clip-path:url(#SVGID_7_);}
	.st5{opacity:0.28;}
	.st6{fill:url(#SVGID_8_);}
	.st7{fill:url(#SVGID_9_);}
	.st8{fill:url(#SVGID_10_);}
	.st9{fill:url(#SVGID_11_);}
	.st10{fill:url(#SVGID_12_);}
	.st11{fill:url(#SVGID_13_);}
	.st12{fill:url(#SVGID_14_);}
	.st13{fill:url(#SVGID_15_);}
	.st14{fill:url(#SVGID_16_);}
	.st15{fill:url(#SVGID_17_);}
	.st16{fill:url(#SVGID_18_);}
	.st17{fill:url(#SVGID_19_);}
	.st18{fill:url(#SVGID_20_);}
	.st19{fill:url(#SVGID_21_);}
	.st20{fill:url(#SVGID_22_);}
	.st21{fill:url(#SVGID_23_);}
	.st22{fill:url(#SVGID_24_);}
	.st23{fill:url(#SVGID_25_);}
	.st24{fill:url(#SVGID_26_);}
	.st25{fill:url(#SVGID_27_);}
	.st26{fill:url(#SVGID_28_);}
	.st27{fill:url(#SVGID_29_);}
	.st28{fill:url(#SVGID_30_);}
	.st29{fill:#F34D23;}
	.st30{fill:#FFFFFF;stroke:#1D1D1B;stroke-miterlimit:10;}
	.st31{fill:none;stroke:#03FFFF;stroke-miterlimit:10;stroke-dasharray:10;}
	.st32{fill:none;stroke:#03FFFF;stroke-miterlimit:10;}
	.st33{fill:none;stroke:#03FFFF;stroke-miterlimit:10;stroke-dasharray:9.9851,9.9851;}
	.st34{fill:none;stroke:#03FFFF;stroke-miterlimit:10;stroke-dasharray:10.0327,10.0327;}
	.st35{fill:none;stroke:#03FFFF;stroke-miterlimit:10;stroke-dasharray:9.9349,9.9349;}
	.st36{fill:none;stroke:#03FFFF;stroke-miterlimit:10;stroke-dasharray:10.1175,10.1175;}
	.st37{fill:#FFFFFF;stroke:#1D1D1B;stroke-width:0.5196;stroke-miterlimit:10;}
</style>
<g id="Layer_3">
</g>
<g id="Layer_2">
	<g>
		<path class="st0" d="M45.44,1024.54l-2.83-10.08c-0.03-0.1-0.02-0.19,0.03-0.25c0.05-0.07,0.13-0.11,0.24-0.11h1.75
			c0.14,0,0.23,0.07,0.27,0.21l1.29,5.08h0.06l2.33-5.28c0.06-0.11,0.14-0.17,0.25-0.17h0.27c0.13,0,0.21,0.06,0.25,0.17l2.32,5.28
			h0.06l1.29-5.08c0.04-0.14,0.13-0.21,0.27-0.21h1.75c0.11,0,0.19,0.04,0.24,0.11c0.05,0.07,0.06,0.15,0.03,0.25l-2.83,10.08
			c-0.03,0.14-0.12,0.21-0.27,0.21h-0.24c-0.11,0-0.2-0.06-0.25-0.17l-2.75-6.14h-0.04l-2.73,6.14c-0.06,0.11-0.15,0.17-0.25,0.17
			h-0.24C45.56,1024.75,45.47,1024.68,45.44,1024.54z"/>
		<path class="st0" d="M61.43,1024.31v-9.93c0-0.08,0.03-0.15,0.08-0.2c0.06-0.05,0.12-0.08,0.2-0.08h6.21
			c0.08,0,0.15,0.03,0.2,0.08c0.05,0.06,0.08,0.12,0.08,0.2v1.63c0,0.08-0.03,0.15-0.08,0.2c-0.05,0.06-0.12,0.08-0.2,0.08h-4.16
			v1.86h3.42c0.08,0,0.15,0.03,0.2,0.08c0.05,0.05,0.08,0.12,0.08,0.2v1.64c0,0.08-0.03,0.15-0.08,0.2
			c-0.06,0.05-0.12,0.08-0.2,0.08h-3.42v2.03h4.16c0.08,0,0.15,0.03,0.2,0.08c0.05,0.05,0.08,0.12,0.08,0.2v1.63
			c0,0.08-0.03,0.15-0.08,0.2c-0.05,0.05-0.12,0.08-0.2,0.08h-6.21c-0.08,0-0.15-0.03-0.2-0.08
			C61.46,1024.46,61.43,1024.39,61.43,1024.31z"/>
		<path class="st0" d="M81.44,1024.6c-0.11,0-0.19-0.04-0.25-0.12s-0.06-0.17-0.01-0.27l4.69-10.1c0.05-0.11,0.13-0.17,0.25-0.17
			h0.15c0.12,0,0.21,0.06,0.25,0.17l4.7,10.1c0.05,0.1,0.05,0.19-0.01,0.27s-0.14,0.12-0.25,0.12h-1.67c-0.23,0-0.41-0.12-0.53-0.38
			l-0.54-1.18h-4.08l-0.54,1.2c-0.1,0.24-0.28,0.36-0.54,0.36H81.44z M85.07,1021h2.28l-1.14-2.48h-0.01L85.07,1021z"/>
		<path class="st0" d="M96.96,1024.31v-9.93c0-0.08,0.03-0.15,0.08-0.2c0.06-0.05,0.12-0.08,0.2-0.08h4.48
			c0.9,0,1.67,0.32,2.31,0.95c0.64,0.64,0.96,1.4,0.96,2.29c0,0.67-0.2,1.27-0.61,1.81s-0.94,0.94-1.61,1.21l2.05,3.81
			c0.06,0.1,0.06,0.2,0.01,0.29c-0.06,0.1-0.14,0.14-0.26,0.14h-2c-0.11,0-0.19-0.04-0.24-0.13l-2-3.98h-1.04v3.83
			c0,0.07-0.03,0.13-0.08,0.2c-0.05,0.06-0.12,0.09-0.2,0.09h-1.79c-0.08,0-0.15-0.03-0.2-0.08
			C96.99,1024.46,96.96,1024.39,96.96,1024.31z M99.32,1018.58h2.22c0.31,0,0.58-0.12,0.8-0.36c0.22-0.24,0.34-0.52,0.34-0.84
			c0-0.31-0.11-0.58-0.34-0.8c-0.23-0.22-0.49-0.34-0.8-0.34h-2.22V1018.58z"/>
		<path class="st0" d="M111.51,1024.31v-9.93c0-0.08,0.03-0.15,0.08-0.2c0.06-0.05,0.12-0.08,0.2-0.08h6.21
			c0.08,0,0.15,0.03,0.2,0.08c0.05,0.06,0.08,0.12,0.08,0.2v1.63c0,0.08-0.03,0.15-0.08,0.2c-0.05,0.06-0.12,0.08-0.2,0.08h-4.16
			v1.86h3.42c0.08,0,0.15,0.03,0.2,0.08c0.05,0.05,0.08,0.12,0.08,0.2v1.64c0,0.08-0.03,0.15-0.08,0.2
			c-0.06,0.05-0.12,0.08-0.2,0.08h-3.42v2.03h4.16c0.08,0,0.15,0.03,0.2,0.08c0.05,0.05,0.08,0.12,0.08,0.2v1.63
			c0,0.08-0.03,0.15-0.08,0.2c-0.05,0.05-0.12,0.08-0.2,0.08h-6.21c-0.08,0-0.15-0.03-0.2-0.08
			C111.54,1024.46,111.51,1024.39,111.51,1024.31z"/>
		<path class="st0" d="M132.23,1027.03v-15.34c0-0.08,0.03-0.15,0.08-0.2s0.12-0.08,0.2-0.08h0.26c0.08,0,0.14,0.03,0.19,0.08
			s0.08,0.12,0.08,0.2v15.34c0,0.07-0.03,0.13-0.08,0.19c-0.06,0.05-0.12,0.08-0.2,0.08h-0.24c-0.08,0-0.15-0.03-0.2-0.08
			S132.23,1027.1,132.23,1027.03z"/>
		<path class="st0" d="M147.8,1024.31v-9.93c0-0.07,0.03-0.13,0.09-0.2c0.06-0.06,0.12-0.09,0.2-0.09h0.6c0.07,0,0.13,0.03,0.2,0.09
			c0.06,0.06,0.09,0.12,0.09,0.2v9.93c0,0.07-0.03,0.13-0.09,0.2c-0.06,0.06-0.13,0.09-0.2,0.09h-0.6c-0.07,0-0.14-0.03-0.2-0.09
			C147.83,1024.45,147.8,1024.38,147.8,1024.31z"/>
		<path class="st0" d="M156.53,1024.31v-9.93c0-0.08,0.03-0.15,0.08-0.2c0.05-0.05,0.12-0.08,0.19-0.08h3.36
			c1.45,0,2.69,0.51,3.72,1.54c1.03,1.03,1.54,2.26,1.54,3.7c0,1.45-0.51,2.69-1.54,3.72c-1.03,1.03-2.27,1.54-3.72,1.54h-3.36
			c-0.07,0-0.13-0.03-0.19-0.08C156.56,1024.46,156.53,1024.39,156.53,1024.31z M157.67,1023.56h2.25c1.23,0,2.25-0.4,3.04-1.19
			s1.2-1.81,1.2-3.04c0-1.23-0.4-2.24-1.2-3.03s-1.81-1.19-3.04-1.19h-2.25V1023.56z"/>
		<path class="st0" d="M172.23,1024.31v-9.93c0-0.08,0.03-0.15,0.08-0.2c0.05-0.05,0.12-0.08,0.2-0.08h5.91
			c0.08,0,0.15,0.03,0.2,0.08c0.05,0.06,0.08,0.12,0.08,0.2v0.43c0,0.08-0.03,0.15-0.08,0.2c-0.06,0.05-0.12,0.08-0.2,0.08h-5.04
			v3.66h4.31c0.08,0,0.15,0.03,0.2,0.08c0.05,0.06,0.08,0.12,0.08,0.2v0.43c0,0.08-0.03,0.15-0.08,0.2
			c-0.05,0.05-0.12,0.08-0.2,0.08h-4.31v3.83h5.04c0.08,0,0.15,0.03,0.2,0.08c0.05,0.06,0.08,0.12,0.08,0.2v0.43
			c0,0.08-0.03,0.15-0.08,0.2c-0.06,0.05-0.12,0.08-0.2,0.08h-5.91c-0.08,0-0.15-0.03-0.2-0.08
			C172.26,1024.46,172.23,1024.39,172.23,1024.31z"/>
		<path class="st0" d="M185.61,1024.31v-10.09c0-0.07,0.03-0.13,0.08-0.19s0.12-0.08,0.2-0.08h0.38l6.76,8.43h0.03v-8
			c0-0.08,0.03-0.15,0.08-0.2c0.05-0.05,0.12-0.08,0.2-0.08h0.53c0.07,0,0.13,0.03,0.2,0.09c0.06,0.06,0.09,0.12,0.09,0.2v10.09
			c0,0.07-0.03,0.13-0.08,0.19c-0.05,0.05-0.12,0.08-0.2,0.08h-0.27l-6.89-8.6h-0.01v8.16c0,0.08-0.03,0.15-0.08,0.2
			c-0.06,0.05-0.12,0.08-0.2,0.08h-0.52c-0.07,0-0.14-0.03-0.2-0.09C185.64,1024.45,185.61,1024.38,185.61,1024.31z"/>
		<path class="st0" d="M203.21,1024.31v-9.21h-2.61c-0.08,0-0.15-0.03-0.2-0.08c-0.05-0.06-0.08-0.12-0.08-0.2v-0.43
			c0-0.08,0.03-0.15,0.08-0.2c0.06-0.05,0.12-0.08,0.2-0.08h6.36c0.08,0,0.15,0.03,0.2,0.08c0.05,0.06,0.08,0.12,0.08,0.2v0.43
			c0,0.08-0.03,0.15-0.08,0.2c-0.06,0.05-0.12,0.08-0.2,0.08h-2.61v9.21c0,0.07-0.03,0.13-0.08,0.2c-0.05,0.06-0.12,0.09-0.2,0.09
			h-0.57c-0.08,0-0.15-0.03-0.2-0.09C203.23,1024.45,203.21,1024.38,203.21,1024.31z"/>
		<path class="st0" d="M213.39,1024.31v-9.93c0-0.07,0.03-0.13,0.09-0.2c0.06-0.06,0.12-0.09,0.2-0.09h0.6
			c0.07,0,0.13,0.03,0.2,0.09c0.06,0.06,0.09,0.12,0.09,0.2v9.93c0,0.07-0.03,0.13-0.09,0.2c-0.06,0.06-0.13,0.09-0.2,0.09h-0.6
			c-0.07,0-0.14-0.03-0.2-0.09C213.42,1024.45,213.39,1024.38,213.39,1024.31z"/>
		<path class="st0" d="M222.12,1024.31v-9.93c0-0.08,0.03-0.15,0.08-0.2c0.05-0.05,0.12-0.08,0.19-0.08h3.36
			c1.45,0,2.69,0.51,3.72,1.54c1.03,1.03,1.54,2.26,1.54,3.7c0,1.45-0.51,2.69-1.54,3.72c-1.03,1.03-2.27,1.54-3.72,1.54h-3.36
			c-0.07,0-0.13-0.03-0.19-0.08C222.15,1024.46,222.12,1024.39,222.12,1024.31z M223.26,1023.56h2.25c1.23,0,2.25-0.4,3.04-1.19
			s1.2-1.81,1.2-3.04c0-1.23-0.4-2.24-1.2-3.03s-1.81-1.19-3.04-1.19h-2.25V1023.56z"/>
		<path class="st0" d="M236.58,1024.6c-0.11,0-0.19-0.04-0.25-0.12c-0.06-0.08-0.06-0.17-0.01-0.27l4.56-10.1
			c0.06-0.11,0.14-0.17,0.25-0.17h0.15c0.11,0,0.2,0.06,0.25,0.17l4.53,10.1c0.05,0.1,0.05,0.19-0.01,0.27
			c-0.05,0.08-0.14,0.12-0.25,0.12h-0.6c-0.13,0-0.22-0.05-0.25-0.17l-1.11-2.47h-5.33l-1.09,2.47c-0.04,0.11-0.12,0.17-0.25,0.17
			H236.58z M238.95,1021.03h4.5c-0.25-0.55-0.62-1.37-1.09-2.46c-0.48-1.09-0.85-1.91-1.09-2.46h-0.12L238.95,1021.03z"/>
		<path class="st0" d="M252.21,1024.31v-9.93c0-0.08,0.03-0.15,0.08-0.2c0.05-0.05,0.12-0.08,0.19-0.08h3.36
			c1.45,0,2.69,0.51,3.72,1.54c1.03,1.03,1.54,2.26,1.54,3.7c0,1.45-0.51,2.69-1.54,3.72c-1.03,1.03-2.27,1.54-3.72,1.54h-3.36
			c-0.07,0-0.13-0.03-0.19-0.08C252.24,1024.46,252.21,1024.39,252.21,1024.31z M253.35,1023.56h2.25c1.23,0,2.25-0.4,3.04-1.19
			s1.2-1.81,1.2-3.04c0-1.23-0.4-2.24-1.2-3.03s-1.81-1.19-3.04-1.19h-2.25V1023.56z"/>
		<path class="st0" d="M275.75,1024.31v-9.93c0-0.08,0.03-0.15,0.08-0.2c0.05-0.05,0.12-0.08,0.19-0.08h3.36
			c1.45,0,2.69,0.51,3.72,1.54c1.03,1.03,1.54,2.26,1.54,3.7c0,1.45-0.51,2.69-1.54,3.72c-1.03,1.03-2.27,1.54-3.72,1.54h-3.36
			c-0.07,0-0.13-0.03-0.19-0.08C275.77,1024.46,275.75,1024.39,275.75,1024.31z M276.89,1023.56h2.25c1.23,0,2.25-0.4,3.04-1.19
			s1.2-1.81,1.2-3.04c0-1.23-0.4-2.24-1.2-3.03s-1.81-1.19-3.04-1.19h-2.25V1023.56z"/>
		<path class="st0" d="M291.45,1024.31v-9.93c0-0.08,0.03-0.15,0.08-0.2c0.05-0.05,0.12-0.08,0.2-0.08h5.91
			c0.08,0,0.15,0.03,0.2,0.08c0.05,0.06,0.08,0.12,0.08,0.2v0.43c0,0.08-0.03,0.15-0.08,0.2c-0.06,0.05-0.12,0.08-0.2,0.08h-5.04
			v3.66h4.31c0.08,0,0.15,0.03,0.2,0.08c0.05,0.06,0.08,0.12,0.08,0.2v0.43c0,0.08-0.03,0.15-0.08,0.2
			c-0.05,0.05-0.12,0.08-0.2,0.08h-4.31v3.83h5.04c0.08,0,0.15,0.03,0.2,0.08c0.05,0.06,0.08,0.12,0.08,0.2v0.43
			c0,0.08-0.03,0.15-0.08,0.2c-0.06,0.05-0.12,0.08-0.2,0.08h-5.91c-0.08,0-0.15-0.03-0.2-0.08
			C291.48,1024.46,291.45,1024.39,291.45,1024.31z"/>
		<path class="st0" d="M311.91,1024.24l1.93-10.08c0.03-0.14,0.12-0.21,0.27-0.21h0.24c0.13,0,0.21,0.06,0.26,0.17l2.97,8.27h0.08
			l2.92-8.27c0.04-0.11,0.12-0.17,0.25-0.17h0.24c0.15,0,0.24,0.07,0.27,0.21l1.94,10.08c0.05,0.24-0.04,0.36-0.27,0.36h-0.6
			c-0.14,0-0.23-0.07-0.27-0.21l-1.33-7.72h-0.06l-2.76,7.92c-0.04,0.11-0.13,0.17-0.26,0.17h-0.27c-0.13,0-0.21-0.06-0.25-0.17
			l-2.79-7.92h-0.06l-1.3,7.72c-0.01,0.05-0.04,0.1-0.1,0.14s-0.11,0.07-0.17,0.07h-0.6
			C311.95,1024.6,311.86,1024.48,311.91,1024.24z"/>
		<path class="st0" d="M328.91,1024.6c-0.11,0-0.19-0.04-0.25-0.12c-0.06-0.08-0.06-0.17-0.01-0.27l4.56-10.1
			c0.06-0.11,0.14-0.17,0.25-0.17h0.15c0.11,0,0.2,0.06,0.25,0.17l4.53,10.1c0.05,0.1,0.05,0.19-0.01,0.27
			c-0.05,0.08-0.14,0.12-0.25,0.12h-0.6c-0.13,0-0.22-0.05-0.25-0.17l-1.11-2.47h-5.33l-1.09,2.47c-0.04,0.11-0.12,0.17-0.25,0.17
			H328.91z M331.28,1021.03h4.5c-0.25-0.55-0.62-1.37-1.09-2.46c-0.48-1.09-0.85-1.91-1.09-2.46h-0.12L331.28,1021.03z"/>
		<path class="st0" d="M344.54,1024.31v-9.93c0-0.08,0.03-0.15,0.08-0.2c0.05-0.05,0.12-0.08,0.2-0.08h3.88
			c0.9,0,1.67,0.31,2.31,0.93c0.64,0.62,0.96,1.38,0.96,2.27c0,0.68-0.2,1.29-0.61,1.84c-0.41,0.55-0.94,0.95-1.61,1.22l2.05,3.81
			c0.06,0.1,0.06,0.2,0.01,0.29c-0.05,0.1-0.14,0.14-0.26,0.14h-0.76c-0.11,0-0.19-0.04-0.24-0.13l-2-3.98h-2.87v3.83
			c0,0.07-0.03,0.13-0.08,0.2c-0.05,0.06-0.12,0.09-0.2,0.09h-0.58c-0.08,0-0.15-0.03-0.2-0.08
			C344.56,1024.46,344.54,1024.39,344.54,1024.31z M345.72,1019.5h2.91c0.58,0,1.08-0.21,1.51-0.64c0.43-0.42,0.65-0.94,0.65-1.55
			c0-0.57-0.21-1.07-0.65-1.49c-0.43-0.42-0.93-0.63-1.51-0.63h-2.91V1019.5z"/>
		<path class="st0" d="M359.77,1023.18c-1.06-1.04-1.58-2.32-1.58-3.82s0.53-2.78,1.58-3.83c1.05-1.05,2.33-1.58,3.83-1.58
			c1.33,0,2.54,0.47,3.63,1.4c0.14,0.15,0.15,0.29,0.02,0.42l-0.41,0.41c-0.11,0.14-0.24,0.13-0.39-0.02
			c-0.87-0.75-1.83-1.12-2.87-1.12c-1.17,0-2.16,0.43-2.97,1.28c-0.81,0.85-1.21,1.87-1.21,3.04c0,1.17,0.4,2.18,1.21,3.03
			c0.81,0.85,1.8,1.27,2.97,1.27c0.41,0,0.8-0.06,1.16-0.17s0.66-0.24,0.88-0.38c0.22-0.14,0.5-0.33,0.83-0.58
			c0.13-0.1,0.25-0.11,0.36-0.04l0.45,0.41c0.06,0.05,0.09,0.12,0.08,0.2c-0.01,0.08-0.04,0.15-0.1,0.21
			c-1,0.97-2.21,1.46-3.65,1.46C362.1,1024.75,360.82,1024.22,359.77,1023.18z"/>
		<path class="st0" d="M372.87,1024.6c-0.11,0-0.19-0.04-0.25-0.12c-0.06-0.08-0.06-0.17-0.01-0.27l4.56-10.1
			c0.06-0.11,0.14-0.17,0.25-0.17h0.15c0.11,0,0.2,0.06,0.25,0.17l4.53,10.1c0.05,0.1,0.05,0.19-0.01,0.27
			c-0.05,0.08-0.14,0.12-0.25,0.12h-0.6c-0.13,0-0.22-0.05-0.25-0.17l-1.11-2.47h-5.33l-1.09,2.47c-0.04,0.11-0.12,0.17-0.25,0.17
			H372.87z M375.24,1021.03h4.5c-0.25-0.55-0.62-1.37-1.09-2.46c-0.48-1.09-0.85-1.91-1.09-2.46h-0.12L375.24,1021.03z"/>
	</g>
	<g>
		<path class="st0" d="M44.92,55.17v-8.42h-2.29c-0.08,0-0.15-0.03-0.2-0.08s-0.08-0.12-0.08-0.2v-1.23c0-0.08,0.03-0.15,0.08-0.2
			s0.12-0.08,0.2-0.08h6.56c0.08,0,0.15,0.03,0.2,0.08s0.08,0.12,0.08,0.2v1.23c0,0.08-0.03,0.15-0.08,0.2s-0.12,0.08-0.2,0.08
			h-2.29v8.42c0,0.07-0.03,0.13-0.09,0.2c-0.06,0.06-0.12,0.09-0.19,0.09h-1.4c-0.08,0-0.15-0.03-0.2-0.09
			C44.95,55.3,44.92,55.24,44.92,55.17z"/>
		<path class="st0" d="M55.53,55.17v-9.93c0-0.07,0.03-0.14,0.08-0.2c0.05-0.06,0.12-0.09,0.2-0.09h1.4c0.07,0,0.13,0.03,0.2,0.09
			c0.06,0.06,0.09,0.12,0.09,0.2v9.93c0,0.07-0.03,0.13-0.09,0.2c-0.06,0.06-0.13,0.09-0.2,0.09h-1.4c-0.08,0-0.15-0.03-0.2-0.09
			C55.55,55.3,55.53,55.24,55.53,55.17z"/>
		<path class="st0" d="M64.72,55.17v-9.93c0-0.08,0.03-0.15,0.08-0.2c0.06-0.05,0.12-0.08,0.2-0.08h3.52c0.92,0,1.71,0.32,2.37,0.97
			s0.99,1.43,0.99,2.34c0,0.93-0.33,1.72-0.98,2.38s-1.44,0.99-2.36,0.99h-1.88v3.53c0,0.07-0.03,0.13-0.08,0.2
			c-0.05,0.06-0.12,0.09-0.2,0.09h-1.38c-0.08,0-0.15-0.03-0.2-0.08C64.75,55.32,64.72,55.25,64.72,55.17z M66.67,49.81h1.74
			c0.42,0,0.78-0.15,1.09-0.45c0.3-0.3,0.46-0.67,0.46-1.11c0-0.41-0.15-0.75-0.46-1.03s-0.67-0.42-1.09-0.42h-1.74V49.81z"/>
		<path class="st0" d="M78.92,54.04c-1.04-1.04-1.57-2.32-1.57-3.82s0.52-2.78,1.57-3.83c1.04-1.05,2.32-1.58,3.82-1.58
			s2.78,0.53,3.83,1.58c1.05,1.06,1.58,2.33,1.58,3.83s-0.53,2.77-1.58,3.82s-2.33,1.57-3.83,1.57S79.96,55.08,78.92,54.04z
			 M80.31,47.77c-0.68,0.68-1.01,1.5-1.01,2.45s0.34,1.76,1.01,2.43c0.67,0.67,1.48,1,2.42,1c0.95,0,1.76-0.34,2.44-1.01
			c0.67-0.68,1.01-1.48,1.01-2.42c0-0.95-0.34-1.76-1.02-2.45c-0.68-0.68-1.49-1.02-2.43-1.02C81.8,46.75,80.99,47.09,80.31,47.77z"
			/>
		<path class="st0" d="M95.42,54.03c-1.04-1.04-1.57-2.31-1.57-3.81s0.53-2.78,1.58-3.83c1.05-1.05,2.32-1.58,3.81-1.58
			c1.35,0,2.57,0.46,3.66,1.39c0.14,0.15,0.14,0.29,0.01,0.42l-0.93,0.98c-0.12,0.12-0.25,0.12-0.39,0
			c-0.66-0.58-1.42-0.87-2.27-0.87c-0.93,0-1.72,0.34-2.38,1.03c-0.66,0.69-0.98,1.5-0.98,2.45c0,0.94,0.33,1.75,0.98,2.42
			c0.65,0.68,1.45,1.01,2.39,1.01c0.57,0,1.17-0.12,1.79-0.38v-1.27h-1.2c-0.08,0-0.15-0.03-0.2-0.08
			c-0.05-0.05-0.08-0.11-0.08-0.19v-1.18c0-0.19,0.09-0.29,0.29-0.29h2.88c0.07,0,0.13,0.03,0.19,0.08s0.08,0.12,0.08,0.2v3.84
			c0,0.1-0.04,0.18-0.12,0.24c-0.12,0.07-0.29,0.16-0.5,0.27s-0.64,0.25-1.29,0.44c-0.65,0.18-1.3,0.27-1.94,0.27
			C97.74,55.59,96.46,55.07,95.42,54.03z"/>
		<path class="st0" d="M109.78,55.17v-9.93c0-0.08,0.03-0.15,0.08-0.2c0.06-0.05,0.12-0.08,0.2-0.08h4.29c0.9,0,1.67,0.31,2.31,0.94
			s0.96,1.39,0.96,2.28c0,0.68-0.2,1.29-0.61,1.82s-0.94,0.94-1.61,1.21l2.05,3.81c0.06,0.1,0.06,0.2,0.01,0.29
			c-0.05,0.09-0.14,0.14-0.26,0.14h-1.58c-0.11,0-0.19-0.04-0.24-0.13l-2-3.98h-1.67v3.83c0,0.07-0.03,0.13-0.08,0.2
			c-0.05,0.06-0.12,0.09-0.2,0.09h-1.38c-0.08,0-0.15-0.03-0.2-0.08C109.81,55.32,109.78,55.25,109.78,55.17z M111.75,49.74h2.45
			c0.4,0,0.75-0.15,1.04-0.45c0.29-0.3,0.44-0.66,0.44-1.08c0-0.4-0.15-0.74-0.44-1.03s-0.64-0.43-1.04-0.43h-2.45V49.74z"/>
		<path class="st0" d="M123.16,55.45c-0.11,0-0.19-0.04-0.25-0.12c-0.05-0.08-0.06-0.17-0.01-0.27l4.67-10.09
			c0.05-0.11,0.13-0.17,0.25-0.17h0.15c0.12,0,0.21,0.05,0.26,0.17l4.62,10.09c0.05,0.1,0.05,0.19-0.01,0.27
			c-0.06,0.08-0.14,0.12-0.25,0.12h-1.3c-0.19,0-0.33-0.1-0.43-0.3l-0.74-1.62h-4.49l-0.73,1.62c-0.08,0.2-0.23,0.3-0.44,0.3H123.16
			z M126.37,51.87h3.01l-1.5-3.3h-0.04L126.37,51.87z"/>
		<path class="st0" d="M138.72,55.17v-9.93c0-0.08,0.03-0.15,0.08-0.2c0.06-0.05,0.12-0.08,0.2-0.08h6.1c0.08,0,0.15,0.03,0.2,0.08
			c0.05,0.05,0.08,0.12,0.08,0.2v1.23c0,0.08-0.03,0.15-0.08,0.2c-0.06,0.05-0.12,0.08-0.2,0.08h-4.44v2.82h3.71
			c0.08,0,0.15,0.03,0.2,0.09c0.05,0.06,0.08,0.12,0.08,0.2v1.23c0,0.07-0.03,0.13-0.08,0.2c-0.05,0.06-0.12,0.09-0.2,0.09h-3.71
			v3.79c0,0.07-0.03,0.13-0.08,0.2c-0.05,0.06-0.12,0.09-0.2,0.09H139c-0.08,0-0.15-0.03-0.2-0.08
			C138.74,55.32,138.72,55.25,138.72,55.17z"/>
		<path class="st0" d="M151.68,55.17v-9.93c0-0.07,0.03-0.14,0.08-0.2c0.06-0.06,0.12-0.09,0.2-0.09h1.39c0.07,0,0.14,0.03,0.2,0.09
			c0.06,0.06,0.09,0.12,0.09,0.2v9.93c0,0.07-0.03,0.13-0.09,0.2c-0.06,0.06-0.12,0.09-0.2,0.09h-1.39c-0.08,0-0.15-0.03-0.2-0.09
			C151.7,55.3,151.68,55.24,151.68,55.17z"/>
		<path class="st0" d="M159.76,55.45c-0.11,0-0.19-0.04-0.25-0.12c-0.05-0.08-0.06-0.17-0.01-0.27l4.67-10.09
			c0.05-0.11,0.13-0.17,0.25-0.17h0.15c0.12,0,0.21,0.05,0.26,0.17l4.62,10.09c0.05,0.1,0.05,0.19-0.01,0.27
			c-0.06,0.08-0.14,0.12-0.25,0.12h-1.3c-0.19,0-0.33-0.1-0.43-0.3l-0.74-1.62h-4.49l-0.73,1.62c-0.08,0.2-0.23,0.3-0.44,0.3H159.76
			z M162.97,51.87h3.01l-1.5-3.3h-0.04L162.97,51.87z"/>
		<path class="st0" d="M174.77,54.43c-0.14-0.14-0.17-0.29-0.08-0.45l0.54-0.93c0.06-0.1,0.15-0.16,0.25-0.17
			c0.11-0.02,0.2,0.01,0.25,0.07l0.08,0.04c0.05,0.04,0.11,0.08,0.17,0.12c0.06,0.04,0.15,0.09,0.25,0.15
			c0.1,0.06,0.2,0.12,0.3,0.17c0.1,0.05,0.21,0.11,0.34,0.16c0.13,0.06,0.25,0.1,0.38,0.14c0.12,0.04,0.25,0.07,0.38,0.1
			c0.13,0.03,0.25,0.04,0.38,0.04c0.39,0,0.71-0.11,0.97-0.34s0.39-0.5,0.39-0.82c0-0.37-0.16-0.7-0.47-0.98
			c-0.31-0.29-0.79-0.56-1.44-0.82c-0.84-0.34-1.52-0.76-2.04-1.28c-0.52-0.51-0.78-1.17-0.78-1.96c0-0.76,0.29-1.43,0.86-2.01
			s1.41-0.87,2.51-0.87c1.11,0,2.11,0.33,3,1c0.07,0.04,0.12,0.12,0.13,0.23c0.02,0.11,0,0.2-0.04,0.27l-0.57,0.86
			c-0.16,0.24-0.34,0.3-0.53,0.18c-0.88-0.55-1.58-0.83-2.08-0.83c-0.4,0-0.72,0.11-0.96,0.33s-0.36,0.46-0.36,0.72
			c0,0.35,0.14,0.66,0.42,0.92c0.28,0.26,0.73,0.51,1.35,0.76c0.43,0.17,0.8,0.34,1.12,0.52c0.32,0.18,0.64,0.4,0.98,0.66
			c0.33,0.27,0.59,0.59,0.77,0.96c0.18,0.38,0.27,0.79,0.27,1.25c0,0.81-0.32,1.51-0.96,2.09c-0.64,0.59-1.47,0.88-2.49,0.88
			c-0.57,0-1.11-0.08-1.63-0.25c-0.52-0.17-0.88-0.33-1.1-0.47C175.12,54.73,174.94,54.58,174.77,54.43z"/>
		<path class="st0" d="M195.37,57.88V42.54c0-0.08,0.03-0.15,0.08-0.2c0.05-0.05,0.12-0.08,0.2-0.08h0.2c0.08,0,0.14,0.03,0.19,0.08
			c0.05,0.06,0.08,0.12,0.08,0.2v15.35c0,0.07-0.03,0.13-0.08,0.19c-0.06,0.05-0.12,0.08-0.2,0.08h-0.18c-0.08,0-0.15-0.03-0.2-0.08
			C195.4,58.02,195.37,57.95,195.37,57.88z"/>
		<path class="st0" d="M210.95,55.17v-9.93c0-0.08,0.03-0.15,0.08-0.2c0.06-0.05,0.12-0.08,0.2-0.08h3.29
			c0.91,0,1.65,0.26,2.22,0.78c0.57,0.52,0.85,1.18,0.85,1.98c0,0.53-0.14,1-0.43,1.42s-0.63,0.75-1.04,0.98
			c0.49,0.2,0.91,0.5,1.27,0.91c0.35,0.41,0.53,0.92,0.53,1.54c0,0.84-0.3,1.53-0.92,2.08c-0.61,0.54-1.39,0.82-2.35,0.82h-3.42
			c-0.08,0-0.15-0.03-0.2-0.08C210.98,55.32,210.95,55.25,210.95,55.17z M212.05,54.45h2.73c0.54,0,0.99-0.18,1.35-0.55
			c0.36-0.37,0.54-0.82,0.54-1.36c0-0.53-0.21-0.97-0.63-1.32s-0.92-0.53-1.51-0.53h-2.48V54.45z M212.08,49.66h2.45
			c0.56,0,1-0.18,1.32-0.53c0.32-0.36,0.48-0.8,0.48-1.34c0-0.55-0.16-0.99-0.47-1.31c-0.32-0.32-0.76-0.49-1.33-0.49h-2.45V49.66z"
			/>
		<path class="st0" d="M224.83,55.17v-9.93c0-0.08,0.03-0.15,0.08-0.2c0.06-0.05,0.12-0.08,0.2-0.08H229c0.9,0,1.67,0.31,2.31,0.93
			c0.64,0.62,0.96,1.38,0.96,2.26c0,0.68-0.2,1.29-0.61,1.84c-0.4,0.54-0.94,0.95-1.61,1.22l2.06,3.81c0.06,0.1,0.06,0.2,0.01,0.29
			c-0.05,0.09-0.14,0.14-0.26,0.14h-0.76c-0.11,0-0.19-0.04-0.24-0.13l-2-3.98h-2.86v3.83c0,0.07-0.03,0.13-0.08,0.2
			c-0.05,0.06-0.12,0.09-0.2,0.09h-0.58c-0.08,0-0.15-0.03-0.2-0.08C224.86,55.32,224.83,55.25,224.83,55.17z M226.01,50.35h2.91
			c0.58,0,1.08-0.21,1.52-0.64c0.43-0.42,0.64-0.94,0.64-1.55c0-0.57-0.21-1.06-0.64-1.48c-0.43-0.42-0.94-0.63-1.52-0.63h-2.91
			V50.35z"/>
		<path class="st0" d="M238.06,55.45c-0.11,0-0.19-0.04-0.25-0.12c-0.05-0.08-0.06-0.17-0.01-0.27l4.56-10.09
			c0.06-0.11,0.14-0.17,0.25-0.17h0.15c0.11,0,0.19,0.05,0.25,0.17l4.53,10.09c0.05,0.1,0.05,0.19-0.01,0.27
			c-0.06,0.08-0.14,0.12-0.25,0.12h-0.6c-0.13,0-0.21-0.05-0.25-0.17l-1.11-2.47h-5.33l-1.09,2.47c-0.04,0.11-0.12,0.17-0.25,0.17
			H238.06z M240.43,51.88h4.5c-0.25-0.55-0.61-1.37-1.09-2.46c-0.48-1.09-0.84-1.91-1.09-2.46h-0.12L240.43,51.88z"/>
		<path class="st0" d="M253.69,55.17v-10.1c0-0.07,0.03-0.13,0.08-0.19c0.05-0.05,0.12-0.08,0.2-0.08h0.38l6.77,8.43h0.03v-7.99
			c0-0.08,0.03-0.15,0.08-0.2c0.05-0.05,0.12-0.08,0.2-0.08h0.53c0.07,0,0.13,0.03,0.2,0.09c0.06,0.06,0.09,0.12,0.09,0.2v10.09
			c0,0.07-0.03,0.13-0.08,0.19c-0.05,0.06-0.12,0.08-0.2,0.08h-0.27l-6.88-8.59h-0.01v8.16c0,0.08-0.03,0.15-0.08,0.2
			c-0.05,0.06-0.12,0.08-0.2,0.08h-0.53c-0.07,0-0.13-0.03-0.19-0.09C253.72,55.3,253.69,55.24,253.69,55.17z"/>
		<path class="st0" d="M269.8,55.17v-9.93c0-0.08,0.03-0.15,0.08-0.2c0.06-0.05,0.12-0.08,0.19-0.08h3.36
			c1.45,0,2.69,0.51,3.72,1.54c1.03,1.03,1.54,2.26,1.54,3.7c0,1.45-0.51,2.69-1.54,3.72c-1.03,1.03-2.27,1.54-3.72,1.54h-3.36
			c-0.07,0-0.13-0.03-0.19-0.08C269.83,55.32,269.8,55.25,269.8,55.17z M270.94,54.42h2.25c1.23,0,2.25-0.4,3.04-1.19
			c0.8-0.79,1.2-1.81,1.2-3.04s-0.4-2.24-1.2-3.03c-0.8-0.79-1.81-1.19-3.04-1.19h-2.25V54.42z"/>
		<path class="st0" d="M286.31,54.04c-1.04-1.04-1.57-2.32-1.57-3.82s0.52-2.78,1.57-3.83c1.04-1.05,2.32-1.58,3.82-1.58
			s2.77,0.53,3.83,1.58c1.05,1.06,1.57,2.33,1.57,3.83s-0.52,2.77-1.57,3.82c-1.05,1.04-2.33,1.57-3.83,1.57
			S287.35,55.08,286.31,54.04z M287.06,47.14c-0.85,0.86-1.27,1.88-1.27,3.08s0.42,2.21,1.27,3.06c0.85,0.85,1.87,1.28,3.06,1.28
			c1.19,0,2.21-0.42,3.07-1.28c0.85-0.85,1.28-1.87,1.28-3.06s-0.43-2.21-1.28-3.08c-0.86-0.86-1.88-1.29-3.07-1.29
			C288.93,45.85,287.91,46.28,287.06,47.14z"/>
		<path class="st0" d="M302.32,55.17v-10.1c0-0.07,0.03-0.13,0.08-0.19c0.05-0.05,0.12-0.08,0.2-0.08h0.38l6.77,8.43h0.03v-7.99
			c0-0.08,0.03-0.15,0.08-0.2c0.05-0.05,0.12-0.08,0.2-0.08h0.53c0.07,0,0.13,0.03,0.2,0.09c0.06,0.06,0.09,0.12,0.09,0.2v10.09
			c0,0.07-0.03,0.13-0.08,0.19c-0.05,0.06-0.12,0.08-0.2,0.08h-0.27l-6.88-8.59h-0.01v8.16c0,0.08-0.03,0.15-0.08,0.2
			c-0.05,0.06-0.12,0.08-0.2,0.08h-0.53c-0.07,0-0.13-0.03-0.19-0.09C302.35,55.3,302.32,55.24,302.32,55.17z"/>
		<path class="st0" d="M327.08,54.04c-1.06-1.04-1.58-2.32-1.58-3.82s0.53-2.78,1.58-3.83c1.05-1.05,2.33-1.58,3.83-1.58
			c1.33,0,2.54,0.46,3.63,1.39c0.14,0.15,0.15,0.29,0.02,0.42l-0.42,0.42c-0.11,0.12-0.24,0.12-0.39-0.01
			c-0.4-0.35-0.85-0.63-1.36-0.85s-1-0.32-1.49-0.32c-1.17,0-2.16,0.42-2.96,1.27s-1.21,1.86-1.21,3.04c0,1.17,0.4,2.18,1.21,3.04
			c0.8,0.86,1.79,1.29,2.96,1.29c0.49,0,0.96-0.05,1.41-0.16c0.45-0.1,0.77-0.21,0.97-0.32l0.32-0.15v-2.1h-1.73
			c-0.08,0-0.15-0.02-0.2-0.08c-0.06-0.05-0.08-0.12-0.08-0.2v-0.55c0-0.19,0.09-0.29,0.29-0.29h2.59c0.07,0,0.13,0.03,0.19,0.08
			c0.06,0.05,0.08,0.12,0.08,0.2v3.44c0,0.1-0.04,0.18-0.12,0.24c-0.11,0.07-0.27,0.16-0.48,0.27c-0.21,0.11-0.64,0.26-1.29,0.44
			c-0.65,0.18-1.3,0.28-1.94,0.28C329.41,55.6,328.13,55.08,327.08,54.04z"/>
		<path class="st0" d="M341.74,55.17v-9.93c0-0.08,0.03-0.15,0.08-0.2c0.06-0.05,0.12-0.08,0.2-0.08h3.88c0.9,0,1.67,0.31,2.31,0.93
			c0.64,0.62,0.96,1.38,0.96,2.26c0,0.68-0.2,1.29-0.61,1.84c-0.4,0.54-0.94,0.95-1.61,1.22l2.06,3.81c0.06,0.1,0.06,0.2,0.01,0.29
			c-0.05,0.09-0.14,0.14-0.26,0.14h-0.76c-0.11,0-0.19-0.04-0.24-0.13l-2-3.98h-2.86v3.83c0,0.07-0.03,0.13-0.08,0.2
			c-0.05,0.06-0.12,0.09-0.2,0.09h-0.58c-0.08,0-0.15-0.03-0.2-0.08C341.77,55.32,341.74,55.25,341.74,55.17z M342.92,50.35h2.91
			c0.58,0,1.08-0.21,1.52-0.64c0.43-0.42,0.64-0.94,0.64-1.55c0-0.57-0.21-1.06-0.64-1.48c-0.43-0.42-0.94-0.63-1.52-0.63h-2.91
			V50.35z"/>
		<path class="st0" d="M356.96,54.04c-1.04-1.04-1.57-2.32-1.57-3.82s0.52-2.78,1.57-3.83c1.04-1.05,2.32-1.58,3.82-1.58
			s2.77,0.53,3.83,1.58c1.05,1.06,1.57,2.33,1.57,3.83s-0.52,2.77-1.57,3.82c-1.05,1.04-2.33,1.57-3.83,1.57S358,55.08,356.96,54.04
			z M357.71,47.14c-0.85,0.86-1.27,1.88-1.27,3.08s0.42,2.21,1.27,3.06c0.85,0.85,1.87,1.28,3.06,1.28c1.19,0,2.21-0.42,3.07-1.28
			c0.85-0.85,1.28-1.87,1.28-3.06s-0.43-2.21-1.28-3.08c-0.86-0.86-1.88-1.29-3.07-1.29C359.58,45.85,358.56,46.28,357.71,47.14z"/>
		<path class="st0" d="M374.27,55.17v-9.21h-2.61c-0.08,0-0.15-0.03-0.2-0.08s-0.08-0.12-0.08-0.2v-0.43c0-0.08,0.03-0.15,0.08-0.2
			s0.12-0.08,0.2-0.08h6.36c0.08,0,0.15,0.03,0.2,0.08c0.06,0.05,0.08,0.12,0.08,0.2v0.43c0,0.08-0.03,0.15-0.08,0.2
			c-0.05,0.05-0.12,0.08-0.2,0.08h-2.61v9.21c0,0.07-0.03,0.13-0.08,0.2c-0.05,0.06-0.12,0.09-0.2,0.09h-0.57
			c-0.08,0-0.15-0.03-0.2-0.09C374.3,55.3,374.27,55.24,374.27,55.17z"/>
		<path class="st0" d="M384.46,55.17v-9.93c0-0.08,0.03-0.15,0.08-0.2s0.12-0.08,0.2-0.08h5.91c0.08,0,0.15,0.03,0.2,0.08
			c0.05,0.05,0.08,0.12,0.08,0.2v0.43c0,0.08-0.03,0.15-0.08,0.2c-0.06,0.05-0.12,0.08-0.2,0.08h-5.04v3.66h4.31
			c0.08,0,0.15,0.03,0.2,0.08c0.05,0.06,0.08,0.12,0.08,0.2v0.44c0,0.08-0.03,0.15-0.08,0.2c-0.06,0.06-0.12,0.08-0.2,0.08h-4.31
			v3.82h5.04c0.08,0,0.15,0.03,0.2,0.08c0.05,0.06,0.08,0.12,0.08,0.2v0.44c0,0.08-0.03,0.15-0.08,0.2
			c-0.06,0.06-0.12,0.08-0.2,0.08h-5.91c-0.08,0-0.15-0.03-0.2-0.08C384.49,55.32,384.46,55.25,384.46,55.17z"/>
		<path class="st0" d="M397.25,54.39c-0.18-0.15-0.21-0.32-0.09-0.51c0.03-0.03,0.07-0.08,0.12-0.14s0.08-0.11,0.11-0.14
			c0.18-0.24,0.35-0.29,0.52-0.14c0.89,0.76,1.74,1.14,2.54,1.14c0.59,0,1.07-0.16,1.45-0.48c0.38-0.32,0.56-0.71,0.56-1.17
			c0-0.49-0.21-0.91-0.62-1.27c-0.42-0.35-1.08-0.72-2-1.1c-0.92-0.4-1.59-0.82-2.01-1.25s-0.63-1.05-0.63-1.85
			c0-0.28,0.06-0.56,0.17-0.86c0.11-0.29,0.29-0.57,0.52-0.85c0.24-0.28,0.57-0.51,1-0.69c0.44-0.18,0.93-0.27,1.49-0.27
			c0.44,0,0.87,0.06,1.3,0.2c0.42,0.13,0.74,0.25,0.95,0.38l0.31,0.2c0.07,0.03,0.12,0.08,0.15,0.16s0.01,0.2-0.06,0.35
			c-0.02,0.03-0.05,0.08-0.09,0.14c-0.04,0.06-0.07,0.11-0.09,0.14c-0.14,0.21-0.31,0.25-0.53,0.13c-0.81-0.46-1.46-0.69-1.96-0.69
			c-0.71,0-1.23,0.17-1.57,0.52c-0.33,0.35-0.5,0.73-0.5,1.12c0,0.48,0.17,0.88,0.5,1.21s0.84,0.63,1.52,0.91
			c1.15,0.47,1.99,0.94,2.53,1.41c0.54,0.47,0.8,1.11,0.8,1.92c0,0.77-0.32,1.41-0.95,1.93c-0.64,0.52-1.4,0.77-2.29,0.77
			c-0.53,0-1.05-0.1-1.57-0.29c-0.51-0.2-0.88-0.37-1.08-0.51C397.57,54.66,397.39,54.52,397.25,54.39z"/>
		<path class="st0" d="M411.14,54.04c-1.04-1.04-1.57-2.32-1.57-3.82s0.52-2.78,1.57-3.83c1.04-1.05,2.32-1.58,3.82-1.58
			s2.77,0.53,3.83,1.58c1.05,1.06,1.57,2.33,1.57,3.83c0,1.09-0.29,2.08-0.88,2.96s-1.36,1.54-2.32,1.97l1.75,2.82
			c0.07,0.1,0.08,0.2,0.02,0.3s-0.14,0.15-0.26,0.15h-0.75c-0.1,0-0.18-0.05-0.24-0.15l-1.63-2.76c-0.33,0.06-0.7,0.09-1.09,0.09
			C413.45,55.6,412.18,55.08,411.14,54.04z M411.89,47.14c-0.85,0.86-1.27,1.88-1.27,3.08s0.42,2.21,1.27,3.06
			c0.85,0.85,1.87,1.28,3.06,1.28c1.19,0,2.21-0.42,3.07-1.28c0.85-0.85,1.28-1.87,1.28-3.06s-0.43-2.21-1.28-3.08
			c-0.86-0.86-1.88-1.29-3.07-1.29C413.76,45.85,412.74,46.28,411.89,47.14z"/>
		<path class="st0" d="M427.03,51.58v-6.34c0-0.07,0.03-0.14,0.08-0.2c0.05-0.06,0.12-0.09,0.2-0.09h0.57c0.08,0,0.15,0.03,0.2,0.08
			c0.05,0.05,0.08,0.12,0.08,0.2v6.25c0,0.88,0.25,1.61,0.76,2.18c0.51,0.57,1.2,0.86,2.06,0.86c0.87,0,1.56-0.29,2.08-0.85
			s0.77-1.29,0.77-2.16v-6.28c0-0.08,0.03-0.15,0.08-0.2c0.05-0.05,0.12-0.08,0.2-0.08h0.57c0.08,0,0.15,0.03,0.2,0.09
			c0.05,0.06,0.08,0.12,0.08,0.2v6.34c0,1.15-0.37,2.11-1.12,2.87s-1.7,1.15-2.87,1.15c-1.16,0-2.11-0.38-2.85-1.15
			S427.03,52.73,427.03,51.58z"/>
		<path class="st0" d="M442.4,55.17v-9.93c0-0.08,0.03-0.15,0.08-0.2s0.12-0.08,0.2-0.08h5.91c0.08,0,0.15,0.03,0.2,0.08
			c0.05,0.05,0.08,0.12,0.08,0.2v0.43c0,0.08-0.03,0.15-0.08,0.2c-0.06,0.05-0.12,0.08-0.2,0.08h-5.04v3.66h4.31
			c0.08,0,0.15,0.03,0.2,0.08c0.05,0.06,0.08,0.12,0.08,0.2v0.44c0,0.08-0.03,0.15-0.08,0.2c-0.06,0.06-0.12,0.08-0.2,0.08h-4.31
			v3.82h5.04c0.08,0,0.15,0.03,0.2,0.08c0.05,0.06,0.08,0.12,0.08,0.2v0.44c0,0.08-0.03,0.15-0.08,0.2
			c-0.06,0.06-0.12,0.08-0.2,0.08h-5.91c-0.08,0-0.15-0.03-0.2-0.08C442.43,55.32,442.4,55.25,442.4,55.17z"/>
	</g>
	<g>
		<path d="M393.15,374.28c-0.73,0-1.28-0.27-1.65-0.8c-0.37-0.53-0.38-1.13-0.05-1.8l30.4-67.3c0.4-0.73,0.97-1.1,1.7-1.1h1
			c0.73,0,1.3,0.37,1.7,1.1l30.2,67.3c0.33,0.67,0.32,1.27-0.05,1.8c-0.37,0.53-0.92,0.8-1.65,0.8h-4c-0.87,0-1.43-0.37-1.7-1.1
			l-7.4-16.5h-35.5l-7.3,16.5c-0.27,0.73-0.83,1.1-1.7,1.1H393.15z M408.95,350.48h30c-1.67-3.67-4.1-9.13-7.3-16.4
			c-3.2-7.27-5.63-12.73-7.3-16.4h-0.8L408.95,350.48z"/>
		<path d="M464.85,371.68c-2.33-2.4-3.5-5.57-3.5-9.5s1.42-7.13,4.25-9.6c2.83-2.47,6.75-3.7,11.75-3.7c1.27,0,2.62,0.1,4.05,0.3
			c1.43,0.2,2.55,0.43,3.35,0.7l1.1,0.3c0.07-4-0.32-6.8-1.15-8.4c-0.83-1.6-2.62-2.4-5.35-2.4c-4.2,0-8.2,0.73-12,2.2
			c-0.93,0.4-1.57,0.07-1.9-1l-0.8-2.5c-0.33-1,0.03-1.73,1.1-2.2c0.4-0.2,1.12-0.46,2.15-0.8c1.03-0.33,2.68-0.72,4.95-1.15
			c2.27-0.43,4.53-0.65,6.8-0.65c4.93,0,8.28,1.28,10.05,3.85c1.77,2.57,2.65,6.92,2.65,13.05v22.2c0,0.47-0.2,0.9-0.6,1.3
			c-0.4,0.4-0.83,0.6-1.3,0.6h-1.9c-0.8,0-1.37-0.5-1.7-1.5l-0.8-2.7c-3.47,3.47-7.6,5.2-12.4,5.2
			C470.12,375.28,467.18,374.08,464.85,371.68z M467.75,362.18c0,2.07,0.63,3.77,1.9,5.1c1.27,1.33,2.97,2,5.1,2
			c2.33,0,4.5-0.58,6.5-1.75c2-1.17,3.5-2.45,4.5-3.85v-7.9c-1.8-1.07-4.6-1.6-8.4-1.6c-2.87,0-5.18,0.7-6.95,2.1
			C468.63,357.68,467.75,359.64,467.75,362.18z"/>
		<path d="M531.55,372.38v-66.2c0-0.53,0.18-0.98,0.55-1.35c0.37-0.37,0.82-0.55,1.35-0.55h21.9c6.07,0,11,1.73,14.8,5.2
			c3.8,3.47,5.7,7.87,5.7,13.2c0,3.53-0.97,6.7-2.9,9.5c-1.93,2.8-4.23,4.97-6.9,6.5c3.27,1.33,6.08,3.35,8.45,6.05
			c2.37,2.7,3.55,6.12,3.55,10.25c0,5.6-2.03,10.22-6.1,13.85c-4.07,3.63-9.3,5.45-15.7,5.45h-22.8c-0.53,0-0.98-0.18-1.35-0.55
			C531.73,373.36,531.55,372.91,531.55,372.38z M538.85,367.58h18.2c3.6,0,6.6-1.22,9-3.65c2.4-2.43,3.6-5.45,3.6-9.05
			c0-3.53-1.4-6.46-4.2-8.8c-2.8-2.33-6.17-3.5-10.1-3.5h-16.5V367.58z M539.05,335.68h16.3c3.73,0,6.67-1.18,8.8-3.55
			c2.13-2.37,3.2-5.35,3.2-8.95c0-3.67-1.05-6.58-3.15-8.75c-2.1-2.17-5.05-3.25-8.85-3.25h-16.3V335.68z"/>
		<path d="M589.75,372.38v-66.2c0-0.47,0.2-0.9,0.6-1.3c0.4-0.4,0.83-0.6,1.3-0.6h3.1c0.53,0,0.98,0.2,1.35,0.6
			c0.37,0.4,0.55,0.83,0.55,1.3v29.7c2.73-1.73,6.3-2.6,10.7-2.6c5.87,0,10.53,1.98,14,5.95c3.47,3.97,5.2,8.95,5.2,14.95
			c0,5.8-1.77,10.77-5.3,14.9c-3.53,4.13-7.83,6.2-12.9,6.2c-2.2,0-4.33-0.43-6.4-1.3c-2.07-0.87-3.57-1.77-4.5-2.7l-1.4-1.3
			l-0.6,2.7c-0.27,1.07-0.83,1.6-1.7,1.6h-2.1c-0.47,0-0.9-0.2-1.3-0.6C589.95,373.28,589.75,372.84,589.75,372.38z M596.75,362.38
			c0.27,0.47,0.67,1.07,1.2,1.8c0.53,0.73,1.75,1.72,3.65,2.95c1.9,1.23,3.92,1.85,6.05,1.85c3.53,0,6.4-1.43,8.6-4.3
			c2.2-2.87,3.3-6.33,3.3-10.4c0-4.2-1.13-7.63-3.4-10.3c-2.27-2.67-5.5-4-9.7-4c-1.6,0-3.22,0.2-4.85,0.6
			c-1.63,0.4-2.85,0.8-3.65,1.2l-1.2,0.6V362.38z"/>
		<path d="M668.6,364.83c-7.04-6.97-10.55-15.45-10.55-25.45s3.52-18.52,10.55-25.55c7.03-7.03,15.55-10.55,25.55-10.55
			c8.87,0,16.93,3.1,24.2,9.3c0.93,1,0.96,1.93,0.1,2.8l-2.7,2.7c-0.73,0.93-1.6,0.9-2.6-0.1c-5.8-5-12.17-7.5-19.1-7.5
			c-7.8,0-14.4,2.83-19.8,8.5c-5.4,5.67-8.1,12.43-8.1,20.3c0,7.8,2.7,14.53,8.1,20.2c5.4,5.67,12,8.5,19.8,8.5
			c2.73,0,5.32-0.38,7.75-1.15c2.43-0.77,4.38-1.6,5.85-2.5c1.47-0.9,3.3-2.18,5.5-3.85c0.87-0.67,1.67-0.77,2.4-0.3l3,2.7
			c0.4,0.33,0.58,0.77,0.55,1.3c-0.04,0.53-0.25,1-0.65,1.4c-6.67,6.47-14.77,9.7-24.3,9.7
			C684.15,375.28,675.63,371.79,668.6,364.83z"/>
		<path d="M726.65,354.38c0-5.8,2.05-10.77,6.15-14.9c4.1-4.13,8.92-6.2,14.45-6.2c5.87,0,10.63,2.33,14.3,7
			c0.8,1.07,0.67,2-0.4,2.8l-1.9,1.6c-0.27,0.27-0.52,0.47-0.75,0.6c-0.23,0.13-0.47,0.17-0.7,0.1c-0.23-0.07-0.38-0.12-0.45-0.15
			c-0.07-0.03-0.23-0.18-0.5-0.45c-0.27-0.27-0.43-0.43-0.5-0.5c-2.47-2.8-5.53-4.2-9.2-4.2c-3.73,0-6.88,1.37-9.45,4.1
			c-2.57,2.73-3.85,6.1-3.85,10.1s1.27,7.4,3.8,10.2c2.53,2.8,5.67,4.2,9.4,4.2c0.8,0,1.57-0.05,2.3-0.15
			c0.73-0.1,1.42-0.28,2.05-0.55c0.63-0.27,1.17-0.48,1.6-0.65c0.43-0.17,0.92-0.47,1.45-0.9c0.53-0.43,0.9-0.73,1.1-0.9
			c0.2-0.17,0.57-0.52,1.1-1.05c0.53-0.53,0.87-0.87,1-1c0.93-0.93,1.93-1,3-0.2l1.1,0.8c1.13,0.8,1.37,1.73,0.7,2.8
			c-1.6,2.54-3.73,4.57-6.4,6.1c-2.67,1.53-5.63,2.3-8.9,2.3c-5.6,0-10.42-2-14.45-6C728.66,365.28,726.65,360.31,726.65,354.38z"/>
		<path d="M799.05,372.38v-66.2c0-0.53,0.18-0.98,0.55-1.35c0.37-0.37,0.78-0.55,1.25-0.55h22.4c9.67,0,17.93,3.42,24.8,10.25
			c6.87,6.83,10.3,15.05,10.3,24.65c0,9.67-3.43,17.93-10.3,24.8c-6.87,6.87-15.13,10.3-24.8,10.3h-22.4
			c-0.47,0-0.88-0.18-1.25-0.55C799.23,373.36,799.05,372.91,799.05,372.38z M806.65,367.38h15c8.2,0,14.97-2.65,20.3-7.95
			c5.33-5.3,8-12.05,8-20.25c0-8.2-2.67-14.93-8-20.2c-5.33-5.27-12.1-7.9-20.3-7.9h-15V367.38z"/>
		<path d="M866.65,354.18c0-6,1.73-10.98,5.2-14.95c3.46-3.97,8.13-5.95,14-5.95c1.93,0,3.8,0.22,5.6,0.65s3.1,0.88,3.9,1.35
			l1.2,0.6v-29.7c0-0.47,0.18-0.9,0.55-1.3c0.37-0.4,0.82-0.6,1.35-0.6h3.1c0.47,0,0.9,0.2,1.3,0.6c0.4,0.4,0.6,0.83,0.6,1.3v66.2
			c0,0.47-0.2,0.9-0.6,1.3c-0.4,0.4-0.83,0.6-1.3,0.6h-2.1c-0.87,0-1.43-0.53-1.7-1.6l-0.6-2.7c-0.13,0.13-0.32,0.32-0.55,0.55
			c-0.23,0.23-0.77,0.67-1.6,1.3c-0.83,0.63-1.7,1.18-2.6,1.65c-0.9,0.47-2.03,0.88-3.4,1.25c-1.37,0.37-2.75,0.55-4.15,0.55
			c-5.07,0-9.37-2.07-12.9-6.2C868.41,364.94,866.65,359.98,866.65,354.18z M873.65,354.28c0,4.07,1.1,7.53,3.3,10.4
			c2.2,2.87,5.07,4.3,8.6,4.3c1.33,0,2.62-0.23,3.85-0.7c1.23-0.47,2.27-1.02,3.1-1.65c0.83-0.63,1.57-1.27,2.2-1.9
			c0.63-0.63,1.08-1.18,1.35-1.65l0.4-0.7v-20c-2.8-1.6-6.03-2.4-9.7-2.4c-4.2,0-7.43,1.33-9.7,4
			C874.78,346.64,873.65,350.08,873.65,354.28z"/>
		<path d="M943.04,372.38v-66.2c0-0.53,0.18-0.98,0.55-1.35c0.37-0.37,0.82-0.55,1.35-0.55h39.4c0.53,0,0.98,0.18,1.35,0.55
			c0.37,0.37,0.55,0.82,0.55,1.35v2.9c0,0.53-0.18,0.98-0.55,1.35c-0.37,0.37-0.82,0.55-1.35,0.55h-33.6v24.4h28.7
			c0.53,0,0.98,0.18,1.35,0.55c0.37,0.37,0.55,0.82,0.55,1.35v2.9c0,0.53-0.18,0.98-0.55,1.35c-0.37,0.37-0.82,0.55-1.35,0.55h-28.7
			v25.5h33.6c0.53,0,0.98,0.18,1.35,0.55c0.37,0.37,0.55,0.82,0.55,1.35v2.9c0,0.54-0.18,0.98-0.55,1.35
			c-0.37,0.37-0.82,0.55-1.35,0.55h-39.4c-0.53,0-0.98-0.18-1.35-0.55C943.23,373.36,943.04,372.91,943.04,372.38z"/>
		<path d="M994.44,354.28c0-5.87,1.8-10.83,5.4-14.9c3.6-4.07,8.33-6.1,14.2-6.1c5.27,0,9.6,1.73,13,5.2c3.4,3.47,5.1,7.83,5.1,13.1
			c0,0.87-0.07,1.77-0.2,2.7c-0.13,1.13-0.73,1.7-1.8,1.7h-28.8c0.2,3.4,1.62,6.42,4.25,9.05c2.63,2.63,5.68,3.95,9.15,3.95
			c3.33,0,6.63-1,9.9-3c0.87-0.47,1.4-0.73,1.6-0.8s0.6,0.13,1.2,0.6c0.2,0.27,0.48,0.65,0.85,1.15c0.37,0.5,0.65,0.88,0.85,1.15
			c0.4,0.53,0.6,0.97,0.6,1.3c0,0.33-0.33,0.77-1,1.3c-3.87,3.07-8.77,4.6-14.7,4.6c-5.87,0-10.6-2.02-14.2-6.05
			C996.24,365.19,994.44,360.21,994.44,354.28z M1001.44,350.38h23.8c-0.13-2.93-1.28-5.5-3.45-7.7c-2.17-2.2-4.75-3.3-7.75-3.3
			c-3.33,0-6.18,1.05-8.55,3.15C1003.13,344.63,1001.78,347.24,1001.44,350.38z"/>
		<path d="M1068.34,372.38v-66.2c0-0.53,0.18-0.98,0.55-1.35c0.37-0.37,0.82-0.55,1.35-0.55h39.4c0.53,0,0.98,0.18,1.35,0.55
			c0.37,0.37,0.55,0.82,0.55,1.35v2.9c0,0.53-0.18,0.98-0.55,1.35c-0.37,0.37-0.82,0.55-1.35,0.55h-33.6v27.4h28.7
			c0.53,0,0.98,0.18,1.35,0.55c0.37,0.37,0.55,0.82,0.55,1.35v2.9c0,0.47-0.18,0.9-0.55,1.3c-0.37,0.4-0.82,0.6-1.35,0.6h-28.7v27.3
			c0,0.47-0.18,0.9-0.55,1.3c-0.37,0.4-0.82,0.6-1.35,0.6h-3.9c-0.53,0-0.98-0.18-1.35-0.55
			C1068.52,373.36,1068.34,372.91,1068.34,372.38z"/>
		<path d="M1122.94,372.38v-32.1h-6.1c-0.53,0-0.98-0.18-1.35-0.55c-0.37-0.37-0.55-0.82-0.55-1.35v-2.2c0-1.27,0.63-1.9,1.9-1.9
			h6.1v-14c0-5.53,1.42-9.75,4.25-12.65c2.83-2.9,6.52-4.35,11.05-4.35c4.47,0,8.13,1.37,11,4.1c0.8,0.67,0.93,1.43,0.4,2.3
			l-1.6,2.6c-0.6,1-1.47,1.03-2.6,0.1c-2.53-1.93-4.97-2.9-7.3-2.9c-2.47,0-4.47,0.88-6,2.65c-1.53,1.77-2.3,4.48-2.3,8.15v14h11.6
			c1.27,0,1.9,0.63,1.9,1.9v2.2c0,0.54-0.18,0.98-0.55,1.35c-0.37,0.37-0.82,0.55-1.35,0.55h-11.6v32.1c0,0.47-0.2,0.9-0.6,1.3
			c-0.4,0.4-0.83,0.6-1.3,0.6h-3.1c-0.53,0-0.98-0.2-1.35-0.6C1123.12,373.28,1122.94,372.84,1122.94,372.38z"/>
		<path d="M1182.49,364.83c-7.04-6.97-10.55-15.45-10.55-25.45s3.52-18.52,10.55-25.55c7.03-7.03,15.55-10.55,25.55-10.55
			c8.87,0,16.93,3.1,24.2,9.3c0.93,1,0.96,1.93,0.1,2.8l-2.8,2.8c-0.73,0.8-1.6,0.77-2.6-0.1c-2.67-2.33-5.68-4.22-9.05-5.65
			c-3.37-1.43-6.68-2.15-9.95-2.15c-7.8,0-14.38,2.82-19.75,8.45c-5.37,5.63-8.05,12.38-8.05,20.25c0,7.8,2.68,14.57,8.05,20.3
			c5.37,5.73,11.95,8.6,19.75,8.6c3.27,0,6.4-0.35,9.4-1.05s5.17-1.42,6.5-2.15l2.1-1v-14h-11.5c-0.53,0-0.98-0.17-1.35-0.5
			c-0.37-0.33-0.55-0.77-0.55-1.3v-3.7c0-1.27,0.63-1.9,1.9-1.9h17.3c0.46,0,0.88,0.18,1.25,0.55c0.37,0.37,0.55,0.82,0.55,1.35
			v22.9c0,0.67-0.27,1.2-0.8,1.6c-0.73,0.47-1.8,1.07-3.2,1.8c-1.4,0.73-4.27,1.72-8.6,2.95c-4.33,1.23-8.63,1.85-12.9,1.85
			C1198.04,375.28,1189.52,371.79,1182.49,364.83z"/>
		<path d="M1242.24,372.38c0-2.27,0.55-4.35,1.65-6.25c1.1-1.9,2.22-3.25,3.35-4.05l1.7-1.2c-2.13-2.73-3.2-6.07-3.2-10
			c0-4.87,1.55-9.02,4.65-12.45s7.18-5.15,12.25-5.15h16.9c1.27,0,1.9,0.63,1.9,1.9v1.7c0,1-0.37,1.57-1.1,1.7l-5.4,1.1
			c0.33,0.27,0.75,0.65,1.25,1.15s1.17,1.72,2,3.65c0.83,1.93,1.25,4.07,1.25,6.4c0,4.73-1.55,8.75-4.65,12.05
			c-3.1,3.3-7.15,4.95-12.15,4.95c-1.87,0-3.6-0.2-5.2-0.6c-1.6-0.4-2.7-0.8-3.3-1.2l-1-0.7c-0.33,0.13-0.75,0.35-1.25,0.65
			s-1.15,0.97-1.95,2c-0.8,1.03-1.2,2.15-1.2,3.35c0,1.33,0.48,2.48,1.45,3.45c0.97,0.97,2.32,1.45,4.05,1.45h14.4
			c4.4,0,8,1.08,10.8,3.25c2.8,2.17,4.2,5.35,4.2,9.55c0,4.27-1.98,8.03-5.95,11.3c-3.97,3.27-8.88,4.9-14.75,4.9
			c-6.27,0-11.03-1.38-14.3-4.15c-3.27-2.77-4.9-5.98-4.9-9.65c0-3.87,1.93-6.97,5.8-9.3v-0.3c-1.8-0.47-3.47-1.48-5-3.05
			C1243,377.26,1242.24,375.11,1242.24,372.38z M1250.84,390.48c0,2.4,1.15,4.38,3.45,5.95c2.3,1.57,5.15,2.35,8.55,2.35
			c3.47,0,6.57-0.88,9.3-2.65c2.73-1.77,4.1-4.05,4.1-6.85c0-0.73-0.12-1.52-0.35-2.35c-0.23-0.83-0.97-1.73-2.2-2.7
			c-1.23-0.97-2.92-1.45-5.05-1.45h-11.1c-0.54,0.13-1.17,0.35-1.9,0.65c-0.73,0.3-1.72,1.12-2.95,2.45
			C1251.45,387.21,1250.84,388.74,1250.84,390.48z M1262.74,361.88c3,0,5.42-1.03,7.25-3.1c1.83-2.07,2.75-4.77,2.75-8.1
			c0-3.33-0.92-6.03-2.75-8.1c-1.83-2.07-4.25-3.1-7.25-3.1c-3.07,0-5.58,1.05-7.55,3.15c-1.97,2.1-2.95,4.79-2.95,8.05
			c0,3.27,0.98,5.95,2.95,8.05C1257.15,360.83,1259.67,361.88,1262.74,361.88z"/>
		<path d="M1317.44,372.38v-66.2c0-0.47,0.2-0.9,0.6-1.3c0.4-0.4,0.83-0.6,1.3-0.6h3.9c0.53,0,0.98,0.18,1.35,0.55
			c0.37,0.37,0.55,0.82,0.55,1.35v29.2h40.6v-29.2c0-0.53,0.18-0.98,0.55-1.35c0.37-0.37,0.82-0.55,1.35-0.55h3.9
			c0.47,0,0.9,0.2,1.3,0.6c0.4,0.4,0.6,0.83,0.6,1.3v66.2c0,0.47-0.2,0.9-0.6,1.3c-0.4,0.4-0.83,0.6-1.3,0.6h-3.9
			c-0.54,0-0.98-0.18-1.35-0.55c-0.37-0.37-0.55-0.82-0.55-1.35v-30.3h-40.6v30.3c0,0.54-0.18,0.98-0.55,1.35
			c-0.37,0.37-0.82,0.55-1.35,0.55h-3.9c-0.47,0-0.9-0.2-1.3-0.6C1317.64,373.28,1317.44,372.84,1317.44,372.38z"/>
		<path d="M1389.44,372.38v-66.2c0-0.47,0.2-0.9,0.6-1.3c0.4-0.4,0.83-0.6,1.3-0.6h3.1c0.53,0,0.98,0.2,1.35,0.6
			c0.37,0.4,0.55,0.83,0.55,1.3v32.4c0.4-0.4,0.97-0.9,1.7-1.5c0.73-0.6,2.27-1.38,4.6-2.35c2.33-0.97,4.7-1.45,7.1-1.45
			c5,0,8.83,1.55,11.5,4.65c2.67,3.1,4,7.55,4,13.35v21.1c0,0.47-0.2,0.9-0.6,1.3c-0.4,0.4-0.83,0.6-1.3,0.6h-3.2
			c-0.47,0-0.9-0.2-1.3-0.6c-0.4-0.4-0.6-0.83-0.6-1.3v-21.1c0-3.73-0.78-6.55-2.35-8.45c-1.57-1.9-3.79-2.85-6.65-2.85
			c-2.27,0-4.47,0.47-6.6,1.4c-2.13,0.93-3.73,1.87-4.8,2.8l-1.5,1.4v26.8c0,0.47-0.18,0.9-0.55,1.3c-0.37,0.4-0.82,0.6-1.35,0.6
			h-3.1c-0.47,0-0.9-0.2-1.3-0.6C1389.64,373.28,1389.44,372.84,1389.44,372.38z"/>
		<path d="M1464.23,372.38v-66.2c0-0.47,0.2-0.9,0.6-1.3c0.4-0.4,0.83-0.6,1.3-0.6h4c0.47,0,0.9,0.2,1.3,0.6
			c0.4,0.4,0.6,0.83,0.6,1.3v66.2c0,0.47-0.2,0.9-0.6,1.3c-0.4,0.4-0.83,0.6-1.3,0.6h-4c-0.47,0-0.9-0.2-1.3-0.6
			C1464.43,373.28,1464.23,372.84,1464.23,372.38z"/>
		<path d="M1494.63,314.43c-0.93,0.9-2.07,1.35-3.4,1.35c-1.33,0-2.45-0.45-3.35-1.35c-0.9-0.9-1.35-2.02-1.35-3.35
			c0-1.33,0.45-2.47,1.35-3.4c0.9-0.93,2.02-1.4,3.35-1.4c1.33,0,2.46,0.47,3.4,1.4c0.93,0.93,1.4,2.07,1.4,3.4
			C1496.03,312.41,1495.57,313.53,1494.63,314.43z M1487.93,372.38v-36.2c0-0.47,0.18-0.9,0.55-1.3c0.37-0.4,0.82-0.6,1.35-0.6h3.1
			c0.47,0,0.9,0.2,1.3,0.6c0.4,0.4,0.6,0.83,0.6,1.3v36.2c0,0.47-0.2,0.9-0.6,1.3c-0.4,0.4-0.83,0.6-1.3,0.6h-3.1
			c-0.53,0-0.98-0.2-1.35-0.6C1488.12,373.28,1487.93,372.84,1487.93,372.38z"/>
		<path d="M388.85,487.88c-0.53-0.87-0.47-1.7,0.2-2.5l2.1-2.4c1.13-1.07,2.27-0.97,3.4,0.3c3.13,3.53,6.37,5.3,9.7,5.3
			c3.33,0,6.2-1.27,8.6-3.8c2.4-2.53,3.6-6.27,3.6-11.2v-47.4c0-0.53,0.18-0.98,0.55-1.35c0.37-0.37,0.82-0.55,1.35-0.55h3.9
			c0.53,0,0.98,0.18,1.35,0.55c0.37,0.37,0.55,0.82,0.55,1.35v47.2c0,6.8-1.85,12.15-5.55,16.05c-3.7,3.9-8.55,5.85-14.55,5.85
			C397.92,495.28,392.85,492.81,388.85,487.88z"/>
		<path d="M438.55,508.28v-52.1c0-0.53,0.18-0.98,0.55-1.35c0.37-0.37,0.82-0.55,1.35-0.55h3.1c0.53,0,0.98,0.18,1.35,0.55
			c0.37,0.37,0.55,0.82,0.55,1.35v52.1c0,5.53-1.42,9.75-4.25,12.65c-2.83,2.9-6.52,4.35-11.05,4.35c-4.47,0-8.13-1.37-11-4.1
			c-0.8-0.67-0.93-1.43-0.4-2.3l1.6-2.6c0.6-1,1.47-1.03,2.6-0.1c2.54,1.93,4.97,2.9,7.3,2.9c2.46,0,4.46-0.88,6-2.65
			C437.78,514.66,438.55,511.94,438.55,508.28z M445.35,434.43c-0.93,0.9-2.07,1.35-3.4,1.35c-1.33,0-2.45-0.45-3.35-1.35
			c-0.9-0.9-1.35-2.02-1.35-3.35c0-1.33,0.45-2.47,1.35-3.4s2.02-1.4,3.35-1.4c1.33,0,2.47,0.47,3.4,1.4c0.93,0.93,1.4,2.07,1.4,3.4
			C446.75,432.41,446.28,433.53,445.35,434.43z"/>
		<path d="M485.05,491.88v-65.2c0-0.67,0.23-1.23,0.7-1.7c0.46-0.47,1.03-0.7,1.7-0.7h2.9c0.67,0,1.23,0.23,1.7,0.7
			c0.47,0.47,0.7,1.03,0.7,1.7v28.3l31.2-29.7c0.53-0.67,1.17-1,1.9-1h4.9c0.93,0,1.55,0.4,1.85,1.2s0.08,1.57-0.65,2.3l-31.6,29.5
			l33.1,33.9c0.47,0.33,0.55,0.93,0.25,1.8c-0.3,0.87-0.95,1.3-1.95,1.3h-5.1c-0.87,0-1.47-0.23-1.8-0.7l-32.1-33.5v31.8
			c0,0.67-0.23,1.23-0.7,1.7c-0.47,0.47-1.03,0.7-1.7,0.7h-2.9c-0.67,0-1.23-0.23-1.7-0.7
			C485.28,493.11,485.05,492.54,485.05,491.88z"/>
		<path d="M542.05,492.38v-66.2c0-0.47,0.2-0.9,0.6-1.3c0.4-0.4,0.83-0.6,1.3-0.6h3.1c0.53,0,0.98,0.2,1.35,0.6
			c0.37,0.4,0.55,0.83,0.55,1.3v43.3l17-14c0.93-0.8,1.73-1.2,2.4-1.2h5.4c0.8,0,1.25,0.33,1.35,1c0.1,0.67-0.05,1.17-0.45,1.5
			l-19,15.2l22.1,19.8c0.46,0.33,0.62,0.83,0.45,1.5c-0.17,0.67-0.65,1-1.45,1h-5.5c-0.6,0-1.27-0.27-2-0.8l-20.3-19.3v18.2
			c0,0.47-0.18,0.9-0.55,1.3c-0.37,0.4-0.82,0.6-1.35,0.6h-3.1c-0.47,0-0.9-0.2-1.3-0.6C542.25,493.28,542.05,492.84,542.05,492.38z
			"/>
		<path d="M612.05,492.38v-66.2c0-0.53,0.18-0.98,0.55-1.35c0.37-0.37,0.82-0.55,1.35-0.55h3.9c0.53,0,0.98,0.2,1.35,0.6
			c0.37,0.4,0.55,0.83,0.55,1.3v61.4h28.8c0.53,0,0.98,0.18,1.35,0.55c0.37,0.37,0.55,0.82,0.55,1.35v2.9
			c0,0.54-0.18,0.98-0.55,1.35c-0.37,0.37-0.82,0.55-1.35,0.55h-34.6c-0.53,0-0.98-0.18-1.35-0.55
			C612.23,493.36,612.05,492.91,612.05,492.38z"/>
		<path d="M658.15,492.38v-66.2c0-0.47,0.2-0.9,0.6-1.3c0.4-0.4,0.83-0.6,1.3-0.6h3.1c0.53,0,0.98,0.2,1.35,0.6
			c0.37,0.4,0.55,0.83,0.55,1.3v66.2c0,0.47-0.18,0.9-0.55,1.3c-0.37,0.4-0.82,0.6-1.35,0.6h-3.1c-0.47,0-0.9-0.2-1.3-0.6
			C658.35,493.28,658.15,492.84,658.15,492.38z"/>
		<path d="M699.65,491.88l12.9-67.2c0.2-0.93,0.8-1.4,1.8-1.4h1.6c0.87,0,1.43,0.37,1.7,1.1l19.8,55.1h0.5l19.5-55.1
			c0.27-0.73,0.83-1.1,1.7-1.1h1.6c1,0,1.6,0.47,1.8,1.4l12.9,67.2c0.33,1.6-0.27,2.4-1.8,2.4h-4c-0.93,0-1.53-0.47-1.8-1.4
			l-8.9-51.5h-0.4l-18.4,52.8c-0.27,0.73-0.83,1.1-1.7,1.1h-1.8c-0.87,0-1.43-0.37-1.7-1.1l-18.6-52.8h-0.4l-8.7,51.5
			c-0.07,0.33-0.28,0.65-0.65,0.95c-0.37,0.3-0.75,0.45-1.15,0.45h-4C699.91,494.28,699.31,493.48,699.65,491.88z"/>
		<path d="M786.85,492.38v-36.2c0-0.47,0.18-0.9,0.55-1.3c0.37-0.4,0.82-0.6,1.35-0.6h1.9c0.87,0,1.4,0.4,1.6,1.2l0.9,3.1
			c0.13-0.13,0.32-0.32,0.55-0.55c0.23-0.23,0.77-0.67,1.6-1.3c0.83-0.63,1.72-1.18,2.65-1.65c0.93-0.47,2.15-0.88,3.65-1.25
			c1.5-0.37,3.02-0.55,4.55-0.55c5.87,0,10.13,2.17,12.8,6.5c5.4-4.33,10.37-6.5,14.9-6.5c10.33,0,15.5,6,15.5,18v21.1
			c0,0.47-0.2,0.9-0.6,1.3c-0.4,0.4-0.83,0.6-1.3,0.6h-3.2c-0.47,0-0.9-0.2-1.3-0.6c-0.4-0.4-0.6-0.83-0.6-1.3v-21.1
			c0-7.53-3-11.3-9-11.3c-4.13,0-8.2,1.87-12.2,5.6c0.33,1.87,0.5,3.77,0.5,5.7v21.1c0,0.47-0.18,0.9-0.55,1.3
			c-0.37,0.4-0.82,0.6-1.35,0.6h-3.2c-0.53,0-0.98-0.2-1.35-0.6c-0.37-0.4-0.55-0.83-0.55-1.3v-21.1c0-7.53-3.17-11.3-9.5-11.3
			c-2.13,0-4.15,0.48-6.05,1.45c-1.9,0.97-3.28,1.92-4.15,2.85l-1.2,1.4v26.7c0,0.47-0.2,0.9-0.6,1.3c-0.4,0.4-0.83,0.6-1.3,0.6
			h-3.1c-0.53,0-0.98-0.2-1.35-0.6C787.03,493.28,786.85,492.84,786.85,492.38z"/>
		<path d="M888.35,492.38v-67.3c0-0.47,0.18-0.88,0.55-1.25c0.37-0.37,0.82-0.55,1.35-0.55h2.5l45.1,56.2h0.2v-53.3
			c0-0.53,0.18-0.98,0.55-1.35c0.37-0.37,0.82-0.55,1.35-0.55h3.5c0.47,0,0.9,0.2,1.3,0.6c0.4,0.4,0.6,0.83,0.6,1.3v67.3
			c0,0.47-0.18,0.88-0.55,1.25c-0.37,0.37-0.82,0.55-1.35,0.55h-1.8l-45.9-57.3h-0.1v54.4c0,0.54-0.18,0.98-0.55,1.35
			c-0.37,0.37-0.82,0.55-1.35,0.55h-3.5c-0.47,0-0.9-0.2-1.3-0.6C888.55,493.28,888.35,492.84,888.35,492.38z"/>
		<path d="M961.34,492.38v-36.2c0-0.47,0.18-0.9,0.55-1.3c0.37-0.4,0.82-0.6,1.35-0.6h1.9c0.87,0,1.4,0.4,1.6,1.2l0.9,3.1
			c0.4-0.4,1-0.9,1.8-1.5c0.8-0.6,2.42-1.38,4.85-2.35c2.43-0.97,4.88-1.45,7.35-1.45c10.33,0,15.5,6,15.5,18v21.1
			c0,0.47-0.18,0.9-0.55,1.3c-0.37,0.4-0.82,0.6-1.35,0.6h-3.2c-0.53,0-0.98-0.2-1.35-0.6c-0.37-0.4-0.55-0.83-0.55-1.3v-21.1
			c0-3.73-0.79-6.55-2.35-8.45c-1.57-1.9-3.78-2.85-6.65-2.85c-2.2,0-4.38,0.48-6.55,1.45c-2.17,0.97-3.75,1.92-4.75,2.85l-1.6,1.4
			v26.7c0,0.47-0.2,0.9-0.6,1.3c-0.4,0.4-0.83,0.6-1.3,0.6h-3.1c-0.53,0-0.98-0.2-1.35-0.6
			C961.53,493.28,961.34,492.84,961.34,492.38z"/>
		<path d="M1041.49,484.83c-6.97-6.97-10.45-15.45-10.45-25.45s3.48-18.52,10.45-25.55c6.97-7.03,15.45-10.55,25.45-10.55
			s18.5,3.52,25.5,10.55c7,7.03,10.5,15.55,10.5,25.55s-3.5,18.48-10.5,25.45c-7,6.97-15.5,10.45-25.5,10.45
			S1048.46,491.79,1041.49,484.83z M1046.54,438.88c-5.67,5.73-8.5,12.57-8.5,20.5c0,7.93,2.83,14.73,8.5,20.4
			c5.67,5.67,12.47,8.5,20.4,8.5c7.93,0,14.75-2.83,20.45-8.5c5.7-5.67,8.55-12.47,8.55-20.4c0-7.93-2.85-14.77-8.55-20.5
			c-5.7-5.73-12.52-8.6-20.45-8.6C1059.01,430.28,1052.21,433.14,1046.54,438.88z"/>
		<path d="M1111.14,474.18c0-5.67,1.93-10.57,5.8-14.7c3.87-4.13,8.57-6.2,14.1-6.2c5.53,0,10.23,2.07,14.1,6.2
			c3.87,4.13,5.8,9.03,5.8,14.7c0,5.8-1.93,10.77-5.8,14.9c-3.87,4.13-8.57,6.2-14.1,6.2c-5.53,0-10.23-2.07-14.1-6.2
			C1113.08,484.94,1111.14,479.98,1111.14,474.18z M1118.04,474.18c0,4.07,1.25,7.52,3.75,10.35c2.5,2.83,5.58,4.25,9.25,4.25
			c3.67,0,6.75-1.42,9.25-4.25c2.5-2.83,3.75-6.28,3.75-10.35c0-3.93-1.25-7.3-3.75-10.1s-5.58-4.2-9.25-4.2
			c-3.67,0-6.75,1.4-9.25,4.2S1118.04,470.24,1118.04,474.18z"/>
		<path d="M1187.54,492.38v-66.2c0-0.53,0.18-0.98,0.55-1.35c0.37-0.37,0.82-0.55,1.35-0.55h22.1c6.13,0,11.4,2.17,15.8,6.5
			c4.4,4.33,6.6,9.53,6.6,15.6c0,6.2-2.18,11.5-6.55,15.9c-4.37,4.4-9.62,6.6-15.75,6.6h-16.5v23.5c0,0.47-0.2,0.9-0.6,1.3
			c-0.4,0.4-0.83,0.6-1.3,0.6h-3.8c-0.53,0-0.98-0.18-1.35-0.55C1187.72,493.36,1187.54,492.91,1187.54,492.38z M1195.14,461.48
			h15.9c4.13,0,7.7-1.48,10.7-4.45c3-2.97,4.5-6.58,4.5-10.85c0-4-1.5-7.38-4.5-10.15c-3-2.77-6.57-4.15-10.7-4.15h-15.9V461.48z"/>
		<path d="M1248.74,491.98v30.4c0,0.47-0.18,0.9-0.55,1.3c-0.37,0.4-0.82,0.6-1.35,0.6h-3.1c-0.47,0-0.9-0.2-1.3-0.6
			c-0.4-0.4-0.6-0.83-0.6-1.3v-66.2c0-0.47,0.2-0.9,0.6-1.3c0.4-0.4,0.83-0.6,1.3-0.6h2.1c0.73,0,1.27,0.43,1.6,1.3l0.7,1.9
			c0.33-0.33,0.82-0.73,1.45-1.2c0.63-0.47,1.95-1.08,3.95-1.85c2-0.77,4.07-1.15,6.2-1.15c5.4,0,9.9,2.07,13.5,6.2
			c3.6,4.13,5.4,9.1,5.4,14.9c0,5.87-1.83,10.82-5.5,14.85c-3.67,4.03-8.23,6.05-13.7,6.05c-1.93,0-3.8-0.27-5.6-0.8
			c-1.8-0.53-3.1-1.07-3.9-1.6L1248.74,491.98z M1248.84,485.08c2.8,2.33,6.03,3.5,9.7,3.5c3.8,0,6.93-1.37,9.4-4.1
			c2.47-2.73,3.7-6.13,3.7-10.2c0-4.07-1.13-7.53-3.4-10.4c-2.27-2.87-5.33-4.3-9.2-4.3c-1.93,0-3.75,0.42-5.45,1.25
			c-1.7,0.83-2.92,1.65-3.65,2.45l-1.1,1.2V485.08z"/>
		<path d="M1320.59,484.83c-6.97-6.97-10.45-15.45-10.45-25.45s3.48-18.52,10.45-25.55c6.97-7.03,15.45-10.55,25.45-10.55
			s18.5,3.52,25.5,10.55c7,7.03,10.5,15.55,10.5,25.55c0,7.27-1.95,13.85-5.85,19.75c-3.9,5.9-9.05,10.29-15.45,13.15l11.7,18.8
			c0.46,0.67,0.52,1.33,0.15,2c-0.37,0.67-0.95,1-1.75,1h-5c-0.67,0-1.2-0.33-1.6-1l-10.9-18.4c-2.2,0.4-4.63,0.6-7.3,0.6
			C1336.04,495.28,1327.55,491.79,1320.59,484.83z M1325.64,438.88c-5.67,5.73-8.5,12.57-8.5,20.5c0,7.93,2.83,14.73,8.5,20.4
			c5.67,5.67,12.47,8.5,20.4,8.5c7.93,0,14.75-2.83,20.45-8.5c5.7-5.67,8.55-12.47,8.55-20.4c0-7.93-2.85-14.77-8.55-20.5
			c-5.7-5.73-12.52-8.6-20.45-8.6C1338.1,430.28,1331.3,433.14,1325.64,438.88z"/>
		<path d="M1390.44,474.38c0-5.8,1.8-10.77,5.4-14.9c3.6-4.13,8.1-6.2,13.5-6.2c2.13,0,4.17,0.35,6.1,1.05
			c1.93,0.7,3.33,1.42,4.2,2.15l1.3,1l0.7-1.8c0.33-0.93,0.96-1.4,1.9-1.4h1.8c0.47,0,0.9,0.2,1.3,0.6c0.4,0.4,0.6,0.83,0.6,1.3
			v66.2c0,0.47-0.2,0.9-0.6,1.3c-0.4,0.4-0.83,0.6-1.3,0.6h-3.1c-0.53,0-0.98-0.2-1.35-0.6c-0.37-0.4-0.55-0.83-0.55-1.3v-30.6
			c-2.73,2.33-6.3,3.5-10.7,3.5c-5.47,0-10.04-2.02-13.7-6.05C1392.27,485.19,1390.44,480.24,1390.44,474.38z M1400.84,463.88
			c-2.27,2.87-3.4,6.33-3.4,10.4c0,4.07,1.23,7.47,3.7,10.2c2.46,2.73,5.6,4.1,9.4,4.1c1.6,0,3.22-0.28,4.85-0.85
			c1.63-0.57,2.85-1.12,3.65-1.65l1.2-0.8v-20.8c-0.27-0.33-0.67-0.78-1.2-1.35c-0.53-0.57-1.68-1.3-3.45-2.2
			c-1.77-0.9-3.62-1.35-5.55-1.35C1406.17,459.58,1403.1,461.01,1400.84,463.88z"/>
		<path d="M1466.84,492.38v-66.2c0-0.53,0.18-0.98,0.55-1.35c0.37-0.37,0.82-0.55,1.35-0.55h25.9c6,0,11.13,2.07,15.4,6.2
			c4.27,4.13,6.4,9.17,6.4,15.1c0,4.53-1.35,8.62-4.05,12.25c-2.7,3.63-6.28,6.35-10.75,8.15l13.7,25.4
			c0.4,0.67,0.42,1.32,0.05,1.95c-0.37,0.63-0.95,0.95-1.75,0.95h-5.1c-0.73,0-1.27-0.3-1.6-0.9l-13.3-26.5h-19.1v25.5
			c0,0.47-0.18,0.9-0.55,1.3c-0.37,0.4-0.82,0.6-1.35,0.6h-3.9c-0.53,0-0.98-0.18-1.35-0.55
			C1467.02,493.36,1466.84,492.91,1466.84,492.38z M1474.74,460.28h19.4c3.87,0,7.23-1.42,10.1-4.25c2.87-2.83,4.3-6.28,4.3-10.35
			c0-3.8-1.43-7.1-4.3-9.9c-2.87-2.8-6.23-4.2-10.1-4.2h-19.4V460.28z"/>
		<path d="M1527.64,492.38v-36.2c0-0.47,0.18-0.9,0.55-1.3c0.37-0.4,0.82-0.6,1.35-0.6h1.9c0.93,0,1.5,0.47,1.7,1.4l0.8,2.9
			c0.13-0.13,0.28-0.32,0.45-0.55c0.17-0.23,0.62-0.67,1.35-1.3c0.73-0.63,1.53-1.18,2.4-1.65c0.87-0.47,2-0.88,3.4-1.25
			c1.4-0.37,2.87-0.55,4.4-0.55c0.87,0,1.7,0.05,2.5,0.15c0.8,0.1,1.62,0.25,2.45,0.45c0.83,0.2,1.45,0.54,1.85,1
			c0.4,0.47,0.47,1.04,0.2,1.7l-1.2,3.4c-0.4,1.07-1.2,1.37-2.4,0.9c-1.2-0.53-2.5-0.8-3.9-0.8c-2.27,0-4.3,0.47-6.1,1.4
			c-1.8,0.93-3.07,1.87-3.8,2.8l-1,1.4v26.7c0,0.47-0.2,0.9-0.6,1.3c-0.4,0.4-0.83,0.6-1.3,0.6h-3.1c-0.53,0-0.98-0.2-1.35-0.6
			C1527.82,493.28,1527.64,492.84,1527.64,492.38z"/>
		<path d="M397.15,607.18c-1.2-1-1.4-2.13-0.6-3.4c0.2-0.2,0.47-0.52,0.8-0.95c0.33-0.43,0.57-0.75,0.7-0.95
			c1.2-1.6,2.37-1.9,3.5-0.9c5.93,5.07,11.57,7.6,16.9,7.6c3.93,0,7.15-1.07,9.65-3.2c2.5-2.13,3.75-4.73,3.75-7.8
			c0-3.27-1.38-6.08-4.15-8.45c-2.77-2.37-7.22-4.82-13.35-7.35c-6.13-2.67-10.6-5.45-13.4-8.35c-2.8-2.9-4.2-7.02-4.2-12.35
			c0-1.87,0.38-3.77,1.15-5.7c0.77-1.93,1.93-3.83,3.5-5.7c1.57-1.87,3.8-3.4,6.7-4.6s6.22-1.8,9.95-1.8c2.93,0,5.82,0.43,8.65,1.3
			c2.83,0.87,4.95,1.7,6.35,2.5l2.1,1.3c0.47,0.2,0.8,0.57,1,1.1c0.2,0.53,0.07,1.3-0.4,2.3c-0.13,0.2-0.33,0.52-0.6,0.95
			c-0.27,0.43-0.47,0.75-0.6,0.95c-0.93,1.4-2.1,1.7-3.5,0.9c-5.4-3.07-9.77-4.6-13.1-4.6c-4.73,0-8.22,1.17-10.45,3.5
			c-2.23,2.33-3.35,4.83-3.35,7.5c0,3.2,1.12,5.88,3.35,8.05c2.23,2.17,5.62,4.18,10.15,6.05c7.67,3.13,13.28,6.27,16.85,9.4
			c3.57,3.13,5.35,7.4,5.35,12.8c0,5.13-2.12,9.42-6.35,12.85c-4.23,3.43-9.32,5.15-15.25,5.15c-3.54,0-7.02-0.65-10.45-1.95
			c-3.43-1.3-5.83-2.43-7.2-3.4C399.23,608.96,398.08,608.04,397.15,607.18z"/>
		<path d="M448.55,610.78c-0.67-0.53-0.83-1.23-0.5-2.1c0.13-0.2,0.38-0.63,0.75-1.3c0.37-0.67,0.58-1.07,0.65-1.2
			c0.6-0.93,1.5-1.03,2.7-0.3c2.87,2.33,6,3.5,9.4,3.5c2,0,3.58-0.45,4.75-1.35c1.17-0.9,1.75-2.05,1.75-3.45
			c0-1.6-0.63-2.92-1.9-3.95c-1.27-1.03-3.57-2.38-6.9-4.05c-2.2-1.07-4.02-2.07-5.45-3c-1.43-0.93-2.78-2.28-4.05-4.05
			c-1.27-1.77-1.9-3.72-1.9-5.85c0-2.53,1.07-4.9,3.2-7.1c2.13-2.2,5.3-3.3,9.5-3.3c4.4,0,8.1,1.03,11.1,3.1
			c1.13,0.73,1.33,1.77,0.6,3.1l-0.8,1.6c-0.73,1.27-1.7,1.57-2.9,0.9c-2.87-1.6-5.53-2.4-8-2.4c-2,0-3.45,0.4-4.35,1.2
			c-0.9,0.8-1.35,1.73-1.35,2.8c0,1.07,0.4,2.03,1.2,2.9c0.8,0.87,1.57,1.5,2.3,1.9c0.73,0.4,2.03,1.07,3.9,2
			c2.2,1.07,3.9,1.93,5.1,2.6c1.2,0.67,2.52,1.55,3.95,2.65c1.43,1.1,2.47,2.33,3.1,3.7c0.63,1.37,0.95,2.92,0.95,4.65
			c0,3-1.3,5.63-3.9,7.9c-2.6,2.27-5.9,3.4-9.9,3.4C456.75,615.28,452.42,613.78,448.55,610.78z"/>
		<path d="M521.25,612.38v-61.4h-17.4c-0.53,0-0.98-0.18-1.35-0.55c-0.37-0.37-0.55-0.82-0.55-1.35v-2.9c0-0.53,0.18-0.98,0.55-1.35
			c0.37-0.37,0.82-0.55,1.35-0.55h42.4c0.53,0,0.98,0.18,1.35,0.55c0.37,0.37,0.55,0.82,0.55,1.35v2.9c0,0.53-0.18,0.98-0.55,1.35
			c-0.37,0.37-0.82,0.55-1.35,0.55h-17.4v61.4c0,0.47-0.18,0.9-0.55,1.3c-0.37,0.4-0.82,0.6-1.35,0.6h-3.8
			c-0.53,0-0.98-0.2-1.35-0.6C521.43,613.28,521.25,612.84,521.25,612.38z"/>
		<path d="M554.65,604.28v-24h-5.1c-0.53,0-0.98-0.18-1.35-0.55c-0.37-0.37-0.55-0.82-0.55-1.35v-2.2c0-1.27,0.63-1.9,1.9-1.9h5.1
			v-11.1c0-0.47,0.18-0.9,0.55-1.3c0.37-0.4,0.82-0.6,1.35-0.6l3.2-0.2c0.47,0,0.88,0.18,1.25,0.55c0.37,0.37,0.55,0.82,0.55,1.35
			v11.3h11.6c1.27,0,1.9,0.63,1.9,1.9v2.2c0,0.54-0.18,0.98-0.55,1.35c-0.37,0.37-0.82,0.55-1.35,0.55h-11.6v23.4
			c0,1.93,0.25,3.22,0.75,3.85c0.5,0.63,1.35,0.95,2.55,0.95c2.13,0,4.57-0.73,7.3-2.2c1-0.53,1.8-0.33,2.4,0.6l1.5,2.5
			c0.6,1,0.37,1.83-0.7,2.5c-1.07,0.67-2.73,1.4-5,2.2c-2.27,0.8-4.43,1.2-6.5,1.2c-3.67,0-6.12-0.93-7.35-2.8
			C555.26,610.61,554.65,607.88,554.65,604.28z"/>
		<path d="M610.65,588.48v-42.3c0-0.47,0.18-0.9,0.55-1.3c0.37-0.4,0.82-0.6,1.35-0.6h3.8c0.53,0,0.98,0.18,1.35,0.55
			c0.37,0.37,0.55,0.82,0.55,1.35v41.7c0,5.87,1.7,10.72,5.1,14.55c3.4,3.83,7.97,5.75,13.7,5.75c5.8,0,10.42-1.9,13.85-5.7
			c3.43-3.8,5.15-8.6,5.15-14.4v-41.9c0-0.53,0.18-0.98,0.55-1.35c0.37-0.37,0.82-0.55,1.35-0.55h3.8c0.53,0,0.98,0.2,1.35,0.6
			c0.37,0.4,0.55,0.83,0.55,1.3v42.3c0,7.67-2.48,14.05-7.45,19.15c-4.97,5.1-11.35,7.65-19.15,7.65c-7.73,0-14.07-2.55-19-7.65
			C613.11,602.53,610.65,596.14,610.65,588.48z"/>
		<path d="M677.04,597.18v-21c0-0.47,0.2-0.9,0.6-1.3c0.4-0.4,0.83-0.6,1.3-0.6h3.2c0.47,0,0.9,0.2,1.3,0.6
			c0.4,0.4,0.6,0.83,0.6,1.3v21.1c0,3.73,0.78,6.55,2.35,8.45c1.57,1.9,3.78,2.85,6.65,2.85c2.27,0,4.38-0.47,6.35-1.4
			c1.97-0.93,3.38-1.9,4.25-2.9l1.3-1.4v-26.7c0-0.47,0.18-0.9,0.55-1.3c0.37-0.4,0.82-0.6,1.35-0.6h3.1c0.47,0,0.9,0.2,1.3,0.6
			c0.4,0.4,0.6,0.83,0.6,1.3v36.2c0,0.47-0.2,0.9-0.6,1.3c-0.4,0.4-0.83,0.6-1.3,0.6h-1.9c-0.87,0-1.47-0.57-1.8-1.7l-0.7-2.6
			c-0.13,0.13-0.32,0.32-0.55,0.55c-0.23,0.23-0.77,0.67-1.6,1.3c-0.83,0.63-1.72,1.18-2.65,1.65c-0.93,0.47-2.15,0.88-3.65,1.25
			c-1.5,0.37-3.02,0.55-4.55,0.55C682.21,615.28,677.04,609.24,677.04,597.18z"/>
		<path d="M772.04,614.18l-30.2-67.3c-0.33-0.67-0.32-1.27,0.05-1.8c0.37-0.53,0.92-0.8,1.65-0.8h4c0.87,0,1.43,0.37,1.7,1.1
			l24.9,56h0.4l24.9-56c0.27-0.73,0.83-1.1,1.7-1.1h4c0.73,0,1.28,0.27,1.65,0.8c0.37,0.53,0.38,1.13,0.05,1.8l-30.4,67.3
			c-0.33,0.73-0.9,1.1-1.7,1.1h-1C772.94,615.28,772.37,614.91,772.04,614.18z"/>
		<path d="M823.84,614.28l-16.9-37.7c-0.33-0.67-0.35-1.22-0.05-1.65s0.82-0.65,1.55-0.65h3.1c0.8,0,1.4,0.37,1.8,1.1l12.4,28.6h0.1
			l13.2-28.6c0.33-0.73,0.9-1.1,1.7-1.1h2.6c0.73,0,1.25,0.22,1.55,0.65s0.28,0.98-0.05,1.65l-17.1,37.7c-0.27,0.67-0.83,1-1.7,1
			h-0.5C824.67,615.28,824.11,614.94,823.84,614.28z"/>
		<path d="M891.24,613.88l-18.9-67.2c-0.2-0.67-0.13-1.23,0.2-1.7c0.33-0.47,0.87-0.7,1.6-0.7h4.2c0.93,0,1.53,0.47,1.8,1.4
			l13.9,51.8h0.4l16.7-53.1c0.27-0.73,0.83-1.1,1.7-1.1h1.8c0.87,0,1.43,0.37,1.7,1.1l17,53.1h0.4l13.6-51.8
			c0.27-0.93,0.87-1.4,1.8-1.4h4.2c0.73,0,1.27,0.23,1.6,0.7c0.33,0.47,0.4,1.03,0.2,1.7l-18.9,67.2c-0.27,0.93-0.87,1.4-1.8,1.4
			h-1.6c-0.8,0-1.37-0.37-1.7-1.1l-17.3-54.1h-0.5l-17,54.1c-0.33,0.73-0.9,1.1-1.7,1.1h-1.6
			C892.1,615.28,891.5,614.81,891.24,613.88z"/>
		<path d="M969.84,614.28l-11.1-37.7c-0.47-1.53,0.03-2.3,1.5-2.3h3.1c0.93,0,1.53,0.37,1.8,1.1l7.3,26.4h0.1l11.3-27.5
			c0.27-0.67,0.83-1,1.7-1h0.5c0.87,0,1.43,0.33,1.7,1l11.2,27.6h0.1l7.2-26.5c0.27-0.73,0.83-1.1,1.7-1.1h3.1
			c1.47,0,1.97,0.77,1.5,2.3l-10.9,37.7c-0.2,0.67-0.77,1-1.7,1h-0.5c-0.87,0-1.43-0.33-1.7-1l-12.2-30l-11.8,30
			c-0.27,0.67-0.83,1-1.7,1h-0.5C970.6,615.28,970.04,614.94,969.84,614.28z"/>
		<path d="M1042.03,611.48l20.3-33.1l-19.5-31.3c-0.4-0.67-0.43-1.3-0.1-1.9c0.33-0.6,0.93-0.9,1.8-0.9h5.4c0.8,0,1.37,0.3,1.7,0.9
			l15.4,26.5h0.1l15.6-26.5c0.33-0.6,0.9-0.9,1.7-0.9h5.4c0.87,0,1.47,0.3,1.8,0.9c0.33,0.6,0.3,1.23-0.1,1.9l-19.5,31.3l20.2,33.1
			c0.4,0.67,0.43,1.3,0.1,1.9c-0.33,0.6-0.93,0.9-1.8,0.9h-4.6c-0.87,0-1.43-0.3-1.7-0.9l-17.1-28.3h-0.1l-16.9,28.3
			c-0.33,0.6-0.9,0.9-1.7,0.9h-4.6c-0.87,0-1.48-0.3-1.85-0.9C1041.62,612.78,1041.63,612.14,1042.03,611.48z"/>
		<path d="M1099.23,611.68l13.1-17.8l-12.7-17c-0.53-0.67-0.67-1.27-0.4-1.8c0.27-0.53,0.83-0.8,1.7-0.8h4.2
			c0.67,0,1.2,0.27,1.6,0.8l9.5,13.6h0.1l9.9-13.6c0.4-0.53,0.93-0.8,1.6-0.8h4.2c0.87,0,1.43,0.27,1.7,0.8
			c0.27,0.53,0.13,1.13-0.4,1.8l-12.7,16.9l12.8,17.9c0.46,0.67,0.57,1.27,0.3,1.8c-0.27,0.53-0.8,0.8-1.6,0.8h-3.7
			c-0.54,0-1.04-0.3-1.5-0.9l-10.6-14.7h-0.1l-10.4,14.8c-0.4,0.53-0.93,0.8-1.6,0.8h-3.7c-0.8,0-1.33-0.27-1.6-0.8
			C1098.67,612.94,1098.77,612.34,1099.23,611.68z"/>
		<path d="M1183.73,612.38v-31.8l-24.1-33.4c-0.4-0.67-0.43-1.32-0.1-1.95c0.33-0.63,0.9-0.95,1.7-0.95h4.7c0.6,0,1.13,0.3,1.6,0.9
			l20.2,27.9l20.2-27.9c0.47-0.6,1-0.9,1.6-0.9h4.7c0.8,0,1.37,0.32,1.7,0.95c0.33,0.63,0.3,1.28-0.1,1.95l-24.4,33.3v31.9
			c0,0.47-0.2,0.9-0.6,1.3c-0.4,0.4-0.83,0.6-1.3,0.6h-3.9c-0.53,0-0.98-0.18-1.35-0.55
			C1183.91,613.36,1183.73,612.91,1183.73,612.38z"/>
		<path d="M1232.03,614.18l-18.6-37.7c-0.33-0.67-0.35-1.2-0.05-1.6c0.3-0.4,0.82-0.6,1.55-0.6h4.4c0.73,0,1.3,0.37,1.7,1.1
			l14.8,30.6h0.1l14-30.6c0.33-0.73,0.9-1.1,1.7-1.1h3.8c0.73,0,1.25,0.22,1.55,0.65s0.28,0.98-0.05,1.65l-30.7,66.5
			c-0.4,0.8-0.97,1.2-1.7,1.2h-3.7c-0.73,0-1.27-0.23-1.6-0.7c-0.33-0.47-0.33-1.07,0-1.8L1232.03,614.18z"/>
		<path d="M1283.83,612.38v-1.8l36.3-59v-0.3h-31.5c-0.53,0-0.98-0.2-1.35-0.6c-0.37-0.4-0.55-0.83-0.55-1.3v-3.2
			c0-0.47,0.18-0.9,0.55-1.3c0.37-0.4,0.82-0.6,1.35-0.6h40.5c0.47,0,0.9,0.2,1.3,0.6c0.4,0.4,0.6,0.83,0.6,1.3v1.3l-36.9,59.7v0.1
			h33c0.53,0,0.98,0.18,1.35,0.55c0.37,0.37,0.55,0.82,0.55,1.35v3.2c0,0.54-0.18,0.98-0.55,1.35c-0.37,0.37-0.82,0.55-1.35,0.55
			h-41.4c-0.47,0-0.9-0.2-1.3-0.6C1284.03,613.28,1283.83,612.84,1283.83,612.38z"/>
		<path d="M1336.73,612.38v-1l19.6-30.5v-0.3h-16.8c-0.47,0-0.88-0.18-1.25-0.55c-0.37-0.37-0.55-0.82-0.55-1.35v-2.5
			c0-0.53,0.17-0.98,0.5-1.35c0.33-0.37,0.77-0.55,1.3-0.55h25.1c0.73,0,1.3,0.28,1.7,0.85c0.4,0.57,0.4,1.18,0,1.85l-19.1,30.7v0.3
			h15.4c1.27,0,1.9,0.63,1.9,1.9v2.5c0,0.54-0.18,0.98-0.55,1.35c-0.37,0.37-0.82,0.55-1.35,0.55h-24c-0.47,0-0.9-0.2-1.3-0.6
			C1336.93,613.28,1336.73,612.84,1336.73,612.38z"/>
		<path d="M405.75,732.38v-53.7l-7.2,5.6c-0.87,0.67-1.63,0.63-2.3-0.1l-1.9-2.1c-0.6-0.73-0.53-1.47,0.2-2.2l14-13.6h2.7
			c0.46,0,0.88,0.18,1.25,0.55c0.37,0.37,0.55,0.82,0.55,1.35v64.2c0,0.54-0.18,0.98-0.55,1.35c-0.37,0.37-0.79,0.55-1.25,0.55h-3.6
			c-0.53,0-0.98-0.18-1.35-0.55C405.93,733.36,405.75,732.91,405.75,732.38z"/>
		<path d="M427.65,732.38v-3c2.73-2.93,6.82-7.35,12.25-13.25c5.43-5.9,9.52-10.32,12.25-13.25c6.73-7.33,10.1-13.37,10.1-18.1
			c0-3.33-1.15-6.28-3.45-8.85c-2.3-2.57-5.82-3.85-10.55-3.85c-4.8,0-9.53,2.5-14.2,7.5c-0.93,0.87-1.83,0.87-2.7,0l-2-1.9
			c-0.8-0.93-0.83-1.8-0.1-2.6c0.2-0.27,0.48-0.62,0.85-1.05c0.37-0.43,1.17-1.22,2.4-2.35c1.23-1.13,2.53-2.13,3.9-3
			c1.37-0.87,3.13-1.65,5.3-2.35c2.17-0.7,4.35-1.05,6.55-1.05c6.8,0,12.1,1.87,15.9,5.6c3.8,3.73,5.7,8.3,5.7,13.7
			c0,4-1.04,7.65-3.1,10.95c-2.07,3.3-5.2,7.22-9.4,11.75c-2.13,2.27-5.33,5.68-9.6,10.25c-4.27,4.57-7.47,7.98-9.6,10.25h29.4
			c0.47,0,0.9,0.18,1.3,0.55c0.4,0.37,0.6,0.82,0.6,1.35v2.7c0,0.47-0.2,0.9-0.6,1.3c-0.4,0.4-0.83,0.6-1.3,0.6h-38
			c-0.53,0-0.98-0.18-1.35-0.55C427.83,733.36,427.65,732.91,427.65,732.38z"/>
		<path d="M480.05,726.38c-0.8-0.93-0.77-1.73,0.1-2.4l2.7-2.3c1-0.73,1.9-0.57,2.7,0.5c0.6,0.73,1.38,1.52,2.35,2.35
			c0.97,0.83,2.65,1.8,5.05,2.9c2.4,1.1,4.9,1.65,7.5,1.65c4,0,7.4-1.13,10.2-3.4c2.8-2.27,4.2-5.3,4.2-9.1
			c0-3.73-1.48-6.85-4.45-9.35c-2.97-2.5-7.38-3.75-13.25-3.75h-5.6c-1.27,0-1.9-0.73-1.9-2.2v-2.4c0-1.46,0.7-2.2,2.1-2.2h5.5
			c5.13,0,9.07-1.15,11.8-3.45c2.73-2.3,4.1-5.18,4.1-8.65c0-3.87-1.27-6.95-3.8-9.25c-2.53-2.3-5.63-3.45-9.3-3.45
			c-4.93,0-9.3,2.17-13.1,6.5c-0.8,0.93-1.67,1-2.6,0.2l-2.4-1.9c-0.93-0.8-0.93-1.67,0-2.6c0.2-0.27,0.48-0.58,0.85-0.95
			c0.37-0.37,1.17-1.07,2.4-2.1c1.23-1.03,2.5-1.93,3.8-2.7c1.3-0.77,2.95-1.47,4.95-2.1c2-0.63,4.03-0.95,6.1-0.95
			c6.13,0,11.1,1.67,14.9,5c3.8,3.33,5.7,7.77,5.7,13.3c0,3.53-1.07,6.75-3.2,9.65c-2.13,2.9-4.5,4.95-7.1,6.15v0.3
			c3,1.27,5.75,3.32,8.25,6.15c2.5,2.83,3.75,6.18,3.75,10.05c0,5.6-2.02,10.23-6.05,13.9c-4.03,3.67-9.42,5.5-16.15,5.5
			C491.95,735.28,485.25,732.31,480.05,726.38z"/>
		<path d="M532.05,718.88c-0.53,0-0.98-0.18-1.35-0.55c-0.37-0.37-0.55-0.82-0.55-1.35v-3.7l37.9-47.5c0.4-0.4,0.9-0.6,1.5-0.6h2
			c0.53,0,0.98,0.18,1.35,0.55c0.37,0.37,0.55,0.82,0.55,1.35l0.1,45.7h8.1c0.53,0,0.98,0.17,1.35,0.5c0.37,0.33,0.55,0.77,0.55,1.3
			v2.2c0,0.53-0.18,0.98-0.55,1.35c-0.37,0.37-0.82,0.55-1.35,0.55h-8.1v13.7c0,0.47-0.2,0.9-0.6,1.3c-0.4,0.4-0.83,0.6-1.3,0.6
			h-3.4c-0.47,0-0.9-0.2-1.3-0.6c-0.4-0.4-0.6-0.83-0.6-1.3v-13.5H532.05z M538.55,712.68h28.2v-34.8L538.55,712.68z"/>
		<path d="M593.85,726.98c-1.13-1.27-1.2-2.4-0.2-3.4c0.27-0.2,0.65-0.55,1.15-1.05s0.88-0.88,1.15-1.15c1-0.87,1.83-0.83,2.5,0.1
			c0.6,0.87,1.35,1.75,2.25,2.65c0.9,0.9,2.53,1.92,4.9,3.05c2.37,1.13,4.92,1.7,7.65,1.7c4.6,0,8.37-1.68,11.3-5.05
			c2.93-3.37,4.4-7.15,4.4-11.35c0-4.13-1.35-7.57-4.05-10.3c-2.7-2.73-6.58-4.1-11.65-4.1h-15.2c-0.93,0-1.68-0.37-2.25-1.1
			c-0.57-0.73-0.85-1.53-0.85-2.4v-26.4c0-0.53,0.18-0.98,0.55-1.35c0.37-0.37,0.82-0.55,1.35-0.55h30.2c0.53,0,0.98,0.18,1.35,0.55
			c0.37,0.37,0.55,0.82,0.55,1.35v2.9c0,0.53-0.18,0.98-0.55,1.35c-0.37,0.37-0.82,0.55-1.35,0.55h-25.4v18.4h11.6
			c7.47,0,13.18,1.85,17.15,5.55c3.97,3.7,5.95,8.85,5.95,15.45c0,6.33-2.2,11.73-6.6,16.2c-4.4,4.47-9.93,6.7-16.6,6.7
			C604.88,735.28,598.45,732.51,593.85,726.98z"/>
		<path d="M645.75,706.78c0-5.07,0.83-9.83,2.5-14.3c1.67-4.47,3.7-8.18,6.1-11.15c2.4-2.97,5.21-5.7,8.45-8.2
			c3.23-2.5,6.07-4.4,8.5-5.7c2.43-1.3,4.88-2.45,7.35-3.45c1-0.4,1.73-0.07,2.2,1l1.1,2.4c0.6,1.4,0,2.37-1.8,2.9
			c-1,0.33-2.35,0.95-4.05,1.85c-1.7,0.9-3.68,2.13-5.95,3.7c-2.27,1.57-4.42,3.28-6.45,5.15c-2.03,1.87-3.92,4.07-5.65,6.6
			c-1.73,2.53-2.93,5.07-3.6,7.6c0.47-0.33,1.15-0.75,2.05-1.25c0.9-0.5,2.68-1.17,5.35-2c2.67-0.83,5.27-1.25,7.8-1.25
			c5.87,0,10.92,2,15.15,6c4.23,4,6.35,9.23,6.35,15.7c0,6.27-2.18,11.65-6.55,16.15c-4.37,4.5-9.55,6.75-15.55,6.75
			c-7.73,0-13.55-2.63-17.45-7.9C647.7,722.11,645.75,715.24,645.75,706.78z M669.05,728.68c4.2,0,7.75-1.57,10.65-4.7
			c2.9-3.13,4.35-6.87,4.35-11.2c0-4.33-1.47-8.02-4.4-11.05c-2.93-3.03-6.5-4.55-10.7-4.55c-2.73,0-5.42,0.55-8.05,1.65
			c-2.63,1.1-4.58,2.18-5.85,3.25l-1.9,1.6c-0.6,2.53-0.65,5.25-0.15,8.15c0.5,2.9,1.28,5.6,2.35,8.1c1.07,2.5,2.8,4.58,5.2,6.25
			C662.95,727.84,665.78,728.68,669.05,728.68z"/>
		<path d="M703.45,732.38v-1.1l27.9-58.3h-32.7c-0.47,0-0.9-0.18-1.3-0.55c-0.4-0.37-0.6-0.82-0.6-1.35v-2.9c0-0.47,0.2-0.9,0.6-1.3
			c0.4-0.4,0.83-0.6,1.3-0.6h40.2c0.47,0,0.9,0.2,1.3,0.6c0.4,0.4,0.6,0.83,0.6,1.3v0.7l-29.2,62.8c-0.8,1.73-1.9,2.6-3.3,2.6h-2.9
			c-0.53,0-0.98-0.2-1.35-0.6C703.63,733.28,703.45,732.84,703.45,732.38z"/>
		<path d="M747.95,715.98c0-3.87,1.28-7.3,3.85-10.3c2.57-3,5.32-5.13,8.25-6.4v-0.3c-2.67-1.2-5.05-3.18-7.15-5.95
			c-2.1-2.77-3.15-5.92-3.15-9.45c0-5.47,1.93-9.88,5.8-13.25c3.87-3.37,8.8-5.05,14.8-5.05c6.07,0,11.05,1.68,14.95,5.05
			c3.9,3.37,5.85,7.78,5.85,13.25c0,3.53-1.05,6.68-3.15,9.45c-2.1,2.77-4.48,4.75-7.15,5.95v0.3c2.93,1.27,5.68,3.4,8.25,6.4
			s3.85,6.43,3.85,10.3c0,5.6-2.05,10.22-6.15,13.85c-4.1,3.63-9.62,5.45-16.55,5.45c-6.73,0-12.13-1.82-16.2-5.45
			C749.98,726.19,747.95,721.58,747.95,715.98z M755.45,716.68c0,3.73,1.45,6.77,4.35,9.1c2.9,2.33,6.38,3.5,10.45,3.5
			c4.4,0,8.03-1.13,10.9-3.4c2.87-2.27,4.3-5.33,4.3-9.2c0-3.27-1.37-6.22-4.1-8.85c-2.73-2.63-6.37-4.18-10.9-4.65
			c-4.6,0.47-8.25,2.02-10.95,4.65C756.8,710.46,755.45,713.41,755.45,716.68z M770.45,695.78c4.4-0.47,7.72-1.75,9.95-3.85
			c2.23-2.1,3.35-4.78,3.35-8.05c0-3.73-1.28-6.77-3.85-9.1c-2.57-2.33-5.85-3.5-9.85-3.5c-3.67,0-6.73,1.18-9.2,3.55
			c-2.47,2.37-3.7,5.38-3.7,9.05c0,3.27,1.1,5.97,3.3,8.1C762.65,694.11,765.98,695.38,770.45,695.78z"/>
		<path d="M811.85,732.58c-0.6-1.4,0-2.37,1.8-2.9c1-0.33,2.35-0.95,4.05-1.85c1.7-0.9,3.68-2.13,5.95-3.7
			c2.27-1.57,4.42-3.28,6.45-5.15c2.03-1.87,3.92-4.07,5.65-6.6c1.73-2.53,2.93-5.07,3.6-7.6c-0.47,0.33-1.15,0.75-2.05,1.25
			s-2.68,1.17-5.35,2c-2.67,0.83-5.27,1.25-7.8,1.25c-5.87,0-10.92-2-15.15-6c-4.23-4-6.35-9.23-6.35-15.7
			c0-6.27,2.18-11.65,6.55-16.15c4.37-4.5,9.55-6.75,15.55-6.75c7.73,0,13.55,2.63,17.45,7.9c3.9,5.27,5.85,12.13,5.85,20.6
			c0,5.07-0.83,9.83-2.5,14.3c-1.67,4.47-3.7,8.18-6.1,11.15c-2.4,2.97-5.22,5.7-8.45,8.2c-3.23,2.5-6.07,4.4-8.5,5.7
			c-2.43,1.3-4.88,2.45-7.35,3.45c-1,0.4-1.73,0.07-2.2-1L811.85,732.58z M824.85,702.78c2.73,0,5.42-0.55,8.05-1.65
			c2.63-1.1,4.58-2.18,5.85-3.25l1.9-1.6c0.6-2.53,0.65-5.25,0.15-8.15c-0.5-2.9-1.28-5.6-2.35-8.1c-1.07-2.5-2.8-4.58-5.2-6.25
			c-2.4-1.67-5.23-2.5-8.5-2.5c-4.2,0-7.75,1.57-10.65,4.7c-2.9,3.13-4.35,6.87-4.35,11.2c0,4.33,1.47,8.02,4.4,11.05
			C817.08,701.26,820.65,702.78,824.85,702.78z"/>
		<path d="M902.9,726.03c-4.23,6.17-10.22,9.25-17.95,9.25c-7.73,0-13.72-3.08-17.95-9.25c-4.23-6.17-6.35-14.75-6.35-25.75
			s2.12-19.58,6.35-25.75c4.23-6.17,10.21-9.25,17.95-9.25c7.73,0,13.72,3.08,17.95,9.25c4.23,6.17,6.35,14.75,6.35,25.75
			S907.13,719.86,902.9,726.03z M872.2,721.38c2.97,4.93,7.22,7.4,12.75,7.4c5.53,0,9.78-2.47,12.75-7.4
			c2.97-4.93,4.45-11.96,4.45-21.1c0-9.07-1.5-16.08-4.5-21.05c-3-4.97-7.23-7.45-12.7-7.45c-5.47,0-9.7,2.48-12.7,7.45
			c-3,4.97-4.5,11.98-4.5,21.05C867.75,709.41,869.23,716.44,872.2,721.38z"/>
	</g>
	<g>
		<g>
			<path class="st0" d="M1842.49,1035.91c-0.41,0-0.75,0.33-0.75,0.75v10.95c0,0.41,0.33,0.75,0.75,0.75s0.75-0.33,0.75-0.75v-10.95
				C1843.23,1036.24,1842.9,1035.91,1842.49,1035.91z"/>
			<path class="st0" d="M1839.58,1034.2c-0.41,0-0.75,0.33-0.75,0.75v4.9c0,0.41,0.33,0.75,0.75,0.75c0.41,0,0.75-0.33,0.75-0.75
				v-4.9C1840.33,1034.54,1840,1034.2,1839.58,1034.2z"/>
			<path class="st0" d="M1845.39,1034.2c-0.41,0-0.75,0.33-0.75,0.75v4.9c0,0.41,0.33,0.75,0.75,0.75c0.41,0,0.75-0.33,0.75-0.75
				v-4.9C1846.14,1034.54,1845.8,1034.2,1845.39,1034.2z"/>
		</g>
		<g>
			<path class="st0" d="M1805.22,1008.96v14.43c0,1.25-0.4,3.04,1.42,3.04c1.12,0,1.45-0.52,1.5-1.42v-16.02h3.74v16.02
				c0,0.05,0,0.07,0,0.12c0.07,0.72,0.37,1.3,1.42,1.3c1.37,0,1.52-0.75,1.52-1.92c0-5.17-0.03-10.36-0.03-15.55h3.74v16.05
				c0,3.04-2.22,5.17-5.24,5.17c-1.3,0-2.42-0.4-3.29-1.1c-0.9,0.7-2.05,1.1-3.37,1.1c-2.99,0-5.17-2.17-5.17-5.17v-16.05H1805.22z"
				/>
			<path class="st0" d="M1872.47,1009.01c3,0,5.17,2.17,5.17,5.17v5.89h-6.66v4.99c0,0.92,0.5,1.42,1.42,1.42
				c1.17,0,1.52-0.57,1.52-1.62c0-0.9-0.02-1.8-0.02-2.67h3.74v2.87c0,3.05-2.22,5.17-5.24,5.17c-3,0-5.17-2.17-5.17-5.17v-10.88
				C1867.23,1011.15,1869.45,1009.01,1872.47,1009.01z M1873.92,1016.32c0-0.92,0.05-2.47-0.17-2.95c-0.25-0.47-0.77-0.62-1.27-0.62
				c-0.95,0-1.5,0.45-1.5,1.42v2.15H1873.92z"/>
			<path class="st0" d="M1830.45,1022.68v-0.54h-3.74c0,0.87,0.03,1.77,0.03,2.67c0,1.05-0.35,1.62-1.52,1.62
				c-0.92,0-1.42-0.5-1.42-1.42v-4.99h6.66v-5.89c0-2.99-2.17-5.17-5.17-5.17c-3.02,0-5.24,2.15-5.24,5.17v10.88
				c0,2.99,2.17,5.17,5.17,5.17c1.37,0,2.58-0.44,3.49-1.2C1828.79,1026.71,1829.4,1024.54,1830.45,1022.68z M1823.79,1014.13
				c0-0.97,0.55-1.42,1.5-1.42c0.5,0,1.02,0.15,1.27,0.62c0.22,0.47,0.17,2.02,0.17,2.95h-2.95V1014.13z"/>
			<path class="st0" d="M1863.49,1021.46c1.27-1.07,2.05-2.75,2.05-4.69v-1.65c0-3.57-2.55-6.12-6.12-6.12h-4.29v14.89
				c0.75,1.73,1.17,3.67,1.17,5.66c0,0.2,0,0.41-0.01,0.63l0,0.03h2.59v-7.34h0.55c0.2,0,0.37,0,0.57-0.02l1.9,7.36h3.84
				L1863.49,1021.46z M1861.79,1016.92c-0.27,1.9-1.22,2.22-2.92,2.22v-6.39c0.25,0,0.52,0,0.8,0c1.37,0.08,2.12,1.02,2.12,2.37
				V1016.92z"/>
			<path class="st0" d="M1851.46,1020.2l-0.11-0.09l-0.02,0.15c-0.11,0.95-0.32,1.88-0.62,2.77c0.06-0.69,0.09-1.38,0.09-2.06
				c0-7.09-3.05-13.51-8.16-17.2l-0.04-0.03l-0.04,0.03c-5.11,3.68-8.16,10.11-8.16,17.2c0,0.78,0.04,1.57,0.12,2.35
				c-0.38-1.01-0.62-2.08-0.74-3.18l-0.02-0.15l-0.11,0.09c-2.59,2.18-4.13,5.72-4.13,9.48c0,0.19,0,0.39,0.01,0.6l0,0.09h6.77
				l0.02,0.06c0.01,0.03,0.02,0.05,0.03,0.08l0.03,0.05c0.4,0.89,0.85,1.74,1.35,2.53l0.02,0.04h2.99v-5.46h3.48
				c0.02,1.82,0.02,3.64,0.03,5.46h3.18l0.02-0.04c0.5-0.79,0.95-1.65,1.35-2.53l0.03-0.05c0.01-0.03,0.02-0.05,0.03-0.08l0.02-0.06
				h6.54l0-0.09c0.01-0.22,0.01-0.41,0.01-0.6C1855.45,1025.88,1853.96,1022.39,1851.46,1020.2z M1844.28,1016.67
				c0,0.74-0.6,1.33-1.33,1.33h-0.9c-0.74,0-1.33-0.6-1.33-1.33v-2.9c0-0.74,0.6-1.33,1.33-1.33h0.9c0.74,0,1.33,0.6,1.33,1.33
				V1016.67z"/>
		</g>
	</g>
</g>
</svg>
