<?xml version="1.0" encoding="utf-8"?>
<!-- Generator: Adobe Illustrator 24.3.0, SVG Export Plug-In . SVG Version: 6.00 Build 0)  -->
<svg version="1.1" xmlns="http://www.w3.org/2000/svg" xmlns:xlink="http://www.w3.org/1999/xlink" x="0px" y="0px"
	 viewBox="0 0 466.45 294.13" style="enable-background:new 0 0 466.45 294.13;" xml:space="preserve">
<style type="text/css">
	.st0{fill:#1D1D1B;}
	.st1{fill:#293D51;}
	.st2{fill:#FFFFFF;}
	.st3{fill:url(#SVGID_5_);}
	.st4{clip-path:url(#SVGID_7_);}
	.st5{opacity:0.28;}
	.st6{fill:url(#SVGID_8_);}
	.st7{fill:url(#SVGID_9_);}
	.st8{fill:url(#SVGID_10_);}
	.st9{fill:url(#SVGID_11_);}
	.st10{fill:url(#SVGID_12_);}
	.st11{fill:url(#SVGID_13_);}
	.st12{fill:url(#SVGID_14_);}
	.st13{fill:url(#SVGID_15_);}
	.st14{fill:url(#SVGID_16_);}
	.st15{fill:url(#SVGID_17_);}
	.st16{fill:url(#SVGID_18_);}
	.st17{fill:url(#SVGID_19_);}
	.st18{fill:url(#SVGID_20_);}
	.st19{fill:url(#SVGID_21_);}
	.st20{fill:url(#SVGID_22_);}
	.st21{fill:url(#SVGID_23_);}
	.st22{fill:url(#SVGID_24_);}
	.st23{fill:url(#SVGID_25_);}
	.st24{fill:url(#SVGID_26_);}
	.st25{fill:url(#SVGID_27_);}
	.st26{fill:url(#SVGID_28_);}
	.st27{fill:url(#SVGID_29_);}
	.st28{fill:url(#SVGID_30_);}
	.st29{fill:#F34D23;}
	.st30{fill:#FFFFFF;stroke:#1D1D1B;stroke-miterlimit:10;}
	.st31{fill:none;stroke:#03FFFF;stroke-miterlimit:10;stroke-dasharray:10;}
	.st32{fill:none;stroke:#03FFFF;stroke-miterlimit:10;}
	.st33{fill:none;stroke:#03FFFF;stroke-miterlimit:10;stroke-dasharray:9.9851,9.9851;}
	.st34{fill:none;stroke:#03FFFF;stroke-miterlimit:10;stroke-dasharray:10.0327,10.0327;}
	.st35{fill:none;stroke:#03FFFF;stroke-miterlimit:10;stroke-dasharray:9.9349,9.9349;}
	.st36{fill:none;stroke:#03FFFF;stroke-miterlimit:10;stroke-dasharray:10.1175,10.1175;}
	.st37{fill:#FFFFFF;stroke:#1D1D1B;stroke-width:0.5196;stroke-miterlimit:10;}
</style>
<g id="Layer_3">
</g>
<g id="Layer_2">
	<g>
		<g>
			<path class="st29" d="M250.74,205.99c-2.47,0-4.47,2-4.47,4.47v65.47c0,2.47,2,4.47,4.47,4.47s4.47-2,4.47-4.47v-65.47
				C255.21,207.99,253.21,205.99,250.74,205.99z"/>
			<path class="st29" d="M233.39,195.81c-2.47,0-4.47,2-4.47,4.47v29.31c0,2.47,2,4.47,4.47,4.47c2.47,0,4.47-2,4.47-4.47v-29.31
				C237.86,197.81,235.85,195.81,233.39,195.81z"/>
			<path class="st29" d="M268.1,195.81c-2.47,0-4.47,2-4.47,4.47v29.31c0,2.47,2,4.47,4.47,4.47s4.47-2,4.47-4.47v-29.31
				C272.57,197.81,270.57,195.81,268.1,195.81z"/>
		</g>
		<path class="st2" d="M27.92,44.9v86.25c0,7.46-2.39,18.21,8.51,18.21c6.71,0,8.65-3.13,8.95-8.51V45.04h22.38v95.81
			c0,0.3,0,0.45,0,0.75c0.45,4.33,2.24,7.76,8.51,7.76c8.21,0,9.1-4.48,9.1-11.49c0-30.89-0.15-61.93-0.15-92.97h22.38v95.95
			c0,18.21-13.28,30.89-31.34,30.89c-7.76,0-14.47-2.39-19.7-6.57c-5.37,4.18-12.24,6.57-20.14,6.57
			c-17.91,0-30.89-12.98-30.89-30.89V44.9H27.92z"/>
		<path class="st2" d="M430.02,45.15c17.91,0,30.89,12.98,30.89,30.89v35.22h-39.85v29.85c0,5.52,2.99,8.51,8.51,8.51
			c7.01,0,9.1-3.43,9.1-9.7c0-5.37-0.15-10.74-0.15-15.97h22.39v17.16c0,18.21-13.28,30.89-31.34,30.89
			c-17.91,0-30.89-12.98-30.89-30.89V76.04C398.68,57.99,411.96,45.15,430.02,45.15z M438.67,88.88c0-5.52,0.3-14.77-1.04-17.61
			c-1.49-2.84-4.63-3.73-7.61-3.73c-5.67,0-8.96,2.69-8.96,8.51v12.84H438.67z"/>
		<path class="st2" d="M178.79,126.93v-3.23H156.4c0,5.22,0.15,10.59,0.15,15.97c0,6.27-2.09,9.7-9.1,9.7
			c-5.52,0-8.51-2.98-8.51-8.51v-29.84h39.84V75.79c0-17.91-12.98-30.89-30.89-30.89c-18.06,0-31.34,12.83-31.34,30.89v65.06
			c0,17.91,12.98,30.89,30.89,30.89c8.2,0,15.41-2.62,20.84-7.18C168.84,151.02,172.53,138.03,178.79,126.93z M138.95,75.79
			c0-5.82,3.28-8.51,8.95-8.51c2.98,0,6.12,0.9,7.61,3.73c1.34,2.84,1.04,12.09,1.04,17.61h-17.61V75.79z"/>
		<path class="st2" d="M376.3,119.62c7.61-6.42,12.24-16.42,12.24-28.06v-9.85c0-21.34-15.22-36.56-36.56-36.56h-25.67v89.05
			c4.51,10.37,6.98,21.96,6.98,33.83c0,1.19-0.03,2.43-0.08,3.79L333.2,172h15.49v-43.88h3.28c1.19,0,2.24,0,3.43-0.15L366.75,172
			h22.98L376.3,119.62z M366.15,92.46c-1.64,11.34-7.31,13.28-17.46,13.28v-38.2c1.49,0,3.13,0,4.78,0
			c8.21,0.45,12.68,6.12,12.68,14.18V92.46z"/>
		<path class="st29" d="M304.41,112.1l-0.63-0.55l-0.1,0.92c-0.65,5.67-1.89,11.22-3.72,16.54c0.35-4.11,0.53-8.23,0.53-12.29
			c0-42.37-18.25-80.81-48.81-102.82l-0.24-0.17l-0.24,0.17c-30.56,22.02-48.81,60.45-48.81,102.82c0,4.66,0.23,9.37,0.69,14.05
			c-2.25-6.06-3.73-12.43-4.42-19.01l-0.09-0.91l-0.63,0.53c-15.47,13.01-24.7,34.19-24.7,56.67c0,1.13,0.02,2.3,0.07,3.59
			l0.02,0.52h40.47l0.15,0.34c0.07,0.16,0.13,0.31,0.2,0.47l0.15,0.29c2.39,5.31,5.1,10.41,8.08,15.15l0.14,0.22h17.86v-32.65h20.83
			c0.11,10.88,0.14,21.76,0.16,32.65h19l0.14-0.22c2.97-4.75,5.69-9.84,8.08-15.15l0.15-0.29c0.07-0.16,0.14-0.31,0.2-0.47
			l0.15-0.34h39.08l0.02-0.52c0.05-1.29,0.08-2.47,0.08-3.59C328.25,146.06,319.33,125.15,304.41,112.1z M261.45,90.96
			c0,4.41-3.57,7.98-7.98,7.98h-5.35c-4.41,0-7.98-3.57-7.98-7.98V73.63c0-4.41,3.57-7.98,7.98-7.98h5.35
			c4.41,0,7.98,3.57,7.98,7.98V90.96z"/>
	</g>
</g>
</svg>
