<?xml version="1.0" encoding="utf-8"?>
<!-- Generator: Adobe Illustrator 24.3.0, SVG Export Plug-In . SVG Version: 6.00 Build 0)  -->
<svg version="1.1" xmlns="http://www.w3.org/2000/svg" xmlns:xlink="http://www.w3.org/1999/xlink" x="0px" y="0px"
	 viewBox="0 0 1920 1080" style="enable-background:new 0 0 1920 1080;" xml:space="preserve">
<style type="text/css">
	.st0{fill:#1D1D1B;}
	.st1{fill:#293D51;}
	.st2{fill:#FFFFFF;}
	.st3{fill:url(#SVGID_5_);}
	.st4{clip-path:url(#SVGID_7_);}
	.st5{opacity:0.28;}
	.st6{fill:url(#SVGID_8_);}
	.st7{fill:url(#SVGID_9_);}
	.st8{fill:url(#SVGID_10_);}
	.st9{fill:url(#SVGID_11_);}
	.st10{fill:url(#SVGID_12_);}
	.st11{fill:url(#SVGID_13_);}
	.st12{fill:url(#SVGID_14_);}
	.st13{fill:url(#SVGID_15_);}
	.st14{fill:url(#SVGID_16_);}
	.st15{fill:url(#SVGID_17_);}
	.st16{fill:url(#SVGID_18_);}
	.st17{fill:url(#SVGID_19_);}
	.st18{fill:url(#SVGID_20_);}
	.st19{fill:url(#SVGID_21_);}
	.st20{fill:url(#SVGID_22_);}
	.st21{fill:url(#SVGID_23_);}
	.st22{fill:url(#SVGID_24_);}
	.st23{fill:url(#SVGID_25_);}
	.st24{fill:url(#SVGID_26_);}
	.st25{fill:url(#SVGID_27_);}
	.st26{fill:url(#SVGID_28_);}
	.st27{fill:url(#SVGID_29_);}
	.st28{fill:url(#SVGID_30_);}
	.st29{fill:#F34D23;}
	.st30{fill:#FFFFFF;stroke:#1D1D1B;stroke-miterlimit:10;}
	.st31{fill:none;stroke:#03FFFF;stroke-miterlimit:10;stroke-dasharray:10;}
	.st32{fill:none;stroke:#03FFFF;stroke-miterlimit:10;}
	.st33{fill:none;stroke:#03FFFF;stroke-miterlimit:10;stroke-dasharray:9.9851,9.9851;}
	.st34{fill:none;stroke:#03FFFF;stroke-miterlimit:10;stroke-dasharray:10.0327,10.0327;}
	.st35{fill:none;stroke:#03FFFF;stroke-miterlimit:10;stroke-dasharray:9.9349,9.9349;}
	.st36{fill:none;stroke:#03FFFF;stroke-miterlimit:10;stroke-dasharray:10.1175,10.1175;}
	.st37{fill:#FFFFFF;stroke:#1D1D1B;stroke-width:0.5196;stroke-miterlimit:10;}
</style>
<g id="Layer_3">
</g>
<g id="Layer_2">
	<g>
		<path class="st0" d="M45.44,1024.54l-2.83-10.08c-0.03-0.1-0.02-0.19,0.03-0.25c0.05-0.07,0.13-0.11,0.24-0.11h1.75
			c0.14,0,0.23,0.07,0.27,0.21l1.29,5.08h0.06l2.33-5.28c0.06-0.11,0.14-0.17,0.25-0.17h0.27c0.13,0,0.21,0.06,0.25,0.17l2.32,5.28
			h0.06l1.29-5.08c0.04-0.14,0.13-0.21,0.27-0.21h1.75c0.11,0,0.19,0.04,0.24,0.11c0.05,0.07,0.06,0.15,0.03,0.25l-2.83,10.08
			c-0.03,0.14-0.12,0.21-0.27,0.21h-0.24c-0.11,0-0.2-0.06-0.25-0.17l-2.75-6.14h-0.04l-2.73,6.14c-0.06,0.11-0.15,0.17-0.25,0.17
			h-0.24C45.56,1024.75,45.47,1024.68,45.44,1024.54z"/>
		<path class="st0" d="M61.43,1024.31v-9.93c0-0.08,0.03-0.15,0.08-0.2c0.06-0.05,0.12-0.08,0.2-0.08h6.21
			c0.08,0,0.15,0.03,0.2,0.08c0.05,0.06,0.08,0.12,0.08,0.2v1.63c0,0.08-0.03,0.15-0.08,0.2c-0.05,0.06-0.12,0.08-0.2,0.08h-4.16
			v1.86h3.42c0.08,0,0.15,0.03,0.2,0.08c0.05,0.05,0.08,0.12,0.08,0.2v1.64c0,0.08-0.03,0.15-0.08,0.2
			c-0.06,0.05-0.12,0.08-0.2,0.08h-3.42v2.03h4.16c0.08,0,0.15,0.03,0.2,0.08c0.05,0.05,0.08,0.12,0.08,0.2v1.63
			c0,0.08-0.03,0.15-0.08,0.2c-0.05,0.05-0.12,0.08-0.2,0.08h-6.21c-0.08,0-0.15-0.03-0.2-0.08
			C61.45,1024.46,61.43,1024.39,61.43,1024.31z"/>
		<path class="st0" d="M81.44,1024.6c-0.11,0-0.19-0.04-0.25-0.12s-0.06-0.17-0.01-0.27l4.69-10.1c0.05-0.11,0.13-0.17,0.25-0.17
			h0.15c0.12,0,0.21,0.06,0.25,0.17l4.7,10.1c0.05,0.1,0.05,0.19-0.01,0.27s-0.14,0.12-0.25,0.12h-1.67c-0.23,0-0.41-0.12-0.53-0.38
			l-0.54-1.18h-4.08l-0.54,1.2c-0.1,0.24-0.28,0.36-0.54,0.36H81.44z M85.07,1021h2.28l-1.14-2.48h-0.01L85.07,1021z"/>
		<path class="st0" d="M96.96,1024.31v-9.93c0-0.08,0.03-0.15,0.08-0.2c0.06-0.05,0.12-0.08,0.2-0.08h4.48
			c0.9,0,1.67,0.32,2.31,0.95c0.64,0.64,0.96,1.4,0.96,2.29c0,0.67-0.2,1.27-0.61,1.81s-0.94,0.94-1.61,1.21l2.05,3.81
			c0.06,0.1,0.06,0.2,0.01,0.29c-0.06,0.1-0.14,0.14-0.26,0.14h-2c-0.11,0-0.19-0.04-0.24-0.13l-2-3.98h-1.04v3.83
			c0,0.07-0.03,0.13-0.08,0.2c-0.05,0.06-0.12,0.09-0.2,0.09h-1.79c-0.08,0-0.15-0.03-0.2-0.08
			C96.99,1024.46,96.96,1024.39,96.96,1024.31z M99.32,1018.58h2.22c0.31,0,0.58-0.12,0.8-0.36c0.22-0.24,0.34-0.52,0.34-0.84
			c0-0.31-0.11-0.58-0.34-0.8c-0.23-0.22-0.49-0.34-0.8-0.34h-2.22V1018.58z"/>
		<path class="st0" d="M111.51,1024.31v-9.93c0-0.08,0.03-0.15,0.08-0.2c0.06-0.05,0.12-0.08,0.2-0.08h6.21
			c0.08,0,0.15,0.03,0.2,0.08c0.05,0.06,0.08,0.12,0.08,0.2v1.63c0,0.08-0.03,0.15-0.08,0.2c-0.05,0.06-0.12,0.08-0.2,0.08h-4.16
			v1.86h3.42c0.08,0,0.15,0.03,0.2,0.08c0.05,0.05,0.08,0.12,0.08,0.2v1.64c0,0.08-0.03,0.15-0.08,0.2
			c-0.06,0.05-0.12,0.08-0.2,0.08h-3.42v2.03h4.16c0.08,0,0.15,0.03,0.2,0.08c0.05,0.05,0.08,0.12,0.08,0.2v1.63
			c0,0.08-0.03,0.15-0.08,0.2c-0.05,0.05-0.12,0.08-0.2,0.08h-6.21c-0.08,0-0.15-0.03-0.2-0.08
			C111.54,1024.46,111.51,1024.39,111.51,1024.31z"/>
		<path class="st0" d="M132.23,1027.03v-15.34c0-0.08,0.03-0.15,0.08-0.2s0.12-0.08,0.2-0.08h0.26c0.08,0,0.14,0.03,0.19,0.08
			s0.08,0.12,0.08,0.2v15.34c0,0.07-0.03,0.13-0.08,0.19c-0.06,0.05-0.12,0.08-0.2,0.08h-0.24c-0.08,0-0.15-0.03-0.2-0.08
			S132.23,1027.1,132.23,1027.03z"/>
		<path class="st0" d="M147.8,1024.31v-9.93c0-0.07,0.03-0.13,0.09-0.2c0.06-0.06,0.12-0.09,0.2-0.09h0.6c0.07,0,0.13,0.03,0.2,0.09
			c0.06,0.06,0.09,0.12,0.09,0.2v9.93c0,0.07-0.03,0.13-0.09,0.2c-0.06,0.06-0.13,0.09-0.2,0.09h-0.6c-0.07,0-0.14-0.03-0.2-0.09
			C147.83,1024.45,147.8,1024.38,147.8,1024.31z"/>
		<path class="st0" d="M156.53,1024.31v-9.93c0-0.08,0.03-0.15,0.08-0.2c0.05-0.05,0.12-0.08,0.19-0.08h3.36
			c1.45,0,2.69,0.51,3.72,1.54c1.03,1.03,1.54,2.26,1.54,3.7c0,1.45-0.51,2.69-1.54,3.72s-2.27,1.54-3.72,1.54h-3.36
			c-0.07,0-0.13-0.03-0.19-0.08C156.55,1024.46,156.53,1024.39,156.53,1024.31z M157.67,1023.56h2.25c1.23,0,2.25-0.4,3.04-1.19
			s1.2-1.81,1.2-3.04c0-1.23-0.4-2.24-1.2-3.03s-1.81-1.19-3.04-1.19h-2.25V1023.56z"/>
		<path class="st0" d="M172.23,1024.31v-9.93c0-0.08,0.03-0.15,0.08-0.2c0.05-0.05,0.12-0.08,0.2-0.08h5.91
			c0.08,0,0.15,0.03,0.2,0.08c0.05,0.06,0.08,0.12,0.08,0.2v0.43c0,0.08-0.03,0.15-0.08,0.2c-0.06,0.05-0.12,0.08-0.2,0.08h-5.04
			v3.66h4.31c0.08,0,0.15,0.03,0.2,0.08c0.05,0.06,0.08,0.12,0.08,0.2v0.43c0,0.08-0.03,0.15-0.08,0.2
			c-0.05,0.05-0.12,0.08-0.2,0.08h-4.31v3.83h5.04c0.08,0,0.15,0.03,0.2,0.08c0.05,0.06,0.08,0.12,0.08,0.2v0.43
			c0,0.08-0.03,0.15-0.08,0.2c-0.06,0.05-0.12,0.08-0.2,0.08h-5.91c-0.08,0-0.15-0.03-0.2-0.08
			C172.26,1024.46,172.23,1024.39,172.23,1024.31z"/>
		<path class="st0" d="M185.61,1024.31v-10.09c0-0.07,0.03-0.13,0.08-0.19s0.12-0.08,0.2-0.08h0.38l6.76,8.43h0.03v-8
			c0-0.08,0.03-0.15,0.08-0.2c0.05-0.05,0.12-0.08,0.2-0.08h0.53c0.07,0,0.13,0.03,0.2,0.09c0.06,0.06,0.09,0.12,0.09,0.2v10.09
			c0,0.07-0.03,0.13-0.08,0.19c-0.05,0.05-0.12,0.08-0.2,0.08h-0.27l-6.89-8.6h-0.01v8.16c0,0.08-0.03,0.15-0.08,0.2
			c-0.06,0.05-0.12,0.08-0.2,0.08h-0.52c-0.07,0-0.14-0.03-0.2-0.09C185.64,1024.45,185.61,1024.38,185.61,1024.31z"/>
		<path class="st0" d="M203.21,1024.31v-9.21h-2.61c-0.08,0-0.15-0.03-0.2-0.08c-0.05-0.06-0.08-0.12-0.08-0.2v-0.43
			c0-0.08,0.03-0.15,0.08-0.2c0.06-0.05,0.12-0.08,0.2-0.08h6.36c0.08,0,0.15,0.03,0.2,0.08c0.05,0.06,0.08,0.12,0.08,0.2v0.43
			c0,0.08-0.03,0.15-0.08,0.2c-0.06,0.05-0.12,0.08-0.2,0.08h-2.61v9.21c0,0.07-0.03,0.13-0.08,0.2c-0.05,0.06-0.12,0.09-0.2,0.09
			h-0.57c-0.08,0-0.15-0.03-0.2-0.09C203.23,1024.45,203.21,1024.38,203.21,1024.31z"/>
		<path class="st0" d="M213.39,1024.31v-9.93c0-0.07,0.03-0.13,0.09-0.2c0.06-0.06,0.12-0.09,0.2-0.09h0.6
			c0.07,0,0.13,0.03,0.2,0.09c0.06,0.06,0.09,0.12,0.09,0.2v9.93c0,0.07-0.03,0.13-0.09,0.2c-0.06,0.06-0.13,0.09-0.2,0.09h-0.6
			c-0.07,0-0.14-0.03-0.2-0.09C213.42,1024.45,213.39,1024.38,213.39,1024.31z"/>
		<path class="st0" d="M222.12,1024.31v-9.93c0-0.08,0.03-0.15,0.08-0.2c0.05-0.05,0.12-0.08,0.19-0.08h3.36
			c1.45,0,2.69,0.51,3.72,1.54c1.03,1.03,1.54,2.26,1.54,3.7c0,1.45-0.51,2.69-1.54,3.72s-2.27,1.54-3.72,1.54h-3.36
			c-0.07,0-0.13-0.03-0.19-0.08C222.15,1024.46,222.12,1024.39,222.12,1024.31z M223.26,1023.56h2.25c1.23,0,2.25-0.4,3.04-1.19
			s1.2-1.81,1.2-3.04c0-1.23-0.4-2.24-1.2-3.03s-1.81-1.19-3.04-1.19h-2.25V1023.56z"/>
		<path class="st0" d="M236.58,1024.6c-0.11,0-0.19-0.04-0.25-0.12c-0.06-0.08-0.06-0.17-0.01-0.27l4.56-10.1
			c0.06-0.11,0.14-0.17,0.25-0.17h0.15c0.11,0,0.2,0.06,0.25,0.17l4.53,10.1c0.05,0.1,0.05,0.19-0.01,0.27
			c-0.05,0.08-0.14,0.12-0.25,0.12h-0.6c-0.13,0-0.22-0.05-0.25-0.17l-1.11-2.47h-5.33l-1.09,2.47c-0.04,0.11-0.12,0.17-0.25,0.17
			H236.58z M238.95,1021.03h4.5c-0.25-0.55-0.62-1.37-1.09-2.46c-0.48-1.09-0.85-1.91-1.09-2.46h-0.12L238.95,1021.03z"/>
		<path class="st0" d="M252.21,1024.31v-9.93c0-0.08,0.03-0.15,0.08-0.2c0.05-0.05,0.12-0.08,0.19-0.08h3.36
			c1.45,0,2.69,0.51,3.72,1.54c1.03,1.03,1.54,2.26,1.54,3.7c0,1.45-0.51,2.69-1.54,3.72s-2.27,1.54-3.72,1.54h-3.36
			c-0.07,0-0.13-0.03-0.19-0.08C252.24,1024.46,252.21,1024.39,252.21,1024.31z M253.35,1023.56h2.25c1.23,0,2.25-0.4,3.04-1.19
			s1.2-1.81,1.2-3.04c0-1.23-0.4-2.24-1.2-3.03s-1.81-1.19-3.04-1.19h-2.25V1023.56z"/>
		<path class="st0" d="M275.75,1024.31v-9.93c0-0.08,0.03-0.15,0.08-0.2c0.05-0.05,0.12-0.08,0.19-0.08h3.36
			c1.45,0,2.69,0.51,3.72,1.54c1.03,1.03,1.54,2.26,1.54,3.7c0,1.45-0.51,2.69-1.54,3.72s-2.27,1.54-3.72,1.54h-3.36
			c-0.07,0-0.13-0.03-0.19-0.08C275.77,1024.46,275.75,1024.39,275.75,1024.31z M276.89,1023.56h2.25c1.23,0,2.25-0.4,3.04-1.19
			s1.2-1.81,1.2-3.04c0-1.23-0.4-2.24-1.2-3.03s-1.81-1.19-3.04-1.19h-2.25V1023.56z"/>
		<path class="st0" d="M291.45,1024.31v-9.93c0-0.08,0.03-0.15,0.08-0.2c0.05-0.05,0.12-0.08,0.2-0.08h5.91
			c0.08,0,0.15,0.03,0.2,0.08c0.05,0.06,0.08,0.12,0.08,0.2v0.43c0,0.08-0.03,0.15-0.08,0.2c-0.06,0.05-0.12,0.08-0.2,0.08h-5.04
			v3.66h4.31c0.08,0,0.15,0.03,0.2,0.08c0.05,0.06,0.08,0.12,0.08,0.2v0.43c0,0.08-0.03,0.15-0.08,0.2
			c-0.05,0.05-0.12,0.08-0.2,0.08h-4.31v3.83h5.04c0.08,0,0.15,0.03,0.2,0.08c0.05,0.06,0.08,0.12,0.08,0.2v0.43
			c0,0.08-0.03,0.15-0.08,0.2c-0.06,0.05-0.12,0.08-0.2,0.08h-5.91c-0.08,0-0.15-0.03-0.2-0.08
			C291.48,1024.46,291.45,1024.39,291.45,1024.31z"/>
		<path class="st0" d="M311.91,1024.24l1.93-10.08c0.03-0.14,0.12-0.21,0.27-0.21h0.24c0.13,0,0.21,0.06,0.26,0.17l2.97,8.27h0.08
			l2.92-8.27c0.04-0.11,0.12-0.17,0.25-0.17h0.24c0.15,0,0.24,0.07,0.27,0.21l1.94,10.08c0.05,0.24-0.04,0.36-0.27,0.36h-0.6
			c-0.14,0-0.23-0.07-0.27-0.21l-1.33-7.72h-0.06l-2.76,7.92c-0.04,0.11-0.13,0.17-0.26,0.17h-0.27c-0.13,0-0.21-0.06-0.25-0.17
			l-2.79-7.92h-0.06l-1.3,7.72c-0.01,0.05-0.04,0.1-0.1,0.14s-0.11,0.07-0.17,0.07h-0.6
			C311.95,1024.6,311.86,1024.48,311.91,1024.24z"/>
		<path class="st0" d="M328.91,1024.6c-0.11,0-0.19-0.04-0.25-0.12c-0.06-0.08-0.06-0.17-0.01-0.27l4.56-10.1
			c0.06-0.11,0.14-0.17,0.25-0.17h0.15c0.11,0,0.2,0.06,0.25,0.17l4.53,10.1c0.05,0.1,0.05,0.19-0.01,0.27
			c-0.05,0.08-0.14,0.12-0.25,0.12h-0.6c-0.13,0-0.22-0.05-0.25-0.17l-1.11-2.47h-5.33l-1.09,2.47c-0.04,0.11-0.12,0.17-0.25,0.17
			H328.91z M331.28,1021.03h4.5c-0.25-0.55-0.62-1.37-1.09-2.46c-0.48-1.09-0.85-1.91-1.09-2.46h-0.12L331.28,1021.03z"/>
		<path class="st0" d="M344.54,1024.31v-9.93c0-0.08,0.03-0.15,0.08-0.2c0.05-0.05,0.12-0.08,0.2-0.08h3.88
			c0.9,0,1.67,0.31,2.31,0.93c0.64,0.62,0.96,1.38,0.96,2.27c0,0.68-0.2,1.29-0.61,1.84c-0.41,0.55-0.94,0.95-1.61,1.22l2.05,3.81
			c0.06,0.1,0.06,0.2,0.01,0.29c-0.05,0.1-0.14,0.14-0.26,0.14h-0.76c-0.11,0-0.19-0.04-0.24-0.13l-2-3.98h-2.87v3.83
			c0,0.07-0.03,0.13-0.08,0.2c-0.05,0.06-0.12,0.09-0.2,0.09h-0.58c-0.08,0-0.15-0.03-0.2-0.08
			C344.56,1024.46,344.54,1024.39,344.54,1024.31z M345.72,1019.5h2.91c0.58,0,1.08-0.21,1.51-0.64c0.43-0.42,0.65-0.94,0.65-1.55
			c0-0.57-0.21-1.07-0.65-1.49c-0.43-0.42-0.93-0.63-1.51-0.63h-2.91V1019.5z"/>
		<path class="st0" d="M359.77,1023.18c-1.06-1.04-1.58-2.32-1.58-3.82s0.53-2.78,1.58-3.83c1.05-1.05,2.33-1.58,3.83-1.58
			c1.33,0,2.54,0.47,3.63,1.4c0.14,0.15,0.15,0.29,0.02,0.42l-0.41,0.41c-0.11,0.14-0.24,0.13-0.39-0.02
			c-0.87-0.75-1.83-1.12-2.87-1.12c-1.17,0-2.16,0.43-2.97,1.28c-0.81,0.85-1.21,1.87-1.21,3.04c0,1.17,0.4,2.18,1.21,3.03
			c0.81,0.85,1.8,1.27,2.97,1.27c0.41,0,0.8-0.06,1.16-0.17s0.66-0.24,0.88-0.38c0.22-0.14,0.5-0.33,0.83-0.58
			c0.13-0.1,0.25-0.11,0.36-0.04l0.45,0.41c0.06,0.05,0.09,0.12,0.08,0.2c-0.01,0.08-0.04,0.15-0.1,0.21
			c-1,0.97-2.21,1.46-3.65,1.46C362.1,1024.75,360.82,1024.22,359.77,1023.18z"/>
		<path class="st0" d="M372.87,1024.6c-0.11,0-0.19-0.04-0.25-0.12c-0.06-0.08-0.06-0.17-0.01-0.27l4.56-10.1
			c0.06-0.11,0.14-0.17,0.25-0.17h0.15c0.11,0,0.2,0.06,0.25,0.17l4.53,10.1c0.05,0.1,0.05,0.19-0.01,0.27
			c-0.05,0.08-0.14,0.12-0.25,0.12h-0.6c-0.13,0-0.22-0.05-0.25-0.17l-1.11-2.47h-5.33l-1.09,2.47c-0.04,0.11-0.12,0.17-0.25,0.17
			H372.87z M375.24,1021.03h4.5c-0.25-0.55-0.62-1.37-1.09-2.46c-0.48-1.09-0.85-1.91-1.09-2.46h-0.12L375.24,1021.03z"/>
	</g>
	<g>
		<path class="st0" d="M46.77,55.44l-4.68-10.09c-0.05-0.1-0.05-0.19,0.01-0.27s0.14-0.12,0.25-0.12h1.99
			c0.13,0,0.21,0.06,0.26,0.17l2.47,5.48h0.09l2.47-5.48c0.04-0.11,0.12-0.17,0.26-0.17h1.99c0.11,0,0.19,0.04,0.25,0.12
			s0.06,0.17,0.01,0.27l-4.71,10.09c-0.06,0.11-0.14,0.17-0.25,0.17h-0.15C46.91,55.6,46.83,55.55,46.77,55.44z"/>
		<path class="st0" d="M57.87,55.17v-9.93c0-0.08,0.03-0.15,0.08-0.2c0.05-0.05,0.12-0.08,0.2-0.08h6.21c0.08,0,0.15,0.03,0.2,0.08
			c0.06,0.06,0.08,0.12,0.08,0.2v1.63c0,0.08-0.03,0.15-0.08,0.2c-0.05,0.06-0.12,0.08-0.2,0.08h-4.16v1.86h3.42
			c0.08,0,0.15,0.03,0.2,0.08c0.05,0.06,0.08,0.12,0.08,0.2v1.63c0,0.08-0.03,0.15-0.08,0.2c-0.05,0.06-0.12,0.08-0.2,0.08h-3.42
			v2.02h4.16c0.08,0,0.15,0.03,0.2,0.08c0.06,0.06,0.08,0.12,0.08,0.2v1.63c0,0.08-0.03,0.15-0.08,0.2
			c-0.05,0.06-0.12,0.08-0.2,0.08h-6.21c-0.08,0-0.15-0.03-0.2-0.08C57.89,55.32,57.87,55.25,57.87,55.17z"/>
		<path class="st0" d="M71.16,55.17v-9.93c0-0.08,0.03-0.15,0.08-0.2c0.05-0.05,0.12-0.08,0.2-0.08h4.48c0.9,0,1.67,0.32,2.31,0.95
			c0.64,0.64,0.96,1.4,0.96,2.29c0,0.67-0.2,1.27-0.61,1.81c-0.41,0.54-0.94,0.94-1.61,1.21l2.05,3.81c0.06,0.1,0.06,0.2,0.01,0.29
			c-0.06,0.1-0.14,0.14-0.26,0.14h-2c-0.11,0-0.19-0.04-0.24-0.13l-1.99-3.98h-1.04v3.82c0,0.07-0.03,0.14-0.08,0.2
			c-0.06,0.06-0.12,0.09-0.2,0.09h-1.79c-0.08,0-0.15-0.03-0.2-0.08C71.18,55.32,71.16,55.25,71.16,55.17z M73.51,49.44h2.22
			c0.31,0,0.58-0.12,0.8-0.36c0.23-0.24,0.34-0.52,0.34-0.84c0-0.31-0.11-0.58-0.34-0.8c-0.22-0.23-0.49-0.34-0.8-0.34h-2.22V49.44z
			"/>
		<path class="st0" d="M85.18,54.45c-0.08-0.08-0.13-0.14-0.14-0.19s0.01-0.12,0.06-0.23l0.71-1.25c0.05-0.09,0.13-0.14,0.26-0.15
			c0.12-0.01,0.21,0.01,0.25,0.06l0.11,0.06c0.07,0.05,0.15,0.1,0.25,0.17c0.09,0.06,0.21,0.13,0.36,0.2s0.29,0.13,0.44,0.19
			c0.14,0.06,0.3,0.11,0.48,0.15c0.17,0.04,0.34,0.06,0.5,0.06c0.3,0,0.55-0.08,0.74-0.25s0.29-0.38,0.29-0.65
			c0-0.6-0.52-1.1-1.54-1.52c-1.94-0.77-2.91-1.88-2.91-3.31c0-0.81,0.3-1.51,0.91-2.1c0.61-0.59,1.46-0.88,2.55-0.88
			c1.12,0,2.19,0.38,3.21,1.12c0.08,0.05,0.12,0.13,0.13,0.24c0.01,0.11,0,0.19-0.04,0.24l-0.76,1.15c-0.06,0.09-0.14,0.16-0.25,0.2
			c-0.1,0.04-0.19,0.04-0.26-0.01c-0.01,0-0.07-0.04-0.18-0.12s-0.24-0.16-0.38-0.23c-0.14-0.08-0.3-0.16-0.47-0.25
			c-0.18-0.09-0.36-0.16-0.56-0.22c-0.2-0.05-0.39-0.08-0.56-0.08c-0.27,0-0.5,0.08-0.67,0.23s-0.27,0.33-0.27,0.54
			c0,0.28,0.12,0.53,0.38,0.76c0.25,0.22,0.67,0.46,1.26,0.7c2.02,0.8,3.03,1.94,3.03,3.42c0,0.82-0.33,1.54-0.98,2.17
			c-0.65,0.62-1.51,0.94-2.56,0.94c-0.85,0-1.56-0.12-2.12-0.38C85.87,54.98,85.45,54.72,85.18,54.45z"/>
		<path class="st0" d="M98.43,55.17v-9.93c0-0.07,0.03-0.14,0.09-0.2s0.12-0.09,0.2-0.09h1.8c0.07,0,0.13,0.03,0.19,0.09
			c0.06,0.06,0.09,0.13,0.09,0.2v9.93c0,0.07-0.03,0.14-0.09,0.2c-0.06,0.06-0.12,0.09-0.19,0.09h-1.8c-0.07,0-0.13-0.03-0.2-0.09
			S98.43,55.24,98.43,55.17z"/>
		<path class="st0" d="M108.68,54.04c-1.04-1.04-1.57-2.32-1.57-3.82s0.52-2.78,1.57-3.83s2.32-1.58,3.82-1.58s2.77,0.53,3.82,1.58
			c1.05,1.06,1.58,2.33,1.58,3.83s-0.52,2.77-1.58,3.82c-1.05,1.04-2.32,1.57-3.82,1.57S109.72,55.08,108.68,54.04z M109.51,50.22
			c0,0.82,0.29,1.52,0.88,2.11c0.58,0.58,1.29,0.88,2.11,0.88c0.82,0,1.52-0.29,2.11-0.88s0.89-1.29,0.89-2.11
			c0-0.83-0.3-1.54-0.89-2.13c-0.59-0.59-1.29-0.88-2.11-0.88c-0.82,0-1.52,0.29-2.11,0.88C109.8,48.68,109.51,49.39,109.51,50.22z
			 M111.43,44.02c-0.17,0.11-0.31,0.07-0.41-0.13l-0.31-0.63c-0.05-0.1-0.02-0.2,0.09-0.29l2.55-1.56c0.04-0.04,0.11-0.06,0.2-0.05
			c0.1,0,0.16,0.04,0.19,0.1l0.51,0.89c0.11,0.2,0.08,0.35-0.09,0.45L111.43,44.02z"/>
		<path class="st0" d="M124.21,55.17l-0.02-10.09c0-0.07,0.03-0.13,0.08-0.19s0.12-0.08,0.2-0.08h0.38l5.98,5.76h0.02v-5.32
			c0-0.08,0.03-0.15,0.08-0.2c0.05-0.05,0.12-0.08,0.2-0.08h1.8c0.08,0,0.15,0.03,0.2,0.09s0.08,0.13,0.08,0.2v10.09
			c0,0.07-0.03,0.13-0.08,0.19s-0.12,0.08-0.2,0.08h-0.24c-0.08,0-0.15-0.02-0.19-0.07l-5.93-5.96h-0.01v5.59
			c0,0.08-0.03,0.15-0.08,0.2c-0.05,0.06-0.12,0.08-0.2,0.08h-1.78c-0.07,0-0.14-0.03-0.2-0.09
			C124.24,55.3,124.21,55.24,124.21,55.17z"/>
		<path class="st0" d="M147.73,57.88V42.54c0-0.08,0.03-0.15,0.08-0.2c0.05-0.05,0.12-0.08,0.2-0.08h0.25c0.08,0,0.15,0.03,0.2,0.08
			c0.05,0.06,0.08,0.12,0.08,0.2v15.35c0,0.07-0.03,0.13-0.08,0.19c-0.05,0.05-0.12,0.08-0.2,0.08h-0.24c-0.08,0-0.15-0.03-0.2-0.08
			C147.76,58.02,147.73,57.95,147.73,57.88z"/>
		<path class="st0" d="M163.3,55.17v-9.93c0-0.08,0.03-0.15,0.08-0.2c0.05-0.05,0.12-0.08,0.2-0.08h3.32c0.92,0,1.71,0.33,2.37,0.98
			s0.99,1.43,0.99,2.34c0,0.93-0.33,1.73-0.98,2.39c-0.65,0.66-1.44,0.99-2.36,0.99h-2.48v3.52c0,0.07-0.03,0.14-0.09,0.2
			c-0.06,0.06-0.12,0.09-0.2,0.09h-0.57c-0.08,0-0.15-0.03-0.2-0.08C163.33,55.32,163.3,55.25,163.3,55.17z M164.44,50.53h2.39
			c0.62,0,1.16-0.22,1.6-0.67c0.45-0.44,0.68-0.99,0.68-1.63c0-0.6-0.23-1.11-0.68-1.52c-0.45-0.42-0.98-0.62-1.6-0.62h-2.39V50.53z
			"/>
		<path class="st0" d="M177.54,54.04c-1.04-1.04-1.57-2.32-1.57-3.82s0.52-2.78,1.57-3.83s2.32-1.58,3.82-1.58s2.78,0.53,3.83,1.58
			c1.05,1.06,1.57,2.33,1.57,3.83s-0.53,2.77-1.57,3.82c-1.05,1.04-2.33,1.57-3.83,1.57S178.59,55.08,177.54,54.04z M178.3,47.14
			c-0.85,0.86-1.27,1.89-1.27,3.08s0.42,2.21,1.27,3.06s1.87,1.27,3.06,1.27c1.19,0,2.21-0.42,3.07-1.27
			c0.85-0.85,1.28-1.87,1.28-3.06s-0.43-2.21-1.28-3.08c-0.86-0.86-1.88-1.29-3.07-1.29C180.17,45.85,179.15,46.28,178.3,47.14z"/>
		<path class="st0" d="M192.97,54.39c-0.18-0.15-0.21-0.32-0.09-0.51c0.03-0.03,0.07-0.08,0.12-0.14c0.05-0.06,0.08-0.11,0.11-0.14
			c0.18-0.24,0.35-0.29,0.52-0.14c0.89,0.76,1.74,1.14,2.54,1.14c0.59,0,1.07-0.16,1.45-0.48c0.38-0.32,0.56-0.71,0.56-1.17
			c0-0.49-0.21-0.91-0.62-1.27c-0.42-0.35-1.08-0.72-2-1.1c-0.92-0.4-1.59-0.82-2.01-1.25s-0.63-1.05-0.63-1.85
			c0-0.28,0.06-0.56,0.17-0.85s0.29-0.58,0.53-0.85s0.57-0.51,1-0.69c0.43-0.18,0.93-0.27,1.49-0.27c0.44,0,0.87,0.06,1.3,0.19
			c0.42,0.13,0.74,0.25,0.95,0.38l0.31,0.2c0.07,0.03,0.12,0.08,0.15,0.16c0.03,0.08,0.01,0.2-0.06,0.35
			c-0.02,0.03-0.05,0.08-0.09,0.14s-0.07,0.11-0.09,0.14c-0.14,0.21-0.31,0.25-0.53,0.13c-0.81-0.46-1.46-0.69-1.96-0.69
			c-0.71,0-1.23,0.18-1.57,0.52c-0.33,0.35-0.5,0.73-0.5,1.12c0,0.48,0.17,0.88,0.5,1.21c0.33,0.33,0.84,0.63,1.52,0.91
			c1.15,0.47,1.99,0.94,2.53,1.41c0.54,0.47,0.8,1.11,0.8,1.92c0,0.77-0.32,1.41-0.95,1.93c-0.63,0.52-1.4,0.77-2.29,0.77
			c-0.53,0-1.05-0.1-1.57-0.29c-0.51-0.19-0.88-0.36-1.08-0.51S193.11,54.52,192.97,54.39z"/>
		<path class="st0" d="M206.05,55.17v-9.93c0-0.07,0.03-0.14,0.09-0.2s0.12-0.09,0.19-0.09h0.6c0.07,0,0.13,0.03,0.19,0.09
			c0.06,0.06,0.09,0.13,0.09,0.2v9.93c0,0.07-0.03,0.14-0.09,0.2c-0.06,0.06-0.12,0.09-0.19,0.09h-0.6c-0.07,0-0.13-0.03-0.19-0.09
			S206.05,55.24,206.05,55.17z"/>
		<path class="st0" d="M216.26,55.17v-9.21h-2.61c-0.08,0-0.15-0.03-0.2-0.08c-0.06-0.05-0.08-0.12-0.08-0.2v-0.44
			c0-0.08,0.03-0.15,0.08-0.2c0.05-0.05,0.12-0.08,0.2-0.08h6.36c0.08,0,0.15,0.03,0.2,0.08c0.05,0.06,0.08,0.12,0.08,0.2v0.44
			c0,0.08-0.03,0.15-0.08,0.2c-0.05,0.06-0.12,0.08-0.2,0.08h-2.61v9.21c0,0.07-0.03,0.14-0.08,0.2s-0.12,0.09-0.2,0.09h-0.57
			c-0.08,0-0.15-0.03-0.2-0.09C216.29,55.3,216.26,55.24,216.26,55.17z"/>
		<path class="st0" d="M226.45,55.17v-9.93c0-0.07,0.03-0.14,0.09-0.2c0.06-0.06,0.12-0.09,0.2-0.09h0.6c0.07,0,0.13,0.03,0.2,0.09
			s0.09,0.13,0.09,0.2v9.93c0,0.07-0.03,0.14-0.09,0.2s-0.12,0.09-0.2,0.09h-0.6c-0.07,0-0.13-0.03-0.2-0.09
			C226.48,55.3,226.45,55.24,226.45,55.17z"/>
		<path class="st0" d="M238.28,55.44l-4.53-10.09c-0.05-0.1-0.05-0.19,0.01-0.27s0.14-0.12,0.25-0.12h0.6
			c0.13,0,0.21,0.06,0.25,0.17l3.74,8.4h0.06l3.74-8.4c0.04-0.11,0.12-0.17,0.25-0.17h0.6c0.11,0,0.19,0.04,0.25,0.12
			c0.05,0.08,0.06,0.17,0.01,0.27l-4.56,10.09c-0.05,0.11-0.13,0.17-0.25,0.17h-0.15C238.42,55.6,238.33,55.55,238.28,55.44z"/>
		<path class="st0" d="M250.38,54.04c-1.04-1.04-1.57-2.32-1.57-3.82s0.52-2.78,1.57-3.83s2.32-1.58,3.82-1.58s2.78,0.53,3.83,1.58
			s1.58,2.33,1.58,3.83s-0.53,2.77-1.58,3.82s-2.33,1.57-3.83,1.57S251.43,55.08,250.38,54.04z M251.14,47.14
			c-0.85,0.86-1.27,1.89-1.27,3.08s0.42,2.21,1.27,3.06c0.85,0.85,1.87,1.27,3.06,1.27s2.21-0.42,3.07-1.27s1.28-1.87,1.28-3.06
			s-0.43-2.21-1.28-3.08c-0.85-0.86-1.88-1.29-3.07-1.29S251.99,46.28,251.14,47.14z"/>
	</g>
	<g>
		<g>
			<path class="st0" d="M1842.49,1035.91c-0.41,0-0.75,0.33-0.75,0.75v10.95c0,0.41,0.33,0.75,0.75,0.75s0.75-0.33,0.75-0.75v-10.95
				C1843.23,1036.24,1842.9,1035.91,1842.49,1035.91z"/>
			<path class="st0" d="M1839.58,1034.2c-0.41,0-0.75,0.33-0.75,0.75v4.9c0,0.41,0.33,0.75,0.75,0.75c0.41,0,0.75-0.33,0.75-0.75
				v-4.9C1840.33,1034.54,1840,1034.2,1839.58,1034.2z"/>
			<path class="st0" d="M1845.39,1034.2c-0.41,0-0.75,0.33-0.75,0.75v4.9c0,0.41,0.33,0.75,0.75,0.75c0.41,0,0.75-0.33,0.75-0.75
				v-4.9C1846.14,1034.54,1845.8,1034.2,1845.39,1034.2z"/>
		</g>
		<g>
			<path class="st0" d="M1805.22,1008.96v14.43c0,1.25-0.4,3.04,1.42,3.04c1.12,0,1.45-0.52,1.5-1.42v-16.02h3.74v16.02
				c0,0.05,0,0.07,0,0.12c0.07,0.72,0.37,1.3,1.42,1.3c1.37,0,1.52-0.75,1.52-1.92c0-5.17-0.03-10.36-0.03-15.55h3.74v16.05
				c0,3.04-2.22,5.17-5.24,5.17c-1.3,0-2.42-0.4-3.29-1.1c-0.9,0.7-2.05,1.1-3.37,1.1c-2.99,0-5.17-2.17-5.17-5.17v-16.05H1805.22z"
				/>
			<path class="st0" d="M1872.47,1009.01c3,0,5.17,2.17,5.17,5.17v5.89h-6.66v4.99c0,0.92,0.5,1.42,1.42,1.42
				c1.17,0,1.52-0.57,1.52-1.62c0-0.9-0.02-1.8-0.02-2.67h3.74v2.87c0,3.05-2.22,5.17-5.24,5.17c-3,0-5.17-2.17-5.17-5.17v-10.88
				C1867.23,1011.15,1869.45,1009.01,1872.47,1009.01z M1873.92,1016.32c0-0.92,0.05-2.47-0.17-2.95c-0.25-0.47-0.77-0.62-1.27-0.62
				c-0.95,0-1.5,0.45-1.5,1.42v2.15H1873.92z"/>
			<path class="st0" d="M1830.45,1022.68v-0.54h-3.74c0,0.87,0.03,1.77,0.03,2.67c0,1.05-0.35,1.62-1.52,1.62
				c-0.92,0-1.42-0.5-1.42-1.42v-4.99h6.66v-5.89c0-2.99-2.17-5.17-5.17-5.17c-3.02,0-5.24,2.15-5.24,5.17v10.88
				c0,2.99,2.17,5.17,5.17,5.17c1.37,0,2.58-0.44,3.49-1.2C1828.79,1026.71,1829.4,1024.54,1830.45,1022.68z M1823.79,1014.13
				c0-0.97,0.55-1.42,1.5-1.42c0.5,0,1.02,0.15,1.27,0.62c0.22,0.47,0.17,2.02,0.17,2.95h-2.95V1014.13z"/>
			<path class="st0" d="M1863.49,1021.46c1.27-1.07,2.05-2.75,2.05-4.69v-1.65c0-3.57-2.55-6.12-6.12-6.12h-4.29v14.89
				c0.75,1.73,1.17,3.67,1.17,5.66c0,0.2,0,0.41-0.01,0.63l0,0.03h2.59v-7.34h0.55c0.2,0,0.37,0,0.57-0.02l1.9,7.36h3.84
				L1863.49,1021.46z M1861.79,1016.92c-0.27,1.9-1.22,2.22-2.92,2.22v-6.39c0.25,0,0.52,0,0.8,0c1.37,0.08,2.12,1.02,2.12,2.37
				V1016.92z"/>
			<path class="st0" d="M1851.46,1020.2l-0.11-0.09l-0.02,0.15c-0.11,0.95-0.32,1.88-0.62,2.77c0.06-0.69,0.09-1.38,0.09-2.06
				c0-7.09-3.05-13.51-8.16-17.2l-0.04-0.03l-0.04,0.03c-5.11,3.68-8.16,10.11-8.16,17.2c0,0.78,0.04,1.57,0.12,2.35
				c-0.38-1.01-0.62-2.08-0.74-3.18l-0.02-0.15l-0.11,0.09c-2.59,2.18-4.13,5.72-4.13,9.48c0,0.19,0,0.39,0.01,0.6l0,0.09h6.77
				l0.02,0.06c0.01,0.03,0.02,0.05,0.03,0.08l0.03,0.05c0.4,0.89,0.85,1.74,1.35,2.53l0.02,0.04h2.99v-5.46h3.48
				c0.02,1.82,0.02,3.64,0.03,5.46h3.18l0.02-0.04c0.5-0.79,0.95-1.65,1.35-2.53l0.03-0.05c0.01-0.03,0.02-0.05,0.03-0.08l0.02-0.06
				h6.54l0-0.09c0.01-0.22,0.01-0.41,0.01-0.6C1855.45,1025.88,1853.96,1022.39,1851.46,1020.2z M1844.28,1016.67
				c0,0.74-0.6,1.33-1.33,1.33h-0.9c-0.74,0-1.33-0.6-1.33-1.33v-2.9c0-0.74,0.6-1.33,1.33-1.33h0.9c0.74,0,1.33,0.6,1.33,1.33
				V1016.67z"/>
		</g>
	</g>
	<g>
		<path class="st0" d="M804.87,680.52v-13.24c0-0.09,0.04-0.18,0.12-0.26s0.17-0.12,0.26-0.12h0.8c0.09,0,0.18,0.04,0.26,0.12
			c0.08,0.08,0.12,0.17,0.12,0.26v13.24c0,0.09-0.04,0.18-0.12,0.26c-0.08,0.08-0.17,0.12-0.26,0.12h-0.8
			c-0.09,0-0.18-0.04-0.26-0.12S804.87,680.62,804.87,680.52z"/>
		<path class="st0" d="M816.51,680.52v-13.24c0-0.11,0.04-0.2,0.11-0.27c0.07-0.07,0.16-0.11,0.25-0.11h4.48
			c1.93,0,3.59,0.68,4.96,2.05s2.06,3.01,2.06,4.93c0,1.93-0.69,3.59-2.06,4.96c-1.37,1.37-3.03,2.06-4.96,2.06h-4.48
			c-0.09,0-0.18-0.04-0.25-0.11C816.55,680.72,816.51,680.63,816.51,680.52z M818.03,679.52h3c1.64,0,2.99-0.53,4.06-1.59
			c1.07-1.06,1.6-2.41,1.6-4.05s-0.53-2.99-1.6-4.04c-1.07-1.05-2.42-1.58-4.06-1.58h-3V679.52z"/>
		<path class="st0" d="M837.45,680.52v-13.24c0-0.11,0.04-0.2,0.11-0.27c0.07-0.07,0.16-0.11,0.27-0.11h7.88
			c0.11,0,0.2,0.04,0.27,0.11c0.07,0.07,0.11,0.16,0.11,0.27v0.58c0,0.11-0.04,0.2-0.11,0.27c-0.07,0.07-0.16,0.11-0.27,0.11h-6.72
			v4.88h5.74c0.11,0,0.2,0.04,0.27,0.11c0.07,0.07,0.11,0.16,0.11,0.27v0.58c0,0.11-0.04,0.2-0.11,0.27
			c-0.07,0.07-0.16,0.11-0.27,0.11h-5.74v5.1h6.72c0.11,0,0.2,0.04,0.27,0.11c0.07,0.07,0.11,0.16,0.11,0.27v0.58
			c0,0.11-0.04,0.2-0.11,0.27c-0.07,0.07-0.16,0.11-0.27,0.11h-7.88c-0.11,0-0.2-0.04-0.27-0.11
			C837.49,680.72,837.45,680.63,837.45,680.52z"/>
		<path class="st0" d="M853.71,680.9c-0.15,0-0.26-0.05-0.33-0.16c-0.07-0.11-0.08-0.23-0.01-0.36l6.08-13.46
			c0.08-0.15,0.19-0.22,0.34-0.22h0.2c0.15,0,0.26,0.07,0.34,0.22l6.04,13.46c0.07,0.13,0.06,0.25-0.01,0.36
			c-0.07,0.11-0.18,0.16-0.33,0.16h-0.8c-0.17,0-0.29-0.07-0.34-0.22l-1.48-3.3h-7.1l-1.46,3.3c-0.05,0.15-0.17,0.22-0.34,0.22
			H853.71z M856.87,676.14h6c-0.33-0.73-0.82-1.83-1.46-3.28c-0.64-1.45-1.13-2.55-1.46-3.28h-0.16L856.87,676.14z"/>
		<path class="st0" d="M873.77,679.48c-0.24-0.2-0.28-0.43-0.12-0.68c0.04-0.04,0.09-0.1,0.16-0.19c0.07-0.09,0.11-0.15,0.14-0.19
			c0.24-0.32,0.47-0.38,0.7-0.18c1.19,1.01,2.31,1.52,3.38,1.52c0.79,0,1.43-0.21,1.93-0.64c0.5-0.43,0.75-0.95,0.75-1.56
			c0-0.65-0.28-1.22-0.83-1.69c-0.55-0.47-1.44-0.96-2.67-1.47c-1.23-0.53-2.12-1.09-2.68-1.67c-0.56-0.58-0.84-1.4-0.84-2.47
			c0-0.37,0.08-0.75,0.23-1.14s0.39-0.77,0.7-1.14c0.31-0.37,0.76-0.68,1.34-0.92s1.24-0.36,1.99-0.36c0.59,0,1.16,0.09,1.73,0.26
			s0.99,0.34,1.27,0.5l0.42,0.26c0.09,0.04,0.16,0.11,0.2,0.22c0.04,0.11,0.01,0.26-0.08,0.46c-0.03,0.04-0.07,0.1-0.12,0.19
			c-0.05,0.09-0.09,0.15-0.12,0.19c-0.19,0.28-0.42,0.34-0.7,0.18c-1.08-0.61-1.95-0.92-2.62-0.92c-0.95,0-1.64,0.23-2.09,0.7
			c-0.45,0.47-0.67,0.97-0.67,1.5c0,0.64,0.22,1.18,0.67,1.61c0.45,0.43,1.12,0.84,2.03,1.21c1.53,0.63,2.66,1.25,3.37,1.88
			c0.71,0.63,1.07,1.48,1.07,2.56c0,1.03-0.42,1.88-1.27,2.57c-0.85,0.69-1.86,1.03-3.05,1.03c-0.71,0-1.4-0.13-2.09-0.39
			s-1.17-0.49-1.44-0.68C874.19,679.84,873.96,679.66,873.77,679.48z"/>
		<path class="st0" d="M902.72,679.01c-1.39-1.39-2.09-3.09-2.09-5.09s0.7-3.7,2.09-5.11c1.39-1.41,3.09-2.11,5.09-2.11
			s3.7,0.7,5.1,2.11c1.4,1.41,2.1,3.11,2.1,5.11c0,1.46-0.39,2.77-1.17,3.95c-0.78,1.18-1.81,2.06-3.09,2.63l2.34,3.76
			c0.09,0.13,0.1,0.27,0.03,0.4c-0.07,0.13-0.19,0.2-0.35,0.2h-1c-0.13,0-0.24-0.07-0.32-0.2l-2.18-3.68
			c-0.44,0.08-0.93,0.12-1.46,0.12C905.81,681.1,904.11,680.41,902.72,679.01z M903.73,669.82c-1.13,1.15-1.7,2.51-1.7,4.1
			c0,1.59,0.57,2.95,1.7,4.08c1.13,1.13,2.49,1.7,4.08,1.7c1.59,0,2.95-0.57,4.09-1.7c1.14-1.13,1.71-2.49,1.71-4.08
			c0-1.59-0.57-2.95-1.71-4.1s-2.5-1.72-4.09-1.72C906.22,668.1,904.86,668.68,903.73,669.82z"/>
		<path class="st0" d="M923.91,675.74v-8.46c0-0.09,0.04-0.18,0.11-0.26s0.16-0.12,0.27-0.12h0.76c0.11,0,0.2,0.04,0.27,0.11
			c0.07,0.07,0.11,0.16,0.11,0.27v8.34c0,1.17,0.34,2.14,1.02,2.91c0.68,0.77,1.59,1.15,2.74,1.15c1.16,0,2.08-0.38,2.77-1.14
			c0.69-0.76,1.03-1.72,1.03-2.88v-8.38c0-0.11,0.04-0.2,0.11-0.27c0.07-0.07,0.16-0.11,0.27-0.11h0.76c0.11,0,0.2,0.04,0.27,0.12
			s0.11,0.17,0.11,0.26v8.46c0,1.53-0.5,2.81-1.49,3.83c-0.99,1.02-2.27,1.53-3.83,1.53c-1.55,0-2.81-0.51-3.8-1.53
			C924.4,678.55,923.91,677.28,923.91,675.74z"/>
		<path class="st0" d="M944.41,680.52v-13.24c0-0.11,0.04-0.2,0.11-0.27c0.07-0.07,0.16-0.11,0.27-0.11h7.88
			c0.11,0,0.2,0.04,0.27,0.11c0.07,0.07,0.11,0.16,0.11,0.27v0.58c0,0.11-0.04,0.2-0.11,0.27c-0.07,0.07-0.16,0.11-0.27,0.11h-6.72
			v4.88h5.74c0.11,0,0.2,0.04,0.27,0.11c0.07,0.07,0.11,0.16,0.11,0.27v0.58c0,0.11-0.04,0.2-0.11,0.27
			c-0.07,0.07-0.16,0.11-0.27,0.11h-5.74v5.1h6.72c0.11,0,0.2,0.04,0.27,0.11c0.07,0.07,0.11,0.16,0.11,0.27v0.58
			c0,0.11-0.04,0.2-0.11,0.27c-0.07,0.07-0.16,0.11-0.27,0.11h-7.88c-0.11,0-0.2-0.04-0.27-0.11
			C944.45,680.72,944.41,680.63,944.41,680.52z"/>
		<path class="st0" d="M972.69,680.52v-13.24c0-0.11,0.04-0.2,0.11-0.27c0.07-0.07,0.16-0.11,0.25-0.11h4.48
			c1.93,0,3.59,0.68,4.96,2.05s2.06,3.01,2.06,4.93c0,1.93-0.69,3.59-2.06,4.96c-1.37,1.37-3.03,2.06-4.96,2.06h-4.48
			c-0.09,0-0.18-0.04-0.25-0.11C972.73,680.72,972.69,680.63,972.69,680.52z M974.21,679.52h3c1.64,0,2.99-0.53,4.06-1.59
			c1.07-1.06,1.6-2.41,1.6-4.05s-0.53-2.99-1.6-4.04c-1.07-1.05-2.42-1.58-4.06-1.58h-3V679.52z"/>
		<path class="st0" d="M993.63,680.52v-13.24c0-0.11,0.04-0.2,0.11-0.27c0.07-0.07,0.16-0.11,0.27-0.11h7.88
			c0.11,0,0.2,0.04,0.27,0.11c0.07,0.07,0.11,0.16,0.11,0.27v0.58c0,0.11-0.04,0.2-0.11,0.27c-0.07,0.07-0.16,0.11-0.27,0.11h-6.72
			v4.88h5.74c0.11,0,0.2,0.04,0.27,0.11c0.07,0.07,0.11,0.16,0.11,0.27v0.58c0,0.11-0.04,0.2-0.11,0.27
			c-0.07,0.07-0.16,0.11-0.27,0.11h-5.74v5.1h6.72c0.11,0,0.2,0.04,0.27,0.11c0.07,0.07,0.11,0.16,0.11,0.27v0.58
			c0,0.11-0.04,0.2-0.11,0.27c-0.07,0.07-0.16,0.11-0.27,0.11h-7.88c-0.11,0-0.2-0.04-0.27-0.11
			C993.67,680.72,993.63,680.63,993.63,680.52z"/>
		<path class="st0" d="M1010.69,679.48c-0.24-0.2-0.28-0.43-0.12-0.68c0.04-0.04,0.09-0.1,0.16-0.19c0.07-0.09,0.11-0.15,0.14-0.19
			c0.24-0.32,0.47-0.38,0.7-0.18c1.19,1.01,2.31,1.52,3.38,1.52c0.79,0,1.43-0.21,1.93-0.64c0.5-0.43,0.75-0.95,0.75-1.56
			c0-0.65-0.28-1.22-0.83-1.69c-0.55-0.47-1.44-0.96-2.67-1.47c-1.23-0.53-2.12-1.09-2.68-1.67c-0.56-0.58-0.84-1.4-0.84-2.47
			c0-0.37,0.08-0.75,0.23-1.14s0.39-0.77,0.7-1.14c0.31-0.37,0.76-0.68,1.34-0.92s1.24-0.36,1.99-0.36c0.59,0,1.16,0.09,1.73,0.26
			s0.99,0.34,1.27,0.5l0.42,0.26c0.09,0.04,0.16,0.11,0.2,0.22c0.04,0.11,0.01,0.26-0.08,0.46c-0.03,0.04-0.07,0.1-0.12,0.19
			c-0.05,0.09-0.09,0.15-0.12,0.19c-0.19,0.28-0.42,0.34-0.7,0.18c-1.08-0.61-1.95-0.92-2.62-0.92c-0.95,0-1.64,0.23-2.09,0.7
			c-0.45,0.47-0.67,0.97-0.67,1.5c0,0.64,0.22,1.18,0.67,1.61c0.45,0.43,1.12,0.84,2.03,1.21c1.53,0.63,2.66,1.25,3.37,1.88
			c0.71,0.63,1.07,1.48,1.07,2.56c0,1.03-0.42,1.88-1.27,2.57c-0.85,0.69-1.86,1.03-3.05,1.03c-0.71,0-1.4-0.13-2.09-0.39
			s-1.17-0.49-1.44-0.68C1011.11,679.84,1010.88,679.66,1010.69,679.48z"/>
		<path class="st0" d="M1028.13,680.52v-13.24c0-0.11,0.04-0.2,0.11-0.27c0.07-0.07,0.16-0.11,0.27-0.11h4.42
			c1.23,0,2.28,0.43,3.16,1.3s1.32,1.91,1.32,3.12c0,1.24-0.44,2.3-1.31,3.18c-0.87,0.88-1.92,1.32-3.15,1.32h-3.3v4.7
			c0,0.09-0.04,0.18-0.12,0.26c-0.08,0.08-0.17,0.12-0.26,0.12h-0.76c-0.11,0-0.2-0.04-0.27-0.11
			C1028.17,680.72,1028.13,680.63,1028.13,680.52z M1029.65,674.34h3.18c0.83,0,1.54-0.3,2.14-0.89c0.6-0.59,0.9-1.32,0.9-2.17
			c0-0.8-0.3-1.48-0.9-2.03c-0.6-0.55-1.31-0.83-2.14-0.83h-3.18V674.34z"/>
		<path class="st0" d="M1046.05,680.52v-13.24c0-0.11,0.04-0.2,0.11-0.27c0.07-0.07,0.16-0.11,0.27-0.11h7.88
			c0.11,0,0.2,0.04,0.27,0.11c0.07,0.07,0.11,0.16,0.11,0.27v0.58c0,0.11-0.04,0.2-0.11,0.27c-0.07,0.07-0.16,0.11-0.27,0.11h-6.72
			v4.88h5.74c0.11,0,0.2,0.04,0.27,0.11c0.07,0.07,0.11,0.16,0.11,0.27v0.58c0,0.11-0.04,0.2-0.11,0.27
			c-0.07,0.07-0.16,0.11-0.27,0.11h-5.74v5.1h6.72c0.11,0,0.2,0.04,0.27,0.11c0.07,0.07,0.11,0.16,0.11,0.27v0.58
			c0,0.11-0.04,0.2-0.11,0.27c-0.07,0.07-0.16,0.11-0.27,0.11h-7.88c-0.11,0-0.2-0.04-0.27-0.11
			C1046.08,680.72,1046.05,680.63,1046.05,680.52z"/>
		<path class="st0" d="M1064.92,679.01c-1.41-1.39-2.11-3.09-2.11-5.09s0.7-3.7,2.11-5.11c1.41-1.41,3.11-2.11,5.11-2.11
			c1.77,0,3.39,0.62,4.84,1.86c0.19,0.2,0.19,0.39,0.02,0.56l-0.56,0.56c-0.15,0.16-0.32,0.15-0.52-0.02
			c-0.53-0.47-1.14-0.84-1.81-1.13c-0.67-0.29-1.34-0.43-1.99-0.43c-1.56,0-2.88,0.56-3.95,1.69s-1.61,2.48-1.61,4.05
			c0,1.56,0.54,2.91,1.61,4.06s2.39,1.72,3.95,1.72c0.65,0,1.28-0.07,1.88-0.21c0.6-0.14,1.03-0.28,1.3-0.43l0.42-0.2v-2.8h-2.3
			c-0.11,0-0.2-0.03-0.27-0.1s-0.11-0.15-0.11-0.26v-0.74c0-0.25,0.13-0.38,0.38-0.38h3.46c0.09,0,0.18,0.04,0.25,0.11
			c0.07,0.07,0.11,0.16,0.11,0.27v4.58c0,0.13-0.05,0.24-0.16,0.32c-0.15,0.09-0.36,0.21-0.64,0.36s-0.85,0.34-1.72,0.59
			c-0.87,0.25-1.73,0.37-2.58,0.37C1068.03,681.1,1066.33,680.41,1064.92,679.01z"/>
		<path class="st0" d="M1082.89,680.9c-0.15,0-0.26-0.05-0.33-0.16c-0.07-0.11-0.08-0.23-0.01-0.36l6.08-13.46
			c0.08-0.15,0.19-0.22,0.34-0.22h0.2c0.15,0,0.26,0.07,0.34,0.22l6.04,13.46c0.07,0.13,0.06,0.25-0.01,0.36
			c-0.07,0.11-0.18,0.16-0.33,0.16h-0.8c-0.17,0-0.29-0.07-0.34-0.22l-1.48-3.3h-7.1l-1.46,3.3c-0.05,0.15-0.17,0.22-0.34,0.22
			H1082.89z M1086.05,676.14h6c-0.33-0.73-0.82-1.83-1.46-3.28c-0.64-1.45-1.13-2.55-1.46-3.28h-0.16L1086.05,676.14z"/>
		<path class="st0" d="M1103.73,680.52v-13.46c0-0.09,0.04-0.18,0.11-0.25c0.07-0.07,0.16-0.11,0.27-0.11h0.5l9.02,11.24h0.04
			v-10.66c0-0.11,0.04-0.2,0.11-0.27c0.07-0.07,0.16-0.11,0.27-0.11h0.7c0.09,0,0.18,0.04,0.26,0.12s0.12,0.17,0.12,0.26v13.46
			c0,0.09-0.04,0.18-0.11,0.25c-0.07,0.07-0.16,0.11-0.27,0.11h-0.36l-9.18-11.46h-0.02v10.88c0,0.11-0.04,0.2-0.11,0.27
			s-0.16,0.11-0.27,0.11h-0.7c-0.09,0-0.18-0.04-0.26-0.12S1103.73,680.62,1103.73,680.52z"/>
	</g>
	<g>
		<g>
			<path class="st0" d="M973.04,583.37c-1.84,0-3.32,1.49-3.32,3.32v48.73c0,1.84,1.49,3.32,3.32,3.32s3.32-1.49,3.32-3.32V586.7
				C976.36,584.86,974.87,583.37,973.04,583.37z"/>
			<path class="st0" d="M960.12,575.79c-1.84,0-3.32,1.49-3.32,3.32v21.81c0,1.84,1.49,3.32,3.32,3.32s3.32-1.49,3.32-3.32v-21.81
				C963.45,577.28,961.96,575.79,960.12,575.79z"/>
			<path class="st0" d="M985.95,575.79c-1.84,0-3.32,1.49-3.32,3.32v21.81c0,1.84,1.49,3.32,3.32,3.32c1.84,0,3.32-1.49,3.32-3.32
				v-21.81C989.28,577.28,987.79,575.79,985.95,575.79z"/>
		</g>
		<g>
			<path class="st0" d="M807.22,463.49v64.19c0,5.55-1.78,13.55,6.33,13.55c5,0,6.44-2.33,6.66-6.33v-71.3h16.66v71.3
				c0,0.22,0,0.33,0,0.56c0.33,3.22,1.67,5.77,6.33,5.77c6.11,0,6.77-3.33,6.77-8.55c0-22.99-0.11-46.09-0.11-69.18h16.66v71.4
				c0,13.55-9.88,22.99-23.32,22.99c-5.77,0-10.77-1.78-14.66-4.89c-4,3.11-9.11,4.89-14.99,4.89c-13.33,0-22.99-9.66-22.99-22.99
				v-71.4H807.22z"/>
			<path class="st0" d="M1106.45,463.68c13.33,0,22.99,9.66,22.99,22.99v26.21h-29.65v22.21c0,4.11,2.22,6.33,6.33,6.33
				c5.22,0,6.77-2.55,6.77-7.22c0-4-0.11-8-0.11-11.88h16.66v12.77c0,13.55-9.88,22.99-23.32,22.99c-13.33,0-22.99-9.66-22.99-22.99
				v-48.42C1083.13,473.23,1093.01,463.68,1106.45,463.68z M1112.89,496.22c0-4.11,0.22-10.99-0.78-13.1
				c-1.11-2.11-3.44-2.78-5.66-2.78c-4.22,0-6.66,2-6.66,6.33v9.55H1112.89z"/>
			<path class="st0" d="M919.49,524.53v-2.41h-16.66c0,3.89,0.11,7.88,0.11,11.88c0,4.66-1.55,7.22-6.77,7.22
				c-4.11,0-6.33-2.22-6.33-6.33v-22.21h29.65v-26.21c0-13.33-9.66-22.99-22.99-22.99c-13.44,0-23.32,9.55-23.32,22.99v48.42
				c0,13.33,9.66,22.99,22.99,22.99c6.1,0,11.47-1.95,15.51-5.34C912.08,542.46,914.83,532.79,919.49,524.53z M889.84,486.48
				c0-4.33,2.44-6.33,6.66-6.33c2.22,0,4.55,0.67,5.66,2.78c1,2.11,0.78,8.99,0.78,13.1h-13.1V486.48z"/>
			<path class="st0" d="M1066.47,519.1c5.66-4.78,9.11-12.22,9.11-20.88v-7.33c0-15.88-11.33-27.21-27.21-27.21h-19.1v66.27
				c3.36,7.72,5.19,16.34,5.19,25.18c0,0.88-0.02,1.81-0.06,2.82l-0.01,0.13h11.53v-32.65h2.44c0.89,0,1.67,0,2.55-0.11l8.44,32.76
				h17.1L1066.47,519.1z M1058.92,498.88c-1.22,8.44-5.44,9.88-12.99,9.88v-28.43c1.11,0,2.33,0,3.55,0
				c6.11,0.33,9.44,4.55,9.44,10.55V498.88z"/>
			<path class="st0" d="M1012.97,513.5l-0.47-0.41l-0.08,0.68c-0.48,4.22-1.41,8.35-2.77,12.31c0.26-3.06,0.4-6.12,0.4-9.15
				c0-31.53-13.58-60.13-36.32-76.52l-0.18-0.13l-0.18,0.13c-22.74,16.38-36.32,44.99-36.32,76.52c0,3.47,0.17,6.97,0.52,10.45
				c-1.67-4.51-2.78-9.25-3.29-14.15l-0.07-0.68l-0.47,0.4c-11.51,9.68-18.38,25.45-18.38,42.17c0,0.84,0.02,1.71,0.06,2.67
				l0.02,0.39h30.11l0.11,0.25c0.05,0.12,0.1,0.23,0.15,0.35l0.11,0.21c1.78,3.95,3.8,7.74,6.01,11.28l0.1,0.16h13.29v-24.3h15.5
				c0.08,8.1,0.11,16.2,0.12,24.3h14.14l0.1-0.16c2.21-3.53,4.23-7.32,6.01-11.27l0.11-0.22c0.05-0.12,0.1-0.23,0.15-0.35l0.11-0.25
				h29.08l0.01-0.39c0.04-0.96,0.06-1.84,0.06-2.67C1030.71,538.77,1024.08,523.21,1012.97,513.5z M981.01,497.77
				c0,3.28-2.66,5.94-5.94,5.94h-3.98c-3.28,0-5.94-2.66-5.94-5.94v-12.9c0-3.28,2.66-5.94,5.94-5.94h3.98
				c3.28,0,5.94,2.66,5.94,5.94V497.77z"/>
		</g>
	</g>
</g>
</svg>
