<?xml version="1.0" encoding="utf-8"?>
<!-- Generator: Adobe Illustrator 24.3.0, SVG Export Plug-In . SVG Version: 6.00 Build 0)  -->
<svg version="1.1" xmlns="http://www.w3.org/2000/svg" xmlns:xlink="http://www.w3.org/1999/xlink" x="0px" y="0px"
	 viewBox="0 0 1920 1080" style="enable-background:new 0 0 1920 1080;" xml:space="preserve">
<style type="text/css">
	.st0{fill:#1D1D1B;}
	.st1{fill:#293D51;}
	.st2{fill:#FFFFFF;}
	.st3{fill:url(#SVGID_5_);}
	.st4{clip-path:url(#SVGID_7_);}
	.st5{opacity:0.28;}
	.st6{fill:url(#SVGID_8_);}
	.st7{fill:url(#SVGID_9_);}
	.st8{fill:url(#SVGID_10_);}
	.st9{fill:url(#SVGID_11_);}
	.st10{fill:url(#SVGID_12_);}
	.st11{fill:url(#SVGID_13_);}
	.st12{fill:url(#SVGID_14_);}
	.st13{fill:url(#SVGID_15_);}
	.st14{fill:url(#SVGID_16_);}
	.st15{fill:url(#SVGID_17_);}
	.st16{fill:url(#SVGID_18_);}
	.st17{fill:url(#SVGID_19_);}
	.st18{fill:url(#SVGID_20_);}
	.st19{fill:url(#SVGID_21_);}
	.st20{fill:url(#SVGID_22_);}
	.st21{fill:url(#SVGID_23_);}
	.st22{fill:url(#SVGID_24_);}
	.st23{fill:url(#SVGID_25_);}
	.st24{fill:url(#SVGID_26_);}
	.st25{fill:url(#SVGID_27_);}
	.st26{fill:url(#SVGID_28_);}
	.st27{fill:url(#SVGID_29_);}
	.st28{fill:url(#SVGID_30_);}
	.st29{fill:#F34D23;}
	.st30{fill:#FFFFFF;stroke:#1D1D1B;stroke-miterlimit:10;}
	.st31{fill:none;stroke:#03FFFF;stroke-miterlimit:10;stroke-dasharray:10;}
	.st32{fill:none;stroke:#03FFFF;stroke-miterlimit:10;}
	.st33{fill:none;stroke:#03FFFF;stroke-miterlimit:10;stroke-dasharray:9.9851,9.9851;}
	.st34{fill:none;stroke:#03FFFF;stroke-miterlimit:10;stroke-dasharray:10.0327,10.0327;}
	.st35{fill:none;stroke:#03FFFF;stroke-miterlimit:10;stroke-dasharray:9.9349,9.9349;}
	.st36{fill:none;stroke:#03FFFF;stroke-miterlimit:10;stroke-dasharray:10.1175,10.1175;}
	.st37{fill:#FFFFFF;stroke:#1D1D1B;stroke-width:0.5196;stroke-miterlimit:10;}
</style>
<g id="Layer_3">
</g>
<g id="Layer_2">
	<g>
		<path class="st0" d="M45.43,1024.54l-2.83-10.08c-0.03-0.1-0.02-0.19,0.03-0.25c0.05-0.07,0.13-0.11,0.24-0.11h1.75
			c0.14,0,0.23,0.07,0.27,0.21l1.29,5.09h0.06l2.33-5.28c0.06-0.11,0.14-0.16,0.25-0.16h0.27c0.13,0,0.21,0.05,0.25,0.16l2.32,5.28
			h0.06l1.29-5.09c0.04-0.14,0.13-0.21,0.27-0.21h1.75c0.11,0,0.19,0.04,0.24,0.11c0.05,0.07,0.06,0.15,0.03,0.25l-2.83,10.08
			c-0.03,0.14-0.12,0.21-0.27,0.21h-0.24c-0.11,0-0.2-0.06-0.25-0.17l-2.75-6.13h-0.04l-2.73,6.13c-0.06,0.11-0.15,0.17-0.25,0.17
			H45.7C45.56,1024.75,45.46,1024.68,45.43,1024.54z"/>
		<path class="st0" d="M61.42,1024.31v-9.93c0-0.08,0.03-0.15,0.08-0.2c0.06-0.05,0.12-0.08,0.2-0.08h6.21
			c0.08,0,0.15,0.03,0.2,0.08s0.08,0.12,0.08,0.2v1.63c0,0.08-0.03,0.15-0.08,0.2c-0.05,0.06-0.12,0.08-0.2,0.08h-4.16v1.86h3.42
			c0.08,0,0.15,0.03,0.2,0.08c0.05,0.05,0.08,0.12,0.08,0.2v1.63c0,0.08-0.03,0.15-0.08,0.2c-0.06,0.05-0.12,0.08-0.2,0.08h-3.42
			v2.03h4.16c0.08,0,0.15,0.03,0.2,0.08s0.08,0.12,0.08,0.2v1.63c0,0.08-0.03,0.15-0.08,0.2c-0.05,0.05-0.12,0.08-0.2,0.08h-6.21
			c-0.08,0-0.15-0.03-0.2-0.08C61.45,1024.46,61.42,1024.39,61.42,1024.31z"/>
		<path class="st0" d="M81.43,1024.6c-0.11,0-0.19-0.04-0.25-0.12s-0.06-0.17-0.01-0.27l4.69-10.1c0.05-0.11,0.13-0.16,0.25-0.16
			h0.15c0.12,0,0.21,0.05,0.25,0.16l4.7,10.1c0.05,0.1,0.05,0.19-0.01,0.27s-0.14,0.12-0.25,0.12h-1.67c-0.23,0-0.41-0.12-0.53-0.38
			l-0.54-1.19h-4.08l-0.54,1.2c-0.1,0.24-0.28,0.36-0.54,0.36H81.43z M85.06,1021h2.28l-1.14-2.48h-0.01L85.06,1021z"/>
		<path class="st0" d="M96.96,1024.31v-9.93c0-0.08,0.03-0.15,0.08-0.2c0.06-0.05,0.12-0.08,0.2-0.08h4.48
			c0.9,0,1.67,0.32,2.31,0.95c0.64,0.64,0.96,1.4,0.96,2.29c0,0.67-0.2,1.27-0.61,1.81s-0.94,0.94-1.61,1.21l2.05,3.81
			c0.06,0.1,0.06,0.2,0.01,0.29c-0.06,0.1-0.14,0.14-0.26,0.14h-2c-0.11,0-0.19-0.04-0.24-0.13l-2-3.98h-1.04v3.83
			c0,0.07-0.03,0.13-0.08,0.2c-0.05,0.06-0.12,0.09-0.2,0.09h-1.79c-0.08,0-0.15-0.03-0.2-0.08
			C96.99,1024.46,96.96,1024.39,96.96,1024.31z M99.31,1018.58h2.22c0.31,0,0.58-0.12,0.8-0.36c0.22-0.24,0.34-0.52,0.34-0.84
			c0-0.31-0.11-0.58-0.34-0.8c-0.23-0.22-0.49-0.34-0.8-0.34h-2.22V1018.58z"/>
		<path class="st0" d="M111.51,1024.31v-9.93c0-0.08,0.03-0.15,0.08-0.2c0.06-0.05,0.12-0.08,0.2-0.08H118
			c0.08,0,0.15,0.03,0.2,0.08s0.08,0.12,0.08,0.2v1.63c0,0.08-0.03,0.15-0.08,0.2c-0.05,0.06-0.12,0.08-0.2,0.08h-4.16v1.86h3.42
			c0.08,0,0.15,0.03,0.2,0.08c0.05,0.05,0.08,0.12,0.08,0.2v1.63c0,0.08-0.03,0.15-0.08,0.2c-0.06,0.05-0.12,0.08-0.2,0.08h-3.42
			v2.03H118c0.08,0,0.15,0.03,0.2,0.08s0.08,0.12,0.08,0.2v1.63c0,0.08-0.03,0.15-0.08,0.2c-0.05,0.05-0.12,0.08-0.2,0.08h-6.21
			c-0.08,0-0.15-0.03-0.2-0.08C111.54,1024.46,111.51,1024.39,111.51,1024.31z"/>
		<path class="st0" d="M132.22,1027.03v-15.35c0-0.08,0.03-0.15,0.08-0.2s0.12-0.08,0.2-0.08h0.26c0.08,0,0.14,0.03,0.19,0.08
			s0.08,0.12,0.08,0.2v15.35c0,0.07-0.03,0.13-0.08,0.19c-0.06,0.05-0.12,0.08-0.2,0.08h-0.24c-0.08,0-0.15-0.03-0.2-0.08
			S132.22,1027.1,132.22,1027.03z"/>
		<path class="st0" d="M147.79,1024.31v-9.93c0-0.07,0.03-0.13,0.09-0.2c0.06-0.06,0.12-0.09,0.2-0.09h0.6
			c0.07,0,0.13,0.03,0.2,0.09c0.06,0.06,0.09,0.12,0.09,0.2v9.93c0,0.07-0.03,0.13-0.09,0.2c-0.06,0.06-0.13,0.09-0.2,0.09h-0.6
			c-0.07,0-0.14-0.03-0.2-0.09C147.82,1024.45,147.79,1024.38,147.79,1024.31z"/>
		<path class="st0" d="M156.52,1024.31v-9.93c0-0.08,0.03-0.15,0.08-0.2s0.12-0.08,0.19-0.08h3.36c1.45,0,2.69,0.51,3.72,1.54
			s1.54,2.26,1.54,3.7c0,1.45-0.51,2.69-1.54,3.72c-1.03,1.03-2.27,1.54-3.72,1.54h-3.36c-0.07,0-0.13-0.03-0.19-0.08
			C156.55,1024.46,156.52,1024.39,156.52,1024.31z M157.66,1023.56h2.25c1.23,0,2.25-0.4,3.04-1.19s1.2-1.81,1.2-3.04
			s-0.4-2.24-1.2-3.03c-0.8-0.79-1.81-1.19-3.04-1.19h-2.25V1023.56z"/>
		<path class="st0" d="M172.23,1024.31v-9.93c0-0.08,0.03-0.15,0.08-0.2s0.12-0.08,0.2-0.08h5.91c0.08,0,0.15,0.03,0.2,0.08
			c0.05,0.05,0.08,0.12,0.08,0.2v0.43c0,0.08-0.03,0.15-0.08,0.2c-0.06,0.05-0.12,0.08-0.2,0.08h-5.04v3.66h4.31
			c0.08,0,0.15,0.03,0.2,0.08c0.05,0.06,0.08,0.12,0.08,0.2v0.44c0,0.08-0.03,0.15-0.08,0.2c-0.05,0.05-0.12,0.08-0.2,0.08h-4.31
			v3.82h5.04c0.08,0,0.15,0.03,0.2,0.08c0.05,0.06,0.08,0.12,0.08,0.2v0.44c0,0.08-0.03,0.15-0.08,0.2
			c-0.06,0.05-0.12,0.08-0.2,0.08h-5.91c-0.08,0-0.15-0.03-0.2-0.08C172.26,1024.46,172.23,1024.39,172.23,1024.31z"/>
		<path class="st0" d="M185.61,1024.31v-10.1c0-0.07,0.03-0.13,0.08-0.19s0.12-0.08,0.2-0.08h0.38l6.76,8.43h0.03v-7.99
			c0-0.08,0.03-0.15,0.08-0.2s0.12-0.08,0.2-0.08h0.53c0.07,0,0.13,0.03,0.2,0.09c0.06,0.06,0.09,0.12,0.09,0.2v10.09
			c0,0.07-0.03,0.13-0.08,0.19c-0.05,0.05-0.12,0.08-0.2,0.08h-0.27l-6.89-8.6h-0.01v8.16c0,0.08-0.03,0.15-0.08,0.2
			c-0.06,0.05-0.12,0.08-0.2,0.08h-0.52c-0.07,0-0.14-0.03-0.2-0.09C185.64,1024.45,185.61,1024.38,185.61,1024.31z"/>
		<path class="st0" d="M203.2,1024.31v-9.21h-2.61c-0.08,0-0.15-0.03-0.2-0.08c-0.05-0.05-0.08-0.12-0.08-0.2v-0.43
			c0-0.08,0.03-0.15,0.08-0.2c0.06-0.05,0.12-0.08,0.2-0.08h6.36c0.08,0,0.15,0.03,0.2,0.08c0.05,0.05,0.08,0.12,0.08,0.2v0.43
			c0,0.08-0.03,0.15-0.08,0.2c-0.06,0.05-0.12,0.08-0.2,0.08h-2.61v9.21c0,0.07-0.03,0.13-0.08,0.2c-0.05,0.06-0.12,0.09-0.2,0.09
			h-0.57c-0.08,0-0.15-0.03-0.2-0.09C203.23,1024.45,203.2,1024.38,203.2,1024.31z"/>
		<path class="st0" d="M213.39,1024.31v-9.93c0-0.07,0.03-0.13,0.09-0.2c0.06-0.06,0.12-0.09,0.2-0.09h0.6
			c0.07,0,0.13,0.03,0.2,0.09c0.06,0.06,0.09,0.12,0.09,0.2v9.93c0,0.07-0.03,0.13-0.09,0.2c-0.06,0.06-0.13,0.09-0.2,0.09h-0.6
			c-0.07,0-0.14-0.03-0.2-0.09C213.42,1024.45,213.39,1024.38,213.39,1024.31z"/>
		<path class="st0" d="M222.12,1024.31v-9.93c0-0.08,0.03-0.15,0.08-0.2s0.12-0.08,0.19-0.08h3.36c1.45,0,2.69,0.51,3.72,1.54
			s1.54,2.26,1.54,3.7c0,1.45-0.51,2.69-1.54,3.72c-1.03,1.03-2.27,1.54-3.72,1.54h-3.36c-0.07,0-0.13-0.03-0.19-0.08
			C222.14,1024.46,222.12,1024.39,222.12,1024.31z M223.26,1023.56h2.25c1.23,0,2.25-0.4,3.04-1.19s1.2-1.81,1.2-3.04
			s-0.4-2.24-1.2-3.03c-0.8-0.79-1.81-1.19-3.04-1.19h-2.25V1023.56z"/>
		<path class="st0" d="M236.58,1024.6c-0.11,0-0.19-0.04-0.25-0.12c-0.06-0.08-0.06-0.17-0.01-0.27l4.56-10.1
			c0.06-0.11,0.14-0.16,0.25-0.16h0.15c0.11,0,0.2,0.05,0.25,0.16l4.53,10.1c0.05,0.1,0.05,0.19-0.01,0.27
			c-0.05,0.08-0.14,0.12-0.25,0.12h-0.6c-0.13,0-0.22-0.05-0.25-0.17l-1.11-2.47h-5.33l-1.09,2.47c-0.04,0.11-0.12,0.17-0.25,0.17
			H236.58z M238.95,1021.03h4.5c-0.25-0.55-0.62-1.37-1.09-2.46c-0.48-1.09-0.85-1.91-1.09-2.46h-0.12L238.95,1021.03z"/>
		<path class="st0" d="M252.21,1024.31v-9.93c0-0.08,0.03-0.15,0.08-0.2s0.12-0.08,0.19-0.08h3.36c1.45,0,2.69,0.51,3.72,1.54
			s1.54,2.26,1.54,3.7c0,1.45-0.51,2.69-1.54,3.72c-1.03,1.03-2.27,1.54-3.72,1.54h-3.36c-0.07,0-0.13-0.03-0.19-0.08
			C252.24,1024.46,252.21,1024.39,252.21,1024.31z M253.35,1023.56h2.25c1.23,0,2.25-0.4,3.04-1.19s1.2-1.81,1.2-3.04
			s-0.4-2.24-1.2-3.03c-0.8-0.79-1.81-1.19-3.04-1.19h-2.25V1023.56z"/>
		<path class="st0" d="M275.74,1024.31v-9.93c0-0.08,0.03-0.15,0.08-0.2s0.12-0.08,0.19-0.08h3.36c1.45,0,2.69,0.51,3.72,1.54
			s1.54,2.26,1.54,3.7c0,1.45-0.51,2.69-1.54,3.72c-1.03,1.03-2.27,1.54-3.72,1.54h-3.36c-0.07,0-0.13-0.03-0.19-0.08
			C275.77,1024.46,275.74,1024.39,275.74,1024.31z M276.88,1023.56h2.25c1.23,0,2.25-0.4,3.04-1.19s1.2-1.81,1.2-3.04
			s-0.4-2.24-1.2-3.03c-0.8-0.79-1.81-1.19-3.04-1.19h-2.25V1023.56z"/>
		<path class="st0" d="M291.45,1024.31v-9.93c0-0.08,0.03-0.15,0.08-0.2s0.12-0.08,0.2-0.08h5.91c0.08,0,0.15,0.03,0.2,0.08
			c0.05,0.05,0.08,0.12,0.08,0.2v0.43c0,0.08-0.03,0.15-0.08,0.2c-0.06,0.05-0.12,0.08-0.2,0.08h-5.04v3.66h4.31
			c0.08,0,0.15,0.03,0.2,0.08c0.05,0.06,0.08,0.12,0.08,0.2v0.44c0,0.08-0.03,0.15-0.08,0.2c-0.05,0.05-0.12,0.08-0.2,0.08h-4.31
			v3.82h5.04c0.08,0,0.15,0.03,0.2,0.08c0.05,0.06,0.08,0.12,0.08,0.2v0.44c0,0.08-0.03,0.15-0.08,0.2
			c-0.06,0.05-0.12,0.08-0.2,0.08h-5.91c-0.08,0-0.15-0.03-0.2-0.08C291.48,1024.46,291.45,1024.39,291.45,1024.31z"/>
		<path class="st0" d="M311.91,1024.24l1.93-10.08c0.03-0.14,0.12-0.21,0.27-0.21h0.24c0.13,0,0.21,0.05,0.26,0.16l2.97,8.27h0.08
			l2.92-8.27c0.04-0.11,0.12-0.16,0.25-0.16h0.24c0.15,0,0.24,0.07,0.27,0.21l1.94,10.08c0.05,0.24-0.04,0.36-0.27,0.36h-0.6
			c-0.14,0-0.23-0.07-0.27-0.21l-1.33-7.72h-0.06l-2.76,7.92c-0.04,0.11-0.13,0.17-0.26,0.17h-0.27c-0.13,0-0.21-0.06-0.25-0.17
			l-2.79-7.92h-0.06l-1.3,7.72c-0.01,0.05-0.04,0.1-0.1,0.14s-0.11,0.07-0.17,0.07h-0.6
			C311.95,1024.6,311.86,1024.48,311.91,1024.24z"/>
		<path class="st0" d="M328.9,1024.6c-0.11,0-0.19-0.04-0.25-0.12c-0.06-0.08-0.06-0.17-0.01-0.27l4.56-10.1
			c0.06-0.11,0.14-0.16,0.25-0.16h0.15c0.11,0,0.2,0.05,0.25,0.16l4.53,10.1c0.05,0.1,0.05,0.19-0.01,0.27
			c-0.05,0.08-0.14,0.12-0.25,0.12h-0.6c-0.13,0-0.22-0.05-0.25-0.17l-1.11-2.47h-5.33l-1.09,2.47c-0.04,0.11-0.12,0.17-0.25,0.17
			H328.9z M331.27,1021.03h4.5c-0.25-0.55-0.62-1.37-1.09-2.46c-0.48-1.09-0.85-1.91-1.09-2.46h-0.12L331.27,1021.03z"/>
		<path class="st0" d="M344.53,1024.31v-9.93c0-0.08,0.03-0.15,0.08-0.2s0.12-0.08,0.2-0.08h3.88c0.9,0,1.67,0.31,2.31,0.93
			s0.96,1.38,0.96,2.27c0,0.68-0.2,1.29-0.61,1.84c-0.41,0.55-0.94,0.95-1.61,1.22l2.05,3.81c0.06,0.1,0.06,0.2,0.01,0.29
			s-0.14,0.14-0.26,0.14h-0.76c-0.11,0-0.19-0.04-0.24-0.13l-2-3.98h-2.87v3.83c0,0.07-0.03,0.13-0.08,0.2
			c-0.05,0.06-0.12,0.09-0.2,0.09h-0.58c-0.08,0-0.15-0.03-0.2-0.08C344.56,1024.46,344.53,1024.39,344.53,1024.31z M345.72,1019.5
			h2.91c0.58,0,1.08-0.21,1.51-0.64c0.43-0.42,0.65-0.94,0.65-1.55c0-0.57-0.21-1.06-0.65-1.48c-0.43-0.42-0.93-0.63-1.51-0.63
			h-2.91V1019.5z"/>
		<path class="st0" d="M359.77,1023.18c-1.06-1.04-1.58-2.32-1.58-3.82s0.53-2.78,1.58-3.83c1.05-1.05,2.33-1.58,3.83-1.58
			c1.33,0,2.54,0.46,3.63,1.39c0.14,0.15,0.15,0.29,0.02,0.42l-0.41,0.41c-0.11,0.14-0.24,0.13-0.39-0.02
			c-0.87-0.75-1.83-1.12-2.87-1.12c-1.17,0-2.16,0.43-2.97,1.28c-0.81,0.85-1.21,1.87-1.21,3.04c0,1.17,0.4,2.18,1.21,3.03
			c0.81,0.85,1.8,1.28,2.97,1.28c0.41,0,0.8-0.06,1.16-0.17s0.66-0.24,0.88-0.38c0.22-0.14,0.5-0.33,0.83-0.58
			c0.13-0.1,0.25-0.12,0.36-0.04l0.45,0.4c0.06,0.05,0.09,0.12,0.08,0.2c-0.01,0.08-0.04,0.15-0.1,0.21c-1,0.97-2.21,1.46-3.65,1.46
			C362.1,1024.75,360.82,1024.22,359.77,1023.18z"/>
		<path class="st0" d="M372.87,1024.6c-0.11,0-0.19-0.04-0.25-0.12c-0.06-0.08-0.06-0.17-0.01-0.27l4.56-10.1
			c0.06-0.11,0.14-0.16,0.25-0.16h0.15c0.11,0,0.2,0.05,0.25,0.16l4.53,10.1c0.05,0.1,0.05,0.19-0.01,0.27
			c-0.05,0.08-0.14,0.12-0.25,0.12h-0.6c-0.13,0-0.22-0.05-0.25-0.17l-1.11-2.47h-5.33l-1.09,2.47c-0.04,0.11-0.12,0.17-0.25,0.17
			H372.87z M375.24,1021.03h4.5c-0.25-0.55-0.62-1.37-1.09-2.46c-0.48-1.09-0.85-1.91-1.09-2.46h-0.12L375.24,1021.03z"/>
	</g>
	<g>
		<path class="st1" d="M804.29,764.85l-5.28,14.4c-0.05,0.14-0.13,0.24-0.25,0.28c-0.12,0.04-0.24,0.01-0.38-0.08l-2.08-1.5
			c-0.17-0.12-0.21-0.28-0.14-0.48l2.83-7.14l-0.07-0.05l-7.29,4.28c-0.17,0.08-0.31,0.07-0.44-0.02l-0.32-0.23
			c-0.15-0.11-0.21-0.25-0.16-0.42l1.77-8.26l-0.07-0.05l-5.89,4.93c-0.17,0.13-0.33,0.14-0.5,0.02l-2.08-1.51
			c-0.13-0.09-0.2-0.2-0.2-0.33c0-0.12,0.06-0.23,0.18-0.33l12.01-9.54c0.16-0.14,0.32-0.15,0.5-0.02l0.29,0.21
			c0.13,0.09,0.18,0.23,0.16,0.41l-2,9.64l0.05,0.04l8.5-4.94c0.17-0.08,0.31-0.07,0.44,0.02l0.28,0.21
			C804.33,764.5,804.38,764.66,804.29,764.85z"/>
		<path class="st1" d="M785.66,751.13l-9.45,11.05c-0.08,0.09-0.17,0.14-0.28,0.15c-0.11,0.01-0.21-0.03-0.3-0.1l-6.91-5.91
			c-0.09-0.08-0.14-0.17-0.15-0.29c-0.01-0.11,0.02-0.21,0.1-0.3l1.56-1.82c0.08-0.09,0.17-0.14,0.28-0.15
			c0.11-0.01,0.21,0.02,0.3,0.1l4.62,3.96l1.77-2.07l-3.81-3.26c-0.09-0.08-0.14-0.17-0.15-0.28s0.02-0.21,0.1-0.3l1.56-1.82
			c0.08-0.09,0.17-0.14,0.28-0.15c0.11-0.01,0.22,0.03,0.3,0.1l3.81,3.25l1.93-2.25l-4.63-3.96c-0.09-0.08-0.14-0.17-0.15-0.28
			c-0.01-0.11,0.02-0.21,0.1-0.3l1.56-1.82c0.08-0.09,0.17-0.14,0.28-0.15c0.11-0.01,0.21,0.03,0.3,0.1l6.91,5.91
			c0.09,0.08,0.14,0.17,0.15,0.29C785.77,750.94,785.74,751.04,785.66,751.13z"/>
		<path class="st1" d="M764.65,731.31c0.11,0.12,0.15,0.25,0.12,0.38s-0.12,0.23-0.28,0.28l-15.51,5.04
			c-0.17,0.06-0.31,0.02-0.43-0.11l-0.15-0.16c-0.12-0.13-0.15-0.27-0.08-0.44l6.14-15.11c0.06-0.15,0.16-0.24,0.3-0.26
			s0.27,0.03,0.38,0.14l1.66,1.79c0.23,0.25,0.27,0.56,0.12,0.94l-0.73,1.76l4.07,4.37l1.83-0.62c0.36-0.13,0.67-0.06,0.92,0.22
			L764.65,731.31z M757.17,731.01l-2.28-2.44l-1.52,3.69l0.02,0.02L757.17,731.01z"/>
		<path class="st1" d="M749.3,714.88l-11.37,9.07c-0.09,0.07-0.19,0.1-0.31,0.09c-0.11-0.01-0.21-0.07-0.28-0.16l-4.1-5.13
			c-0.82-1.03-1.16-2.2-1.02-3.52c0.14-1.31,0.72-2.38,1.74-3.19c0.77-0.61,1.64-0.93,2.62-0.96c0.98-0.03,1.93,0.22,2.85,0.74
			l2.48-5.83c0.06-0.16,0.17-0.25,0.33-0.28c0.16-0.03,0.29,0.03,0.4,0.17l1.82,2.28c0.1,0.13,0.12,0.26,0.06,0.4l-2.73,5.91
			l0.95,1.19l4.38-3.49c0.08-0.06,0.18-0.09,0.3-0.08c0.12,0.01,0.21,0.06,0.29,0.15l1.63,2.04c0.07,0.09,0.1,0.19,0.09,0.31
			C749.45,714.71,749.39,714.81,749.3,714.88z M740.59,717.42l-2.03-2.54c-0.28-0.36-0.66-0.55-1.15-0.59
			c-0.48-0.04-0.9,0.09-1.27,0.38c-0.35,0.28-0.56,0.66-0.61,1.12c-0.05,0.46,0.06,0.87,0.35,1.23l2.03,2.54L740.59,717.42z"/>
		<path class="st1" d="M736.49,698.18l-12,8.21c-0.1,0.07-0.2,0.09-0.31,0.07s-0.2-0.08-0.27-0.18l-5.14-7.51
			c-0.07-0.1-0.09-0.2-0.07-0.31c0.02-0.11,0.08-0.2,0.18-0.27l1.98-1.35c0.1-0.07,0.2-0.09,0.31-0.07c0.11,0.02,0.2,0.08,0.27,0.18
			l3.44,5.02l2.25-1.54l-2.83-4.13c-0.07-0.1-0.09-0.2-0.07-0.31s0.08-0.2,0.18-0.27l1.98-1.35c0.1-0.07,0.2-0.09,0.31-0.07
			c0.11,0.02,0.2,0.08,0.27,0.18l2.83,4.13l2.45-1.68l-3.44-5.02c-0.07-0.1-0.09-0.2-0.07-0.31s0.08-0.2,0.18-0.27l1.98-1.35
			c0.1-0.07,0.2-0.09,0.31-0.07c0.11,0.02,0.2,0.08,0.27,0.18l5.14,7.51c0.07,0.1,0.09,0.2,0.07,0.31
			C736.65,698.02,736.59,698.11,736.49,698.18z"/>
		<path class="st1" d="M714.47,675.03c0.06,0.1,0.07,0.21,0.04,0.31c-0.03,0.11-0.09,0.19-0.19,0.24l-0.37,0.2
			c-0.24,0.13-0.43,0.08-0.57-0.17l-2.18-4.04c-0.13-0.24-0.08-0.43,0.17-0.57l0.37-0.2c0.1-0.06,0.21-0.07,0.31-0.03
			c0.1,0.04,0.18,0.11,0.24,0.21L714.47,675.03z"/>
		<path class="st1" d="M708.33,647.9l-13.38,5.7c-0.09,0.04-0.2,0.04-0.31-0.01s-0.19-0.12-0.23-0.21l-0.34-0.81
			c-0.04-0.09-0.04-0.2,0.01-0.31c0.05-0.12,0.12-0.19,0.21-0.23l13.38-5.7c0.09-0.04,0.2-0.04,0.31,0.01s0.19,0.12,0.23,0.21
			l0.34,0.81c0.04,0.09,0.04,0.2-0.01,0.31S708.42,647.86,708.33,647.9z"/>
		<path class="st1" d="M703.58,636.26l-13.72,4.81c-0.11,0.04-0.22,0.03-0.32-0.02c-0.1-0.05-0.17-0.12-0.2-0.22l-1.63-4.64
			c-0.7-2-0.6-3.96,0.32-5.89c0.92-1.92,2.37-3.23,4.36-3.93c2-0.7,3.97-0.59,5.89,0.33c1.92,0.92,3.24,2.39,3.94,4.39l1.63,4.64
			c0.03,0.1,0.03,0.2-0.02,0.3C703.77,636.15,703.69,636.22,703.58,636.26z M701.99,635.04l-1.09-3.11c-0.6-1.7-1.64-2.91-3.12-3.63
			c-1.49-0.72-3.08-0.78-4.78-0.19s-2.9,1.64-3.61,3.13c-0.7,1.49-0.76,3.08-0.16,4.78l1.09,3.11L701.99,635.04z"/>
		<path class="st1" d="M696.51,614.63l-14.05,3.74c-0.11,0.03-0.22,0.02-0.32-0.04c-0.1-0.06-0.16-0.14-0.19-0.26l-2.22-8.37
			c-0.03-0.11-0.02-0.22,0.04-0.32c0.06-0.1,0.14-0.16,0.26-0.19l0.62-0.16c0.11-0.03,0.22-0.02,0.32,0.04
			c0.1,0.06,0.16,0.14,0.19,0.26l1.9,7.13l5.18-1.38l-1.62-6.09c-0.03-0.11-0.02-0.22,0.04-0.32c0.06-0.1,0.14-0.16,0.26-0.19
			l0.62-0.16c0.11-0.03,0.22-0.02,0.32,0.04c0.1,0.06,0.16,0.14,0.19,0.26l1.62,6.09l5.41-1.44l-1.9-7.13
			c-0.03-0.11-0.02-0.22,0.04-0.32c0.06-0.1,0.14-0.16,0.26-0.19l0.62-0.16c0.11-0.03,0.22-0.02,0.32,0.04s0.16,0.14,0.19,0.26
			l2.22,8.36c0.03,0.12,0.02,0.22-0.04,0.32C696.7,614.54,696.62,614.6,696.51,614.63z"/>
		<path class="st1" d="M692.63,597.49c0.03,0.16-0.01,0.29-0.11,0.39c-0.1,0.1-0.23,0.13-0.39,0.08l-15.76-3.83
			c-0.17-0.06-0.28-0.16-0.31-0.32l-0.04-0.22c-0.03-0.16,0.03-0.29,0.17-0.41l13.3-9.25c0.13-0.1,0.26-0.12,0.39-0.06
			c0.13,0.06,0.21,0.16,0.24,0.32l0.16,0.86c0.04,0.19-0.02,0.33-0.17,0.41l-3.26,2.27l1.44,7.66l3.86,0.91
			c0.17,0.03,0.27,0.14,0.31,0.32L692.63,597.49z M686.85,595.04l-1.22-6.48c-0.72,0.51-1.81,1.26-3.24,2.24
			c-1.44,0.99-2.52,1.73-3.24,2.24l0.03,0.17L686.85,595.04z"/>
		<path class="st1" d="M687.43,576.22c-0.19,0.29-0.43,0.36-0.73,0.22c-0.05-0.04-0.12-0.09-0.23-0.15s-0.18-0.11-0.23-0.13
			c-0.38-0.22-0.47-0.47-0.28-0.74c0.96-1.42,1.37-2.71,1.23-3.88c-0.1-0.86-0.41-1.53-0.94-2.03c-0.53-0.49-1.13-0.7-1.8-0.62
			c-0.71,0.08-1.29,0.46-1.74,1.12c-0.45,0.66-0.87,1.7-1.27,3.1c-0.43,1.41-0.92,2.45-1.49,3.13s-1.43,1.09-2.59,1.23
			c-0.41,0.05-0.83,0.01-1.27-0.11s-0.89-0.33-1.33-0.62c-0.45-0.29-0.84-0.74-1.17-1.35c-0.33-0.6-0.55-1.31-0.64-2.12
			c-0.07-0.64-0.05-1.28,0.07-1.92c0.12-0.64,0.25-1.12,0.39-1.45l0.23-0.49c0.03-0.11,0.1-0.19,0.22-0.24
			c0.11-0.06,0.28-0.05,0.51,0.03c0.05,0.02,0.12,0.06,0.22,0.11c0.1,0.05,0.18,0.08,0.22,0.11c0.33,0.17,0.42,0.42,0.28,0.74
			c-0.53,1.26-0.76,2.25-0.67,2.97c0.12,1.03,0.46,1.76,1.03,2.19c0.57,0.43,1.14,0.61,1.72,0.54c0.7-0.08,1.26-0.39,1.67-0.93
			c0.42-0.54,0.77-1.33,1.06-2.37c0.49-1.75,1.03-3.05,1.63-3.91s1.48-1.35,2.66-1.49c1.12-0.13,2.11,0.23,2.96,1.06
			c0.86,0.84,1.36,1.9,1.51,3.2c0.09,0.77,0.03,1.55-0.16,2.33c-0.2,0.78-0.38,1.33-0.56,1.66
			C687.77,575.72,687.6,576,687.43,576.22z"/>
		<path class="st1" d="M684.49,544.81c-1.55,1.51-3.43,2.24-5.63,2.21c-2.2-0.04-4.05-0.83-5.58-2.39
			c-1.52-1.55-2.26-3.43-2.23-5.63c0.04-2.2,0.84-4.05,2.41-5.56c1.57-1.51,3.45-2.25,5.65-2.21c1.6,0.03,3.04,0.48,4.32,1.36
			c1.28,0.88,2.23,2.02,2.83,3.44l4.17-2.5c0.15-0.1,0.29-0.11,0.44-0.03c0.14,0.08,0.22,0.21,0.21,0.39l-0.02,1.1
			c0,0.15-0.08,0.26-0.23,0.35l-4.08,2.33c0.08,0.48,0.12,1.02,0.11,1.61C686.85,541.45,686.05,543.3,684.49,544.81z M674.42,543.53
			c1.24,1.27,2.73,1.91,4.47,1.94c1.74,0.03,3.25-0.57,4.51-1.79c1.27-1.22,1.91-2.71,1.94-4.45s-0.57-3.25-1.79-4.52
			c-1.22-1.27-2.71-1.92-4.45-1.95c-1.74-0.03-3.25,0.57-4.53,1.8s-1.93,2.72-1.96,4.46S673.18,542.27,674.42,543.53z"/>
		<path class="st1" d="M681.55,521.36l-9.26-0.8c-0.1-0.01-0.19-0.06-0.27-0.15s-0.12-0.19-0.11-0.31l0.07-0.83
			c0.01-0.12,0.06-0.21,0.15-0.29c0.09-0.07,0.19-0.1,0.31-0.09l9.13,0.79c1.28,0.11,2.38-0.17,3.28-0.84
			c0.9-0.67,1.41-1.63,1.52-2.89c0.11-1.27-0.22-2.32-0.98-3.14c-0.77-0.82-1.78-1.29-3.05-1.4l-9.17-0.8
			c-0.12-0.01-0.21-0.06-0.29-0.14c-0.07-0.09-0.1-0.19-0.09-0.31l0.07-0.83c0.01-0.12,0.06-0.21,0.16-0.28
			c0.09-0.07,0.19-0.11,0.29-0.1l9.26,0.8c1.68,0.15,3.03,0.81,4.05,1.99c1.02,1.19,1.46,2.63,1.31,4.34
			c-0.15,1.69-0.83,3.03-2.04,4.01C684.67,521.08,683.22,521.5,681.55,521.36z"/>
		<path class="st1" d="M689.16,499.68l-14.35-2.35c-0.12-0.02-0.21-0.08-0.27-0.17s-0.09-0.2-0.07-0.31l1.4-8.54
			c0.02-0.12,0.07-0.21,0.17-0.27c0.09-0.07,0.2-0.09,0.31-0.07l0.63,0.1c0.12,0.02,0.21,0.07,0.27,0.17
			c0.07,0.09,0.09,0.2,0.07,0.31l-1.19,7.29l5.29,0.87l1.02-6.22c0.02-0.12,0.07-0.21,0.17-0.27c0.09-0.06,0.2-0.09,0.31-0.07
			l0.63,0.1c0.12,0.02,0.21,0.07,0.27,0.17c0.07,0.09,0.09,0.2,0.07,0.31l-1.02,6.22l5.53,0.9l1.19-7.29
			c0.02-0.12,0.08-0.21,0.17-0.27s0.2-0.09,0.31-0.07l0.63,0.1c0.12,0.02,0.21,0.08,0.27,0.17c0.07,0.09,0.09,0.2,0.07,0.31
			l-1.4,8.54c-0.02,0.12-0.07,0.21-0.17,0.27S689.27,499.7,689.16,499.68z"/>
		<path class="st1" d="M695.3,469.65l-13.97-4.04c-0.11-0.03-0.2-0.1-0.25-0.2c-0.05-0.1-0.07-0.2-0.04-0.3l1.37-4.73
			c0.59-2.04,1.81-3.58,3.67-4.61s3.8-1.26,5.83-0.67c2.04,0.59,3.58,1.82,4.61,3.69c1.03,1.87,1.25,3.82,0.66,5.86l-1.36,4.73
			c-0.03,0.1-0.09,0.17-0.19,0.23C695.52,469.67,695.41,469.68,695.3,469.65z M694.71,467.74l0.91-3.16
			c0.5-1.73,0.35-3.32-0.44-4.77s-2.06-2.42-3.79-2.92c-1.73-0.5-3.31-0.35-4.75,0.46s-2.4,2.07-2.9,3.8l-0.91,3.17L694.71,467.74z"
			/>
		<path class="st1" d="M702.08,447.93l-13.62-5.1c-0.11-0.04-0.19-0.11-0.24-0.22c-0.05-0.1-0.05-0.21-0.01-0.32l3.04-8.11
			c0.04-0.11,0.11-0.19,0.22-0.23c0.1-0.05,0.21-0.05,0.32-0.01l0.6,0.22c0.11,0.04,0.19,0.12,0.24,0.22
			c0.05,0.1,0.05,0.21,0.01,0.32l-2.59,6.91l5.02,1.88l2.21-5.9c0.04-0.11,0.11-0.19,0.22-0.24s0.21-0.05,0.32-0.01l0.6,0.22
			c0.11,0.04,0.19,0.11,0.24,0.22c0.05,0.1,0.05,0.21,0.01,0.32l-2.21,5.9l5.25,1.97l2.59-6.91c0.04-0.11,0.11-0.19,0.22-0.24
			s0.21-0.05,0.32-0.01l0.6,0.22c0.11,0.04,0.19,0.11,0.24,0.22c0.05,0.1,0.05,0.21,0.01,0.32l-3.04,8.11
			c-0.04,0.11-0.11,0.19-0.22,0.23C702.29,447.97,702.19,447.97,702.08,447.93z"/>
		<path class="st1" d="M707.85,430.25c-0.31,0.15-0.55,0.09-0.73-0.19c-0.02-0.06-0.06-0.14-0.12-0.25
			c-0.06-0.11-0.1-0.18-0.13-0.23c-0.21-0.38-0.16-0.65,0.14-0.78c1.55-0.72,2.57-1.62,3.06-2.69c0.36-0.79,0.44-1.53,0.24-2.22
			c-0.2-0.69-0.6-1.18-1.22-1.46c-0.65-0.3-1.34-0.28-2.07,0.06s-1.62,1-2.69,2c-1.09,0.98-2.05,1.62-2.89,1.92
			c-0.83,0.29-1.79,0.2-2.85-0.29c-0.37-0.17-0.72-0.42-1.03-0.75c-0.32-0.33-0.59-0.74-0.82-1.22c-0.23-0.48-0.33-1.07-0.31-1.76
			c0.02-0.69,0.21-1.41,0.55-2.15c0.27-0.59,0.62-1.12,1.05-1.61c0.43-0.49,0.79-0.83,1.08-1.04l0.45-0.3
			c0.08-0.07,0.19-0.11,0.31-0.1c0.12,0.01,0.27,0.11,0.42,0.29c0.03,0.04,0.07,0.11,0.14,0.21c0.06,0.09,0.11,0.16,0.14,0.21
			c0.19,0.31,0.15,0.57-0.14,0.78c-1.1,0.8-1.81,1.53-2.11,2.2c-0.43,0.95-0.52,1.75-0.25,2.41c0.26,0.66,0.66,1.11,1.19,1.35
			c0.64,0.29,1.28,0.31,1.91,0.06c0.64-0.25,1.35-0.74,2.13-1.48c1.32-1.25,2.46-2.08,3.41-2.51s1.97-0.4,3.05,0.1
			c1.03,0.47,1.69,1.28,1.99,2.44c0.3,1.16,0.18,2.33-0.36,3.52c-0.32,0.71-0.77,1.34-1.34,1.91c-0.57,0.57-1.02,0.95-1.34,1.13
			C708.39,429.99,708.1,430.14,707.85,430.25z"/>
		<path class="st1" d="M717.04,413.66l-12.79-6.92c-0.1-0.05-0.17-0.14-0.2-0.25c-0.03-0.11-0.02-0.22,0.04-0.32l2.31-4.27
			c0.64-1.19,1.61-1.98,2.91-2.37c1.3-0.4,2.53-0.28,3.7,0.36c1.2,0.65,1.99,1.62,2.39,2.93c0.39,1.3,0.27,2.55-0.37,3.73
			l-1.73,3.19l4.54,2.46c0.09,0.05,0.15,0.13,0.19,0.25c0.04,0.12,0.03,0.22-0.02,0.31l-0.4,0.73c-0.06,0.1-0.14,0.17-0.25,0.2
			C717.25,413.73,717.14,413.72,717.04,413.66z M711.86,408.96l1.66-3.07c0.43-0.8,0.52-1.64,0.26-2.53c-0.26-0.89-0.8-1.56-1.63-2
			c-0.77-0.42-1.58-0.48-2.43-0.19c-0.85,0.29-1.49,0.83-1.92,1.63l-1.66,3.07L711.86,408.96z"/>
		<path class="st1" d="M726.64,396.74l-12.27-7.81c-0.1-0.06-0.16-0.15-0.19-0.26c-0.02-0.11-0.01-0.22,0.06-0.32l4.65-7.3
			c0.06-0.1,0.15-0.16,0.26-0.19c0.11-0.03,0.22-0.01,0.31,0.06l0.54,0.34c0.1,0.06,0.16,0.15,0.19,0.26
			c0.02,0.11,0.01,0.22-0.06,0.31l-3.97,6.23l4.52,2.88l3.39-5.32c0.06-0.1,0.15-0.16,0.26-0.18c0.11-0.03,0.22-0.01,0.31,0.06
			l0.54,0.34c0.1,0.06,0.16,0.15,0.19,0.26c0.02,0.11,0.01,0.22-0.06,0.31l-3.39,5.32l4.73,3.01l3.96-6.23
			c0.06-0.1,0.15-0.16,0.26-0.19c0.11-0.02,0.22-0.01,0.31,0.06l0.54,0.34c0.1,0.06,0.16,0.15,0.19,0.26
			c0.02,0.11,0.01,0.21-0.06,0.31l-4.65,7.3c-0.06,0.1-0.15,0.16-0.26,0.19C726.84,396.82,726.74,396.8,726.64,396.74z"/>
		<path class="st1" d="M736.67,378.73c-2.15,0.32-4.11-0.18-5.86-1.5s-2.79-3.06-3.1-5.22c-0.31-2.16,0.19-4.12,1.51-5.88
			c1.17-1.56,2.77-2.57,4.82-3.03c0.3-0.03,0.47,0.09,0.51,0.35l0.12,0.86c0.04,0.23-0.08,0.38-0.36,0.44
			c-0.76,0.16-1.49,0.45-2.19,0.85c-0.7,0.4-1.26,0.89-1.69,1.47c-1.03,1.37-1.4,2.9-1.12,4.59c0.28,1.69,1.12,3.04,2.5,4.08
			c1.37,1.03,2.91,1.45,4.63,1.26c1.71-0.19,3.09-0.97,4.11-2.34c0.43-0.57,0.78-1.17,1.05-1.79c0.27-0.62,0.43-1.1,0.48-1.43
			l0.1-0.5l-2.46-1.84l-1.51,2.02c-0.07,0.09-0.16,0.15-0.27,0.17c-0.11,0.02-0.21,0-0.3-0.07l-0.65-0.49
			c-0.22-0.17-0.25-0.36-0.08-0.59l2.28-3.04c0.06-0.08,0.15-0.13,0.26-0.15c0.11-0.02,0.22,0.01,0.31,0.08l4.03,3.02
			c0.12,0.09,0.18,0.21,0.18,0.35c-0.01,0.19-0.05,0.46-0.1,0.8c-0.06,0.34-0.26,0.98-0.61,1.9c-0.35,0.92-0.81,1.76-1.37,2.51
			C740.55,377.37,738.82,378.41,736.67,378.73z"/>
		<path class="st1" d="M750.24,364.61c-0.11,0.12-0.23,0.17-0.37,0.15c-0.14-0.02-0.24-0.1-0.3-0.25l-6.69-14.78
			c-0.06-0.17-0.04-0.32,0.07-0.44l0.15-0.16c0.11-0.12,0.25-0.16,0.43-0.12l15.48,4.79c0.16,0.04,0.25,0.13,0.29,0.27
			c0.03,0.14,0,0.27-0.11,0.39l-0.58,0.66c-0.13,0.14-0.27,0.18-0.43,0.12l-3.79-1.17l-5.15,5.86l1.66,3.6
			c0.08,0.15,0.06,0.3-0.07,0.44L750.24,364.61z M748.6,358.55l4.35-4.95c-0.85-0.26-2.1-0.65-3.76-1.18
			c-1.66-0.53-2.92-0.92-3.76-1.18l-0.12,0.13L748.6,358.55z"/>
		<path class="st1" d="M765.14,347.61l-10.28-10.62c-0.07-0.07-0.11-0.17-0.1-0.28c0-0.11,0.04-0.21,0.13-0.29l0.39-0.38l15.71,1.98
			l0.03-0.03l-8.14-8.41c-0.08-0.08-0.12-0.18-0.12-0.3c0-0.11,0.04-0.21,0.13-0.29l0.55-0.54c0.07-0.07,0.17-0.11,0.3-0.1
			c0.12,0,0.22,0.04,0.29,0.11l10.28,10.62c0.07,0.07,0.11,0.17,0.1,0.28c0,0.11-0.04,0.21-0.13,0.29l-0.28,0.28l-16-2.03
			l-0.02,0.01l8.31,8.59c0.08,0.09,0.12,0.18,0.12,0.3c0,0.12-0.04,0.21-0.13,0.29l-0.55,0.53c-0.07,0.07-0.17,0.11-0.3,0.1
			C765.31,347.72,765.22,347.69,765.14,347.61z"/>
		<path class="st1" d="M831.06,298.77l-10.42-11.25c-0.11-0.11-0.15-0.23-0.13-0.35c0.02-0.12,0.1-0.22,0.24-0.3l2.29-1.17
			c0.18-0.09,0.35-0.06,0.49,0.09l5.07,5.77l0.08-0.04l-0.49-8.43c0.01-0.18,0.08-0.31,0.22-0.39l0.35-0.18
			c0.17-0.09,0.32-0.07,0.44,0.04l6.55,5.33l0.08-0.04l-1.71-7.49c-0.04-0.21,0.03-0.36,0.21-0.46l2.29-1.17
			c0.14-0.07,0.27-0.08,0.38-0.02c0.11,0.06,0.18,0.16,0.21,0.31l3.03,15.03c0.05,0.2-0.02,0.36-0.21,0.46l-0.31,0.16
			c-0.14,0.07-0.29,0.06-0.44-0.04l-7.67-6.17l-0.06,0.03l0.53,9.82c0,0.18-0.08,0.31-0.22,0.38l-0.31,0.16
			C831.36,298.96,831.2,298.93,831.06,298.77z"/>
		<path class="st1" d="M851.74,288.44l-5.53-13.45c-0.04-0.11-0.04-0.21,0-0.32c0.04-0.1,0.12-0.18,0.23-0.22l8.41-3.46
			c0.11-0.04,0.22-0.04,0.32,0c0.1,0.04,0.18,0.12,0.22,0.23l0.91,2.21c0.04,0.11,0.04,0.21,0,0.32c-0.04,0.11-0.12,0.18-0.23,0.22
			l-5.63,2.32l1.04,2.52l4.63-1.9c0.11-0.04,0.21-0.04,0.32,0c0.1,0.04,0.18,0.12,0.22,0.23l0.91,2.21c0.04,0.11,0.04,0.21,0,0.32
			s-0.12,0.18-0.23,0.22l-4.63,1.91l1.13,2.74l5.63-2.31c0.11-0.04,0.22-0.04,0.32,0c0.1,0.04,0.18,0.12,0.22,0.23l0.91,2.21
			c0.04,0.11,0.04,0.21,0,0.32c-0.04,0.11-0.12,0.18-0.23,0.22l-8.41,3.46c-0.11,0.04-0.22,0.04-0.32,0
			C851.86,288.63,851.78,288.55,851.74,288.44z"/>
		<path class="st1" d="M878.95,278.78c-0.16,0.04-0.29,0.02-0.4-0.07c-0.11-0.09-0.15-0.22-0.12-0.38l2.61-16.1
			c0.03-0.17,0.12-0.29,0.29-0.33l0.21-0.06c0.17-0.05,0.31,0,0.43,0.13l10.63,12.36c0.11,0.12,0.14,0.25,0.1,0.38
			s-0.15,0.22-0.3,0.27l-2.35,0.66c-0.32,0.09-0.62-0.01-0.89-0.32l-1.23-1.46l-5.75,1.62l-0.28,1.91
			c-0.05,0.38-0.25,0.62-0.62,0.72L878.95,278.78z M882.64,272.27l3.21-0.91l-2.59-3.04l-0.02,0.01L882.64,272.27z"/>
		<path class="st1" d="M900.59,272.65l-2.86-14.26c-0.02-0.12,0-0.22,0.06-0.31c0.06-0.1,0.15-0.15,0.27-0.18l6.44-1.29
			c1.29-0.26,2.49-0.02,3.59,0.7c1.1,0.73,1.78,1.73,2.04,3.01c0.19,0.96,0.08,1.88-0.35,2.77s-1.08,1.62-1.97,2.2l4.05,4.88
			c0.11,0.13,0.15,0.27,0.09,0.42s-0.16,0.25-0.34,0.28l-2.86,0.57c-0.16,0.03-0.29-0.01-0.38-0.12l-4.01-5.13l-1.49,0.3l1.1,5.49
			c0.02,0.1,0,0.2-0.06,0.3c-0.06,0.1-0.15,0.16-0.26,0.19l-2.56,0.51c-0.12,0.02-0.22,0-0.31-0.06
			C900.67,272.86,900.61,272.77,900.59,272.65z M902.32,263.75l3.19-0.64c0.44-0.09,0.79-0.34,1.05-0.75
			c0.25-0.41,0.33-0.84,0.24-1.3c-0.09-0.45-0.33-0.8-0.72-1.05c-0.39-0.26-0.8-0.34-1.25-0.25l-3.19,0.64L902.32,263.75z"/>
		<path class="st1" d="M921.32,268.92l-1.8-14.43c-0.01-0.12,0.01-0.22,0.08-0.31s0.16-0.14,0.28-0.16l9.03-1.12
			c0.12-0.01,0.22,0.01,0.31,0.08s0.14,0.16,0.16,0.28l0.3,2.38c0.01,0.12-0.01,0.22-0.08,0.31s-0.16,0.14-0.28,0.16l-6.04,0.75
			l0.34,2.7l4.97-0.62c0.12-0.01,0.22,0.01,0.31,0.08s0.14,0.16,0.16,0.28l0.3,2.38c0.01,0.12-0.01,0.22-0.08,0.31
			c-0.07,0.09-0.16,0.14-0.28,0.16l-4.97,0.62l0.37,2.94l6.04-0.75c0.12-0.02,0.22,0.01,0.31,0.08c0.09,0.07,0.14,0.16,0.16,0.28
			l0.3,2.38c0.01,0.12-0.01,0.22-0.08,0.31s-0.16,0.14-0.28,0.16l-9.02,1.12c-0.12,0.01-0.22-0.01-0.31-0.08
			C921.38,269.13,921.33,269.03,921.32,268.92z"/>
		<path class="st1" d="M952,259.95c-0.12,0-0.22-0.03-0.3-0.1c-0.08-0.07-0.12-0.17-0.13-0.28l-0.01-0.42
			c-0.01-0.28,0.13-0.42,0.41-0.42l4.59-0.09c0.28-0.01,0.42,0.13,0.43,0.41l0.01,0.42c0,0.12-0.04,0.21-0.12,0.29
			s-0.18,0.11-0.29,0.12L952,259.95z"/>
		<path class="st1" d="M978.93,266.89l1.04-14.51c0.01-0.1,0.06-0.2,0.15-0.28c0.09-0.08,0.19-0.12,0.29-0.11l0.88,0.06
			c0.1,0.01,0.19,0.06,0.28,0.15c0.08,0.09,0.12,0.19,0.11,0.29l-1.04,14.51c-0.01,0.1-0.06,0.2-0.15,0.28
			c-0.09,0.08-0.19,0.12-0.29,0.11l-0.88-0.06c-0.1-0.01-0.19-0.06-0.28-0.15C978.96,267.09,978.92,266.99,978.93,266.89z"/>
		<path class="st1" d="M991.44,267.97l1.97-14.41c0.02-0.12,0.07-0.21,0.16-0.28s0.19-0.1,0.29-0.08l4.88,0.66
			c2.1,0.29,3.8,1.28,5.09,2.97c1.29,1.69,1.79,3.58,1.51,5.67c-0.29,2.11-1.28,3.8-2.98,5.09c-1.7,1.29-3.6,1.79-5.7,1.51
			l-4.88-0.66c-0.1-0.01-0.19-0.07-0.26-0.16C991.45,268.19,991.43,268.08,991.44,267.97z M993.24,267.1l3.27,0.45
			c1.78,0.24,3.34-0.13,4.65-1.13c1.32-1,2.1-2.39,2.34-4.17c0.24-1.79-0.14-3.33-1.14-4.63c-1-1.3-2.4-2.08-4.18-2.32l-3.27-0.45
			L993.24,267.1z"/>
		<path class="st1" d="M1013.9,271.52l3.07-14.22c0.02-0.11,0.08-0.2,0.18-0.26c0.1-0.06,0.2-0.08,0.32-0.05l8.46,1.83
			c0.11,0.03,0.2,0.09,0.26,0.18c0.06,0.1,0.08,0.2,0.06,0.31l-0.13,0.62c-0.02,0.12-0.08,0.2-0.18,0.26
			c-0.1,0.06-0.2,0.08-0.32,0.06l-7.21-1.56l-1.13,5.24l6.16,1.33c0.11,0.03,0.2,0.09,0.26,0.18c0.06,0.1,0.08,0.2,0.05,0.31
			l-0.13,0.62c-0.03,0.12-0.09,0.2-0.18,0.26c-0.1,0.06-0.2,0.08-0.32,0.06l-6.16-1.33l-1.18,5.48l7.21,1.56
			c0.11,0.03,0.2,0.09,0.26,0.18c0.06,0.1,0.08,0.2,0.06,0.31l-0.13,0.62c-0.02,0.12-0.08,0.2-0.18,0.27
			c-0.1,0.06-0.2,0.08-0.32,0.05l-8.46-1.83c-0.12-0.03-0.2-0.09-0.26-0.18C1013.89,271.73,1013.87,271.63,1013.9,271.52z"/>
		<path class="st1" d="M1030.96,275.87c-0.15-0.04-0.25-0.14-0.3-0.27s-0.01-0.26,0.1-0.38l10.59-12.29
			c0.13-0.13,0.27-0.17,0.43-0.12l0.21,0.06c0.15,0.04,0.25,0.16,0.29,0.34l2.18,16.06c0.03,0.16-0.01,0.29-0.12,0.38
			s-0.24,0.11-0.4,0.07l-0.84-0.25c-0.18-0.05-0.28-0.17-0.29-0.34l-0.53-3.94l-7.48-2.21l-2.56,3.02c-0.1,0.14-0.24,0.18-0.43,0.12
			L1030.96,275.87z M1035.77,271.84l6.32,1.87c-0.12-0.88-0.3-2.18-0.52-3.91c-0.22-1.73-0.4-3.03-0.52-3.91l-0.17-0.05
			L1035.77,271.84z"/>
		<path class="st1" d="M1052.25,280.93c-0.17-0.3-0.12-0.55,0.14-0.75c0.06-0.03,0.14-0.07,0.24-0.13c0.1-0.06,0.17-0.11,0.22-0.14
			c0.37-0.24,0.63-0.21,0.79,0.08c0.83,1.5,1.79,2.46,2.89,2.87c0.81,0.3,1.55,0.33,2.23,0.08c0.68-0.25,1.14-0.68,1.37-1.31
			c0.25-0.67,0.18-1.36-0.2-2.06c-0.39-0.7-1.11-1.55-2.18-2.54c-1.06-1.02-1.76-1.94-2.11-2.75s-0.32-1.77,0.09-2.87
			c0.14-0.38,0.37-0.74,0.68-1.08c0.31-0.34,0.69-0.64,1.16-0.9s1.04-0.41,1.73-0.43c0.69-0.02,1.42,0.11,2.19,0.4
			c0.6,0.23,1.16,0.54,1.68,0.93c0.52,0.4,0.89,0.73,1.11,1l0.33,0.43c0.08,0.08,0.12,0.18,0.12,0.3c0,0.13-0.09,0.27-0.26,0.44
			c-0.04,0.03-0.11,0.08-0.2,0.15c-0.09,0.07-0.15,0.12-0.2,0.15c-0.3,0.21-0.56,0.19-0.79-0.09c-0.87-1.05-1.65-1.7-2.34-1.96
			c-0.97-0.37-1.78-0.39-2.42-0.09s-1.06,0.74-1.27,1.29c-0.25,0.66-0.22,1.3,0.07,1.91c0.29,0.62,0.83,1.29,1.62,2.03
			c1.34,1.23,2.25,2.31,2.74,3.23c0.49,0.92,0.53,1.93,0.11,3.04c-0.4,1.06-1.16,1.77-2.3,2.15c-1.14,0.38-2.31,0.34-3.53-0.12
			c-0.73-0.27-1.39-0.67-2-1.21c-0.61-0.53-1.01-0.95-1.22-1.26C1052.54,281.45,1052.38,281.18,1052.25,280.93z"/>
		<path class="st1" d="M1081.54,292.72c-0.66-2.06-0.48-4.07,0.53-6.02c1.01-1.95,2.55-3.26,4.62-3.93s4.08-0.5,6.03,0.51
			c1.95,1.01,3.25,2.55,3.91,4.63s0.48,4.09-0.53,6.04c-0.73,1.42-1.78,2.5-3.14,3.26c-1.36,0.76-2.8,1.09-4.34,1l0.38,4.85
			c0.02,0.18-0.03,0.31-0.17,0.41c-0.14,0.09-0.29,0.1-0.44,0.02l-0.98-0.51c-0.13-0.07-0.2-0.19-0.21-0.36l-0.27-4.69
			c-0.47-0.14-0.96-0.35-1.48-0.62C1083.49,296.32,1082.19,294.78,1081.54,292.72z M1087.16,284.27c-1.68,0.55-2.93,1.59-3.73,3.14
			s-0.94,3.16-0.4,4.84c0.53,1.68,1.57,2.92,3.12,3.72c1.55,0.8,3.16,0.94,4.85,0.41s2.93-1.57,3.73-3.12
			c0.8-1.55,0.94-3.17,0.4-4.86c-0.53-1.69-1.57-2.94-3.12-3.74C1090.46,283.85,1088.85,283.72,1087.16,284.27z"/>
		<path class="st1" d="M1103.75,300.76l4.96-7.86c0.05-0.09,0.14-0.14,0.25-0.18c0.12-0.03,0.22-0.02,0.32,0.05l0.71,0.45
			c0.1,0.06,0.16,0.15,0.19,0.26s0.01,0.22-0.06,0.32l-4.89,7.75c-0.69,1.09-0.94,2.19-0.76,3.3c0.18,1.11,0.81,2,1.87,2.68
			c1.08,0.68,2.16,0.87,3.24,0.56c1.08-0.3,1.96-0.99,2.65-2.07l4.91-7.79c0.06-0.1,0.15-0.16,0.26-0.19
			c0.11-0.03,0.22-0.01,0.32,0.06l0.71,0.45c0.1,0.06,0.16,0.15,0.18,0.27c0.02,0.12,0,0.22-0.05,0.3l-4.96,7.86
			c-0.9,1.42-2.11,2.32-3.63,2.69s-3,0.09-4.45-0.82c-1.44-0.91-2.31-2.12-2.63-3.65C1102.57,303.66,1102.86,302.19,1103.75,300.76z
			"/>
		<path class="st1" d="M1119.52,317.46l8.67-11.68c0.07-0.09,0.16-0.15,0.27-0.17c0.11-0.02,0.22,0.01,0.31,0.08l6.95,5.16
			c0.09,0.07,0.15,0.16,0.17,0.28c0.02,0.11-0.01,0.21-0.08,0.31l-0.38,0.51c-0.07,0.1-0.16,0.15-0.27,0.17
			c-0.11,0.02-0.22-0.01-0.31-0.08l-5.93-4.4l-3.19,4.3l5.06,3.76c0.09,0.07,0.15,0.16,0.17,0.27c0.02,0.11-0.01,0.22-0.08,0.31
			l-0.38,0.51c-0.07,0.1-0.16,0.15-0.27,0.17c-0.11,0.02-0.22-0.01-0.31-0.08l-5.06-3.76l-3.34,4.5l5.93,4.4
			c0.09,0.07,0.15,0.16,0.17,0.28c0.02,0.11-0.01,0.21-0.08,0.31l-0.38,0.51c-0.07,0.1-0.16,0.15-0.27,0.17
			c-0.11,0.02-0.22-0.01-0.31-0.08l-6.95-5.16c-0.09-0.07-0.15-0.16-0.17-0.27S1119.45,317.56,1119.52,317.46z"/>
		<path class="st1" d="M1143.42,336.69l9.98-10.58c0.08-0.09,0.18-0.13,0.29-0.13c0.11,0,0.21,0.03,0.28,0.1l3.58,3.38
			c1.54,1.46,2.35,3.25,2.42,5.38c0.07,2.13-0.62,3.96-2.07,5.49c-1.46,1.54-3.25,2.35-5.38,2.41c-2.13,0.06-3.97-0.63-5.52-2.09
			l-3.58-3.38c-0.07-0.07-0.11-0.16-0.12-0.28C1143.3,336.87,1143.34,336.77,1143.42,336.69z M1145.39,337.03l2.4,2.26
			c1.31,1.24,2.79,1.83,4.44,1.79c1.65-0.04,3.09-0.72,4.33-2.03c1.24-1.31,1.82-2.79,1.77-4.44c-0.06-1.64-0.74-3.09-2.05-4.32
			l-2.4-2.26L1145.39,337.03z"/>
		<path class="st1" d="M1159.63,352.63l10.75-9.79c0.09-0.08,0.19-0.12,0.3-0.11s0.21,0.05,0.29,0.14l5.83,6.4
			c0.08,0.09,0.12,0.19,0.11,0.3c-0.01,0.11-0.05,0.21-0.14,0.29l-0.47,0.43c-0.09,0.08-0.19,0.12-0.3,0.11
			c-0.11-0.01-0.21-0.05-0.29-0.14l-4.97-5.46l-3.96,3.61l4.24,4.66c0.08,0.09,0.12,0.19,0.11,0.3c-0.01,0.11-0.05,0.21-0.14,0.29
			l-0.47,0.43c-0.09,0.08-0.19,0.12-0.3,0.11c-0.11-0.01-0.21-0.05-0.29-0.14l-4.24-4.66l-4.14,3.77l4.97,5.46
			c0.08,0.09,0.12,0.19,0.11,0.3c-0.01,0.11-0.05,0.21-0.14,0.29l-0.47,0.43c-0.09,0.08-0.19,0.12-0.3,0.11
			c-0.11-0.01-0.21-0.05-0.29-0.14l-5.83-6.4c-0.08-0.09-0.12-0.19-0.11-0.3C1159.5,352.81,1159.55,352.71,1159.63,352.63z"/>
		<path class="st1" d="M1172.72,365.81c0.01-0.34,0.18-0.53,0.5-0.57c0.06,0.01,0.15,0.01,0.27,0.01c0.12,0,0.21-0.01,0.26-0.01
			c0.44-0.01,0.65,0.15,0.63,0.48c-0.06,1.71,0.27,3.03,1,3.95c0.54,0.68,1.16,1.09,1.87,1.22c0.71,0.14,1.33,0,1.85-0.42
			c0.56-0.45,0.86-1.07,0.89-1.87c0.03-0.8-0.16-1.9-0.56-3.3c-0.38-1.42-0.51-2.57-0.39-3.45c0.12-0.88,0.63-1.68,1.55-2.41
			c0.32-0.26,0.7-0.45,1.14-0.58c0.44-0.13,0.92-0.19,1.46-0.18c0.54,0.01,1.1,0.19,1.71,0.53c0.6,0.33,1.16,0.82,1.67,1.47
			c0.4,0.5,0.72,1.06,0.96,1.67c0.24,0.61,0.38,1.08,0.44,1.43l0.06,0.54c0.03,0.11,0.01,0.21-0.05,0.32s-0.21,0.19-0.45,0.25
			c-0.05,0-0.13,0.01-0.25,0.03c-0.11,0.01-0.19,0.02-0.25,0.03c-0.37,0.03-0.58-0.13-0.63-0.48c-0.21-1.35-0.54-2.31-1-2.88
			c-0.65-0.81-1.32-1.25-2.03-1.32s-1.29,0.08-1.75,0.45c-0.55,0.44-0.86,1-0.93,1.68c-0.07,0.68,0.05,1.54,0.34,2.57
			c0.51,1.75,0.73,3.14,0.68,4.18c-0.05,1.04-0.54,1.93-1.47,2.67c-0.88,0.7-1.91,0.92-3.08,0.66s-2.16-0.9-2.97-1.92
			c-0.48-0.61-0.85-1.3-1.09-2.06c-0.25-0.77-0.38-1.34-0.4-1.71C1172.7,366.41,1172.7,366.09,1172.72,365.81z"/>
		<path class="st1" d="M1183.32,381.56l11.98-8.24c0.1-0.07,0.2-0.09,0.31-0.07c0.11,0.02,0.2,0.08,0.27,0.18l2.75,4
			c0.76,1.11,1.03,2.33,0.79,3.67s-0.9,2.38-2,3.14c-1.12,0.77-2.35,1.04-3.69,0.79c-1.34-0.24-2.39-0.92-3.16-2.03l-2.05-2.99
			l-4.25,2.92c-0.08,0.06-0.19,0.08-0.31,0.05c-0.12-0.02-0.21-0.08-0.27-0.16l-0.47-0.69c-0.07-0.1-0.09-0.2-0.07-0.31
			C1183.16,381.72,1183.22,381.63,1183.32,381.56z M1189.86,379.09l1.98,2.88c0.51,0.75,1.23,1.21,2.14,1.38s1.75,0,2.52-0.54
			c0.72-0.5,1.15-1.19,1.28-2.08c0.13-0.89-0.07-1.71-0.58-2.45l-1.98-2.88L1189.86,379.09z"/>
		<path class="st1" d="M1194.01,397.81l12.54-7.37c0.1-0.06,0.21-0.07,0.32-0.05c0.11,0.03,0.2,0.09,0.25,0.2l4.39,7.46
			c0.06,0.1,0.07,0.21,0.05,0.32c-0.03,0.11-0.09,0.2-0.19,0.25l-0.55,0.32c-0.1,0.06-0.21,0.07-0.32,0.05
			c-0.11-0.03-0.2-0.09-0.25-0.2l-3.74-6.36l-4.62,2.72l3.2,5.44c0.06,0.1,0.07,0.21,0.05,0.32s-0.09,0.2-0.19,0.25l-0.55,0.32
			c-0.1,0.06-0.21,0.07-0.32,0.04c-0.11-0.03-0.2-0.09-0.25-0.19l-3.2-5.44l-4.83,2.84l3.74,6.36c0.06,0.1,0.07,0.21,0.05,0.32
			c-0.03,0.11-0.09,0.2-0.19,0.26l-0.55,0.32c-0.1,0.06-0.21,0.07-0.32,0.05c-0.11-0.03-0.2-0.09-0.25-0.2l-4.39-7.46
			c-0.06-0.1-0.07-0.21-0.05-0.32C1193.85,397.95,1193.91,397.87,1194.01,397.81z"/>
		<path class="st1" d="M1205.49,414.94c0.7-2.06,2.03-3.57,4-4.54c1.97-0.97,3.99-1.1,6.06-0.39s3.58,2.05,4.55,4.02
			c0.86,1.75,1.02,3.64,0.5,5.67c-0.11,0.28-0.29,0.38-0.54,0.29l-0.82-0.28c-0.23-0.07-0.31-0.24-0.23-0.52
			c0.2-0.75,0.28-1.53,0.24-2.33s-0.22-1.53-0.54-2.17c-0.75-1.54-1.95-2.56-3.58-3.08c-1.63-0.51-3.22-0.39-4.77,0.37
			c-1.54,0.75-2.62,1.94-3.23,3.55c-0.61,1.61-0.54,3.19,0.21,4.73c0.32,0.64,0.69,1.23,1.12,1.75c0.43,0.53,0.78,0.88,1.05,1.08
			l0.4,0.32l2.76-1.35l-1.11-2.27c-0.05-0.11-0.06-0.21-0.03-0.31c0.03-0.1,0.1-0.18,0.2-0.23l0.73-0.36
			c0.25-0.12,0.44-0.06,0.56,0.19l1.67,3.41c0.04,0.09,0.05,0.19,0.01,0.3c-0.04,0.11-0.11,0.19-0.21,0.24l-4.52,2.21
			c-0.13,0.06-0.26,0.06-0.39,0c-0.16-0.1-0.38-0.25-0.66-0.46c-0.28-0.21-0.75-0.68-1.41-1.41c-0.66-0.74-1.2-1.53-1.61-2.37
			C1204.93,419.02,1204.79,417,1205.49,414.94z"/>
		<path class="st1" d="M1211.88,433.44c-0.06-0.15-0.05-0.28,0.03-0.4c0.08-0.12,0.2-0.17,0.36-0.16l16.2,0.79
			c0.18,0.02,0.3,0.11,0.36,0.26l0.08,0.21c0.06,0.15,0.03,0.29-0.09,0.44l-11.32,11.6c-0.11,0.12-0.23,0.17-0.37,0.13
			c-0.14-0.03-0.24-0.12-0.3-0.27l-0.32-0.82c-0.07-0.18-0.04-0.32,0.09-0.44l2.78-2.84l-2.86-7.26l-3.96-0.16
			c-0.17,0.01-0.29-0.08-0.36-0.26L1211.88,433.44z M1218.02,434.76l2.42,6.13c0.61-0.63,1.54-1.57,2.76-2.81
			c1.23-1.24,2.15-2.18,2.76-2.81l-0.06-0.16L1218.02,434.76z"/>
		<path class="st1" d="M1220.2,454.46l14.15-4.29c0.1-0.03,0.2-0.02,0.3,0.04c0.1,0.05,0.17,0.14,0.2,0.25l0.16,0.53l-8.94,13.06
			l0.01,0.04l11.21-3.4c0.11-0.03,0.22-0.02,0.32,0.03c0.1,0.05,0.17,0.14,0.2,0.25l0.22,0.74c0.03,0.1,0.02,0.2-0.04,0.31
			s-0.14,0.18-0.24,0.21l-14.15,4.29c-0.1,0.03-0.2,0.02-0.3-0.04c-0.1-0.05-0.17-0.14-0.2-0.25l-0.12-0.38l9.12-13.3l-0.01-0.02
			l-11.44,3.47c-0.11,0.04-0.22,0.03-0.32-0.03c-0.1-0.05-0.17-0.14-0.2-0.25l-0.22-0.74c-0.03-0.1-0.02-0.2,0.04-0.31
			S1220.1,454.49,1220.2,454.46z"/>
		<path class="st1" d="M1233.51,535.36l14.83-3.91c0.15-0.04,0.27-0.02,0.37,0.05c0.1,0.07,0.15,0.19,0.15,0.35l-0.04,2.57
			c0,0.21-0.11,0.34-0.31,0.39l-7.48,1.77l0,0.09l7.68,3.53c0.16,0.09,0.24,0.21,0.24,0.38l-0.01,0.39c0,0.19-0.09,0.31-0.25,0.37
			l-7.79,3.28l0,0.09l7.42,2.01c0.2,0.06,0.3,0.2,0.3,0.4l-0.04,2.57c0,0.16-0.06,0.28-0.16,0.35c-0.1,0.07-0.23,0.08-0.37,0.04
			l-14.69-4.39c-0.2-0.05-0.3-0.18-0.3-0.4l0-0.35c0-0.16,0.09-0.28,0.25-0.37l9.05-3.87l0-0.07l-8.92-4.14
			c-0.16-0.09-0.24-0.21-0.24-0.38l0.01-0.35C1233.2,535.53,1233.3,535.4,1233.51,535.36z"/>
		<path class="st1" d="M1233.17,558.54l14.49,1.21c0.12,0.01,0.21,0.06,0.29,0.14c0.07,0.09,0.11,0.19,0.1,0.31l-0.76,9.06
			c-0.01,0.12-0.06,0.21-0.14,0.29c-0.09,0.07-0.19,0.11-0.31,0.1l-2.39-0.2c-0.12-0.01-0.21-0.06-0.29-0.14
			c-0.07-0.09-0.11-0.19-0.1-0.3l0.51-6.06l-2.71-0.23l-0.42,4.99c-0.01,0.12-0.06,0.21-0.15,0.29c-0.09,0.07-0.19,0.11-0.31,0.1
			l-2.39-0.2c-0.12-0.01-0.21-0.06-0.29-0.14c-0.07-0.09-0.11-0.19-0.1-0.31l0.42-4.99l-2.96-0.25l-0.51,6.06
			c-0.01,0.12-0.06,0.21-0.15,0.29s-0.19,0.11-0.31,0.1l-2.39-0.2c-0.12-0.01-0.21-0.06-0.29-0.14c-0.07-0.09-0.11-0.19-0.1-0.3
			l0.76-9.06c0.01-0.12,0.06-0.21,0.14-0.29S1233.06,558.53,1233.17,558.54z"/>
		<path class="st1" d="M1229.38,587.17c0.03-0.16,0.11-0.27,0.24-0.32c0.13-0.06,0.26-0.03,0.39,0.07l13.14,9.65
			c0.14,0.1,0.2,0.24,0.16,0.41l-0.04,0.21c-0.04,0.17-0.14,0.28-0.31,0.32l-15.85,3.84c-0.16,0.04-0.29,0.01-0.39-0.09
			c-0.1-0.1-0.13-0.23-0.1-0.39l0.48-2.39c0.07-0.33,0.3-0.54,0.69-0.65l1.86-0.43l1.17-5.86l-1.57-1.12
			c-0.32-0.21-0.44-0.51-0.36-0.88L1229.38,587.17z M1233.5,593.42l-0.66,3.27l3.88-0.93l0-0.02L1233.5,593.42z"/>
		<path class="st1" d="M1224.98,609.22l14,3.95c0.11,0.03,0.2,0.1,0.25,0.2c0.06,0.1,0.07,0.21,0.04,0.32l-1.78,6.32
			c-0.36,1.27-1.11,2.23-2.26,2.88c-1.15,0.65-2.35,0.8-3.61,0.45c-0.95-0.27-1.71-0.79-2.31-1.58s-0.95-1.7-1.06-2.75l-6.19,1.38
			c-0.17,0.04-0.3,0.01-0.42-0.11c-0.11-0.12-0.14-0.26-0.1-0.43l0.79-2.81c0.04-0.16,0.14-0.25,0.29-0.29l6.4-1.23l0.41-1.46
			l-5.39-1.52c-0.1-0.03-0.18-0.09-0.24-0.19c-0.06-0.1-0.08-0.21-0.05-0.32l0.71-2.52c0.03-0.11,0.1-0.2,0.2-0.25
			C1224.77,609.2,1224.87,609.19,1224.98,609.22z M1232.12,614.82l-0.88,3.13c-0.12,0.44-0.06,0.86,0.19,1.28
			c0.25,0.41,0.6,0.68,1.05,0.81c0.44,0.12,0.86,0.07,1.27-0.16c0.41-0.23,0.67-0.56,0.79-1l0.88-3.13L1232.12,614.82z"/>
		<path class="st1" d="M1218.88,629.36l13.67,4.97c0.11,0.04,0.19,0.11,0.24,0.21c0.05,0.1,0.05,0.21,0.01,0.32l-3.11,8.55
			c-0.04,0.11-0.11,0.19-0.21,0.24c-0.1,0.05-0.21,0.05-0.32,0.01l-2.25-0.82c-0.11-0.04-0.19-0.11-0.24-0.21s-0.05-0.21-0.01-0.32
			l2.08-5.72l-2.56-0.93l-1.71,4.71c-0.04,0.11-0.11,0.19-0.21,0.24c-0.1,0.05-0.21,0.05-0.32,0.01l-2.25-0.82
			c-0.11-0.04-0.19-0.11-0.24-0.21c-0.05-0.1-0.05-0.21-0.01-0.32l1.71-4.71l-2.79-1.01l-2.08,5.72c-0.04,0.11-0.11,0.19-0.21,0.24
			s-0.21,0.05-0.32,0.01l-2.25-0.82c-0.11-0.04-0.19-0.11-0.24-0.21c-0.05-0.1-0.05-0.21-0.01-0.32l3.11-8.54
			c0.04-0.11,0.11-0.19,0.21-0.24C1218.66,629.33,1218.77,629.32,1218.88,629.36z"/>
		<path class="st1" d="M1212.87,660.76c0.05-0.11,0.13-0.18,0.23-0.22c0.1-0.04,0.2-0.03,0.31,0.02l0.38,0.18
			c0.25,0.12,0.31,0.31,0.19,0.56l-2.01,4.12c-0.12,0.25-0.31,0.31-0.56,0.19l-0.38-0.18c-0.11-0.05-0.17-0.13-0.2-0.23
			c-0.03-0.1-0.02-0.21,0.03-0.31L1212.87,660.76z"/>
		<path class="st1" d="M1194.38,681.53l12.42,7.57c0.09,0.05,0.15,0.14,0.18,0.26s0.02,0.22-0.04,0.31l-0.46,0.75
			c-0.05,0.09-0.14,0.15-0.26,0.18c-0.12,0.03-0.22,0.02-0.31-0.04l-12.42-7.57c-0.09-0.05-0.15-0.14-0.18-0.26
			s-0.02-0.22,0.04-0.31l0.46-0.75c0.05-0.09,0.14-0.15,0.26-0.18S1194.29,681.48,1194.38,681.53z"/>
		<path class="st1" d="M1187.68,692.16l11.91,8.35c0.1,0.07,0.15,0.16,0.17,0.27c0.02,0.11,0,0.21-0.06,0.29l-2.83,4.03
			c-1.22,1.74-2.88,2.79-4.97,3.17c-2.1,0.37-4.01-0.04-5.73-1.26c-1.74-1.22-2.79-2.88-3.16-4.98c-0.37-2.1,0.06-4.02,1.28-5.76
			l2.83-4.03c0.06-0.08,0.14-0.14,0.26-0.16C1187.48,692.07,1187.59,692.1,1187.68,692.16z M1187.62,694.16l-1.89,2.7
			c-1.03,1.47-1.41,3.03-1.13,4.65c0.28,1.63,1.16,2.96,2.63,3.99s3.02,1.4,4.64,1.11s2.95-1.18,3.98-2.65l1.89-2.7L1187.62,694.16z
			"/>
		<path class="st1" d="M1174.23,710.51l11.23,9.24c0.09,0.07,0.14,0.17,0.15,0.28s-0.02,0.21-0.09,0.31l-5.5,6.68
			c-0.07,0.09-0.17,0.14-0.28,0.15c-0.11,0.01-0.22-0.02-0.31-0.1l-0.49-0.4c-0.09-0.07-0.14-0.17-0.15-0.28
			c-0.01-0.11,0.02-0.21,0.09-0.31l4.69-5.7l-4.14-3.41l-4.01,4.87c-0.07,0.09-0.17,0.14-0.28,0.15s-0.22-0.02-0.31-0.1l-0.49-0.4
			c-0.09-0.07-0.14-0.17-0.15-0.28s0.02-0.21,0.09-0.31l4.01-4.87l-4.33-3.56l-4.69,5.7c-0.07,0.09-0.17,0.14-0.28,0.15
			c-0.11,0.01-0.22-0.02-0.31-0.1l-0.49-0.4c-0.09-0.07-0.14-0.17-0.15-0.28s0.02-0.22,0.09-0.31l5.5-6.68
			c0.07-0.09,0.17-0.14,0.28-0.15C1174.03,710.4,1174.14,710.43,1174.23,710.51z"/>
		<path class="st1" d="M1162.55,723.66c0.11-0.12,0.24-0.16,0.38-0.14c0.14,0.02,0.24,0.11,0.29,0.26l6.09,15.04
			c0.06,0.18,0.03,0.32-0.08,0.44l-0.15,0.16c-0.11,0.12-0.25,0.15-0.43,0.1l-15.28-5.4c-0.16-0.05-0.25-0.14-0.28-0.28
			c-0.03-0.14,0.01-0.27,0.12-0.38l0.61-0.64c0.13-0.14,0.28-0.17,0.43-0.1l3.75,1.32l5.38-5.64l-1.52-3.66
			c-0.08-0.15-0.05-0.3,0.08-0.44L1162.55,723.66z M1163.94,729.78l-4.55,4.77c0.83,0.29,2.07,0.73,3.71,1.32
			c1.64,0.59,2.88,1.04,3.71,1.33l0.12-0.13L1163.94,729.78z"/>
		<path class="st1" d="M1148.31,740.32c0.34-0.02,0.54,0.14,0.6,0.46c0,0.06,0,0.15,0.01,0.27c0.01,0.12,0.02,0.21,0.03,0.26
			c0.04,0.44-0.1,0.66-0.44,0.66c-1.71,0.05-3,0.47-3.87,1.26c-0.64,0.58-1,1.23-1.09,1.95c-0.09,0.72,0.09,1.32,0.54,1.82
			c0.48,0.53,1.12,0.78,1.92,0.76c0.8-0.02,1.88-0.29,3.26-0.78c1.39-0.47,2.53-0.68,3.41-0.62c0.88,0.06,1.72,0.52,2.51,1.38
			c0.28,0.3,0.5,0.67,0.66,1.1c0.16,0.43,0.25,0.91,0.27,1.44s-0.11,1.11-0.41,1.74c-0.29,0.62-0.74,1.21-1.35,1.76
			c-0.48,0.43-1.01,0.79-1.6,1.07c-0.59,0.28-1.06,0.46-1.4,0.53l-0.53,0.1c-0.11,0.04-0.21,0.03-0.33-0.03s-0.2-0.2-0.28-0.43
			c-0.01-0.05-0.02-0.13-0.04-0.24c-0.02-0.11-0.03-0.19-0.04-0.24c-0.05-0.37,0.09-0.59,0.44-0.66c1.33-0.3,2.27-0.7,2.81-1.19
			c0.77-0.7,1.16-1.4,1.18-2.11c0.02-0.71-0.17-1.28-0.56-1.71c-0.47-0.52-1.05-0.79-1.74-0.81c-0.68-0.02-1.53,0.15-2.54,0.52
			c-1.71,0.62-3.08,0.95-4.13,0.96c-1.04,0.02-1.96-0.41-2.76-1.29c-0.76-0.83-1.05-1.84-0.87-3.03s0.75-2.21,1.72-3.09
			c0.57-0.52,1.24-0.93,1.99-1.23c0.75-0.3,1.31-0.47,1.67-0.51S1148.03,740.32,1148.31,740.32z"/>
		<path class="st1" d="M1124.47,761.01c2.13,0.36,3.84,1.43,5.12,3.21c1.28,1.79,1.74,3.76,1.39,5.9s-1.42,3.86-3.2,5.13
			c-1.79,1.28-3.76,1.73-5.91,1.37s-3.86-1.44-5.14-3.23c-0.93-1.3-1.42-2.72-1.48-4.28c-0.06-1.55,0.3-2.99,1.08-4.32l-4.49-1.87
			c-0.17-0.06-0.26-0.17-0.28-0.34s0.04-0.3,0.18-0.4l0.89-0.64c0.12-0.08,0.26-0.09,0.41-0.03l4.3,1.9
			c0.34-0.35,0.75-0.7,1.23-1.04C1120.37,761.11,1122.33,760.65,1124.47,761.01z M1129.43,769.87c0.28-1.75-0.08-3.33-1.1-4.75
			s-2.39-2.27-4.12-2.56c-1.74-0.29-3.31,0.07-4.73,1.08c-1.42,1.01-2.27,2.39-2.57,4.13s0.06,3.32,1.08,4.74s2.39,2.28,4.15,2.57
			c1.75,0.3,3.33-0.06,4.75-1.07C1128.3,773,1129.15,771.62,1129.43,769.87z"/>
		<path class="st1" d="M1107.2,777.13l4.74,7.99c0.05,0.09,0.07,0.19,0.04,0.31c-0.02,0.12-0.09,0.21-0.19,0.26l-0.72,0.43
			c-0.1,0.06-0.21,0.08-0.32,0.05c-0.11-0.03-0.2-0.09-0.26-0.19l-4.67-7.88c-0.66-1.11-1.52-1.83-2.59-2.18
			c-1.07-0.34-2.15-0.19-3.23,0.45c-1.1,0.65-1.75,1.53-1.98,2.63c-0.22,1.1-0.01,2.2,0.64,3.3l4.7,7.92
			c0.06,0.1,0.08,0.21,0.05,0.32c-0.03,0.11-0.09,0.2-0.19,0.26l-0.72,0.43c-0.1,0.06-0.21,0.07-0.32,0.04
			c-0.11-0.04-0.2-0.1-0.25-0.18l-4.74-7.99c-0.86-1.45-1.11-2.93-0.74-4.45c0.37-1.52,1.29-2.72,2.76-3.59
			c1.46-0.87,2.94-1.09,4.45-0.68S1106.35,775.68,1107.2,777.13z"/>
		<path class="st1" d="M1085.16,783.57l6.45,13.03c0.05,0.11,0.06,0.21,0.02,0.32s-0.11,0.19-0.21,0.24l-7.76,3.84
			c-0.1,0.05-0.21,0.06-0.32,0.02c-0.11-0.04-0.19-0.11-0.24-0.21l-0.28-0.57c-0.05-0.11-0.06-0.21-0.02-0.32
			c0.04-0.11,0.11-0.19,0.21-0.24l6.62-3.28l-2.38-4.8l-5.65,2.8c-0.1,0.05-0.21,0.06-0.32,0.02c-0.11-0.04-0.19-0.11-0.24-0.21
			l-0.28-0.57c-0.05-0.11-0.06-0.21-0.02-0.32s0.11-0.19,0.21-0.24l5.65-2.8l-2.49-5.02l-6.62,3.28c-0.1,0.05-0.21,0.06-0.32,0.02
			c-0.11-0.04-0.19-0.11-0.24-0.21l-0.28-0.57c-0.05-0.11-0.06-0.21-0.02-0.32c0.04-0.11,0.11-0.19,0.21-0.24l7.76-3.84
			c0.11-0.05,0.21-0.06,0.32-0.02C1085.03,783.39,1085.11,783.47,1085.16,783.57z"/>
		<path class="st1" d="M1057.19,796.07l4.86,13.71c0.04,0.11,0.03,0.22-0.01,0.32c-0.05,0.1-0.12,0.17-0.22,0.21l-4.64,1.64
			c-2,0.71-3.96,0.61-5.89-0.3s-3.24-2.36-3.94-4.35c-0.71-2-0.61-3.96,0.31-5.89c0.92-1.93,2.38-3.24,4.38-3.96l4.64-1.64
			c0.1-0.04,0.2-0.03,0.3,0.02C1057.08,795.88,1057.15,795.96,1057.19,796.07z M1055.98,797.67l-3.11,1.1
			c-1.7,0.6-2.9,1.65-3.62,3.14c-0.71,1.49-0.77,3.08-0.17,4.78s1.65,2.9,3.14,3.59c1.49,0.7,3.08,0.75,4.78,0.14l3.11-1.1
			L1055.98,797.67z"/>
		<path class="st1" d="M1035.6,803.22l3.79,14.04c0.03,0.11,0.02,0.22-0.04,0.32c-0.06,0.1-0.14,0.16-0.25,0.19l-8.36,2.26
			c-0.11,0.03-0.22,0.02-0.32-0.04s-0.16-0.14-0.19-0.25l-0.17-0.62c-0.03-0.11-0.02-0.22,0.04-0.32c0.06-0.1,0.14-0.16,0.25-0.19
			l7.13-1.92l-1.4-5.18l-6.09,1.64c-0.11,0.03-0.22,0.02-0.32-0.04c-0.1-0.06-0.16-0.14-0.19-0.26l-0.17-0.62
			c-0.03-0.11-0.02-0.22,0.04-0.32c0.06-0.1,0.14-0.16,0.25-0.19l6.09-1.64l-1.46-5.41l-7.13,1.92c-0.11,0.03-0.22,0.02-0.32-0.04
			s-0.16-0.14-0.19-0.25l-0.17-0.62c-0.03-0.11-0.02-0.22,0.04-0.32c0.06-0.1,0.14-0.16,0.25-0.19l8.36-2.25
			c0.11-0.03,0.22-0.02,0.32,0.04C1035.5,803.02,1035.57,803.11,1035.6,803.22z"/>
		<path class="st1" d="M1017.84,808.84c0.3,0.17,0.39,0.4,0.27,0.71c-0.04,0.05-0.08,0.13-0.13,0.24c-0.05,0.11-0.09,0.19-0.11,0.23
			c-0.19,0.39-0.43,0.51-0.72,0.34c-1.49-0.84-2.82-1.15-3.97-0.92c-0.85,0.17-1.5,0.53-1.94,1.1s-0.61,1.18-0.48,1.84
			c0.14,0.71,0.56,1.25,1.25,1.65c0.7,0.39,1.76,0.73,3.19,1.02c1.44,0.31,2.52,0.72,3.24,1.23s1.2,1.33,1.43,2.48
			c0.08,0.4,0.08,0.83-0.01,1.28s-0.25,0.91-0.51,1.38c-0.26,0.47-0.67,0.89-1.25,1.28c-0.57,0.38-1.26,0.65-2.07,0.81
			c-0.63,0.12-1.27,0.15-1.92,0.09s-1.14-0.16-1.48-0.27l-0.51-0.19c-0.11-0.02-0.2-0.09-0.26-0.2c-0.07-0.11-0.07-0.28-0.01-0.51
			c0.02-0.05,0.05-0.12,0.09-0.23c0.04-0.1,0.07-0.18,0.09-0.23c0.14-0.34,0.38-0.46,0.72-0.34c1.29,0.43,2.3,0.58,3.02,0.44
			c1.02-0.2,1.72-0.6,2.1-1.2c0.38-0.6,0.52-1.18,0.4-1.76c-0.14-0.69-0.49-1.22-1.06-1.59c-0.57-0.37-1.39-0.66-2.45-0.87
			c-1.79-0.35-3.13-0.79-4.03-1.31c-0.9-0.53-1.47-1.37-1.7-2.53c-0.22-1.11,0.06-2.12,0.82-3.04c0.77-0.92,1.79-1.51,3.07-1.76
			c0.76-0.15,1.54-0.16,2.33-0.02c0.8,0.13,1.36,0.28,1.7,0.43C1017.32,808.54,1017.61,808.69,1017.84,808.84z"/>
		<path class="st1" d="M999,811.03l1.83,14.43c0.01,0.12-0.01,0.22-0.08,0.31c-0.07,0.09-0.16,0.14-0.28,0.16l-4.82,0.61
			c-1.34,0.17-2.54-0.16-3.62-0.98c-1.08-0.82-1.7-1.9-1.87-3.22c-0.17-1.35,0.16-2.57,0.99-3.64c0.83-1.08,1.91-1.71,3.25-1.87
			l3.6-0.46l-0.65-5.12c-0.01-0.1,0.02-0.2,0.09-0.3c0.08-0.1,0.17-0.15,0.27-0.17l0.83-0.1c0.12-0.02,0.22,0.01,0.31,0.08
			C998.94,810.82,998.99,810.92,999,811.03z M998.2,817.98l-3.46,0.44c-0.9,0.11-1.64,0.54-2.21,1.27c-0.57,0.73-0.8,1.56-0.68,2.49
			c0.11,0.87,0.53,1.57,1.26,2.09c0.73,0.52,1.55,0.72,2.45,0.61l3.47-0.44L998.2,817.98z"/>
		<path class="st1" d="M979.68,813.09l0.81,14.52c0.01,0.12-0.03,0.22-0.1,0.3c-0.08,0.08-0.17,0.13-0.29,0.14l-8.64,0.48
			c-0.12,0.01-0.22-0.03-0.3-0.11c-0.08-0.08-0.13-0.17-0.14-0.29l-0.04-0.63c-0.01-0.12,0.03-0.22,0.1-0.3
			c0.08-0.08,0.17-0.13,0.29-0.14l7.37-0.41l-0.3-5.35l-6.3,0.35c-0.12,0.01-0.22-0.03-0.3-0.11c-0.08-0.08-0.13-0.17-0.14-0.29
			l-0.04-0.64c-0.01-0.12,0.03-0.22,0.1-0.3c0.08-0.08,0.17-0.13,0.29-0.14l6.29-0.35l-0.31-5.59l-7.37,0.41
			c-0.12,0.01-0.22-0.03-0.3-0.1c-0.08-0.08-0.13-0.17-0.14-0.29l-0.04-0.63c-0.01-0.12,0.03-0.22,0.1-0.3
			c0.08-0.09,0.17-0.13,0.29-0.14l8.64-0.48c0.12-0.01,0.22,0.03,0.3,0.1C979.63,812.88,979.67,812.97,979.68,813.09z"/>
		<path class="st1" d="M959.18,815.45c1.52,1.56,2.25,3.44,2.21,5.63c-0.04,2.2-0.85,4.05-2.43,5.57c-1.57,1.51-3.46,2.25-5.66,2.21
			c-1.95-0.04-3.71-0.75-5.28-2.15c-0.2-0.22-0.2-0.43-0.01-0.62l0.63-0.6c0.17-0.17,0.35-0.16,0.57,0.03
			c0.58,0.52,1.23,0.95,1.96,1.28c0.73,0.33,1.46,0.5,2.18,0.52c1.71,0.03,3.17-0.56,4.37-1.77c1.2-1.21,1.82-2.69,1.85-4.41
			c0.03-1.71-0.53-3.21-1.68-4.49c-1.15-1.28-2.59-1.94-4.3-1.97c-0.72-0.01-1.41,0.05-2.07,0.19c-0.66,0.14-1.14,0.29-1.44,0.45
			l-0.47,0.21l-0.06,3.07l2.53,0.05c0.12,0,0.22,0.04,0.29,0.12s0.12,0.17,0.12,0.29l-0.02,0.81c-0.01,0.28-0.15,0.42-0.43,0.41
			l-3.8-0.07c-0.1,0-0.19-0.04-0.27-0.12c-0.08-0.08-0.12-0.18-0.11-0.3l0.1-5.03c0-0.15,0.06-0.26,0.18-0.35
			c0.16-0.1,0.4-0.23,0.71-0.38c0.31-0.16,0.94-0.36,1.9-0.61c0.96-0.25,1.9-0.37,2.84-0.35
			C955.81,813.09,957.67,813.89,959.18,815.45z"/>
		<path class="st1" d="M939.79,812.69c0.16,0.02,0.28,0.09,0.34,0.21c0.07,0.12,0.06,0.26-0.03,0.39l-8.09,14.06
			c-0.1,0.15-0.23,0.22-0.4,0.21l-0.22-0.02c-0.16-0.02-0.28-0.11-0.35-0.28l-5.16-15.36c-0.06-0.15-0.04-0.29,0.05-0.39
			c0.09-0.11,0.22-0.16,0.38-0.14l0.87,0.09c0.19,0.02,0.31,0.11,0.35,0.28l1.26,3.77l7.76,0.76l1.95-3.45
			c0.07-0.16,0.21-0.22,0.4-0.21L939.79,812.69z M935.83,817.55l-6.56-0.64c0.29,0.84,0.7,2.08,1.25,3.74
			c0.54,1.66,0.96,2.9,1.25,3.74l0.17,0.02L935.83,817.55z"/>
		<path class="st1" d="M917.28,810.52l-2.62,14.55c-0.02,0.1-0.07,0.18-0.17,0.25c-0.09,0.06-0.2,0.09-0.31,0.06l-0.54-0.1
			l-7.56-13.91l-0.04-0.01l-2.08,11.52c-0.02,0.12-0.08,0.21-0.17,0.27c-0.09,0.06-0.2,0.09-0.31,0.07l-0.76-0.14
			c-0.1-0.02-0.19-0.08-0.26-0.18s-0.1-0.2-0.08-0.3l2.62-14.55c0.02-0.1,0.07-0.19,0.17-0.25c0.09-0.06,0.2-0.09,0.31-0.07
			l0.39,0.07l7.69,14.18l0.02,0l2.12-11.76c0.02-0.12,0.08-0.21,0.17-0.27c0.09-0.06,0.2-0.09,0.31-0.06l0.76,0.13
			c0.1,0.02,0.19,0.08,0.26,0.18C917.27,810.31,917.3,810.42,917.28,810.52z"/>
	</g>
	<circle class="st29" cx="1236.55" cy="500.4" r="6.78"/>
	<circle class="st29" cx="850.41" cy="799.68" r="6.78"/>
	<circle class="st29" cx="799.95" cy="314.96" r="6.78"/>
	<g>
		<path class="st0" d="M46.77,55.44l-4.68-10.1c-0.05-0.1-0.05-0.19,0.01-0.27c0.06-0.08,0.14-0.12,0.25-0.12h2
			c0.13,0,0.21,0.06,0.25,0.17l2.48,5.47h0.09l2.48-5.47c0.04-0.11,0.12-0.17,0.26-0.17h1.99c0.11,0,0.19,0.04,0.25,0.12
			c0.05,0.08,0.06,0.17,0.01,0.27l-4.71,10.1c-0.06,0.11-0.15,0.16-0.25,0.16h-0.15C46.91,55.6,46.83,55.55,46.77,55.44z"/>
		<path class="st0" d="M57.87,55.17v-9.93c0-0.08,0.03-0.15,0.08-0.2c0.05-0.05,0.12-0.08,0.2-0.08h6.21c0.08,0,0.15,0.03,0.2,0.08
			c0.06,0.05,0.08,0.12,0.08,0.2v1.63c0,0.08-0.03,0.15-0.08,0.2c-0.05,0.06-0.12,0.08-0.2,0.08h-4.16v1.86h3.42
			c0.08,0,0.15,0.03,0.2,0.08c0.05,0.05,0.08,0.12,0.08,0.2v1.63c0,0.08-0.03,0.15-0.08,0.2c-0.06,0.06-0.12,0.08-0.2,0.08h-3.42
			v2.02h4.16c0.08,0,0.15,0.03,0.2,0.08c0.06,0.05,0.08,0.12,0.08,0.2v1.63c0,0.08-0.03,0.15-0.08,0.2
			c-0.05,0.06-0.12,0.08-0.2,0.08h-6.21c-0.08,0-0.15-0.03-0.2-0.08C57.89,55.32,57.87,55.25,57.87,55.17z"/>
		<path class="st0" d="M71.16,55.17v-9.93c0-0.08,0.03-0.15,0.08-0.2c0.05-0.05,0.12-0.08,0.2-0.08h4.48c0.9,0,1.67,0.32,2.31,0.95
			c0.64,0.64,0.96,1.4,0.96,2.29c0,0.67-0.2,1.27-0.61,1.81c-0.41,0.54-0.94,0.94-1.61,1.21l2.06,3.81c0.06,0.1,0.06,0.2,0.01,0.29
			s-0.14,0.14-0.26,0.14h-2c-0.11,0-0.19-0.04-0.24-0.13l-1.99-3.98h-1.04v3.83c0,0.07-0.03,0.14-0.08,0.2
			c-0.06,0.06-0.12,0.09-0.2,0.09h-1.78c-0.08,0-0.15-0.03-0.2-0.08C71.18,55.32,71.16,55.25,71.16,55.17z M73.51,49.44h2.22
			c0.31,0,0.58-0.12,0.8-0.36s0.34-0.52,0.34-0.84c0-0.31-0.11-0.58-0.34-0.8s-0.49-0.34-0.8-0.34h-2.22V49.44z"/>
		<path class="st0" d="M85.18,54.45c-0.08-0.08-0.13-0.14-0.14-0.19s0.01-0.12,0.06-0.23l0.71-1.25c0.05-0.09,0.13-0.14,0.25-0.15
			c0.12-0.01,0.21,0.01,0.25,0.06l0.1,0.06c0.07,0.05,0.15,0.11,0.25,0.17s0.22,0.13,0.36,0.2c0.14,0.07,0.29,0.13,0.44,0.19
			c0.14,0.06,0.3,0.11,0.48,0.15c0.17,0.04,0.34,0.06,0.5,0.06c0.3,0,0.55-0.09,0.74-0.26c0.2-0.17,0.29-0.38,0.29-0.64
			c0-0.6-0.52-1.11-1.54-1.52c-1.94-0.77-2.91-1.88-2.91-3.31c0-0.81,0.3-1.51,0.91-2.1s1.46-0.88,2.55-0.88
			c1.12,0,2.19,0.38,3.21,1.12c0.08,0.05,0.12,0.13,0.13,0.24c0.01,0.11,0,0.19-0.04,0.24l-0.76,1.16c-0.06,0.09-0.14,0.16-0.25,0.2
			s-0.19,0.04-0.26-0.01c-0.01,0-0.07-0.04-0.18-0.12c-0.11-0.08-0.23-0.16-0.38-0.23c-0.14-0.07-0.3-0.16-0.47-0.25
			c-0.18-0.09-0.36-0.16-0.56-0.22c-0.2-0.05-0.39-0.08-0.56-0.08c-0.27,0-0.5,0.07-0.67,0.22c-0.18,0.15-0.27,0.33-0.27,0.54
			c0,0.28,0.12,0.53,0.38,0.76c0.25,0.22,0.67,0.46,1.26,0.7c2.02,0.8,3.03,1.94,3.03,3.42c0,0.82-0.33,1.54-0.98,2.17
			c-0.65,0.62-1.51,0.94-2.56,0.94c-0.85,0-1.56-0.12-2.12-0.38C85.87,54.98,85.45,54.72,85.18,54.45z"/>
		<path class="st0" d="M98.43,55.17v-9.93c0-0.07,0.03-0.14,0.09-0.2s0.12-0.09,0.2-0.09h1.8c0.07,0,0.13,0.03,0.19,0.09
			s0.09,0.13,0.09,0.2v9.93c0,0.07-0.03,0.14-0.09,0.2s-0.12,0.09-0.19,0.09h-1.8c-0.07,0-0.14-0.03-0.2-0.09
			S98.43,55.24,98.43,55.17z"/>
		<path class="st0" d="M108.68,54.04c-1.04-1.04-1.57-2.32-1.57-3.82s0.52-2.78,1.57-3.83s2.32-1.58,3.82-1.58s2.77,0.53,3.82,1.58
			c1.05,1.05,1.58,2.33,1.58,3.83s-0.52,2.77-1.58,3.82c-1.05,1.04-2.32,1.57-3.82,1.57S109.72,55.08,108.68,54.04z M109.51,50.22
			c0,0.82,0.29,1.52,0.88,2.11c0.58,0.59,1.29,0.88,2.11,0.88c0.82,0,1.52-0.29,2.11-0.88c0.59-0.58,0.89-1.29,0.89-2.11
			c0-0.83-0.3-1.54-0.89-2.13c-0.59-0.59-1.29-0.88-2.11-0.88c-0.82,0-1.52,0.29-2.11,0.88C109.8,48.68,109.51,49.39,109.51,50.22z
			 M111.43,44.02c-0.17,0.11-0.31,0.07-0.41-0.13l-0.31-0.63c-0.05-0.1-0.02-0.2,0.09-0.29l2.55-1.56c0.04-0.04,0.11-0.06,0.2-0.05
			c0.1,0.01,0.16,0.04,0.19,0.1l0.51,0.88c0.11,0.2,0.08,0.35-0.09,0.45L111.43,44.02z"/>
		<path class="st0" d="M124.21,55.17l-0.02-10.09c0-0.07,0.03-0.13,0.08-0.19c0.05-0.05,0.12-0.08,0.2-0.08h0.38l5.98,5.76h0.02
			v-5.33c0-0.08,0.03-0.15,0.08-0.2c0.05-0.05,0.12-0.08,0.2-0.08h1.8c0.08,0,0.15,0.03,0.2,0.09c0.05,0.06,0.08,0.13,0.08,0.2
			v10.09c0,0.07-0.03,0.13-0.08,0.19c-0.06,0.05-0.12,0.08-0.2,0.08h-0.24c-0.08,0-0.15-0.02-0.19-0.07l-5.92-5.96h-0.02v5.59
			c0,0.08-0.03,0.15-0.08,0.2c-0.06,0.06-0.12,0.08-0.2,0.08h-1.78c-0.07,0-0.14-0.03-0.2-0.09S124.21,55.24,124.21,55.17z"/>
		<path class="st0" d="M147.73,57.88V42.54c0-0.08,0.03-0.15,0.08-0.2c0.05-0.05,0.12-0.08,0.2-0.08h0.25
			c0.08,0,0.15,0.03,0.19,0.08c0.05,0.06,0.08,0.12,0.08,0.2v15.35c0,0.07-0.03,0.13-0.08,0.19c-0.06,0.05-0.12,0.08-0.2,0.08h-0.24
			c-0.08,0-0.15-0.03-0.2-0.08C147.76,58.02,147.73,57.95,147.73,57.88z"/>
		<path class="st0" d="M163.3,55.17v-9.93c0-0.07,0.03-0.14,0.09-0.2s0.12-0.09,0.19-0.09h0.6c0.07,0,0.13,0.03,0.19,0.09
			s0.09,0.13,0.09,0.2v9.93c0,0.07-0.03,0.14-0.09,0.2s-0.12,0.09-0.19,0.09h-0.6c-0.07,0-0.13-0.03-0.19-0.09
			S163.3,55.24,163.3,55.17z"/>
		<path class="st0" d="M171.44,54.39c-0.18-0.15-0.21-0.32-0.09-0.51c0.03-0.03,0.07-0.08,0.12-0.14c0.05-0.06,0.08-0.11,0.1-0.14
			c0.18-0.24,0.35-0.29,0.52-0.13c0.89,0.76,1.73,1.14,2.54,1.14c0.59,0,1.07-0.16,1.45-0.48s0.56-0.71,0.56-1.17
			c0-0.49-0.21-0.91-0.62-1.27s-1.08-0.72-2-1.1c-0.92-0.4-1.59-0.82-2.01-1.25c-0.42-0.43-0.63-1.05-0.63-1.85
			c0-0.28,0.06-0.57,0.17-0.86c0.11-0.29,0.29-0.58,0.52-0.86c0.23-0.28,0.57-0.51,1-0.69s0.93-0.27,1.49-0.27
			c0.44,0,0.87,0.06,1.3,0.19c0.42,0.13,0.74,0.25,0.95,0.38l0.31,0.2c0.07,0.03,0.12,0.08,0.15,0.17c0.03,0.08,0.01,0.2-0.06,0.34
			c-0.02,0.03-0.05,0.08-0.09,0.14s-0.07,0.11-0.09,0.14c-0.14,0.21-0.31,0.25-0.53,0.13c-0.81-0.46-1.46-0.69-1.96-0.69
			c-0.71,0-1.23,0.18-1.57,0.53c-0.34,0.35-0.5,0.72-0.5,1.12c0,0.48,0.17,0.88,0.5,1.21c0.33,0.33,0.84,0.63,1.52,0.91
			c1.15,0.47,1.99,0.94,2.53,1.41c0.54,0.47,0.8,1.11,0.8,1.92c0,0.77-0.32,1.41-0.95,1.93c-0.64,0.51-1.4,0.77-2.29,0.77
			c-0.53,0-1.05-0.1-1.57-0.29c-0.52-0.19-0.88-0.36-1.08-0.51S171.58,54.52,171.44,54.39z"/>
		<path class="st0" d="M185.33,54.04c-1.04-1.04-1.57-2.32-1.57-3.82s0.52-2.78,1.57-3.83s2.32-1.58,3.82-1.58s2.77,0.53,3.83,1.58
			c1.05,1.05,1.57,2.33,1.57,3.83s-0.52,2.77-1.57,3.82c-1.05,1.04-2.33,1.57-3.83,1.57S186.37,55.08,185.33,54.04z M186.08,47.14
			c-0.85,0.86-1.27,1.88-1.27,3.07c0,1.19,0.42,2.21,1.27,3.06s1.87,1.28,3.06,1.28s2.21-0.43,3.07-1.28s1.28-1.87,1.28-3.06
			c0-1.19-0.43-2.21-1.28-3.07c-0.85-0.86-1.88-1.29-3.07-1.29S186.93,46.28,186.08,47.14z"/>
		<path class="st0" d="M201.34,55.17v-9.93c0-0.08,0.03-0.15,0.08-0.2c0.06-0.05,0.12-0.08,0.2-0.08h0.58c0.08,0,0.15,0.03,0.2,0.09
			c0.05,0.06,0.08,0.13,0.08,0.2v9.21h4.32c0.08,0,0.15,0.03,0.2,0.08c0.05,0.06,0.08,0.12,0.08,0.2v0.43c0,0.08-0.03,0.15-0.08,0.2
			c-0.06,0.06-0.12,0.08-0.2,0.08h-5.19c-0.08,0-0.15-0.03-0.2-0.08C201.37,55.32,201.34,55.25,201.34,55.17z"/>
		<path class="st0" d="M213.86,54.04c-1.04-1.04-1.57-2.32-1.57-3.82s0.52-2.78,1.57-3.83s2.32-1.58,3.82-1.58s2.77,0.53,3.83,1.58
			c1.05,1.05,1.57,2.33,1.57,3.83s-0.52,2.77-1.57,3.82c-1.05,1.04-2.33,1.57-3.83,1.57S214.9,55.08,213.86,54.04z M214.61,47.14
			c-0.85,0.86-1.27,1.88-1.27,3.07c0,1.19,0.42,2.21,1.27,3.06s1.87,1.28,3.06,1.28s2.21-0.43,3.07-1.28s1.28-1.87,1.28-3.06
			c0-1.19-0.43-2.21-1.28-3.07c-0.85-0.86-1.88-1.29-3.07-1.29S215.46,46.28,214.61,47.14z"/>
		<path class="st0" d="M230.69,54.04c-1.06-1.04-1.58-2.32-1.58-3.82s0.53-2.78,1.58-3.83c1.05-1.05,2.33-1.58,3.83-1.58
			c1.33,0,2.54,0.46,3.63,1.39c0.14,0.15,0.15,0.29,0.02,0.42l-0.42,0.42c-0.11,0.12-0.24,0.12-0.39-0.02
			c-0.4-0.35-0.85-0.63-1.36-0.85c-0.51-0.21-1-0.32-1.49-0.32c-1.17,0-2.16,0.42-2.96,1.27c-0.81,0.85-1.21,1.86-1.21,3.04
			c0,1.17,0.4,2.18,1.21,3.04c0.8,0.86,1.79,1.29,2.96,1.29c0.49,0,0.96-0.05,1.41-0.16c0.45-0.1,0.77-0.21,0.97-0.32l0.32-0.15
			v-2.1h-1.73c-0.08,0-0.15-0.02-0.2-0.07c-0.06-0.05-0.08-0.12-0.08-0.2v-0.55c0-0.19,0.09-0.29,0.29-0.29h2.59
			c0.07,0,0.13,0.03,0.19,0.08s0.08,0.12,0.08,0.2v3.43c0,0.1-0.04,0.18-0.12,0.24c-0.11,0.07-0.27,0.16-0.48,0.27
			c-0.21,0.11-0.64,0.26-1.29,0.44c-0.65,0.19-1.3,0.28-1.94,0.28C233.02,55.6,231.74,55.08,230.69,54.04z"/>
		<path class="st0" d="M246.15,54.04c-1.04-1.04-1.57-2.32-1.57-3.82s0.52-2.78,1.57-3.83s2.32-1.58,3.82-1.58s2.77,0.53,3.83,1.58
			c1.05,1.05,1.57,2.33,1.57,3.83s-0.52,2.77-1.57,3.82c-1.05,1.04-2.33,1.57-3.83,1.57S247.2,55.08,246.15,54.04z M246.91,47.14
			c-0.85,0.86-1.27,1.88-1.27,3.07c0,1.19,0.42,2.21,1.27,3.06s1.87,1.28,3.06,1.28s2.21-0.43,3.07-1.28s1.28-1.87,1.28-3.06
			c0-1.19-0.43-2.21-1.28-3.07c-0.85-0.86-1.88-1.29-3.07-1.29S247.76,46.28,246.91,47.14z"/>
		<path class="st0" d="M269.99,55.17v-9.93c0-0.08,0.03-0.15,0.08-0.2c0.06-0.05,0.12-0.08,0.2-0.08h3.31
			c0.92,0,1.71,0.33,2.37,0.98c0.66,0.65,0.99,1.43,0.99,2.34c0,0.93-0.33,1.72-0.98,2.38s-1.44,0.99-2.36,0.99h-2.48v3.52
			c0,0.07-0.03,0.14-0.09,0.2s-0.12,0.09-0.2,0.09h-0.57c-0.08,0-0.15-0.03-0.2-0.08C270.02,55.32,269.99,55.25,269.99,55.17z
			 M271.13,50.53h2.39c0.62,0,1.15-0.22,1.6-0.67c0.45-0.45,0.67-0.99,0.67-1.63c0-0.6-0.23-1.11-0.67-1.52
			c-0.45-0.42-0.99-0.62-1.6-0.62h-2.39V50.53z"/>
		<path class="st0" d="M284.24,54.04c-1.04-1.04-1.57-2.32-1.57-3.82s0.52-2.78,1.57-3.83s2.32-1.58,3.82-1.58s2.77,0.53,3.83,1.58
			c1.05,1.05,1.57,2.33,1.57,3.83s-0.52,2.77-1.57,3.82c-1.05,1.04-2.33,1.57-3.83,1.57S285.28,55.08,284.24,54.04z M284.99,47.14
			c-0.85,0.86-1.27,1.88-1.27,3.07c0,1.19,0.42,2.21,1.27,3.06s1.87,1.28,3.06,1.28s2.21-0.43,3.07-1.28s1.28-1.87,1.28-3.06
			c0-1.19-0.43-2.21-1.28-3.07c-0.85-0.86-1.88-1.29-3.07-1.29S285.84,46.28,284.99,47.14z"/>
		<path class="st0" d="M299.66,54.39c-0.18-0.15-0.21-0.32-0.09-0.51c0.03-0.03,0.07-0.08,0.12-0.14c0.05-0.06,0.08-0.11,0.1-0.14
			c0.18-0.24,0.35-0.29,0.52-0.13c0.89,0.76,1.73,1.14,2.54,1.14c0.59,0,1.07-0.16,1.45-0.48s0.56-0.71,0.56-1.17
			c0-0.49-0.21-0.91-0.62-1.27s-1.08-0.72-2-1.1c-0.92-0.4-1.59-0.82-2.01-1.25c-0.42-0.43-0.63-1.05-0.63-1.85
			c0-0.28,0.06-0.57,0.17-0.86c0.11-0.29,0.29-0.58,0.52-0.86c0.23-0.28,0.57-0.51,1-0.69s0.93-0.27,1.49-0.27
			c0.44,0,0.87,0.06,1.3,0.19c0.42,0.13,0.74,0.25,0.95,0.38l0.31,0.2c0.07,0.03,0.12,0.08,0.15,0.17c0.03,0.08,0.01,0.2-0.06,0.34
			c-0.02,0.03-0.05,0.08-0.09,0.14s-0.07,0.11-0.09,0.14c-0.14,0.21-0.31,0.25-0.53,0.13c-0.81-0.46-1.46-0.69-1.96-0.69
			c-0.71,0-1.23,0.18-1.57,0.53c-0.34,0.35-0.5,0.72-0.5,1.12c0,0.48,0.17,0.88,0.5,1.21c0.33,0.33,0.84,0.63,1.52,0.91
			c1.15,0.47,1.99,0.94,2.53,1.41c0.54,0.47,0.8,1.11,0.8,1.92c0,0.77-0.32,1.41-0.95,1.93c-0.64,0.51-1.4,0.77-2.29,0.77
			c-0.53,0-1.05-0.1-1.57-0.29c-0.52-0.19-0.88-0.36-1.08-0.51S299.8,54.52,299.66,54.39z"/>
		<path class="st0" d="M312.74,55.17v-9.93c0-0.07,0.03-0.14,0.09-0.2s0.12-0.09,0.19-0.09h0.6c0.07,0,0.13,0.03,0.19,0.09
			s0.09,0.13,0.09,0.2v9.93c0,0.07-0.03,0.14-0.09,0.2s-0.12,0.09-0.19,0.09h-0.6c-0.07,0-0.13-0.03-0.19-0.09
			S312.74,55.24,312.74,55.17z"/>
		<path class="st0" d="M322.96,55.17v-9.21h-2.61c-0.08,0-0.15-0.03-0.2-0.08c-0.06-0.05-0.08-0.12-0.08-0.2v-0.43
			c0-0.08,0.03-0.15,0.08-0.2c0.05-0.05,0.12-0.08,0.2-0.08h6.36c0.08,0,0.15,0.03,0.2,0.08c0.06,0.05,0.08,0.12,0.08,0.2v0.43
			c0,0.08-0.03,0.15-0.08,0.2c-0.05,0.05-0.12,0.08-0.2,0.08h-2.61v9.21c0,0.07-0.03,0.14-0.08,0.2c-0.05,0.06-0.12,0.09-0.2,0.09
			h-0.57c-0.08,0-0.15-0.03-0.2-0.09C322.99,55.3,322.96,55.24,322.96,55.17z"/>
		<path class="st0" d="M333.14,55.17v-9.93c0-0.07,0.03-0.14,0.09-0.2s0.12-0.09,0.19-0.09h0.6c0.07,0,0.13,0.03,0.19,0.09
			s0.09,0.13,0.09,0.2v9.93c0,0.07-0.03,0.14-0.09,0.2s-0.12,0.09-0.19,0.09h-0.6c-0.07,0-0.13-0.03-0.19-0.09
			S333.14,55.24,333.14,55.17z"/>
		<path class="st0" d="M344.98,55.44l-4.53-10.1c-0.05-0.1-0.05-0.19,0.01-0.27c0.06-0.08,0.14-0.12,0.25-0.12h0.6
			c0.13,0,0.21,0.06,0.25,0.17l3.74,8.4h0.06l3.74-8.4c0.04-0.11,0.12-0.17,0.25-0.17h0.6c0.11,0,0.19,0.04,0.25,0.12
			c0.05,0.08,0.06,0.17,0.01,0.27l-4.56,10.1c-0.05,0.11-0.13,0.16-0.25,0.16h-0.15C345.11,55.6,345.03,55.55,344.98,55.44z"/>
		<path class="st0" d="M357.08,54.04c-1.04-1.04-1.57-2.32-1.57-3.82s0.52-2.78,1.57-3.83s2.32-1.58,3.82-1.58s2.77,0.53,3.83,1.58
			c1.05,1.05,1.57,2.33,1.57,3.83s-0.52,2.77-1.57,3.82c-1.05,1.04-2.33,1.57-3.83,1.57S358.12,55.08,357.08,54.04z M357.83,47.14
			c-0.85,0.86-1.27,1.88-1.27,3.07c0,1.19,0.42,2.21,1.27,3.06s1.87,1.28,3.06,1.28s2.21-0.43,3.07-1.28s1.28-1.87,1.28-3.06
			c0-1.19-0.43-2.21-1.28-3.07c-0.85-0.86-1.88-1.29-3.07-1.29S358.68,46.28,357.83,47.14z"/>
	</g>
	<g>
		<g>
			<path class="st0" d="M1842.49,1035.91c-0.41,0-0.75,0.33-0.75,0.75v10.95c0,0.41,0.33,0.75,0.75,0.75s0.75-0.33,0.75-0.75v-10.95
				C1843.23,1036.24,1842.9,1035.91,1842.49,1035.91z"/>
			<path class="st0" d="M1839.58,1034.2c-0.41,0-0.75,0.33-0.75,0.75v4.9c0,0.41,0.33,0.75,0.75,0.75c0.41,0,0.75-0.33,0.75-0.75
				v-4.9C1840.33,1034.54,1840,1034.2,1839.58,1034.2z"/>
			<path class="st0" d="M1845.39,1034.2c-0.41,0-0.75,0.33-0.75,0.75v4.9c0,0.41,0.33,0.75,0.75,0.75c0.41,0,0.75-0.33,0.75-0.75
				v-4.9C1846.14,1034.54,1845.8,1034.2,1845.39,1034.2z"/>
		</g>
		<g>
			<path class="st0" d="M1805.22,1008.96v14.43c0,1.25-0.4,3.04,1.42,3.04c1.12,0,1.45-0.52,1.5-1.42v-16.02h3.74v16.02
				c0,0.05,0,0.07,0,0.12c0.07,0.72,0.37,1.3,1.42,1.3c1.37,0,1.52-0.75,1.52-1.92c0-5.17-0.03-10.36-0.03-15.55h3.74v16.05
				c0,3.04-2.22,5.17-5.24,5.17c-1.3,0-2.42-0.4-3.29-1.1c-0.9,0.7-2.05,1.1-3.37,1.1c-2.99,0-5.17-2.17-5.17-5.17v-16.05H1805.22z"
				/>
			<path class="st0" d="M1872.47,1009.01c3,0,5.17,2.17,5.17,5.17v5.89h-6.66v4.99c0,0.92,0.5,1.42,1.42,1.42
				c1.17,0,1.52-0.57,1.52-1.62c0-0.9-0.02-1.8-0.02-2.67h3.74v2.87c0,3.05-2.22,5.17-5.24,5.17c-3,0-5.17-2.17-5.17-5.17v-10.88
				C1867.23,1011.15,1869.45,1009.01,1872.47,1009.01z M1873.92,1016.32c0-0.92,0.05-2.47-0.17-2.95c-0.25-0.47-0.77-0.62-1.27-0.62
				c-0.95,0-1.5,0.45-1.5,1.42v2.15H1873.92z"/>
			<path class="st0" d="M1830.45,1022.68v-0.54h-3.74c0,0.87,0.03,1.77,0.03,2.67c0,1.05-0.35,1.62-1.52,1.62
				c-0.92,0-1.42-0.5-1.42-1.42v-4.99h6.66v-5.89c0-2.99-2.17-5.17-5.17-5.17c-3.02,0-5.24,2.15-5.24,5.17v10.88
				c0,2.99,2.17,5.17,5.17,5.17c1.37,0,2.58-0.44,3.49-1.2C1828.79,1026.71,1829.4,1024.54,1830.45,1022.68z M1823.79,1014.13
				c0-0.97,0.55-1.42,1.5-1.42c0.5,0,1.02,0.15,1.27,0.62c0.22,0.47,0.17,2.02,0.17,2.95h-2.95V1014.13z"/>
			<path class="st0" d="M1863.49,1021.46c1.27-1.07,2.05-2.75,2.05-4.69v-1.65c0-3.57-2.55-6.12-6.12-6.12h-4.29v14.89
				c0.75,1.73,1.17,3.67,1.17,5.66c0,0.2,0,0.41-0.01,0.63l0,0.03h2.59v-7.34h0.55c0.2,0,0.37,0,0.57-0.02l1.9,7.36h3.84
				L1863.49,1021.46z M1861.79,1016.92c-0.27,1.9-1.22,2.22-2.92,2.22v-6.39c0.25,0,0.52,0,0.8,0c1.37,0.08,2.12,1.02,2.12,2.37
				V1016.92z"/>
			<path class="st0" d="M1851.46,1020.2l-0.11-0.09l-0.02,0.15c-0.11,0.95-0.32,1.88-0.62,2.77c0.06-0.69,0.09-1.38,0.09-2.06
				c0-7.09-3.05-13.51-8.16-17.2l-0.04-0.03l-0.04,0.03c-5.11,3.68-8.16,10.11-8.16,17.2c0,0.78,0.04,1.57,0.12,2.35
				c-0.38-1.01-0.62-2.08-0.74-3.18l-0.02-0.15l-0.11,0.09c-2.59,2.18-4.13,5.72-4.13,9.48c0,0.19,0,0.39,0.01,0.6l0,0.09h6.77
				l0.02,0.06c0.01,0.03,0.02,0.05,0.03,0.08l0.03,0.05c0.4,0.89,0.85,1.74,1.35,2.53l0.02,0.04h2.99v-5.46h3.48
				c0.02,1.82,0.02,3.64,0.03,5.46h3.18l0.02-0.04c0.5-0.79,0.95-1.65,1.35-2.53l0.03-0.05c0.01-0.03,0.02-0.05,0.03-0.08l0.02-0.06
				h6.54l0-0.09c0.01-0.22,0.01-0.41,0.01-0.6C1855.45,1025.88,1853.96,1022.39,1851.46,1020.2z M1844.28,1016.67
				c0,0.74-0.6,1.33-1.33,1.33h-0.9c-0.74,0-1.33-0.6-1.33-1.33v-2.9c0-0.74,0.6-1.33,1.33-1.33h0.9c0.74,0,1.33,0.6,1.33,1.33
				V1016.67z"/>
		</g>
	</g>
	<g>
		<g>
			<path class="st29" d="M960,651.87c-3.94,0-7.13,3.19-7.13,7.13v104.52c0,3.94,3.19,7.13,7.13,7.13c3.94,0,7.13-3.19,7.13-7.13
				V659.01C967.13,655.07,963.94,651.87,960,651.87z"/>
			<path class="st29" d="M932.29,635.61c-3.94,0-7.13,3.19-7.13,7.13v46.79c0,3.94,3.19,7.13,7.13,7.13c3.94,0,7.13-3.19,7.13-7.13
				v-46.79C939.42,638.81,936.23,635.61,932.29,635.61z"/>
			<path class="st29" d="M987.71,635.61c-3.94,0-7.13,3.19-7.13,7.13v46.79c0,3.94,3.19,7.13,7.13,7.13s7.13-3.19,7.13-7.13v-46.79
				C994.84,638.81,991.65,635.61,987.71,635.61z"/>
		</g>
		<path class="st29" d="M1045.66,501.99l-1-0.88l-0.17,1.47c-1.03,9.06-3.02,17.91-5.94,26.4c0.56-6.55,0.85-13.13,0.85-19.62
			c0-67.63-29.13-129-77.91-164.14l-0.38-0.28l-0.38,0.28c-48.79,35.15-77.91,96.51-77.91,164.14c0,7.43,0.37,14.95,1.11,22.43
			c-3.59-9.67-5.96-19.85-7.05-30.35l-0.15-1.46l-1.01,0.85c-24.69,20.77-39.43,54.59-39.43,90.46c0,1.8,0.04,3.67,0.12,5.74
			l0.03,0.84h64.6l0.23,0.54c0.11,0.25,0.21,0.5,0.32,0.75l0.24,0.46c3.81,8.48,8.15,16.61,12.89,24.19l0.22,0.35h28.5v-52.12h33.25
			c0.17,17.37,0.23,34.74,0.26,52.12h30.33l0.22-0.35c4.75-7.58,9.08-15.71,12.89-24.18l0.24-0.46c0.11-0.25,0.22-0.5,0.32-0.75
			l0.23-0.54h62.38l0.03-0.84c0.08-2.06,0.12-3.94,0.12-5.74C1083.72,556.2,1069.5,522.82,1045.66,501.99z M977.09,468.24
			c0,7.03-5.7,12.73-12.73,12.73h-8.54c-7.03,0-12.73-5.7-12.73-12.73v-27.67c0-7.03,5.7-12.73,12.73-12.73h8.54
			c7.03,0,12.73,5.7,12.73,12.73V468.24z"/>
	</g>
</g>
</svg>
