<?xml version="1.0" encoding="utf-8"?>
<!-- Generator: Adobe Illustrator 24.3.0, SVG Export Plug-In . SVG Version: 6.00 Build 0)  -->
<svg version="1.1" xmlns="http://www.w3.org/2000/svg" xmlns:xlink="http://www.w3.org/1999/xlink" x="0px" y="0px"
	 viewBox="0 0 1920 1080" style="enable-background:new 0 0 1920 1080;" xml:space="preserve">
<style type="text/css">
	.st0{fill:#1D1D1B;}
	.st1{fill:#293D51;}
	.st2{fill:#FFFFFF;}
	.st3{fill:url(#SVGID_5_);}
	.st4{clip-path:url(#SVGID_7_);}
	.st5{opacity:0.28;}
	.st6{fill:url(#SVGID_8_);}
	.st7{fill:url(#SVGID_9_);}
	.st8{fill:url(#SVGID_10_);}
	.st9{fill:url(#SVGID_11_);}
	.st10{fill:url(#SVGID_12_);}
	.st11{fill:url(#SVGID_13_);}
	.st12{fill:url(#SVGID_14_);}
	.st13{fill:url(#SVGID_15_);}
	.st14{fill:url(#SVGID_16_);}
	.st15{fill:url(#SVGID_17_);}
	.st16{fill:url(#SVGID_18_);}
	.st17{fill:url(#SVGID_19_);}
	.st18{fill:url(#SVGID_20_);}
	.st19{fill:url(#SVGID_21_);}
	.st20{fill:url(#SVGID_22_);}
	.st21{fill:url(#SVGID_23_);}
	.st22{fill:url(#SVGID_24_);}
	.st23{fill:url(#SVGID_25_);}
	.st24{fill:url(#SVGID_26_);}
	.st25{fill:url(#SVGID_27_);}
	.st26{fill:url(#SVGID_28_);}
	.st27{fill:url(#SVGID_29_);}
	.st28{fill:url(#SVGID_30_);}
	.st29{fill:#F34D23;}
	.st30{fill:#FFFFFF;stroke:#1D1D1B;stroke-miterlimit:10;}
	.st31{fill:none;stroke:#03FFFF;stroke-miterlimit:10;stroke-dasharray:10;}
	.st32{fill:none;stroke:#03FFFF;stroke-miterlimit:10;}
	.st33{fill:none;stroke:#03FFFF;stroke-miterlimit:10;stroke-dasharray:9.9851,9.9851;}
	.st34{fill:none;stroke:#03FFFF;stroke-miterlimit:10;stroke-dasharray:10.0327,10.0327;}
	.st35{fill:none;stroke:#03FFFF;stroke-miterlimit:10;stroke-dasharray:9.9349,9.9349;}
	.st36{fill:none;stroke:#03FFFF;stroke-miterlimit:10;stroke-dasharray:10.1175,10.1175;}
	.st37{fill:#FFFFFF;stroke:#1D1D1B;stroke-width:0.5196;stroke-miterlimit:10;}
</style>
<g id="Layer_3">
</g>
<g id="Layer_2">
	<g>
		<path class="st1" d="M791.65,545.56l3.39-17.68c0.05-0.25,0.21-0.37,0.47-0.37h0.42c0.23,0,0.38,0.1,0.45,0.29l5.21,14.49h0.13
			l5.13-14.49c0.07-0.19,0.22-0.29,0.45-0.29h0.42c0.26,0,0.42,0.12,0.47,0.37l3.39,17.68c0.09,0.42-0.07,0.63-0.47,0.63h-1.05
			c-0.25,0-0.4-0.12-0.47-0.37l-2.34-13.55h-0.11l-4.84,13.89c-0.07,0.19-0.22,0.29-0.45,0.29h-0.47c-0.23,0-0.38-0.1-0.45-0.29
			l-4.89-13.89h-0.11l-2.29,13.55c-0.02,0.09-0.08,0.17-0.17,0.25c-0.1,0.08-0.2,0.12-0.3,0.12h-1.05
			C791.72,546.19,791.56,545.98,791.65,545.56z"/>
		<path class="st1" d="M823.3,539.41v-11.13c0-0.12,0.05-0.24,0.14-0.34c0.1-0.1,0.21-0.16,0.36-0.16h1c0.14,0,0.26,0.05,0.36,0.14
			c0.1,0.1,0.14,0.21,0.14,0.36v10.97c0,1.54,0.45,2.82,1.34,3.83c0.89,1.01,2.1,1.51,3.6,1.51c1.53,0,2.74-0.5,3.64-1.5
			c0.9-1,1.35-2.26,1.35-3.79v-11.02c0-0.14,0.05-0.26,0.14-0.36c0.1-0.1,0.21-0.14,0.36-0.14h1c0.14,0,0.26,0.05,0.36,0.16
			c0.1,0.11,0.14,0.22,0.14,0.34v11.13c0,2.02-0.65,3.7-1.96,5.04c-1.31,1.34-2.99,2.01-5.04,2.01c-2.03,0-3.7-0.67-5-2.01
			C823.94,543.1,823.3,541.42,823.3,539.41z"/>
		<path class="st1" d="M851.69,543.71c-1.85-1.83-2.77-4.06-2.77-6.7c0-2.63,0.92-4.87,2.77-6.72c1.85-1.85,4.09-2.78,6.72-2.78
			c2.33,0,4.45,0.82,6.37,2.45c0.25,0.26,0.25,0.51,0.03,0.74l-0.71,0.71c-0.19,0.25-0.42,0.24-0.68-0.03
			c-1.53-1.32-3.2-1.97-5.02-1.97c-2.05,0-3.79,0.75-5.21,2.24c-1.42,1.49-2.13,3.27-2.13,5.34c0,2.05,0.71,3.82,2.13,5.31
			c1.42,1.49,3.16,2.24,5.21,2.24c0.72,0,1.4-0.1,2.04-0.3c0.64-0.2,1.15-0.42,1.54-0.66c0.39-0.24,0.87-0.57,1.45-1.01
			c0.23-0.17,0.44-0.2,0.63-0.08l0.79,0.71c0.11,0.09,0.15,0.2,0.14,0.34c-0.01,0.14-0.07,0.26-0.17,0.37
			c-1.75,1.7-3.88,2.55-6.39,2.55C855.78,546.46,853.54,545.54,851.69,543.71z"/>
		<path class="st1" d="M876.75,545.69v-17.41c0-0.12,0.05-0.24,0.16-0.34c0.11-0.1,0.22-0.16,0.34-0.16h1.03
			c0.14,0,0.26,0.05,0.35,0.14c0.1,0.1,0.15,0.21,0.15,0.36v7.68h10.68v-7.68c0-0.14,0.05-0.26,0.14-0.36
			c0.1-0.1,0.21-0.14,0.35-0.14h1.03c0.12,0,0.24,0.05,0.34,0.16c0.11,0.11,0.16,0.22,0.16,0.34v17.41c0,0.12-0.05,0.24-0.16,0.34
			c-0.11,0.11-0.22,0.16-0.34,0.16h-1.03c-0.14,0-0.26-0.05-0.35-0.14c-0.1-0.1-0.14-0.21-0.14-0.36v-7.97h-10.68v7.97
			c0,0.14-0.05,0.26-0.15,0.36s-0.21,0.14-0.35,0.14h-1.03c-0.12,0-0.24-0.05-0.34-0.16C876.8,545.93,876.75,545.82,876.75,545.69z"
			/>
		<path class="st1" d="M902.66,546.19c-0.19,0-0.34-0.07-0.43-0.21c-0.1-0.14-0.1-0.3-0.01-0.47l8-17.7
			c0.11-0.19,0.25-0.29,0.45-0.29h0.26c0.19,0,0.34,0.1,0.45,0.29l7.94,17.7c0.09,0.17,0.08,0.33-0.01,0.47
			c-0.1,0.14-0.24,0.21-0.43,0.21h-1.05c-0.23,0-0.38-0.1-0.45-0.29l-1.95-4.34h-9.34l-1.92,4.34c-0.07,0.19-0.22,0.29-0.45,0.29
			H902.66z M906.81,539.93h7.89c-0.44-0.96-1.08-2.4-1.92-4.31s-1.48-3.35-1.92-4.31h-0.21L906.81,539.93z"/>
		<path class="st1" d="M929.04,544.33c-0.32-0.26-0.37-0.56-0.16-0.89c0.05-0.05,0.12-0.14,0.21-0.25c0.09-0.11,0.15-0.2,0.18-0.25
			c0.32-0.42,0.62-0.5,0.92-0.24c1.56,1.33,3.04,2,4.45,2c1.04,0,1.88-0.28,2.54-0.84c0.66-0.56,0.99-1.25,0.99-2.05
			c0-0.86-0.36-1.6-1.09-2.22c-0.73-0.62-1.9-1.27-3.51-1.93c-1.61-0.7-2.79-1.43-3.52-2.2c-0.74-0.76-1.11-1.85-1.11-3.25
			c0-0.49,0.1-0.99,0.3-1.5c0.2-0.51,0.51-1.01,0.92-1.5c0.41-0.49,1-0.89,1.76-1.21c0.76-0.32,1.64-0.47,2.62-0.47
			c0.77,0,1.53,0.11,2.28,0.34c0.75,0.23,1.3,0.45,1.67,0.66l0.55,0.34c0.12,0.05,0.21,0.15,0.26,0.29c0.05,0.14,0.02,0.34-0.11,0.6
			c-0.04,0.05-0.09,0.14-0.16,0.25c-0.07,0.11-0.12,0.2-0.16,0.25c-0.25,0.37-0.55,0.45-0.92,0.24c-1.42-0.81-2.57-1.21-3.45-1.21
			c-1.25,0-2.16,0.31-2.75,0.92c-0.59,0.61-0.88,1.27-0.88,1.97c0,0.84,0.29,1.55,0.88,2.12c0.59,0.57,1.48,1.1,2.67,1.59
			c2.02,0.82,3.49,1.65,4.43,2.47c0.94,0.82,1.41,1.95,1.41,3.37c0,1.35-0.56,2.48-1.67,3.38s-2.45,1.35-4.01,1.35
			c-0.93,0-1.85-0.17-2.75-0.51c-0.9-0.34-1.54-0.64-1.89-0.89C929.59,544.8,929.28,544.55,929.04,544.33z"/>
		<path class="st1" d="M967.14,543.71c-1.85-1.83-2.77-4.06-2.77-6.7c0-2.63,0.92-4.87,2.77-6.72c1.85-1.85,4.09-2.78,6.72-2.78
			c2.33,0,4.45,0.82,6.37,2.45c0.25,0.26,0.25,0.51,0.03,0.74l-0.74,0.74c-0.19,0.21-0.42,0.2-0.68-0.03
			c-0.7-0.61-1.5-1.11-2.38-1.49c-0.89-0.38-1.76-0.57-2.62-0.57c-2.05,0-3.78,0.74-5.2,2.22c-1.41,1.48-2.12,3.26-2.12,5.33
			c0,2.05,0.71,3.83,2.12,5.34c1.41,1.51,3.14,2.26,5.2,2.26c0.86,0,1.68-0.09,2.47-0.28c0.79-0.18,1.36-0.37,1.71-0.57l0.55-0.26
			v-3.68h-3.02c-0.14,0-0.26-0.04-0.36-0.13c-0.1-0.09-0.14-0.2-0.14-0.34v-0.97c0-0.33,0.17-0.5,0.5-0.5h4.55
			c0.12,0,0.23,0.05,0.33,0.15s0.14,0.21,0.14,0.35v6.02c0,0.17-0.07,0.32-0.21,0.42c-0.19,0.12-0.47,0.28-0.84,0.47
			c-0.37,0.19-1.12,0.45-2.26,0.78s-2.27,0.49-3.39,0.49C971.23,546.46,968.99,545.54,967.14,543.71z"/>
		<path class="st1" d="M992.85,545.69v-17.41c0-0.14,0.05-0.26,0.15-0.36c0.1-0.1,0.21-0.14,0.35-0.14h6.81
			c1.58,0,2.93,0.54,4.05,1.63c1.12,1.09,1.68,2.41,1.68,3.97c0,1.19-0.36,2.27-1.07,3.22s-1.65,1.67-2.83,2.14l3.6,6.68
			c0.11,0.18,0.11,0.35,0.01,0.51c-0.1,0.17-0.25,0.25-0.46,0.25h-1.34c-0.19,0-0.33-0.08-0.42-0.24l-3.5-6.97h-5.02v6.71
			c0,0.12-0.05,0.24-0.15,0.34c-0.1,0.11-0.21,0.16-0.35,0.16h-1.03c-0.14,0-0.26-0.05-0.35-0.14
			C992.9,545.95,992.85,545.83,992.85,545.69z M994.93,537.25h5.1c1.02,0,1.9-0.37,2.66-1.12c0.75-0.75,1.13-1.65,1.13-2.72
			c0-1-0.38-1.87-1.13-2.6c-0.75-0.74-1.64-1.1-2.66-1.1h-5.1V537.25z"/>
		<path class="st1" d="M1016.06,546.19c-0.19,0-0.34-0.07-0.43-0.21c-0.1-0.14-0.1-0.3-0.01-0.47l8-17.7
			c0.11-0.19,0.25-0.29,0.45-0.29h0.26c0.19,0,0.34,0.1,0.45,0.29l7.94,17.7c0.09,0.17,0.08,0.33-0.01,0.47
			c-0.1,0.14-0.24,0.21-0.43,0.21h-1.05c-0.23,0-0.38-0.1-0.45-0.29l-1.95-4.34h-9.34l-1.92,4.34c-0.07,0.19-0.22,0.29-0.45,0.29
			H1016.06z M1020.21,539.93h7.89c-0.44-0.96-1.08-2.4-1.92-4.31s-1.48-3.35-1.92-4.31h-0.21L1020.21,539.93z"/>
		<path class="st1" d="M1044.79,543.71c-1.85-1.83-2.77-4.06-2.77-6.7c0-2.63,0.92-4.87,2.77-6.72c1.85-1.85,4.09-2.78,6.72-2.78
			c2.33,0,4.45,0.82,6.37,2.45c0.25,0.26,0.25,0.51,0.03,0.74l-0.71,0.71c-0.19,0.25-0.42,0.24-0.68-0.03
			c-1.53-1.32-3.2-1.97-5.02-1.97c-2.05,0-3.79,0.75-5.21,2.24c-1.42,1.49-2.13,3.27-2.13,5.34c0,2.05,0.71,3.82,2.13,5.31
			c1.42,1.49,3.16,2.24,5.21,2.24c0.72,0,1.4-0.1,2.04-0.3c0.64-0.2,1.15-0.42,1.54-0.66c0.39-0.24,0.87-0.57,1.45-1.01
			c0.23-0.17,0.44-0.2,0.63-0.08l0.79,0.71c0.11,0.09,0.15,0.2,0.14,0.34c-0.01,0.14-0.07,0.26-0.17,0.37
			c-1.75,1.7-3.88,2.55-6.39,2.55C1048.88,546.46,1046.64,545.54,1044.79,543.71z"/>
		<path class="st1" d="M1069.85,545.69v-17.41c0-0.12,0.05-0.24,0.16-0.34c0.11-0.1,0.22-0.16,0.34-0.16h1.05
			c0.12,0,0.24,0.05,0.34,0.16c0.11,0.11,0.16,0.22,0.16,0.34v17.41c0,0.12-0.05,0.24-0.16,0.34c-0.11,0.11-0.22,0.16-0.34,0.16
			h-1.05c-0.12,0-0.24-0.05-0.34-0.16C1069.9,545.93,1069.85,545.82,1069.85,545.69z"/>
		<path class="st1" d="M1083.08,546.19c-0.19,0-0.34-0.07-0.43-0.21c-0.1-0.14-0.1-0.3-0.01-0.47l8-17.7
			c0.11-0.19,0.25-0.29,0.45-0.29h0.26c0.19,0,0.34,0.1,0.45,0.29l7.94,17.7c0.09,0.17,0.08,0.33-0.01,0.47
			c-0.1,0.14-0.24,0.21-0.43,0.21h-1.05c-0.23,0-0.38-0.1-0.45-0.29l-1.95-4.34h-9.34l-1.92,4.34c-0.07,0.19-0.22,0.29-0.45,0.29
			H1083.08z M1087.23,539.93h7.89c-0.44-0.96-1.08-2.4-1.92-4.31s-1.48-3.35-1.92-4.31h-0.21L1087.23,539.93z"/>
		<path class="st1" d="M1109.46,544.33c-0.32-0.26-0.37-0.56-0.16-0.89c0.05-0.05,0.12-0.14,0.21-0.25c0.09-0.11,0.15-0.2,0.18-0.25
			c0.32-0.42,0.62-0.5,0.92-0.24c1.56,1.33,3.04,2,4.45,2c1.04,0,1.88-0.28,2.54-0.84c0.66-0.56,0.99-1.25,0.99-2.05
			c0-0.86-0.36-1.6-1.09-2.22c-0.73-0.62-1.9-1.27-3.51-1.93c-1.61-0.7-2.79-1.43-3.52-2.2c-0.74-0.76-1.11-1.85-1.11-3.25
			c0-0.49,0.1-0.99,0.3-1.5c0.2-0.51,0.51-1.01,0.92-1.5c0.41-0.49,1-0.89,1.76-1.21c0.76-0.32,1.64-0.47,2.62-0.47
			c0.77,0,1.53,0.11,2.28,0.34c0.75,0.23,1.3,0.45,1.67,0.66l0.55,0.34c0.12,0.05,0.21,0.15,0.26,0.29c0.05,0.14,0.02,0.34-0.11,0.6
			c-0.04,0.05-0.09,0.14-0.16,0.25c-0.07,0.11-0.12,0.2-0.16,0.25c-0.25,0.37-0.55,0.45-0.92,0.24c-1.42-0.81-2.57-1.21-3.45-1.21
			c-1.25,0-2.16,0.31-2.75,0.92c-0.59,0.61-0.88,1.27-0.88,1.97c0,0.84,0.29,1.55,0.88,2.12c0.59,0.57,1.48,1.1,2.67,1.59
			c2.02,0.82,3.49,1.65,4.43,2.47c0.94,0.82,1.41,1.95,1.41,3.37c0,1.35-0.56,2.48-1.67,3.38s-2.45,1.35-4.01,1.35
			c-0.93,0-1.85-0.17-2.75-0.51c-0.9-0.34-1.54-0.64-1.89-0.89C1110.01,544.8,1109.71,544.55,1109.46,544.33z"/>
	</g>
	<g>
		<g>
			<path class="st29" d="M966.67,1018.01c-1.02,0-1.84,0.83-1.84,1.84v27.01c0,1.02,0.83,1.84,1.84,1.84c1.02,0,1.84-0.83,1.84-1.84
				v-27.01C968.51,1018.83,967.69,1018.01,966.67,1018.01z"/>
			<path class="st29" d="M959.51,1013.81c-1.02,0-1.84,0.83-1.84,1.84v12.09c0,1.02,0.83,1.84,1.84,1.84c1.02,0,1.84-0.83,1.84-1.84
				v-12.09C961.35,1014.63,960.53,1013.81,959.51,1013.81z"/>
			<path class="st29" d="M973.83,1013.81c-1.02,0-1.84,0.83-1.84,1.84v12.09c0,1.02,0.83,1.84,1.84,1.84c1.02,0,1.84-0.83,1.84-1.84
				v-12.09C975.67,1014.63,974.85,1013.81,973.83,1013.81z"/>
		</g>
		<g>
			<path class="st1" d="M874.75,951.55v35.58c0,3.08-0.99,7.51,3.51,7.51c2.77,0,3.57-1.29,3.69-3.51v-39.53h9.23v39.53
				c0,0.12,0,0.18,0,0.31c0.18,1.79,0.92,3.2,3.51,3.2c3.39,0,3.76-1.85,3.76-4.74c0-12.74-0.06-25.55-0.06-38.35h9.23v39.58
				c0,7.51-5.48,12.74-12.93,12.74c-3.2,0-5.97-0.98-8.13-2.71c-2.22,1.72-5.05,2.71-8.31,2.71c-7.39,0-12.74-5.36-12.74-12.74
				v-39.58H874.75z"/>
			<path class="st1" d="M1040.63,951.66c7.39,0,12.74,5.36,12.74,12.74v14.53h-16.44v12.31c0,2.28,1.23,3.51,3.51,3.51
				c2.89,0,3.76-1.42,3.76-4c0-2.22-0.06-4.43-0.06-6.59h9.24v7.08c0,7.51-5.48,12.74-12.93,12.74c-7.39,0-12.74-5.36-12.74-12.74
				V964.4C1027.7,956.95,1033.18,951.66,1040.63,951.66z M1044.2,969.69c0-2.28,0.12-6.09-0.43-7.26c-0.62-1.17-1.91-1.54-3.14-1.54
				c-2.34,0-3.69,1.11-3.69,3.51v5.3H1044.2z"/>
			<path class="st1" d="M936.98,985.39v-1.33h-9.23c0,2.15,0.06,4.37,0.06,6.59c0,2.59-0.86,4-3.76,4c-2.28,0-3.51-1.23-3.51-3.51
				v-12.31h16.44V964.3c0-7.39-5.36-12.74-12.74-12.74c-7.45,0-12.93,5.29-12.93,12.74v26.84c0,7.39,5.36,12.74,12.74,12.74
				c3.38,0,6.36-1.08,8.6-2.96C932.88,995.33,934.4,989.97,936.98,985.39z M920.55,964.3c0-2.4,1.35-3.51,3.69-3.51
				c1.23,0,2.52,0.37,3.14,1.54c0.55,1.17,0.43,4.99,0.43,7.26h-7.26V964.3z"/>
			<path class="st1" d="M1018.47,982.38c3.14-2.65,5.05-6.77,5.05-11.57v-4.06c0-8.8-6.28-15.08-15.08-15.08h-10.59v36.74
				c1.86,4.28,2.88,9.06,2.88,13.96c0,0.49-0.01,1-0.03,1.56l0,0.07h6.39v-18.1h1.35c0.49,0,0.92,0,1.42-0.06l4.68,18.16h9.48
				L1018.47,982.38z M1014.28,971.17c-0.68,4.68-3.02,5.48-7.2,5.48v-15.76c0.62,0,1.29,0,1.97,0c3.39,0.18,5.23,2.52,5.23,5.85
				V971.17z"/>
			<path class="st29" d="M988.81,979.28l-0.26-0.23l-0.04,0.38c-0.27,2.34-0.78,4.63-1.53,6.82c0.15-1.69,0.22-3.39,0.22-5.07
				c0-17.48-7.53-33.34-20.13-42.42l-0.1-0.07l-0.1,0.07c-12.61,9.08-20.13,24.94-20.13,42.42c0,1.92,0.1,3.86,0.29,5.8
				c-0.93-2.5-1.54-5.13-1.82-7.84l-0.04-0.38l-0.26,0.22c-6.38,5.37-10.19,14.11-10.19,23.38c0,0.46,0.01,0.95,0.03,1.48l0.01,0.22
				h16.69l0.06,0.14c0.03,0.06,0.06,0.13,0.08,0.19l0.06,0.12c0.98,2.19,2.1,4.29,3.33,6.25l0.06,0.09h7.37v-13.47h8.59
				c0.04,4.49,0.06,8.98,0.07,13.47h7.84l0.06-0.09c1.23-1.96,2.35-4.06,3.33-6.25l0.06-0.12c0.03-0.06,0.06-0.13,0.08-0.19
				l0.06-0.14h16.12l0.01-0.22c0.02-0.53,0.03-1.02,0.03-1.48C998.64,993.29,994.96,984.66,988.81,979.28z M971.09,970.55
				c0,1.82-1.47,3.29-3.29,3.29h-2.21c-1.82,0-3.29-1.47-3.29-3.29v-7.15c0-1.82,1.47-3.29,3.29-3.29h2.21
				c1.82,0,3.29,1.47,3.29,3.29V970.55z"/>
		</g>
	</g>
</g>
</svg>
