<?xml version="1.0" encoding="utf-8"?>
<!-- Generator: Adobe Illustrator 24.3.0, SVG Export Plug-In . SVG Version: 6.00 Build 0)  -->
<svg version="1.1" xmlns="http://www.w3.org/2000/svg" xmlns:xlink="http://www.w3.org/1999/xlink" x="0px" y="0px"
	 viewBox="0 0 1920 1080" style="enable-background:new 0 0 1920 1080;" xml:space="preserve">
<style type="text/css">
	.st0{fill:#1D1D1B;}
	.st1{fill:#293D51;}
	.st2{fill:#FFFFFF;}
	.st3{fill:url(#SVGID_5_);}
	.st4{clip-path:url(#SVGID_7_);}
	.st5{opacity:0.28;}
	.st6{fill:url(#SVGID_8_);}
	.st7{fill:url(#SVGID_9_);}
	.st8{fill:url(#SVGID_10_);}
	.st9{fill:url(#SVGID_11_);}
	.st10{fill:url(#SVGID_12_);}
	.st11{fill:url(#SVGID_13_);}
	.st12{fill:url(#SVGID_14_);}
	.st13{fill:url(#SVGID_15_);}
	.st14{fill:url(#SVGID_16_);}
	.st15{fill:url(#SVGID_17_);}
	.st16{fill:url(#SVGID_18_);}
	.st17{fill:url(#SVGID_19_);}
	.st18{fill:url(#SVGID_20_);}
	.st19{fill:url(#SVGID_21_);}
	.st20{fill:url(#SVGID_22_);}
	.st21{fill:url(#SVGID_23_);}
	.st22{fill:url(#SVGID_24_);}
	.st23{fill:url(#SVGID_25_);}
	.st24{fill:url(#SVGID_26_);}
	.st25{fill:url(#SVGID_27_);}
	.st26{fill:url(#SVGID_28_);}
	.st27{fill:url(#SVGID_29_);}
	.st28{fill:url(#SVGID_30_);}
	.st29{fill:#F34D23;}
	.st30{fill:#FFFFFF;stroke:#1D1D1B;stroke-miterlimit:10;}
	.st31{fill:none;stroke:#03FFFF;stroke-miterlimit:10;stroke-dasharray:10;}
	.st32{fill:none;stroke:#03FFFF;stroke-miterlimit:10;}
	.st33{fill:none;stroke:#03FFFF;stroke-miterlimit:10;stroke-dasharray:9.9851,9.9851;}
	.st34{fill:none;stroke:#03FFFF;stroke-miterlimit:10;stroke-dasharray:10.0327,10.0327;}
	.st35{fill:none;stroke:#03FFFF;stroke-miterlimit:10;stroke-dasharray:9.9349,9.9349;}
	.st36{fill:none;stroke:#03FFFF;stroke-miterlimit:10;stroke-dasharray:10.1175,10.1175;}
	.st37{fill:#FFFFFF;stroke:#1D1D1B;stroke-width:0.5196;stroke-miterlimit:10;}
</style>
<g id="Layer_3">
</g>
<g id="Layer_2">
	<g>
		<g>
			<defs>
				<rect id="SVGID_6_" x="27.9" y="-1150" width="1920" height="1080"/>
			</defs>
			<clipPath id="SVGID_2_">
				<use xlink:href="#SVGID_6_"  style="overflow:visible;"/>
			</clipPath>
			<g style="clip-path:url(#SVGID_2_);">
				<g>
					<g class="st5">
						<g>
							<path class="st2" d="M206.37,24.56c0.66,1.43-0.73,2.82-2.17,2.16c-0.3-0.14-0.55-0.39-0.69-0.69
								c-0.65-1.43,0.73-2.82,2.16-2.16C205.98,24.01,206.24,24.26,206.37,24.56z"/>
						</g>
					</g>
				</g>
			</g>
		</g>
	</g>
	<g>
		<path class="st0" d="M45.44,1024.54l-2.83-10.08c-0.03-0.1-0.02-0.19,0.03-0.25c0.05-0.07,0.13-0.11,0.24-0.11h1.75
			c0.14,0,0.23,0.07,0.27,0.21l1.29,5.08h0.06l2.33-5.28c0.06-0.11,0.14-0.17,0.25-0.17h0.27c0.13,0,0.21,0.06,0.25,0.17l2.32,5.28
			h0.06l1.29-5.08c0.04-0.14,0.13-0.21,0.27-0.21h1.75c0.11,0,0.19,0.04,0.24,0.11c0.05,0.07,0.06,0.15,0.03,0.25l-2.83,10.08
			c-0.03,0.14-0.12,0.21-0.27,0.21h-0.24c-0.11,0-0.2-0.06-0.25-0.17l-2.75-6.14h-0.04l-2.73,6.14c-0.06,0.11-0.15,0.17-0.25,0.17
			h-0.24C45.56,1024.75,45.47,1024.68,45.44,1024.54z"/>
		<path class="st0" d="M61.43,1024.31v-9.93c0-0.08,0.03-0.15,0.08-0.2c0.06-0.05,0.12-0.08,0.2-0.08h6.21
			c0.08,0,0.15,0.03,0.2,0.08c0.05,0.06,0.08,0.12,0.08,0.2v1.63c0,0.08-0.03,0.15-0.08,0.2c-0.05,0.06-0.12,0.08-0.2,0.08h-4.16
			v1.86h3.42c0.08,0,0.15,0.03,0.2,0.08c0.05,0.05,0.08,0.12,0.08,0.2v1.64c0,0.08-0.03,0.15-0.08,0.2
			c-0.06,0.05-0.12,0.08-0.2,0.08h-3.42v2.03h4.16c0.08,0,0.15,0.03,0.2,0.08c0.05,0.05,0.08,0.12,0.08,0.2v1.63
			c0,0.08-0.03,0.15-0.08,0.2c-0.05,0.05-0.12,0.08-0.2,0.08h-6.21c-0.08,0-0.15-0.03-0.2-0.08
			C61.46,1024.46,61.43,1024.39,61.43,1024.31z"/>
		<path class="st0" d="M81.44,1024.6c-0.11,0-0.19-0.04-0.25-0.12s-0.06-0.17-0.01-0.27l4.69-10.1c0.05-0.11,0.13-0.17,0.25-0.17
			h0.15c0.12,0,0.21,0.06,0.25,0.17l4.7,10.1c0.05,0.1,0.05,0.19-0.01,0.27s-0.14,0.12-0.25,0.12h-1.67c-0.23,0-0.41-0.12-0.53-0.38
			l-0.54-1.18h-4.08l-0.54,1.2c-0.1,0.24-0.28,0.36-0.54,0.36H81.44z M85.07,1021h2.28l-1.14-2.48h-0.01L85.07,1021z"/>
		<path class="st0" d="M96.96,1024.31v-9.93c0-0.08,0.03-0.15,0.08-0.2c0.06-0.05,0.12-0.08,0.2-0.08h4.48
			c0.9,0,1.67,0.32,2.31,0.95c0.64,0.64,0.96,1.4,0.96,2.29c0,0.67-0.2,1.27-0.61,1.81s-0.94,0.94-1.61,1.21l2.05,3.81
			c0.06,0.1,0.06,0.2,0.01,0.29c-0.06,0.1-0.14,0.14-0.26,0.14h-2c-0.11,0-0.19-0.04-0.24-0.13l-2-3.98h-1.04v3.83
			c0,0.07-0.03,0.13-0.08,0.2c-0.05,0.06-0.12,0.09-0.2,0.09h-1.79c-0.08,0-0.15-0.03-0.2-0.08
			C96.99,1024.46,96.96,1024.39,96.96,1024.31z M99.32,1018.58h2.22c0.31,0,0.58-0.12,0.8-0.36c0.22-0.24,0.34-0.52,0.34-0.84
			c0-0.31-0.11-0.58-0.34-0.8c-0.23-0.22-0.49-0.34-0.8-0.34h-2.22V1018.58z"/>
		<path class="st0" d="M111.51,1024.31v-9.93c0-0.08,0.03-0.15,0.08-0.2c0.06-0.05,0.12-0.08,0.2-0.08h6.21
			c0.08,0,0.15,0.03,0.2,0.08c0.05,0.06,0.08,0.12,0.08,0.2v1.63c0,0.08-0.03,0.15-0.08,0.2c-0.05,0.06-0.12,0.08-0.2,0.08h-4.16
			v1.86h3.42c0.08,0,0.15,0.03,0.2,0.08c0.05,0.05,0.08,0.12,0.08,0.2v1.64c0,0.08-0.03,0.15-0.08,0.2
			c-0.06,0.05-0.12,0.08-0.2,0.08h-3.42v2.03h4.16c0.08,0,0.15,0.03,0.2,0.08c0.05,0.05,0.08,0.12,0.08,0.2v1.63
			c0,0.08-0.03,0.15-0.08,0.2c-0.05,0.05-0.12,0.08-0.2,0.08h-6.21c-0.08,0-0.15-0.03-0.2-0.08
			C111.54,1024.46,111.51,1024.39,111.51,1024.31z"/>
		<path class="st0" d="M132.23,1027.03v-15.34c0-0.08,0.03-0.15,0.08-0.2s0.12-0.08,0.2-0.08h0.26c0.08,0,0.14,0.03,0.19,0.08
			s0.08,0.12,0.08,0.2v15.34c0,0.07-0.03,0.13-0.08,0.19c-0.06,0.05-0.12,0.08-0.2,0.08h-0.24c-0.08,0-0.15-0.03-0.2-0.08
			S132.23,1027.1,132.23,1027.03z"/>
		<path class="st0" d="M147.8,1024.31v-9.93c0-0.07,0.03-0.13,0.09-0.2c0.06-0.06,0.12-0.09,0.2-0.09h0.6c0.07,0,0.13,0.03,0.2,0.09
			c0.06,0.06,0.09,0.12,0.09,0.2v9.93c0,0.07-0.03,0.13-0.09,0.2c-0.06,0.06-0.13,0.09-0.2,0.09h-0.6c-0.07,0-0.14-0.03-0.2-0.09
			C147.83,1024.45,147.8,1024.38,147.8,1024.31z"/>
		<path class="st0" d="M156.53,1024.31v-9.93c0-0.08,0.03-0.15,0.08-0.2c0.05-0.05,0.12-0.08,0.19-0.08h3.36
			c1.45,0,2.69,0.51,3.72,1.54c1.03,1.03,1.54,2.26,1.54,3.7c0,1.45-0.51,2.69-1.54,3.72c-1.03,1.03-2.27,1.54-3.72,1.54h-3.36
			c-0.07,0-0.13-0.03-0.19-0.08C156.55,1024.46,156.53,1024.39,156.53,1024.31z M157.67,1023.56h2.25c1.23,0,2.25-0.4,3.04-1.19
			s1.2-1.81,1.2-3.04c0-1.23-0.4-2.24-1.2-3.03s-1.81-1.19-3.04-1.19h-2.25V1023.56z"/>
		<path class="st0" d="M172.23,1024.31v-9.93c0-0.08,0.03-0.15,0.08-0.2c0.05-0.05,0.12-0.08,0.2-0.08h5.91
			c0.08,0,0.15,0.03,0.2,0.08c0.05,0.06,0.08,0.12,0.08,0.2v0.43c0,0.08-0.03,0.15-0.08,0.2c-0.06,0.05-0.12,0.08-0.2,0.08h-5.04
			v3.66h4.31c0.08,0,0.15,0.03,0.2,0.08c0.05,0.06,0.08,0.12,0.08,0.2v0.43c0,0.08-0.03,0.15-0.08,0.2
			c-0.05,0.05-0.12,0.08-0.2,0.08h-4.31v3.83h5.04c0.08,0,0.15,0.03,0.2,0.08c0.05,0.06,0.08,0.12,0.08,0.2v0.43
			c0,0.08-0.03,0.15-0.08,0.2c-0.06,0.05-0.12,0.08-0.2,0.08h-5.91c-0.08,0-0.15-0.03-0.2-0.08
			C172.26,1024.46,172.23,1024.39,172.23,1024.31z"/>
		<path class="st0" d="M185.61,1024.31v-10.09c0-0.07,0.03-0.13,0.08-0.19s0.12-0.08,0.2-0.08h0.38l6.76,8.43h0.03v-8
			c0-0.08,0.03-0.15,0.08-0.2c0.05-0.05,0.12-0.08,0.2-0.08h0.53c0.07,0,0.13,0.03,0.2,0.09c0.06,0.06,0.09,0.12,0.09,0.2v10.09
			c0,0.07-0.03,0.13-0.08,0.19c-0.05,0.05-0.12,0.08-0.2,0.08h-0.27l-6.89-8.6h-0.01v8.16c0,0.08-0.03,0.15-0.08,0.2
			c-0.06,0.05-0.12,0.08-0.2,0.08h-0.52c-0.07,0-0.14-0.03-0.2-0.09C185.64,1024.45,185.61,1024.38,185.61,1024.31z"/>
		<path class="st0" d="M203.21,1024.31v-9.21h-2.61c-0.08,0-0.15-0.03-0.2-0.08c-0.05-0.06-0.08-0.12-0.08-0.2v-0.43
			c0-0.08,0.03-0.15,0.08-0.2c0.06-0.05,0.12-0.08,0.2-0.08h6.36c0.08,0,0.15,0.03,0.2,0.08c0.05,0.06,0.08,0.12,0.08,0.2v0.43
			c0,0.08-0.03,0.15-0.08,0.2c-0.06,0.05-0.12,0.08-0.2,0.08h-2.61v9.21c0,0.07-0.03,0.13-0.08,0.2c-0.05,0.06-0.12,0.09-0.2,0.09
			h-0.57c-0.08,0-0.15-0.03-0.2-0.09C203.23,1024.45,203.21,1024.38,203.21,1024.31z"/>
		<path class="st0" d="M213.39,1024.31v-9.93c0-0.07,0.03-0.13,0.09-0.2c0.06-0.06,0.12-0.09,0.2-0.09h0.6
			c0.07,0,0.13,0.03,0.2,0.09c0.06,0.06,0.09,0.12,0.09,0.2v9.93c0,0.07-0.03,0.13-0.09,0.2c-0.06,0.06-0.13,0.09-0.2,0.09h-0.6
			c-0.07,0-0.14-0.03-0.2-0.09C213.42,1024.45,213.39,1024.38,213.39,1024.31z"/>
		<path class="st0" d="M222.12,1024.31v-9.93c0-0.08,0.03-0.15,0.08-0.2c0.05-0.05,0.12-0.08,0.19-0.08h3.36
			c1.45,0,2.69,0.51,3.72,1.54c1.03,1.03,1.54,2.26,1.54,3.7c0,1.45-0.51,2.69-1.54,3.72c-1.03,1.03-2.27,1.54-3.72,1.54h-3.36
			c-0.07,0-0.13-0.03-0.19-0.08C222.15,1024.46,222.12,1024.39,222.12,1024.31z M223.26,1023.56h2.25c1.23,0,2.25-0.4,3.04-1.19
			s1.2-1.81,1.2-3.04c0-1.23-0.4-2.24-1.2-3.03s-1.81-1.19-3.04-1.19h-2.25V1023.56z"/>
		<path class="st0" d="M236.58,1024.6c-0.11,0-0.19-0.04-0.25-0.12c-0.06-0.08-0.06-0.17-0.01-0.27l4.56-10.1
			c0.06-0.11,0.14-0.17,0.25-0.17h0.15c0.11,0,0.2,0.06,0.25,0.17l4.53,10.1c0.05,0.1,0.05,0.19-0.01,0.27
			c-0.05,0.08-0.14,0.12-0.25,0.12h-0.6c-0.13,0-0.22-0.05-0.25-0.17l-1.11-2.47h-5.33l-1.09,2.47c-0.04,0.11-0.12,0.17-0.25,0.17
			H236.58z M238.95,1021.03h4.5c-0.25-0.55-0.62-1.37-1.09-2.46c-0.48-1.09-0.85-1.91-1.09-2.46h-0.12L238.95,1021.03z"/>
		<path class="st0" d="M252.21,1024.31v-9.93c0-0.08,0.03-0.15,0.08-0.2c0.05-0.05,0.12-0.08,0.19-0.08h3.36
			c1.45,0,2.69,0.51,3.72,1.54c1.03,1.03,1.54,2.26,1.54,3.7c0,1.45-0.51,2.69-1.54,3.72c-1.03,1.03-2.27,1.54-3.72,1.54h-3.36
			c-0.07,0-0.13-0.03-0.19-0.08C252.24,1024.46,252.21,1024.39,252.21,1024.31z M253.35,1023.56h2.25c1.23,0,2.25-0.4,3.04-1.19
			s1.2-1.81,1.2-3.04c0-1.23-0.4-2.24-1.2-3.03s-1.81-1.19-3.04-1.19h-2.25V1023.56z"/>
		<path class="st0" d="M275.75,1024.31v-9.93c0-0.08,0.03-0.15,0.08-0.2c0.05-0.05,0.12-0.08,0.19-0.08h3.36
			c1.45,0,2.69,0.51,3.72,1.54c1.03,1.03,1.54,2.26,1.54,3.7c0,1.45-0.51,2.69-1.54,3.72c-1.03,1.03-2.27,1.54-3.72,1.54h-3.36
			c-0.07,0-0.13-0.03-0.19-0.08C275.77,1024.46,275.75,1024.39,275.75,1024.31z M276.89,1023.56h2.25c1.23,0,2.25-0.4,3.04-1.19
			s1.2-1.81,1.2-3.04c0-1.23-0.4-2.24-1.2-3.03s-1.81-1.19-3.04-1.19h-2.25V1023.56z"/>
		<path class="st0" d="M291.45,1024.31v-9.93c0-0.08,0.03-0.15,0.08-0.2c0.05-0.05,0.12-0.08,0.2-0.08h5.91
			c0.08,0,0.15,0.03,0.2,0.08c0.05,0.06,0.08,0.12,0.08,0.2v0.43c0,0.08-0.03,0.15-0.08,0.2c-0.06,0.05-0.12,0.08-0.2,0.08h-5.04
			v3.66h4.31c0.08,0,0.15,0.03,0.2,0.08c0.05,0.06,0.08,0.12,0.08,0.2v0.43c0,0.08-0.03,0.15-0.08,0.2
			c-0.05,0.05-0.12,0.08-0.2,0.08h-4.31v3.83h5.04c0.08,0,0.15,0.03,0.2,0.08c0.05,0.06,0.08,0.12,0.08,0.2v0.43
			c0,0.08-0.03,0.15-0.08,0.2c-0.06,0.05-0.12,0.08-0.2,0.08h-5.91c-0.08,0-0.15-0.03-0.2-0.08
			C291.48,1024.46,291.45,1024.39,291.45,1024.31z"/>
		<path class="st0" d="M311.91,1024.24l1.93-10.08c0.03-0.14,0.12-0.21,0.27-0.21h0.24c0.13,0,0.21,0.06,0.26,0.17l2.97,8.27h0.08
			l2.92-8.27c0.04-0.11,0.12-0.17,0.25-0.17h0.24c0.15,0,0.24,0.07,0.27,0.21l1.94,10.08c0.05,0.24-0.04,0.36-0.27,0.36h-0.6
			c-0.14,0-0.23-0.07-0.27-0.21l-1.33-7.72h-0.06l-2.76,7.92c-0.04,0.11-0.13,0.17-0.26,0.17h-0.27c-0.13,0-0.21-0.06-0.25-0.17
			l-2.79-7.92h-0.06l-1.3,7.72c-0.01,0.05-0.04,0.1-0.1,0.14s-0.11,0.07-0.17,0.07h-0.6
			C311.95,1024.6,311.86,1024.48,311.91,1024.24z"/>
		<path class="st0" d="M328.91,1024.6c-0.11,0-0.19-0.04-0.25-0.12c-0.06-0.08-0.06-0.17-0.01-0.27l4.56-10.1
			c0.06-0.11,0.14-0.17,0.25-0.17h0.15c0.11,0,0.2,0.06,0.25,0.17l4.53,10.1c0.05,0.1,0.05,0.19-0.01,0.27
			c-0.05,0.08-0.14,0.12-0.25,0.12h-0.6c-0.13,0-0.22-0.05-0.25-0.17l-1.11-2.47h-5.33l-1.09,2.47c-0.04,0.11-0.12,0.17-0.25,0.17
			H328.91z M331.28,1021.03h4.5c-0.25-0.55-0.62-1.37-1.09-2.46c-0.48-1.09-0.85-1.91-1.09-2.46h-0.12L331.28,1021.03z"/>
		<path class="st0" d="M344.54,1024.31v-9.93c0-0.08,0.03-0.15,0.08-0.2c0.05-0.05,0.12-0.08,0.2-0.08h3.88
			c0.9,0,1.67,0.31,2.31,0.93c0.64,0.62,0.96,1.38,0.96,2.27c0,0.68-0.2,1.29-0.61,1.84c-0.41,0.55-0.94,0.95-1.61,1.22l2.05,3.81
			c0.06,0.1,0.06,0.2,0.01,0.29c-0.05,0.1-0.14,0.14-0.26,0.14h-0.76c-0.11,0-0.19-0.04-0.24-0.13l-2-3.98h-2.87v3.83
			c0,0.07-0.03,0.13-0.08,0.2c-0.05,0.06-0.12,0.09-0.2,0.09h-0.58c-0.08,0-0.15-0.03-0.2-0.08
			C344.56,1024.46,344.54,1024.39,344.54,1024.31z M345.72,1019.5h2.91c0.58,0,1.08-0.21,1.51-0.64c0.43-0.42,0.65-0.94,0.65-1.55
			c0-0.57-0.21-1.07-0.65-1.49c-0.43-0.42-0.93-0.63-1.51-0.63h-2.91V1019.5z"/>
		<path class="st0" d="M359.77,1023.18c-1.06-1.04-1.58-2.32-1.58-3.82s0.53-2.78,1.58-3.83c1.05-1.05,2.33-1.58,3.83-1.58
			c1.33,0,2.54,0.47,3.63,1.4c0.14,0.15,0.15,0.29,0.02,0.42l-0.41,0.41c-0.11,0.14-0.24,0.13-0.39-0.02
			c-0.87-0.75-1.83-1.12-2.87-1.12c-1.17,0-2.16,0.43-2.97,1.28c-0.81,0.85-1.21,1.87-1.21,3.04c0,1.17,0.4,2.18,1.21,3.03
			c0.81,0.85,1.8,1.27,2.97,1.27c0.41,0,0.8-0.06,1.16-0.17s0.66-0.24,0.88-0.38c0.22-0.14,0.5-0.33,0.83-0.58
			c0.13-0.1,0.25-0.11,0.36-0.04l0.45,0.41c0.06,0.05,0.09,0.12,0.08,0.2c-0.01,0.08-0.04,0.15-0.1,0.21
			c-1,0.97-2.21,1.46-3.65,1.46C362.1,1024.75,360.82,1024.22,359.77,1023.18z"/>
		<path class="st0" d="M372.87,1024.6c-0.11,0-0.19-0.04-0.25-0.12c-0.06-0.08-0.06-0.17-0.01-0.27l4.56-10.1
			c0.06-0.11,0.14-0.17,0.25-0.17h0.15c0.11,0,0.2,0.06,0.25,0.17l4.53,10.1c0.05,0.1,0.05,0.19-0.01,0.27
			c-0.05,0.08-0.14,0.12-0.25,0.12h-0.6c-0.13,0-0.22-0.05-0.25-0.17l-1.11-2.47h-5.33l-1.09,2.47c-0.04,0.11-0.12,0.17-0.25,0.17
			H372.87z M375.24,1021.03h4.5c-0.25-0.55-0.62-1.37-1.09-2.46c-0.48-1.09-0.85-1.91-1.09-2.46h-0.12L375.24,1021.03z"/>
	</g>
	<g>
		<path class="st0" d="M999.69,222.63v-9.93c0-0.07,0.03-0.13,0.09-0.2c0.06-0.06,0.12-0.09,0.2-0.09h1.79
			c0.08,0,0.15,0.03,0.2,0.08c0.05,0.06,0.08,0.12,0.08,0.2v3.78h4.29v-3.78c0-0.08,0.03-0.15,0.08-0.2
			c0.05-0.05,0.12-0.08,0.2-0.08h1.79c0.07,0,0.13,0.03,0.2,0.09c0.06,0.06,0.09,0.12,0.09,0.2v9.93c0,0.07-0.03,0.13-0.09,0.2
			c-0.06,0.06-0.12,0.09-0.2,0.09h-1.79c-0.08,0-0.15-0.03-0.2-0.08c-0.05-0.06-0.08-0.12-0.08-0.2v-3.95h-4.29v3.95
			c0,0.08-0.03,0.15-0.08,0.2c-0.05,0.05-0.12,0.08-0.2,0.08h-1.79c-0.07,0-0.13-0.03-0.2-0.09
			C999.72,222.77,999.69,222.7,999.69,222.63z"/>
		<path class="st0" d="M1015.77,222.63v-9.93c0-0.08,0.03-0.15,0.08-0.2c0.06-0.05,0.12-0.08,0.2-0.08h6.21
			c0.08,0,0.15,0.03,0.2,0.08c0.05,0.06,0.08,0.12,0.08,0.2v1.63c0,0.08-0.03,0.15-0.08,0.2c-0.05,0.06-0.12,0.08-0.2,0.08h-4.16
			v1.86h3.42c0.08,0,0.15,0.03,0.2,0.08s0.08,0.12,0.08,0.2v1.64c0,0.08-0.03,0.15-0.08,0.2s-0.12,0.08-0.2,0.08h-3.42v2.03h4.16
			c0.08,0,0.15,0.03,0.2,0.08c0.05,0.05,0.08,0.12,0.08,0.2v1.63c0,0.08-0.03,0.15-0.08,0.2c-0.05,0.05-0.12,0.08-0.2,0.08h-6.21
			c-0.08,0-0.15-0.03-0.2-0.08C1015.79,222.78,1015.77,222.71,1015.77,222.63z"/>
		<path class="st0" d="M1028.13,222.5l3.15-4.96l-3.03-4.7c-0.06-0.1-0.06-0.2-0.02-0.29c0.05-0.09,0.14-0.13,0.27-0.13h2.19
			c0.09,0,0.17,0.04,0.24,0.13l1.72,2.79h0.02l1.75-2.79c0.04-0.09,0.12-0.13,0.24-0.13h2.19c0.13,0,0.22,0.04,0.28,0.13
			s0.05,0.19-0.02,0.29l-3.04,4.7l3.15,4.96c0.07,0.1,0.08,0.2,0.02,0.29s-0.14,0.13-0.26,0.13h-2.09c-0.12,0-0.21-0.04-0.25-0.13
			l-1.96-3.03h-0.03l-1.92,3.03c-0.07,0.09-0.15,0.13-0.25,0.13h-2.09c-0.13,0-0.22-0.04-0.28-0.13S1028.06,222.6,1028.13,222.5z"/>
		<path class="st0" d="M1050.81,225.35V210c0-0.08,0.03-0.15,0.08-0.2s0.12-0.08,0.2-0.08h0.26c0.08,0,0.14,0.03,0.2,0.08
			c0.05,0.05,0.07,0.12,0.07,0.2v15.34c0,0.07-0.03,0.13-0.08,0.19s-0.12,0.08-0.2,0.08h-0.24c-0.08,0-0.15-0.03-0.2-0.08
			S1050.81,225.42,1050.81,225.35z"/>
		<path class="st0" d="M1066.44,222.59l0.38-2.59h-1.05c-0.08,0-0.15-0.03-0.2-0.08c-0.06-0.05-0.08-0.12-0.08-0.2v-0.11
			c0-0.19,0.1-0.28,0.29-0.28h1.16l0.36-2.57h-1.08c-0.08,0-0.15-0.03-0.2-0.08c-0.05-0.06-0.08-0.12-0.08-0.2v-0.1
			c0-0.07,0.03-0.14,0.08-0.2s0.12-0.09,0.2-0.09h1.17l0.48-3.42c0.01-0.06,0.04-0.12,0.09-0.17c0.05-0.05,0.11-0.08,0.18-0.08h0.11
			c0.08,0,0.15,0.03,0.2,0.1c0.06,0.07,0.08,0.14,0.07,0.23l-0.45,3.33h2.26l0.46-3.42c0.01-0.06,0.04-0.12,0.1-0.17
			s0.12-0.08,0.19-0.08h0.09c0.09,0,0.16,0.03,0.22,0.1s0.08,0.14,0.07,0.23l-0.45,3.33h1.05c0.08,0,0.15,0.03,0.2,0.08
			c0.05,0.06,0.08,0.12,0.08,0.2v0.1c0,0.19-0.08,0.29-0.25,0.29h-1.17l-0.36,2.57h1.07c0.08,0,0.15,0.03,0.2,0.08
			c0.06,0.05,0.08,0.12,0.08,0.2v0.11c0,0.08-0.03,0.15-0.08,0.2c-0.05,0.06-0.11,0.08-0.18,0.08h-1.2l-0.39,2.68
			c-0.02,0.16-0.12,0.24-0.29,0.24h-0.09c-0.09,0-0.16-0.03-0.22-0.1c-0.06-0.06-0.08-0.14-0.07-0.23l0.39-2.59h-2.29l-0.38,2.68
			c-0.02,0.16-0.12,0.24-0.29,0.24h-0.09c-0.1,0-0.18-0.03-0.23-0.1C1066.43,222.76,1066.42,222.68,1066.44,222.59z M1067.58,219.32
			h2.29l0.34-2.57h-2.26L1067.58,219.32z"/>
		<path class="st0" d="M1078,222.63v-0.45c0.41-0.44,1.02-1.1,1.84-1.99s1.43-1.55,1.84-1.99c1.01-1.1,1.52-2,1.52-2.71
			c0-0.5-0.17-0.94-0.52-1.33c-0.35-0.38-0.87-0.58-1.58-0.58c-0.72,0-1.43,0.38-2.13,1.12c-0.14,0.13-0.28,0.13-0.41,0l-0.3-0.29
			c-0.12-0.14-0.12-0.27-0.02-0.39c0.03-0.04,0.07-0.09,0.13-0.16c0.06-0.07,0.18-0.18,0.36-0.35c0.18-0.17,0.38-0.32,0.58-0.45
			s0.47-0.25,0.79-0.35c0.33-0.11,0.65-0.16,0.98-0.16c1.02,0,1.82,0.28,2.39,0.84c0.57,0.56,0.85,1.25,0.85,2.05
			c0,0.6-0.15,1.15-0.46,1.64s-0.78,1.08-1.41,1.76c-0.32,0.34-0.8,0.85-1.44,1.54c-0.64,0.69-1.12,1.2-1.44,1.54h4.41
			c0.07,0,0.13,0.03,0.19,0.08c0.06,0.05,0.09,0.12,0.09,0.2v0.41c0,0.07-0.03,0.13-0.09,0.2c-0.06,0.06-0.12,0.09-0.19,0.09h-5.7
			c-0.08,0-0.15-0.03-0.2-0.08C1078.03,222.78,1078,222.71,1078,222.63z"/>
		<path class="st0" d="M1091.58,222.66c-0.09-0.21,0-0.35,0.27-0.44c0.15-0.05,0.35-0.14,0.61-0.28c0.26-0.13,0.55-0.32,0.89-0.55
			s0.66-0.49,0.97-0.77c0.31-0.28,0.59-0.61,0.85-0.99s0.44-0.76,0.54-1.14c-0.07,0.05-0.17,0.11-0.31,0.19s-0.4,0.17-0.8,0.3
			c-0.4,0.12-0.79,0.19-1.17,0.19c-0.88,0-1.64-0.3-2.27-0.9c-0.63-0.6-0.95-1.38-0.95-2.35c0-0.94,0.33-1.75,0.98-2.42
			c0.66-0.67,1.43-1.01,2.33-1.01c1.16,0,2.03,0.4,2.62,1.19c0.58,0.79,0.88,1.82,0.88,3.09c0,0.76-0.12,1.48-0.38,2.15
			s-0.55,1.23-0.92,1.67c-0.36,0.45-0.78,0.86-1.27,1.23c-0.49,0.38-0.91,0.66-1.28,0.85c-0.37,0.2-0.73,0.37-1.1,0.52
			c-0.15,0.06-0.26,0.01-0.33-0.15L1091.58,222.66z M1093.53,218.19c0.41,0,0.81-0.08,1.21-0.25c0.4-0.17,0.69-0.33,0.88-0.49
			l0.29-0.24c0.09-0.38,0.1-0.79,0.02-1.22c-0.07-0.43-0.19-0.84-0.35-1.21s-0.42-0.69-0.78-0.94c-0.36-0.25-0.79-0.38-1.27-0.38
			c-0.63,0-1.16,0.24-1.6,0.71c-0.44,0.47-0.65,1.03-0.65,1.68c0,0.65,0.22,1.2,0.66,1.66
			C1092.36,217.97,1092.9,218.19,1093.53,218.19z"/>
		<path class="st0" d="M1103.01,221.73c-0.12-0.14-0.12-0.26,0.01-0.36l0.41-0.34c0.15-0.11,0.29-0.08,0.4,0.07
			c0.09,0.11,0.21,0.23,0.35,0.35c0.14,0.13,0.4,0.27,0.76,0.44c0.36,0.17,0.74,0.25,1.12,0.25c0.6,0,1.11-0.17,1.53-0.51
			s0.63-0.79,0.63-1.37c0-0.56-0.22-1.03-0.67-1.4c-0.45-0.38-1.11-0.56-1.99-0.56h-0.84c-0.19,0-0.29-0.11-0.29-0.33v-0.36
			c0-0.22,0.11-0.33,0.31-0.33h0.83c0.77,0,1.36-0.17,1.77-0.52c0.41-0.35,0.62-0.78,0.62-1.3c0-0.58-0.19-1.04-0.57-1.39
			c-0.38-0.34-0.85-0.52-1.39-0.52c-0.74,0-1.4,0.33-1.96,0.98c-0.12,0.14-0.25,0.15-0.39,0.03l-0.36-0.28
			c-0.14-0.12-0.14-0.25,0-0.39c0.03-0.04,0.07-0.09,0.13-0.14c0.05-0.05,0.17-0.16,0.36-0.31s0.38-0.29,0.57-0.41
			s0.44-0.22,0.74-0.31c0.3-0.1,0.61-0.14,0.92-0.14c0.92,0,1.66,0.25,2.23,0.75s0.86,1.17,0.86,1.99c0,0.53-0.16,1.01-0.48,1.45
			c-0.32,0.43-0.68,0.74-1.06,0.92v0.04c0.45,0.19,0.86,0.5,1.24,0.92s0.56,0.93,0.56,1.51c0,0.84-0.3,1.54-0.91,2.08
			c-0.61,0.55-1.41,0.83-2.42,0.83C1104.79,223.07,1103.79,222.62,1103.01,221.73z"/>
		<path class="st0" d="M1116.31,222.63v-9.93c0-0.08,0.03-0.15,0.08-0.2c0.05-0.05,0.12-0.08,0.19-0.08h3.36
			c1.45,0,2.69,0.51,3.72,1.54c1.03,1.03,1.54,2.26,1.54,3.7c0,1.45-0.52,2.69-1.54,3.72c-1.03,1.03-2.27,1.54-3.72,1.54h-3.36
			c-0.07,0-0.13-0.03-0.19-0.08C1116.34,222.78,1116.31,222.71,1116.31,222.63z M1117.45,221.88h2.25c1.23,0,2.25-0.4,3.04-1.19
			c0.8-0.79,1.2-1.81,1.2-3.04c0-1.23-0.4-2.24-1.2-3.03c-0.8-0.79-1.81-1.19-3.04-1.19h-2.25V221.88z"/>
		<path class="st0" d="M1131.49,221.82c-0.17-0.19-0.18-0.36-0.03-0.51c0.04-0.03,0.1-0.08,0.17-0.16c0.07-0.08,0.13-0.13,0.17-0.17
			c0.15-0.13,0.28-0.12,0.38,0.01c0.09,0.13,0.2,0.26,0.34,0.4s0.38,0.29,0.73,0.46c0.36,0.17,0.74,0.26,1.15,0.26
			c0.69,0,1.25-0.25,1.7-0.76c0.44-0.5,0.66-1.07,0.66-1.7c0-0.62-0.2-1.14-0.61-1.55c-0.4-0.41-0.99-0.61-1.75-0.61h-2.28
			c-0.14,0-0.25-0.05-0.34-0.17c-0.09-0.11-0.13-0.23-0.13-0.36V213c0-0.08,0.03-0.15,0.08-0.2c0.05-0.05,0.12-0.08,0.2-0.08h4.53
			c0.08,0,0.15,0.03,0.2,0.08s0.08,0.12,0.08,0.2v0.43c0,0.08-0.03,0.15-0.08,0.2s-0.12,0.08-0.2,0.08h-3.81v2.76h1.74
			c1.12,0,1.98,0.28,2.57,0.83c0.59,0.55,0.89,1.33,0.89,2.32c0,0.95-0.33,1.76-0.99,2.43c-0.66,0.67-1.49,1.01-2.49,1.01
			C1133.15,223.07,1132.18,222.65,1131.49,221.82z"/>
		<path class="st0" d="M1145.11,222.63v-8.05l-1.08,0.84c-0.13,0.1-0.24,0.09-0.35-0.01l-0.28-0.32c-0.09-0.11-0.08-0.22,0.03-0.33
			l2.1-2.04h0.4c0.07,0,0.13,0.03,0.19,0.08c0.06,0.05,0.08,0.12,0.08,0.2v9.63c0,0.08-0.03,0.15-0.08,0.2
			c-0.05,0.05-0.12,0.08-0.19,0.08h-0.54c-0.08,0-0.15-0.03-0.2-0.08C1145.14,222.78,1145.11,222.71,1145.11,222.63z"/>
		<path class="st0" d="M999.69,274.63v-9.93c0-0.08,0.03-0.15,0.08-0.2c0.06-0.05,0.12-0.08,0.2-0.08h4.48
			c0.9,0,1.67,0.32,2.31,0.95c0.64,0.64,0.96,1.4,0.96,2.29c0,0.67-0.2,1.27-0.61,1.81c-0.41,0.54-0.94,0.94-1.61,1.21l2.05,3.81
			c0.06,0.1,0.06,0.2,0.01,0.29c-0.05,0.1-0.14,0.14-0.26,0.14h-2c-0.11,0-0.19-0.04-0.24-0.13l-1.99-3.98h-1.04v3.83
			c0,0.07-0.03,0.13-0.08,0.2c-0.05,0.06-0.12,0.09-0.2,0.09h-1.79c-0.08,0-0.15-0.03-0.2-0.08
			C999.71,274.78,999.69,274.71,999.69,274.63z M1002.04,268.9h2.22c0.31,0,0.58-0.12,0.8-0.36c0.22-0.24,0.34-0.52,0.34-0.84
			c0-0.31-0.11-0.58-0.34-0.8c-0.23-0.22-0.49-0.34-0.8-0.34h-2.22V268.9z"/>
		<path class="st0" d="M1021.66,277.35V262c0-0.08,0.03-0.15,0.08-0.2s0.12-0.08,0.2-0.08h0.26c0.08,0,0.14,0.03,0.19,0.08
			c0.05,0.05,0.08,0.12,0.08,0.2v15.34c0,0.07-0.03,0.13-0.08,0.19c-0.06,0.05-0.12,0.08-0.2,0.08h-0.24c-0.08,0-0.15-0.03-0.2-0.08
			S1021.66,277.42,1021.66,277.35z"/>
		<path class="st0" d="M1036.23,272.61c-0.08,0-0.15-0.03-0.2-0.08s-0.08-0.12-0.08-0.2v-0.56l5.68-7.12
			c0.06-0.06,0.13-0.09,0.23-0.09h0.3c0.08,0,0.15,0.03,0.2,0.08s0.08,0.12,0.08,0.2l0.02,6.86h1.21c0.08,0,0.15,0.02,0.2,0.07
			c0.05,0.05,0.08,0.12,0.08,0.2v0.33c0,0.08-0.03,0.15-0.08,0.2c-0.06,0.06-0.12,0.08-0.2,0.08h-1.21v2.05
			c0,0.07-0.03,0.13-0.09,0.2c-0.06,0.06-0.12,0.09-0.2,0.09h-0.51c-0.07,0-0.13-0.03-0.2-0.09c-0.06-0.06-0.09-0.12-0.09-0.2v-2.02
			H1036.23z M1037.2,271.68h4.23v-5.22L1037.2,271.68z"/>
		<path class="st0" d="M1051.17,274.63v-8.05l-1.08,0.84c-0.13,0.1-0.24,0.09-0.35-0.01l-0.28-0.32c-0.09-0.11-0.08-0.22,0.03-0.33
			l2.1-2.04h0.4c0.07,0,0.13,0.03,0.19,0.08c0.06,0.05,0.08,0.12,0.08,0.2v9.63c0,0.08-0.03,0.15-0.08,0.2
			c-0.05,0.05-0.12,0.08-0.19,0.08h-0.54c-0.08,0-0.15-0.03-0.2-0.08C1051.19,274.78,1051.17,274.71,1051.17,274.63z"/>
		<path class="st0" d="M1000.51,299.49c-1.04-1.04-1.57-2.31-1.57-3.81s0.53-2.77,1.58-3.82c1.05-1.05,2.32-1.58,3.81-1.58
			c0.63,0,1.27,0.12,1.92,0.38c0.65,0.25,1.23,0.59,1.74,1.04c0.16,0.13,0.17,0.26,0.03,0.4l-1.19,1.26
			c-0.13,0.11-0.27,0.11-0.4,0.01c-0.52-0.48-1.18-0.72-1.97-0.72c-0.81,0-1.5,0.3-2.08,0.89c-0.58,0.59-0.87,1.31-0.87,2.14
			c0,0.82,0.29,1.52,0.87,2.11s1.28,0.88,2.1,0.88c0.49,0,0.94-0.08,1.34-0.24v-0.87h-0.95c-0.08,0-0.15-0.02-0.2-0.07
			c-0.05-0.05-0.08-0.12-0.08-0.2v-1.49c0-0.19,0.1-0.29,0.29-0.29h3.02c0.07,0,0.13,0.03,0.19,0.08c0.05,0.05,0.08,0.12,0.08,0.2
			l0.01,4.04c0,0.1-0.04,0.18-0.12,0.24c-0.12,0.07-0.29,0.16-0.49,0.27c-0.21,0.11-0.64,0.25-1.29,0.44
			c-0.65,0.18-1.29,0.27-1.94,0.27C1002.82,301.05,1001.55,300.53,1000.51,299.49z"/>
		<path class="st0" d="M1021.54,303.35V288c0-0.08,0.03-0.15,0.08-0.2s0.12-0.08,0.2-0.08h0.26c0.08,0,0.14,0.03,0.19,0.08
			c0.05,0.05,0.08,0.12,0.08,0.2v15.34c0,0.07-0.03,0.13-0.08,0.19c-0.06,0.05-0.12,0.08-0.2,0.08h-0.24c-0.08,0-0.15-0.03-0.2-0.08
			S1021.54,303.42,1021.54,303.35z"/>
		<path class="st0" d="M1036.38,296.79c0-0.76,0.12-1.47,0.38-2.14s0.55-1.23,0.92-1.67c0.36-0.45,0.78-0.86,1.27-1.23
			c0.48-0.38,0.91-0.66,1.28-0.85c0.36-0.2,0.73-0.37,1.1-0.52c0.15-0.06,0.26-0.01,0.33,0.15l0.16,0.36c0.09,0.21,0,0.36-0.27,0.44
			c-0.15,0.05-0.35,0.14-0.61,0.28c-0.25,0.13-0.55,0.32-0.89,0.55c-0.34,0.24-0.66,0.49-0.97,0.77c-0.3,0.28-0.59,0.61-0.85,0.99
			s-0.44,0.76-0.54,1.14c0.07-0.05,0.17-0.11,0.31-0.19s0.4-0.17,0.8-0.3c0.4-0.12,0.79-0.19,1.17-0.19c0.88,0,1.64,0.3,2.27,0.9
			c0.63,0.6,0.95,1.38,0.95,2.35c0,0.94-0.33,1.75-0.98,2.42s-1.43,1.01-2.33,1.01c-1.16,0-2.03-0.4-2.62-1.19
			C1036.67,299.09,1036.38,298.06,1036.38,296.79z M1039.87,300.08c0.63,0,1.16-0.24,1.6-0.71c0.43-0.47,0.65-1.03,0.65-1.68
			c0-0.65-0.22-1.2-0.66-1.66c-0.44-0.46-0.97-0.68-1.61-0.68c-0.41,0-0.81,0.08-1.21,0.25c-0.4,0.17-0.69,0.33-0.88,0.49
			l-0.29,0.24c-0.09,0.38-0.1,0.79-0.02,1.22c0.07,0.43,0.19,0.84,0.35,1.21c0.16,0.38,0.42,0.69,0.78,0.94
			S1039.38,300.08,1039.87,300.08z"/>
		<path class="st0" d="M1050.36,300.63v-8.05l-1.08,0.84c-0.13,0.1-0.24,0.09-0.35-0.01l-0.28-0.32c-0.09-0.11-0.08-0.22,0.03-0.33
			l2.1-2.04h0.4c0.07,0,0.13,0.03,0.19,0.08c0.06,0.05,0.08,0.12,0.08,0.2v9.63c0,0.08-0.03,0.15-0.08,0.2
			c-0.05,0.05-0.12,0.08-0.19,0.08h-0.54c-0.08,0-0.15-0.03-0.2-0.08C1050.38,300.78,1050.36,300.71,1050.36,300.63z"/>
		<path class="st0" d="M999.69,326.63v-9.93c0-0.08,0.03-0.15,0.08-0.2c0.06-0.05,0.12-0.08,0.2-0.08h3.5
			c0.89,0,1.65,0.27,2.28,0.81s0.95,1.2,0.95,1.98c0,0.52-0.18,0.99-0.53,1.39c-0.36,0.41-0.76,0.74-1.21,0.98
			c1.34,0.56,2.01,1.38,2.01,2.45c0,0.83-0.32,1.52-0.95,2.07s-1.41,0.83-2.32,0.83h-3.72c-0.08,0-0.15-0.03-0.2-0.08
			C999.71,326.78,999.69,326.71,999.69,326.63z M1002.03,320.68h1.17c0.29,0,0.54-0.1,0.74-0.31c0.2-0.21,0.31-0.46,0.31-0.77
			c0-0.29-0.1-0.53-0.31-0.73c-0.21-0.19-0.45-0.29-0.74-0.29h-1.17V320.68z M1002.03,324.77h1.37c0.29,0,0.54-0.11,0.76-0.32
			c0.21-0.21,0.32-0.47,0.32-0.77c0-0.29-0.13-0.54-0.38-0.74c-0.25-0.21-0.54-0.31-0.85-0.31h-1.21V324.77z"/>
		<path class="st0" d="M1021.39,329.35V314c0-0.08,0.03-0.15,0.08-0.2s0.12-0.08,0.2-0.08h0.26c0.08,0,0.14,0.03,0.2,0.08
			c0.05,0.05,0.07,0.12,0.07,0.2v15.34c0,0.07-0.03,0.13-0.08,0.19s-0.12,0.08-0.2,0.08h-0.24c-0.08,0-0.15-0.03-0.2-0.08
			S1021.39,329.42,1021.39,329.35z"/>
		<path class="st0" d="M1036.36,324.17c0-0.58,0.19-1.09,0.58-1.54c0.38-0.45,0.8-0.77,1.24-0.96v-0.04
			c-0.4-0.18-0.76-0.48-1.07-0.89s-0.47-0.89-0.47-1.42c0-0.82,0.29-1.48,0.87-1.99c0.58-0.5,1.32-0.76,2.22-0.76
			c0.91,0,1.66,0.25,2.24,0.76c0.59,0.5,0.88,1.17,0.88,1.99c0,0.53-0.16,1-0.47,1.42c-0.32,0.42-0.67,0.71-1.07,0.89v0.04
			c0.44,0.19,0.85,0.51,1.24,0.96s0.58,0.96,0.58,1.54c0,0.84-0.31,1.53-0.92,2.08c-0.62,0.55-1.44,0.82-2.48,0.82
			c-1.01,0-1.82-0.27-2.43-0.82C1036.67,325.71,1036.36,325.01,1036.36,324.17z M1037.49,324.28c0,0.56,0.22,1.01,0.65,1.36
			c0.44,0.35,0.96,0.53,1.57,0.53c0.66,0,1.2-0.17,1.63-0.51c0.43-0.34,0.64-0.8,0.64-1.38c0-0.49-0.21-0.93-0.62-1.33
			c-0.41-0.39-0.96-0.63-1.63-0.7c-0.69,0.07-1.24,0.3-1.64,0.7C1037.69,323.35,1037.49,323.79,1037.49,324.28z M1039.74,321.14
			c0.66-0.07,1.16-0.26,1.49-0.58s0.5-0.72,0.5-1.21c0-0.56-0.19-1.02-0.58-1.37c-0.38-0.35-0.88-0.53-1.48-0.53
			c-0.55,0-1.01,0.18-1.38,0.53c-0.37,0.36-0.56,0.81-0.56,1.36c0,0.49,0.17,0.89,0.5,1.21S1039.07,321.08,1039.74,321.14z"/>
		<path class="st0" d="M1050.76,326.63v-8.05l-1.08,0.84c-0.13,0.1-0.25,0.09-0.35-0.01l-0.29-0.32c-0.09-0.11-0.08-0.22,0.03-0.33
			l2.1-2.04h0.4c0.07,0,0.13,0.03,0.19,0.08s0.08,0.12,0.08,0.2v9.63c0,0.08-0.03,0.15-0.08,0.2c-0.05,0.05-0.12,0.08-0.19,0.08
			h-0.54c-0.08,0-0.15-0.03-0.2-0.08C1050.79,326.78,1050.76,326.71,1050.76,326.63z"/>
		<path class="st0" d="M1000.51,377.5c-1.05-1.04-1.58-2.32-1.58-3.82s0.53-2.78,1.58-3.83s2.33-1.58,3.83-1.58
			c1.4,0,2.61,0.47,3.63,1.4c0.15,0.14,0.15,0.28,0.01,0.42l-1.17,1.21c-0.13,0.12-0.25,0.12-0.38,0c-0.57-0.51-1.24-0.76-2.03-0.76
			c-0.84,0-1.54,0.3-2.1,0.91c-0.56,0.61-0.84,1.33-0.84,2.18c0,0.84,0.28,1.56,0.85,2.15s1.27,0.89,2.11,0.89
			c0.78,0,1.45-0.24,2.01-0.72c0.14-0.12,0.27-0.12,0.39,0.01l1.17,1.25c0.13,0.13,0.12,0.26-0.02,0.41c-1,0.97-2.21,1.46-3.64,1.46
			C1002.84,379.07,1001.56,378.55,1000.51,377.5z"/>
		<path class="st0" d="M1021.71,381.35V366c0-0.08,0.03-0.15,0.08-0.2s0.12-0.08,0.2-0.08h0.26c0.08,0,0.14,0.03,0.19,0.08
			c0.05,0.05,0.08,0.12,0.08,0.2v15.34c0,0.07-0.03,0.13-0.08,0.19c-0.06,0.05-0.12,0.08-0.2,0.08h-0.24c-0.08,0-0.15-0.03-0.2-0.08
			S1021.71,381.42,1021.71,381.35z"/>
		<path class="st0" d="M1036.68,376.17c0-0.58,0.19-1.09,0.58-1.54c0.38-0.45,0.8-0.77,1.24-0.96v-0.04
			c-0.4-0.18-0.76-0.48-1.07-0.89s-0.47-0.89-0.47-1.42c0-0.82,0.29-1.48,0.87-1.99c0.58-0.5,1.32-0.76,2.22-0.76
			c0.91,0,1.66,0.25,2.24,0.76c0.59,0.5,0.88,1.17,0.88,1.99c0,0.53-0.16,1-0.47,1.42c-0.32,0.42-0.67,0.71-1.07,0.89v0.04
			c0.44,0.19,0.85,0.51,1.24,0.96s0.58,0.96,0.58,1.54c0,0.84-0.31,1.53-0.92,2.08c-0.62,0.55-1.44,0.82-2.48,0.82
			c-1.01,0-1.82-0.27-2.43-0.82C1036.98,377.71,1036.68,377.01,1036.68,376.17z M1037.8,376.28c0,0.56,0.22,1.01,0.65,1.36
			c0.44,0.35,0.96,0.53,1.57,0.53c0.66,0,1.2-0.17,1.63-0.51c0.43-0.34,0.64-0.8,0.64-1.38c0-0.49-0.21-0.93-0.62-1.33
			c-0.41-0.39-0.96-0.63-1.63-0.7c-0.69,0.07-1.24,0.3-1.64,0.7C1038.01,375.35,1037.8,375.79,1037.8,376.28z M1040.05,373.14
			c0.66-0.07,1.16-0.26,1.49-0.58s0.5-0.72,0.5-1.21c0-0.56-0.19-1.02-0.58-1.37c-0.38-0.35-0.88-0.53-1.48-0.53
			c-0.55,0-1.01,0.18-1.38,0.53c-0.37,0.36-0.56,0.81-0.56,1.36c0,0.49,0.17,0.89,0.5,1.21S1039.38,373.08,1040.05,373.14z"/>
		<path class="st0" d="M1049.85,377.82c-0.17-0.19-0.18-0.36-0.03-0.51c0.04-0.03,0.1-0.08,0.17-0.16c0.07-0.08,0.13-0.13,0.17-0.17
			c0.15-0.13,0.28-0.12,0.38,0.01c0.09,0.13,0.2,0.26,0.34,0.4s0.38,0.29,0.73,0.46c0.36,0.17,0.74,0.26,1.15,0.26
			c0.69,0,1.25-0.25,1.7-0.76c0.44-0.5,0.66-1.07,0.66-1.7c0-0.62-0.2-1.14-0.61-1.55c-0.4-0.41-0.99-0.61-1.75-0.61h-2.28
			c-0.14,0-0.25-0.05-0.34-0.17c-0.09-0.11-0.13-0.23-0.13-0.36V369c0-0.08,0.03-0.15,0.08-0.2c0.05-0.05,0.12-0.08,0.2-0.08h4.53
			c0.08,0,0.15,0.03,0.2,0.08s0.08,0.12,0.08,0.2v0.43c0,0.08-0.03,0.15-0.08,0.2s-0.12,0.08-0.2,0.08h-3.81v2.76h1.74
			c1.12,0,1.98,0.28,2.57,0.83c0.59,0.55,0.89,1.33,0.89,2.32c0,0.95-0.33,1.76-0.99,2.43c-0.66,0.67-1.49,1.01-2.49,1.01
			C1051.5,379.07,1050.54,378.65,1049.85,377.82z"/>
		<path class="st0" d="M1065.32,371.71c-0.4,0.39-0.87,0.59-1.43,0.59c-0.56,0-1.04-0.2-1.43-0.59c-0.39-0.4-0.59-0.87-0.59-1.43
			c0-0.56,0.2-1.04,0.59-1.43c0.39-0.4,0.87-0.59,1.43-0.59c0.56,0,1.04,0.2,1.43,0.59c0.39,0.39,0.59,0.87,0.59,1.43
			C1065.91,370.84,1065.71,371.32,1065.32,371.71z M1063.89,371.45c0.31,0,0.58-0.11,0.8-0.34c0.22-0.22,0.34-0.5,0.34-0.83
			c0-0.31-0.11-0.58-0.34-0.8c-0.22-0.23-0.49-0.34-0.8-0.34c-0.33,0-0.61,0.11-0.83,0.34c-0.22,0.22-0.34,0.49-0.34,0.8
			c0,0.33,0.11,0.61,0.34,0.83C1063.28,371.34,1063.56,371.45,1063.89,371.45z M1063.26,378.51l5.14-9.94
			c0.06-0.1,0.14-0.15,0.26-0.15h0.24c0.11,0,0.19,0.04,0.25,0.13s0.06,0.18,0.01,0.28l-5.18,9.94c-0.05,0.1-0.13,0.15-0.25,0.15
			h-0.21c-0.11,0-0.19-0.04-0.25-0.13C1063.21,378.71,1063.21,378.61,1063.26,378.51z M1067.19,378.49
			c-0.4-0.39-0.59-0.87-0.59-1.43c0-0.56,0.2-1.04,0.59-1.43c0.39-0.39,0.87-0.59,1.43-0.59s1.04,0.2,1.43,0.59
			c0.39,0.4,0.59,0.87,0.59,1.43c0,0.56-0.2,1.04-0.59,1.43c-0.4,0.4-0.87,0.59-1.43,0.59S1067.59,378.89,1067.19,378.49z
			 M1067.46,377.06c0,0.33,0.11,0.61,0.34,0.83c0.22,0.22,0.5,0.34,0.83,0.34c0.31,0,0.58-0.11,0.8-0.34
			c0.22-0.23,0.34-0.5,0.34-0.83c0-0.31-0.11-0.58-0.34-0.8c-0.22-0.23-0.49-0.34-0.8-0.34c-0.33,0-0.61,0.11-0.83,0.34
			C1067.57,376.48,1067.46,376.75,1067.46,377.06z"/>
		<path class="st0" d="M999.03,404.59l1.7-10.08c0.02-0.16,0.11-0.24,0.27-0.24h0.24c0.12,0,0.21,0.05,0.26,0.15l3.48,6.48h0.03
			l3.48-6.48c0.05-0.1,0.13-0.15,0.25-0.15h0.24c0.16,0,0.25,0.08,0.27,0.24l1.7,10.08c0.01,0.1-0.01,0.18-0.07,0.24
			c-0.06,0.06-0.13,0.09-0.22,0.09h-1.77c-0.07,0-0.13-0.02-0.19-0.08c-0.05-0.05-0.09-0.1-0.1-0.17l-0.67-4.63h-0.03l-2.52,4.86
			c-0.05,0.11-0.13,0.17-0.26,0.17h-0.27c-0.12,0-0.21-0.06-0.25-0.17l-2.54-4.86h-0.03l-0.66,4.63c-0.02,0.16-0.12,0.24-0.29,0.24
			h-1.77c-0.09,0-0.16-0.03-0.22-0.09C999.04,404.77,999.02,404.69,999.03,404.59z"/>
		<path class="st0" d="M1021.78,407.35V392c0-0.08,0.03-0.15,0.08-0.2s0.12-0.08,0.2-0.08h0.26c0.08,0,0.14,0.03,0.2,0.08
			c0.05,0.05,0.07,0.12,0.07,0.2v15.34c0,0.07-0.03,0.13-0.08,0.19s-0.12,0.08-0.2,0.08h-0.24c-0.08,0-0.15-0.03-0.2-0.08
			S1021.78,407.42,1021.78,407.35z"/>
		<path class="st0" d="M1036.62,400.79c0-0.76,0.12-1.47,0.38-2.14s0.55-1.23,0.92-1.67c0.36-0.45,0.78-0.86,1.27-1.23
			c0.48-0.38,0.91-0.66,1.28-0.85c0.36-0.2,0.73-0.37,1.1-0.52c0.15-0.06,0.26-0.01,0.33,0.15l0.16,0.36c0.09,0.21,0,0.36-0.27,0.44
			c-0.15,0.05-0.35,0.14-0.61,0.28c-0.25,0.13-0.55,0.32-0.89,0.55c-0.34,0.24-0.66,0.49-0.97,0.77c-0.3,0.28-0.59,0.61-0.85,0.99
			s-0.44,0.76-0.54,1.14c0.07-0.05,0.17-0.11,0.31-0.19s0.4-0.17,0.8-0.3c0.4-0.12,0.79-0.19,1.17-0.19c0.88,0,1.64,0.3,2.27,0.9
			c0.63,0.6,0.95,1.38,0.95,2.35c0,0.94-0.33,1.75-0.98,2.42s-1.43,1.01-2.33,1.01c-1.16,0-2.03-0.4-2.62-1.19
			C1036.91,403.09,1036.62,402.06,1036.62,400.79z M1040.11,404.08c0.63,0,1.16-0.24,1.6-0.71c0.43-0.47,0.65-1.03,0.65-1.68
			c0-0.65-0.22-1.2-0.66-1.66c-0.44-0.46-0.97-0.68-1.61-0.68c-0.41,0-0.81,0.08-1.21,0.25c-0.4,0.17-0.69,0.33-0.88,0.49
			l-0.29,0.24c-0.09,0.38-0.1,0.79-0.02,1.22c0.07,0.43,0.19,0.84,0.35,1.21c0.16,0.38,0.42,0.69,0.78,0.94
			S1039.62,404.08,1040.11,404.08z"/>
		<path class="st0" d="M1049.17,403.73c-0.12-0.14-0.12-0.26,0.02-0.36l0.4-0.34c0.15-0.11,0.29-0.08,0.41,0.07
			c0.09,0.11,0.21,0.23,0.35,0.35c0.14,0.13,0.4,0.27,0.76,0.44s0.73,0.25,1.12,0.25c0.6,0,1.11-0.17,1.53-0.51s0.63-0.79,0.63-1.37
			c0-0.56-0.22-1.03-0.67-1.4s-1.11-0.56-1.99-0.56h-0.84c-0.19,0-0.29-0.11-0.29-0.33v-0.36c0-0.22,0.11-0.33,0.32-0.33h0.82
			c0.77,0,1.36-0.17,1.77-0.52c0.41-0.35,0.62-0.78,0.62-1.3c0-0.58-0.19-1.04-0.57-1.39c-0.38-0.34-0.84-0.52-1.39-0.52
			c-0.74,0-1.39,0.33-1.96,0.98c-0.12,0.14-0.25,0.15-0.39,0.03l-0.36-0.28c-0.14-0.12-0.14-0.25,0-0.39
			c0.03-0.04,0.07-0.09,0.13-0.14c0.05-0.05,0.18-0.16,0.36-0.31c0.18-0.16,0.38-0.29,0.57-0.41c0.19-0.12,0.44-0.22,0.74-0.31
			c0.3-0.1,0.6-0.14,0.91-0.14c0.92,0,1.67,0.25,2.24,0.75c0.57,0.5,0.85,1.17,0.85,1.99c0,0.53-0.16,1.01-0.48,1.45
			c-0.32,0.43-0.68,0.74-1.07,0.92v0.04c0.45,0.19,0.86,0.5,1.24,0.92s0.56,0.93,0.56,1.51c0,0.84-0.3,1.54-0.91,2.08
			s-1.41,0.83-2.42,0.83C1050.96,405.07,1049.95,404.62,1049.17,403.73z"/>
		<path class="st0" d="M1064.93,397.71c-0.4,0.39-0.87,0.59-1.43,0.59c-0.56,0-1.04-0.2-1.43-0.59c-0.39-0.4-0.59-0.87-0.59-1.43
			c0-0.56,0.2-1.04,0.59-1.43c0.39-0.4,0.87-0.59,1.43-0.59c0.56,0,1.04,0.2,1.43,0.59c0.39,0.39,0.59,0.87,0.59,1.43
			C1065.52,396.84,1065.32,397.32,1064.93,397.71z M1063.5,397.45c0.31,0,0.58-0.11,0.8-0.34c0.22-0.22,0.34-0.5,0.34-0.83
			c0-0.31-0.11-0.58-0.34-0.8c-0.22-0.23-0.49-0.34-0.8-0.34c-0.33,0-0.61,0.11-0.83,0.34c-0.22,0.22-0.34,0.49-0.34,0.8
			c0,0.33,0.11,0.61,0.34,0.83C1062.89,397.34,1063.17,397.45,1063.5,397.45z M1062.87,404.51l5.14-9.94
			c0.06-0.1,0.14-0.15,0.26-0.15h0.24c0.11,0,0.19,0.04,0.25,0.13s0.06,0.18,0.01,0.28l-5.18,9.94c-0.05,0.1-0.13,0.15-0.25,0.15
			h-0.21c-0.11,0-0.19-0.04-0.25-0.13C1062.82,404.71,1062.82,404.61,1062.87,404.51z M1066.8,404.49c-0.4-0.39-0.59-0.87-0.59-1.43
			c0-0.56,0.2-1.04,0.59-1.43c0.39-0.39,0.87-0.59,1.43-0.59s1.04,0.2,1.43,0.59c0.39,0.4,0.59,0.87,0.59,1.43
			c0,0.56-0.2,1.04-0.59,1.43c-0.4,0.4-0.87,0.59-1.43,0.59S1067.2,404.89,1066.8,404.49z M1067.07,403.06
			c0,0.33,0.11,0.61,0.34,0.83c0.22,0.22,0.5,0.34,0.83,0.34c0.31,0,0.58-0.11,0.8-0.34c0.22-0.23,0.34-0.5,0.34-0.83
			c0-0.31-0.11-0.58-0.34-0.8c-0.22-0.23-0.49-0.34-0.8-0.34c-0.33,0-0.61,0.11-0.83,0.34
			C1067.18,402.48,1067.07,402.75,1067.07,403.06z"/>
		<path class="st0" d="M1001.62,430.63v-4.77l-3.31-5.01c-0.06-0.1-0.07-0.2-0.02-0.29s0.13-0.14,0.26-0.14h1.95
			c0.09,0,0.17,0.04,0.24,0.13l2.08,3.08l2.09-3.08c0.07-0.09,0.15-0.13,0.24-0.13h1.95c0.12,0,0.21,0.05,0.26,0.14
			c0.05,0.09,0.04,0.19-0.02,0.29l-3.36,5v4.79c0,0.07-0.03,0.13-0.09,0.2c-0.06,0.06-0.12,0.09-0.2,0.09h-1.79
			c-0.08,0-0.15-0.03-0.2-0.08C1001.65,430.78,1001.62,430.71,1001.62,430.63z"/>
		<path class="st0" d="M1021.66,433.35V418c0-0.08,0.03-0.15,0.08-0.2s0.12-0.08,0.2-0.08h0.26c0.08,0,0.14,0.03,0.19,0.08
			c0.05,0.05,0.08,0.12,0.08,0.2v15.34c0,0.07-0.03,0.13-0.08,0.19c-0.06,0.05-0.12,0.08-0.2,0.08h-0.24c-0.08,0-0.15-0.03-0.2-0.08
			S1021.66,433.42,1021.66,433.35z"/>
		<path class="st0" d="M1036.23,428.61c-0.08,0-0.15-0.03-0.2-0.08s-0.08-0.12-0.08-0.2v-0.56l5.68-7.12
			c0.06-0.06,0.13-0.09,0.23-0.09h0.3c0.08,0,0.15,0.03,0.2,0.08s0.08,0.12,0.08,0.2l0.02,6.86h1.21c0.08,0,0.15,0.02,0.2,0.07
			c0.05,0.05,0.08,0.12,0.08,0.2v0.33c0,0.08-0.03,0.15-0.08,0.2c-0.06,0.06-0.12,0.08-0.2,0.08h-1.21v2.05
			c0,0.07-0.03,0.13-0.09,0.2c-0.06,0.06-0.12,0.09-0.2,0.09h-0.51c-0.07,0-0.13-0.03-0.2-0.09c-0.06-0.06-0.09-0.12-0.09-0.2v-2.02
			H1036.23z M1037.2,427.68h4.23v-5.22L1037.2,427.68z"/>
		<path class="st0" d="M1049.62,430.63v-0.45c0.41-0.44,1.02-1.1,1.84-1.99c0.81-0.88,1.43-1.55,1.84-1.99
			c1.01-1.1,1.52-2,1.52-2.71c0-0.5-0.17-0.94-0.52-1.33c-0.35-0.38-0.87-0.58-1.58-0.58c-0.72,0-1.43,0.38-2.13,1.12
			c-0.14,0.13-0.28,0.13-0.4,0l-0.3-0.29c-0.12-0.14-0.12-0.27-0.01-0.39c0.03-0.04,0.07-0.09,0.13-0.16
			c0.05-0.07,0.17-0.18,0.36-0.35s0.38-0.32,0.59-0.45s0.47-0.25,0.79-0.35c0.32-0.11,0.65-0.16,0.98-0.16
			c1.02,0,1.81,0.28,2.38,0.84c0.57,0.56,0.86,1.25,0.86,2.05c0,0.6-0.16,1.15-0.46,1.64c-0.31,0.5-0.78,1.08-1.41,1.76
			c-0.32,0.34-0.8,0.85-1.44,1.54c-0.64,0.69-1.12,1.2-1.44,1.54h4.41c0.07,0,0.13,0.03,0.2,0.08s0.09,0.12,0.09,0.2v0.41
			c0,0.07-0.03,0.13-0.09,0.2c-0.06,0.06-0.12,0.09-0.2,0.09h-5.7c-0.08,0-0.15-0.03-0.2-0.08
			C1049.65,430.78,1049.62,430.71,1049.62,430.63z"/>
		<path class="st0" d="M1065.26,423.71c-0.39,0.39-0.87,0.59-1.43,0.59s-1.04-0.2-1.43-0.59c-0.39-0.4-0.59-0.87-0.59-1.43
			c0-0.56,0.2-1.04,0.59-1.43c0.4-0.4,0.87-0.59,1.43-0.59s1.04,0.2,1.43,0.59c0.39,0.39,0.59,0.87,0.59,1.43
			C1065.85,422.84,1065.65,423.32,1065.26,423.71z M1063.83,423.45c0.31,0,0.58-0.11,0.8-0.34c0.22-0.22,0.34-0.5,0.34-0.83
			c0-0.31-0.11-0.58-0.34-0.8c-0.22-0.23-0.49-0.34-0.8-0.34c-0.33,0-0.61,0.11-0.83,0.34c-0.23,0.22-0.34,0.49-0.34,0.8
			c0,0.33,0.11,0.61,0.34,0.83C1063.22,423.34,1063.5,423.45,1063.83,423.45z M1063.2,430.51l5.15-9.94
			c0.06-0.1,0.14-0.15,0.25-0.15h0.24c0.11,0,0.19,0.04,0.25,0.13c0.05,0.08,0.06,0.18,0.01,0.28l-5.18,9.94
			c-0.05,0.1-0.13,0.15-0.26,0.15h-0.21c-0.11,0-0.19-0.04-0.25-0.13C1063.15,430.71,1063.15,430.61,1063.2,430.51z M1067.13,430.49
			c-0.39-0.39-0.59-0.87-0.59-1.43c0-0.56,0.2-1.04,0.59-1.43c0.39-0.39,0.87-0.59,1.43-0.59c0.56,0,1.04,0.2,1.43,0.59
			c0.39,0.4,0.59,0.87,0.59,1.43c0,0.56-0.2,1.04-0.59,1.43c-0.39,0.4-0.87,0.59-1.43,0.59
			C1068.01,431.08,1067.53,430.89,1067.13,430.49z M1067.4,429.06c0,0.33,0.11,0.61,0.34,0.83c0.23,0.22,0.5,0.34,0.83,0.34
			c0.31,0,0.58-0.11,0.8-0.34c0.22-0.23,0.34-0.5,0.34-0.83c0-0.31-0.11-0.58-0.34-0.8c-0.23-0.23-0.49-0.34-0.8-0.34
			c-0.33,0-0.61,0.11-0.83,0.34C1067.51,428.48,1067.4,428.75,1067.4,429.06z"/>
		<path class="st0" d="M999.69,456.56v-9.78c0-0.1,0.04-0.19,0.11-0.25c0.07-0.07,0.15-0.11,0.26-0.11h1.75
			c0.1,0,0.19,0.04,0.26,0.11c0.07,0.07,0.1,0.15,0.1,0.25v3.94l3.33-4.15c0.08-0.1,0.18-0.15,0.29-0.15h1.89
			c0.14,0,0.24,0.07,0.3,0.2c0.06,0.13,0.05,0.25-0.03,0.36l-3.51,4.4l3.83,4.98c0.08,0.11,0.09,0.23,0.02,0.36s-0.17,0.2-0.31,0.2
			h-2.07c-0.13,0-0.22-0.04-0.27-0.11l-3.47-4.71v4.47c0,0.1-0.04,0.19-0.1,0.25c-0.07,0.07-0.16,0.11-0.26,0.11h-1.75
			c-0.1,0-0.19-0.04-0.26-0.11C999.72,456.74,999.69,456.66,999.69,456.56z"/>
		<path class="st0" d="M1021.71,459.35V444c0-0.08,0.03-0.15,0.08-0.2s0.12-0.08,0.2-0.08h0.26c0.08,0,0.14,0.03,0.19,0.08
			c0.05,0.05,0.08,0.12,0.08,0.2v15.34c0,0.07-0.03,0.13-0.08,0.19c-0.06,0.05-0.12,0.08-0.2,0.08h-0.24c-0.08,0-0.15-0.03-0.2-0.08
			S1021.71,459.42,1021.71,459.35z"/>
		<path class="st0" d="M1036.45,455.73c-0.12-0.14-0.12-0.26,0.01-0.36l0.41-0.34c0.15-0.11,0.29-0.08,0.4,0.07
			c0.09,0.11,0.21,0.23,0.35,0.35c0.14,0.13,0.4,0.27,0.76,0.44c0.36,0.17,0.74,0.25,1.12,0.25c0.6,0,1.11-0.17,1.53-0.51
			s0.63-0.79,0.63-1.37c0-0.56-0.22-1.03-0.67-1.4c-0.45-0.38-1.11-0.56-1.99-0.56h-0.84c-0.19,0-0.29-0.11-0.29-0.33v-0.36
			c0-0.22,0.11-0.33,0.31-0.33h0.83c0.77,0,1.36-0.17,1.77-0.52c0.41-0.35,0.62-0.78,0.62-1.3c0-0.58-0.19-1.04-0.57-1.39
			c-0.38-0.34-0.85-0.52-1.39-0.52c-0.74,0-1.4,0.33-1.96,0.98c-0.12,0.14-0.25,0.15-0.39,0.03l-0.36-0.28
			c-0.14-0.12-0.14-0.25,0-0.39c0.03-0.04,0.07-0.09,0.13-0.14c0.05-0.05,0.17-0.16,0.36-0.31s0.38-0.29,0.57-0.41
			s0.44-0.22,0.74-0.31c0.3-0.1,0.61-0.14,0.92-0.14c0.92,0,1.66,0.25,2.23,0.75s0.86,1.17,0.86,1.99c0,0.53-0.16,1.01-0.48,1.45
			c-0.32,0.43-0.68,0.74-1.06,0.92v0.04c0.45,0.19,0.86,0.5,1.24,0.92s0.56,0.93,0.56,1.51c0,0.84-0.3,1.54-0.91,2.08
			c-0.61,0.55-1.41,0.83-2.42,0.83C1038.24,457.07,1037.23,456.62,1036.45,455.73z"/>
		<path class="st0" d="M1049.23,455.82c-0.17-0.19-0.18-0.36-0.03-0.51c0.04-0.03,0.1-0.08,0.17-0.16c0.07-0.08,0.13-0.13,0.17-0.17
			c0.15-0.13,0.28-0.12,0.38,0.01c0.09,0.13,0.2,0.26,0.34,0.4s0.38,0.29,0.73,0.46c0.36,0.17,0.74,0.26,1.15,0.26
			c0.69,0,1.25-0.25,1.7-0.76c0.44-0.5,0.66-1.07,0.66-1.7c0-0.62-0.2-1.14-0.61-1.55c-0.4-0.41-0.99-0.61-1.75-0.61h-2.28
			c-0.14,0-0.25-0.05-0.34-0.17c-0.09-0.11-0.13-0.23-0.13-0.36V447c0-0.08,0.03-0.15,0.08-0.2c0.05-0.05,0.12-0.08,0.2-0.08h4.53
			c0.08,0,0.15,0.03,0.2,0.08s0.08,0.12,0.08,0.2v0.43c0,0.08-0.03,0.15-0.08,0.2s-0.12,0.08-0.2,0.08h-3.81v2.76h1.74
			c1.12,0,1.98,0.28,2.57,0.83c0.59,0.55,0.89,1.33,0.89,2.32c0,0.95-0.33,1.76-0.99,2.43c-0.66,0.67-1.49,1.01-2.49,1.01
			C1050.89,457.07,1049.92,456.65,1049.23,455.82z"/>
		<path class="st0" d="M1064.7,449.71c-0.4,0.39-0.87,0.59-1.43,0.59c-0.56,0-1.04-0.2-1.43-0.59c-0.39-0.4-0.59-0.87-0.59-1.43
			c0-0.56,0.2-1.04,0.59-1.43c0.39-0.4,0.87-0.59,1.43-0.59c0.56,0,1.04,0.2,1.43,0.59c0.39,0.39,0.59,0.87,0.59,1.43
			C1065.3,448.84,1065.1,449.32,1064.7,449.71z M1063.27,449.45c0.31,0,0.58-0.11,0.8-0.34c0.22-0.22,0.34-0.5,0.34-0.83
			c0-0.31-0.11-0.58-0.34-0.8c-0.22-0.23-0.49-0.34-0.8-0.34c-0.33,0-0.61,0.11-0.83,0.34c-0.22,0.22-0.34,0.49-0.34,0.8
			c0,0.33,0.11,0.61,0.34,0.83C1062.66,449.34,1062.94,449.45,1063.27,449.45z M1062.64,456.51l5.14-9.94
			c0.06-0.1,0.14-0.15,0.26-0.15h0.24c0.11,0,0.19,0.04,0.25,0.13s0.06,0.18,0.01,0.28l-5.18,9.94c-0.05,0.1-0.13,0.15-0.25,0.15
			h-0.21c-0.11,0-0.19-0.04-0.25-0.13C1062.59,456.71,1062.59,456.61,1062.64,456.51z M1066.58,456.49
			c-0.4-0.39-0.59-0.87-0.59-1.43c0-0.56,0.2-1.04,0.59-1.43c0.39-0.39,0.87-0.59,1.43-0.59s1.04,0.2,1.43,0.59
			c0.39,0.4,0.59,0.87,0.59,1.43c0,0.56-0.2,1.04-0.59,1.43c-0.4,0.4-0.87,0.59-1.43,0.59S1066.97,456.89,1066.58,456.49z
			 M1066.84,455.06c0,0.33,0.11,0.61,0.34,0.83c0.22,0.22,0.5,0.34,0.83,0.34c0.31,0,0.58-0.11,0.8-0.34
			c0.22-0.23,0.34-0.5,0.34-0.83c0-0.31-0.11-0.58-0.34-0.8c-0.22-0.23-0.49-0.34-0.8-0.34c-0.33,0-0.61,0.11-0.83,0.34
			C1066.95,454.48,1066.84,454.75,1066.84,455.06z"/>
	</g>
	<g>
		<path class="st0" d="M999.69,594.22v-9.93c0-0.07,0.03-0.13,0.09-0.2c0.06-0.06,0.12-0.09,0.2-0.09h1.79
			c0.08,0,0.15,0.03,0.2,0.08c0.05,0.06,0.08,0.12,0.08,0.2v3.78h4.29v-3.78c0-0.08,0.03-0.15,0.08-0.2
			c0.05-0.05,0.12-0.08,0.2-0.08h1.79c0.07,0,0.13,0.03,0.2,0.09c0.06,0.06,0.09,0.12,0.09,0.2v9.93c0,0.07-0.03,0.13-0.09,0.2
			c-0.06,0.06-0.12,0.09-0.2,0.09h-1.79c-0.08,0-0.15-0.03-0.2-0.08c-0.05-0.06-0.08-0.12-0.08-0.2v-3.95h-4.29v3.95
			c0,0.08-0.03,0.15-0.08,0.2c-0.05,0.05-0.12,0.08-0.2,0.08h-1.79c-0.07,0-0.13-0.03-0.2-0.09
			C999.72,594.36,999.69,594.29,999.69,594.22z"/>
		<path class="st0" d="M1015.77,594.22v-9.93c0-0.08,0.03-0.15,0.08-0.2c0.06-0.05,0.12-0.08,0.2-0.08h6.21
			c0.08,0,0.15,0.03,0.2,0.08c0.05,0.06,0.08,0.12,0.08,0.2v1.63c0,0.08-0.03,0.15-0.08,0.2c-0.05,0.06-0.12,0.08-0.2,0.08h-4.16
			v1.86h3.42c0.08,0,0.15,0.03,0.2,0.08s0.08,0.12,0.08,0.2v1.64c0,0.08-0.03,0.15-0.08,0.2s-0.12,0.08-0.2,0.08h-3.42v2.03h4.16
			c0.08,0,0.15,0.03,0.2,0.08c0.05,0.05,0.08,0.12,0.08,0.2v1.63c0,0.08-0.03,0.15-0.08,0.2c-0.05,0.05-0.12,0.08-0.2,0.08h-6.21
			c-0.08,0-0.15-0.03-0.2-0.08C1015.79,594.37,1015.77,594.3,1015.77,594.22z"/>
		<path class="st0" d="M1028.13,594.09l3.15-4.96l-3.03-4.7c-0.06-0.1-0.06-0.2-0.02-0.29c0.05-0.09,0.14-0.13,0.27-0.13h2.19
			c0.09,0,0.17,0.04,0.24,0.13l1.72,2.79h0.02l1.75-2.79c0.04-0.09,0.12-0.13,0.24-0.13h2.19c0.13,0,0.22,0.04,0.28,0.13
			s0.05,0.19-0.02,0.29l-3.04,4.7l3.15,4.96c0.07,0.1,0.08,0.2,0.02,0.29s-0.14,0.13-0.26,0.13h-2.09c-0.12,0-0.21-0.04-0.25-0.13
			l-1.96-3.03h-0.03l-1.92,3.03c-0.07,0.09-0.15,0.13-0.25,0.13h-2.09c-0.13,0-0.22-0.04-0.28-0.13S1028.06,594.19,1028.13,594.09z"
			/>
		<path class="st0" d="M1050.81,596.94v-15.34c0-0.08,0.03-0.15,0.08-0.2s0.12-0.08,0.2-0.08h0.26c0.08,0,0.14,0.03,0.2,0.08
			c0.05,0.05,0.07,0.12,0.07,0.2v15.34c0,0.07-0.03,0.13-0.08,0.19s-0.12,0.08-0.2,0.08h-0.24c-0.08,0-0.15-0.03-0.2-0.08
			S1050.81,597.01,1050.81,596.94z"/>
		<path class="st0" d="M1066.44,594.18l0.38-2.59h-1.05c-0.08,0-0.15-0.03-0.2-0.08c-0.06-0.05-0.08-0.12-0.08-0.2v-0.11
			c0-0.19,0.1-0.28,0.29-0.28h1.16l0.36-2.57h-1.08c-0.08,0-0.15-0.03-0.2-0.08c-0.05-0.06-0.08-0.12-0.08-0.2v-0.1
			c0-0.07,0.03-0.14,0.08-0.2s0.12-0.09,0.2-0.09h1.17l0.48-3.42c0.01-0.06,0.04-0.12,0.09-0.17c0.05-0.05,0.11-0.08,0.18-0.08h0.11
			c0.08,0,0.15,0.03,0.2,0.1c0.06,0.07,0.08,0.14,0.07,0.23l-0.45,3.33h2.26l0.46-3.42c0.01-0.06,0.04-0.12,0.1-0.17
			s0.12-0.08,0.19-0.08h0.09c0.09,0,0.16,0.03,0.22,0.1s0.08,0.14,0.07,0.23l-0.45,3.33h1.05c0.08,0,0.15,0.03,0.2,0.08
			c0.05,0.06,0.08,0.12,0.08,0.2v0.1c0,0.19-0.08,0.29-0.25,0.29h-1.17l-0.36,2.57h1.07c0.08,0,0.15,0.03,0.2,0.08
			c0.06,0.05,0.08,0.12,0.08,0.2v0.11c0,0.08-0.03,0.15-0.08,0.2c-0.05,0.06-0.11,0.08-0.18,0.08h-1.2l-0.39,2.68
			c-0.02,0.16-0.12,0.24-0.29,0.24h-0.09c-0.09,0-0.16-0.03-0.22-0.1c-0.06-0.06-0.08-0.14-0.07-0.23l0.39-2.59h-2.29l-0.38,2.68
			c-0.02,0.16-0.12,0.24-0.29,0.24h-0.09c-0.1,0-0.18-0.03-0.23-0.1C1066.43,594.35,1066.42,594.27,1066.44,594.18z M1067.58,590.91
			h2.29l0.34-2.57h-2.26L1067.58,590.91z"/>
		<path class="st0" d="M1079.01,594.22v-9.93c0-0.08,0.03-0.15,0.08-0.2c0.05-0.05,0.12-0.08,0.2-0.08h5.91
			c0.08,0,0.15,0.03,0.2,0.08c0.05,0.06,0.08,0.12,0.08,0.2v0.43c0,0.08-0.03,0.15-0.08,0.2c-0.05,0.05-0.12,0.08-0.2,0.08h-5.04
			v4.11h4.3c0.08,0,0.15,0.03,0.2,0.08c0.05,0.06,0.08,0.12,0.08,0.2v0.43c0,0.07-0.03,0.13-0.08,0.2c-0.05,0.06-0.12,0.09-0.2,0.09
			h-4.3v4.09c0,0.07-0.03,0.13-0.08,0.2c-0.05,0.06-0.12,0.09-0.2,0.09h-0.58c-0.08,0-0.15-0.03-0.2-0.08
			C1079.03,594.37,1079.01,594.3,1079.01,594.22z"/>
		<path class="st0" d="M1091.52,593.41c-0.17-0.19-0.18-0.36-0.03-0.51c0.04-0.03,0.1-0.08,0.17-0.16c0.07-0.08,0.13-0.13,0.17-0.17
			c0.15-0.13,0.28-0.12,0.38,0.01c0.09,0.13,0.2,0.26,0.34,0.4s0.38,0.29,0.73,0.46c0.36,0.17,0.74,0.26,1.15,0.26
			c0.69,0,1.25-0.25,1.7-0.76c0.44-0.5,0.66-1.07,0.66-1.7c0-0.62-0.2-1.14-0.61-1.55c-0.4-0.41-0.99-0.61-1.75-0.61h-2.28
			c-0.14,0-0.25-0.05-0.34-0.17c-0.09-0.11-0.13-0.23-0.13-0.36v-3.96c0-0.08,0.03-0.15,0.08-0.2c0.05-0.05,0.12-0.08,0.2-0.08h4.53
			c0.08,0,0.15,0.03,0.2,0.08s0.08,0.12,0.08,0.2v0.43c0,0.08-0.03,0.15-0.08,0.2s-0.12,0.08-0.2,0.08h-3.81v2.76h1.74
			c1.12,0,1.98,0.28,2.57,0.83c0.59,0.55,0.89,1.33,0.89,2.32c0,0.95-0.33,1.76-0.99,2.43c-0.66,0.67-1.49,1.01-2.49,1.01
			C1093.17,594.66,1092.21,594.24,1091.52,593.41z"/>
		<path class="st0" d="M1103.53,592.2c-0.08,0-0.15-0.03-0.2-0.08s-0.08-0.12-0.08-0.2v-0.56l5.68-7.12
			c0.06-0.06,0.13-0.09,0.23-0.09h0.3c0.08,0,0.15,0.03,0.2,0.08s0.08,0.12,0.08,0.2l0.02,6.86h1.21c0.08,0,0.15,0.02,0.2,0.07
			c0.05,0.05,0.08,0.12,0.08,0.2v0.33c0,0.08-0.03,0.15-0.08,0.2c-0.06,0.06-0.12,0.08-0.2,0.08h-1.21v2.05
			c0,0.07-0.03,0.13-0.09,0.2c-0.06,0.06-0.12,0.09-0.2,0.09h-0.51c-0.07,0-0.13-0.03-0.2-0.09c-0.06-0.06-0.09-0.12-0.09-0.2v-2.02
			H1103.53z M1104.51,591.27h4.23v-5.22L1104.51,591.27z"/>
		<path class="st0" d="M1117.83,594.22v-9.93c0-0.08,0.03-0.15,0.08-0.2c0.05-0.05,0.12-0.08,0.19-0.08h3.36
			c1.45,0,2.69,0.51,3.72,1.54c1.03,1.03,1.54,2.26,1.54,3.7c0,1.45-0.52,2.69-1.54,3.72c-1.03,1.03-2.27,1.54-3.72,1.54h-3.36
			c-0.07,0-0.13-0.03-0.19-0.08C1117.85,594.37,1117.83,594.3,1117.83,594.22z M1118.97,593.47h2.25c1.23,0,2.25-0.4,3.04-1.19
			c0.8-0.79,1.2-1.81,1.2-3.04c0-1.23-0.4-2.24-1.2-3.03c-0.8-0.79-1.81-1.19-3.04-1.19h-2.25V593.47z"/>
		<path class="st0" d="M1132.63,594.22v-0.45c0.41-0.44,1.02-1.1,1.84-1.99c0.81-0.88,1.43-1.55,1.84-1.99
			c1.01-1.1,1.52-2,1.52-2.71c0-0.5-0.17-0.94-0.52-1.33c-0.35-0.38-0.87-0.58-1.58-0.58c-0.72,0-1.43,0.38-2.13,1.12
			c-0.14,0.13-0.28,0.13-0.4,0l-0.3-0.29c-0.12-0.14-0.12-0.27-0.01-0.39c0.03-0.04,0.07-0.09,0.13-0.16
			c0.05-0.07,0.17-0.18,0.36-0.35s0.38-0.32,0.59-0.45s0.47-0.25,0.79-0.35c0.32-0.11,0.65-0.16,0.98-0.16
			c1.02,0,1.81,0.28,2.38,0.84c0.57,0.56,0.86,1.25,0.86,2.05c0,0.6-0.16,1.15-0.46,1.64c-0.31,0.5-0.78,1.08-1.41,1.76
			c-0.32,0.34-0.8,0.85-1.44,1.54c-0.64,0.69-1.12,1.2-1.44,1.54h4.41c0.07,0,0.13,0.03,0.2,0.08s0.09,0.12,0.09,0.2v0.41
			c0,0.07-0.03,0.13-0.09,0.2c-0.06,0.06-0.12,0.09-0.2,0.09h-5.7c-0.08,0-0.15-0.03-0.2-0.08
			C1132.66,594.37,1132.63,594.3,1132.63,594.22z"/>
		<path class="st0" d="M1144.99,593.32c-0.12-0.14-0.12-0.26,0.02-0.36l0.4-0.34c0.15-0.11,0.29-0.08,0.41,0.07
			c0.09,0.11,0.21,0.23,0.35,0.35c0.14,0.13,0.4,0.27,0.76,0.44s0.73,0.25,1.12,0.25c0.6,0,1.11-0.17,1.53-0.51s0.63-0.79,0.63-1.37
			c0-0.56-0.22-1.03-0.67-1.4s-1.11-0.56-1.99-0.56h-0.84c-0.19,0-0.29-0.11-0.29-0.33v-0.36c0-0.22,0.11-0.33,0.32-0.33h0.82
			c0.77,0,1.36-0.17,1.77-0.52c0.41-0.35,0.62-0.78,0.62-1.3c0-0.58-0.19-1.04-0.57-1.39c-0.38-0.34-0.84-0.52-1.39-0.52
			c-0.74,0-1.39,0.33-1.96,0.98c-0.12,0.14-0.25,0.15-0.39,0.03l-0.36-0.28c-0.14-0.12-0.14-0.25,0-0.39
			c0.03-0.04,0.07-0.09,0.13-0.14c0.05-0.05,0.18-0.16,0.36-0.31c0.18-0.16,0.38-0.29,0.57-0.41c0.19-0.12,0.44-0.22,0.74-0.31
			c0.3-0.1,0.6-0.14,0.91-0.14c0.92,0,1.67,0.25,2.24,0.75c0.57,0.5,0.85,1.17,0.85,1.99c0,0.53-0.16,1.01-0.48,1.45
			c-0.32,0.43-0.68,0.74-1.07,0.92v0.04c0.45,0.19,0.86,0.5,1.24,0.92s0.56,0.93,0.56,1.51c0,0.84-0.3,1.54-0.91,2.08
			s-1.41,0.83-2.42,0.83C1146.78,594.66,1145.77,594.21,1144.99,593.32z"/>
		<path class="st0" d="M999.69,646.22v-9.93c0-0.08,0.03-0.15,0.08-0.2c0.06-0.05,0.12-0.08,0.2-0.08h4.48
			c0.9,0,1.67,0.32,2.31,0.95c0.64,0.64,0.96,1.4,0.96,2.29c0,0.67-0.2,1.27-0.61,1.81c-0.41,0.54-0.94,0.94-1.61,1.21l2.05,3.81
			c0.06,0.1,0.06,0.2,0.01,0.29c-0.05,0.1-0.14,0.14-0.26,0.14h-2c-0.11,0-0.19-0.04-0.24-0.13l-1.99-3.98h-1.04v3.83
			c0,0.07-0.03,0.13-0.08,0.2c-0.05,0.06-0.12,0.09-0.2,0.09h-1.79c-0.08,0-0.15-0.03-0.2-0.08
			C999.71,646.37,999.69,646.3,999.69,646.22z M1002.04,640.49h2.22c0.31,0,0.58-0.12,0.8-0.36c0.22-0.24,0.34-0.52,0.34-0.84
			c0-0.31-0.11-0.58-0.34-0.8c-0.23-0.22-0.49-0.34-0.8-0.34h-2.22V640.49z"/>
		<path class="st0" d="M1021.66,648.94v-15.34c0-0.08,0.03-0.15,0.08-0.2s0.12-0.08,0.2-0.08h0.26c0.08,0,0.14,0.03,0.19,0.08
			c0.05,0.05,0.08,0.12,0.08,0.2v15.34c0,0.07-0.03,0.13-0.08,0.19c-0.06,0.05-0.12,0.08-0.2,0.08h-0.24c-0.08,0-0.15-0.03-0.2-0.08
			S1021.66,649.01,1021.66,648.94z"/>
		<path class="st0" d="M1036.33,646.22v-0.45c0.41-0.44,1.02-1.1,1.84-1.99s1.43-1.55,1.84-1.99c1.01-1.1,1.52-2,1.52-2.71
			c0-0.5-0.17-0.94-0.52-1.33c-0.35-0.38-0.87-0.58-1.58-0.58c-0.72,0-1.43,0.38-2.13,1.12c-0.14,0.13-0.28,0.13-0.41,0l-0.3-0.29
			c-0.12-0.14-0.12-0.27-0.02-0.39c0.03-0.04,0.07-0.09,0.13-0.16c0.06-0.07,0.18-0.18,0.36-0.35c0.18-0.17,0.38-0.32,0.58-0.45
			s0.47-0.25,0.79-0.35c0.33-0.11,0.65-0.16,0.98-0.16c1.02,0,1.82,0.28,2.39,0.84c0.57,0.56,0.85,1.25,0.85,2.05
			c0,0.6-0.15,1.15-0.46,1.64s-0.78,1.08-1.41,1.76c-0.32,0.34-0.8,0.85-1.44,1.54c-0.64,0.69-1.12,1.2-1.44,1.54h4.41
			c0.07,0,0.13,0.03,0.19,0.08c0.06,0.05,0.09,0.12,0.09,0.2v0.41c0,0.07-0.03,0.13-0.09,0.2c-0.06,0.06-0.12,0.09-0.19,0.09h-5.7
			c-0.08,0-0.15-0.03-0.2-0.08C1036.36,646.37,1036.33,646.3,1036.33,646.22z"/>
		<path class="st0" d="M1048.32,644.2c-0.08,0-0.15-0.03-0.2-0.08s-0.08-0.12-0.08-0.2v-0.56l5.69-7.12
			c0.06-0.06,0.13-0.09,0.22-0.09h0.3c0.08,0,0.15,0.03,0.2,0.08s0.08,0.12,0.08,0.2l0.01,6.86h1.21c0.08,0,0.15,0.02,0.2,0.07
			c0.05,0.05,0.08,0.12,0.08,0.2v0.33c0,0.08-0.03,0.15-0.08,0.2c-0.05,0.06-0.12,0.08-0.2,0.08h-1.21v2.05
			c0,0.07-0.03,0.13-0.09,0.2c-0.06,0.06-0.12,0.09-0.2,0.09h-0.51c-0.07,0-0.13-0.03-0.2-0.09c-0.06-0.06-0.09-0.12-0.09-0.2v-2.02
			H1048.32z M1049.29,643.27h4.23v-5.22L1049.29,643.27z"/>
		<path class="st0" d="M1062.09,645.41c-0.17-0.19-0.18-0.36-0.03-0.51c0.04-0.03,0.1-0.08,0.17-0.16c0.08-0.08,0.13-0.13,0.17-0.17
			c0.15-0.13,0.27-0.12,0.38,0.01c0.09,0.13,0.2,0.26,0.34,0.4c0.14,0.13,0.38,0.29,0.74,0.46c0.35,0.17,0.74,0.26,1.15,0.26
			c0.69,0,1.26-0.25,1.7-0.76s0.66-1.07,0.66-1.7c0-0.62-0.2-1.14-0.61-1.55c-0.4-0.41-0.99-0.61-1.75-0.61h-2.28
			c-0.14,0-0.25-0.05-0.34-0.17c-0.08-0.11-0.13-0.23-0.13-0.36v-3.96c0-0.08,0.03-0.15,0.08-0.2s0.12-0.08,0.2-0.08h4.53
			c0.08,0,0.15,0.03,0.2,0.08s0.08,0.12,0.08,0.2v0.43c0,0.08-0.03,0.15-0.08,0.2s-0.12,0.08-0.2,0.08h-3.81v2.76h1.74
			c1.12,0,1.98,0.28,2.57,0.83c0.6,0.55,0.89,1.33,0.89,2.32c0,0.95-0.33,1.76-0.99,2.43c-0.66,0.67-1.49,1.01-2.49,1.01
			C1063.74,646.66,1062.78,646.24,1062.09,645.41z"/>
		<path class="st0" d="M1000.51,671.08c-1.04-1.04-1.57-2.31-1.57-3.81s0.53-2.77,1.58-3.82c1.05-1.05,2.32-1.58,3.81-1.58
			c0.63,0,1.27,0.12,1.92,0.38c0.65,0.25,1.23,0.59,1.74,1.04c0.16,0.13,0.17,0.26,0.03,0.4l-1.19,1.26
			c-0.13,0.11-0.27,0.11-0.4,0.01c-0.52-0.48-1.18-0.72-1.97-0.72c-0.81,0-1.5,0.3-2.08,0.89c-0.58,0.59-0.87,1.31-0.87,2.14
			c0,0.82,0.29,1.52,0.87,2.11s1.28,0.88,2.1,0.88c0.49,0,0.94-0.08,1.34-0.24v-0.87h-0.95c-0.08,0-0.15-0.02-0.2-0.07
			c-0.05-0.05-0.08-0.12-0.08-0.2v-1.49c0-0.19,0.1-0.29,0.29-0.29h3.02c0.07,0,0.13,0.03,0.19,0.08c0.05,0.05,0.08,0.12,0.08,0.2
			l0.01,4.04c0,0.1-0.04,0.18-0.12,0.24c-0.12,0.07-0.29,0.16-0.49,0.27c-0.21,0.11-0.64,0.25-1.29,0.44
			c-0.65,0.18-1.29,0.27-1.94,0.27C1002.82,672.64,1001.55,672.12,1000.51,671.08z"/>
		<path class="st0" d="M1021.54,674.94v-15.34c0-0.08,0.03-0.15,0.08-0.2s0.12-0.08,0.2-0.08h0.26c0.08,0,0.14,0.03,0.19,0.08
			c0.05,0.05,0.08,0.12,0.08,0.2v15.34c0,0.07-0.03,0.13-0.08,0.19c-0.06,0.05-0.12,0.08-0.2,0.08h-0.24c-0.08,0-0.15-0.03-0.2-0.08
			S1021.54,675.01,1021.54,674.94z"/>
		<path class="st0" d="M1036.95,672.22v-0.17l4.19-8.75h-4.91c-0.07,0-0.13-0.03-0.19-0.08c-0.06-0.05-0.09-0.12-0.09-0.2v-0.43
			c0-0.07,0.03-0.13,0.09-0.2c0.06-0.06,0.12-0.09,0.19-0.09h6.03c0.07,0,0.13,0.03,0.2,0.09c0.06,0.06,0.09,0.13,0.09,0.2v0.11
			l-4.38,9.42c-0.12,0.26-0.29,0.39-0.49,0.39h-0.44c-0.08,0-0.15-0.03-0.2-0.09C1036.97,672.36,1036.95,672.29,1036.95,672.22z"/>
		<path class="st0" d="M1048.65,672.22v-0.17l4.18-8.75h-4.9c-0.07,0-0.13-0.03-0.2-0.08s-0.09-0.12-0.09-0.2v-0.43
			c0-0.07,0.03-0.13,0.09-0.2c0.06-0.06,0.12-0.09,0.2-0.09h6.03c0.07,0,0.13,0.03,0.2,0.09c0.06,0.06,0.09,0.13,0.09,0.2v0.11
			l-4.38,9.42c-0.12,0.26-0.29,0.39-0.5,0.39h-0.43c-0.08,0-0.15-0.03-0.2-0.09C1048.68,672.36,1048.65,672.29,1048.65,672.22z"/>
		<path class="st0" d="M999.69,698.22v-9.93c0-0.08,0.03-0.15,0.08-0.2c0.06-0.05,0.12-0.08,0.2-0.08h3.5
			c0.89,0,1.65,0.27,2.28,0.81s0.95,1.2,0.95,1.98c0,0.52-0.18,0.99-0.53,1.39c-0.36,0.41-0.76,0.74-1.21,0.98
			c1.34,0.56,2.01,1.38,2.01,2.45c0,0.83-0.32,1.52-0.95,2.07s-1.41,0.83-2.32,0.83h-3.72c-0.08,0-0.15-0.03-0.2-0.08
			C999.71,698.37,999.69,698.3,999.69,698.22z M1002.03,692.27h1.17c0.29,0,0.54-0.1,0.74-0.31c0.2-0.21,0.31-0.46,0.31-0.77
			c0-0.29-0.1-0.53-0.31-0.73c-0.21-0.19-0.45-0.29-0.74-0.29h-1.17V692.27z M1002.03,696.36h1.37c0.29,0,0.54-0.11,0.76-0.32
			c0.21-0.21,0.32-0.47,0.32-0.77c0-0.29-0.13-0.54-0.38-0.74c-0.25-0.21-0.54-0.31-0.85-0.31h-1.21V696.36z"/>
		<path class="st0" d="M1021.39,700.94v-15.34c0-0.08,0.03-0.15,0.08-0.2s0.12-0.08,0.2-0.08h0.26c0.08,0,0.14,0.03,0.2,0.08
			c0.05,0.05,0.07,0.12,0.07,0.2v15.34c0,0.07-0.03,0.13-0.08,0.19s-0.12,0.08-0.2,0.08h-0.24c-0.08,0-0.15-0.03-0.2-0.08
			S1021.39,701.01,1021.39,700.94z"/>
		<path class="st0" d="M1036.14,697.32c-0.12-0.14-0.12-0.26,0.01-0.36l0.41-0.34c0.15-0.11,0.29-0.08,0.4,0.07
			c0.09,0.11,0.21,0.23,0.35,0.35c0.14,0.13,0.4,0.27,0.76,0.44c0.36,0.17,0.74,0.25,1.12,0.25c0.6,0,1.11-0.17,1.53-0.51
			s0.63-0.79,0.63-1.37c0-0.56-0.22-1.03-0.67-1.4c-0.45-0.38-1.11-0.56-1.99-0.56h-0.84c-0.19,0-0.29-0.11-0.29-0.33v-0.36
			c0-0.22,0.11-0.33,0.31-0.33h0.83c0.77,0,1.36-0.17,1.77-0.52c0.41-0.35,0.62-0.78,0.62-1.3c0-0.58-0.19-1.04-0.57-1.39
			c-0.38-0.34-0.85-0.52-1.39-0.52c-0.74,0-1.4,0.33-1.96,0.98c-0.12,0.14-0.25,0.15-0.39,0.03l-0.36-0.28
			c-0.14-0.12-0.14-0.25,0-0.39c0.03-0.04,0.07-0.09,0.13-0.14c0.05-0.05,0.17-0.16,0.36-0.31s0.38-0.29,0.57-0.41
			s0.44-0.22,0.74-0.31c0.3-0.1,0.61-0.14,0.92-0.14c0.92,0,1.66,0.25,2.23,0.75s0.86,1.17,0.86,1.99c0,0.53-0.16,1.01-0.48,1.45
			c-0.32,0.43-0.68,0.74-1.06,0.92v0.04c0.45,0.19,0.86,0.5,1.24,0.92s0.56,0.93,0.56,1.51c0,0.84-0.3,1.54-0.91,2.08
			c-0.61,0.55-1.41,0.83-2.42,0.83C1037.92,698.66,1036.92,698.21,1036.14,697.32z"/>
		<path class="st0" d="M1048.92,697.41c-0.17-0.19-0.18-0.36-0.03-0.51c0.04-0.03,0.1-0.08,0.17-0.16c0.07-0.08,0.13-0.13,0.17-0.17
			c0.15-0.13,0.28-0.12,0.38,0.01c0.09,0.13,0.2,0.26,0.34,0.4s0.38,0.29,0.73,0.46c0.36,0.17,0.74,0.26,1.15,0.26
			c0.69,0,1.25-0.25,1.7-0.76c0.44-0.5,0.66-1.07,0.66-1.7c0-0.62-0.2-1.14-0.61-1.55c-0.4-0.41-0.99-0.61-1.75-0.61h-2.28
			c-0.14,0-0.25-0.05-0.34-0.17c-0.09-0.11-0.13-0.23-0.13-0.36v-3.96c0-0.08,0.03-0.15,0.08-0.2c0.05-0.05,0.12-0.08,0.2-0.08h4.53
			c0.08,0,0.15,0.03,0.2,0.08s0.08,0.12,0.08,0.2v0.43c0,0.08-0.03,0.15-0.08,0.2s-0.12,0.08-0.2,0.08h-3.81v2.76h1.74
			c1.12,0,1.98,0.28,2.57,0.83c0.59,0.55,0.89,1.33,0.89,2.32c0,0.95-0.33,1.76-0.99,2.43c-0.66,0.67-1.49,1.01-2.49,1.01
			C1050.57,698.66,1049.61,698.24,1048.92,697.41z"/>
		<path class="st0" d="M1000.51,749.09c-1.05-1.04-1.58-2.32-1.58-3.82s0.53-2.78,1.58-3.83s2.33-1.58,3.83-1.58
			c1.4,0,2.61,0.47,3.63,1.4c0.15,0.14,0.15,0.28,0.01,0.42l-1.17,1.21c-0.13,0.12-0.25,0.12-0.38,0c-0.57-0.51-1.24-0.76-2.03-0.76
			c-0.84,0-1.54,0.3-2.1,0.91c-0.56,0.61-0.84,1.33-0.84,2.18c0,0.84,0.28,1.56,0.85,2.15s1.27,0.89,2.11,0.89
			c0.78,0,1.45-0.24,2.01-0.72c0.14-0.12,0.27-0.12,0.39,0.01l1.17,1.25c0.13,0.13,0.12,0.26-0.02,0.41c-1,0.97-2.21,1.46-3.64,1.46
			C1002.84,750.66,1001.56,750.14,1000.51,749.09z"/>
		<path class="st0" d="M1021.71,752.94v-15.34c0-0.08,0.03-0.15,0.08-0.2s0.12-0.08,0.2-0.08h0.26c0.08,0,0.14,0.03,0.19,0.08
			c0.05,0.05,0.08,0.12,0.08,0.2v15.34c0,0.07-0.03,0.13-0.08,0.19c-0.06,0.05-0.12,0.08-0.2,0.08h-0.24c-0.08,0-0.15-0.03-0.2-0.08
			S1021.71,753.01,1021.71,752.94z"/>
		<path class="st0" d="M1043.18,749.27c-0.63,0.92-1.53,1.39-2.69,1.39s-2.06-0.46-2.69-1.39s-0.95-2.21-0.95-3.86
			c0-1.65,0.32-2.94,0.95-3.86c0.63-0.92,1.53-1.39,2.69-1.39s2.06,0.46,2.69,1.39c0.63,0.93,0.95,2.21,0.95,3.86
			C1044.13,747.06,1043.81,748.35,1043.18,749.27z M1038.57,748.57c0.45,0.74,1.08,1.11,1.91,1.11s1.47-0.37,1.91-1.11
			c0.45-0.74,0.67-1.79,0.67-3.17c0-1.36-0.23-2.41-0.68-3.16c-0.45-0.74-1.09-1.12-1.9-1.12c-0.82,0-1.46,0.37-1.91,1.12
			c-0.45,0.75-0.67,1.8-0.67,3.16C1037.91,746.78,1038.13,747.83,1038.57,748.57z"/>
		<path class="st0" d="M1053.71,743.3c-0.39,0.39-0.87,0.59-1.43,0.59s-1.04-0.2-1.43-0.59c-0.39-0.4-0.59-0.87-0.59-1.43
			c0-0.56,0.2-1.04,0.59-1.43c0.4-0.4,0.87-0.59,1.43-0.59s1.04,0.2,1.43,0.59c0.39,0.39,0.59,0.87,0.59,1.43
			C1054.3,742.43,1054.1,742.91,1053.71,743.3z M1052.28,743.04c0.31,0,0.58-0.11,0.8-0.34c0.22-0.22,0.34-0.5,0.34-0.83
			c0-0.31-0.11-0.58-0.34-0.8c-0.22-0.23-0.49-0.34-0.8-0.34c-0.33,0-0.61,0.11-0.83,0.34c-0.23,0.22-0.34,0.49-0.34,0.8
			c0,0.33,0.11,0.61,0.34,0.83C1051.67,742.93,1051.95,743.04,1052.28,743.04z M1051.65,750.1l5.15-9.94
			c0.06-0.1,0.14-0.15,0.25-0.15h0.24c0.11,0,0.19,0.04,0.25,0.13c0.05,0.08,0.06,0.18,0.01,0.28l-5.18,9.94
			c-0.05,0.1-0.13,0.15-0.26,0.15h-0.21c-0.11,0-0.19-0.04-0.25-0.13C1051.6,750.3,1051.6,750.2,1051.65,750.1z M1055.58,750.08
			c-0.39-0.39-0.59-0.87-0.59-1.43c0-0.56,0.2-1.04,0.59-1.43c0.39-0.39,0.87-0.59,1.43-0.59c0.56,0,1.04,0.2,1.43,0.59
			c0.39,0.4,0.59,0.87,0.59,1.43c0,0.56-0.2,1.04-0.59,1.43c-0.39,0.4-0.87,0.59-1.43,0.59
			C1056.46,750.67,1055.98,750.48,1055.58,750.08z M1055.85,748.65c0,0.33,0.11,0.61,0.34,0.83c0.23,0.22,0.5,0.34,0.83,0.34
			c0.31,0,0.58-0.11,0.8-0.34c0.22-0.23,0.34-0.5,0.34-0.83c0-0.31-0.11-0.58-0.34-0.8c-0.23-0.23-0.49-0.34-0.8-0.34
			c-0.33,0-0.61,0.11-0.83,0.34C1055.96,748.07,1055.85,748.34,1055.85,748.65z"/>
		<path class="st0" d="M999.03,776.18l1.7-10.08c0.02-0.16,0.11-0.24,0.27-0.24h0.24c0.12,0,0.21,0.05,0.26,0.15l3.48,6.48h0.03
			l3.48-6.48c0.05-0.1,0.13-0.15,0.25-0.15h0.24c0.16,0,0.25,0.08,0.27,0.24l1.7,10.08c0.01,0.1-0.01,0.18-0.07,0.24
			c-0.06,0.06-0.13,0.09-0.22,0.09h-1.77c-0.07,0-0.13-0.02-0.19-0.08c-0.05-0.05-0.09-0.1-0.1-0.17l-0.67-4.63h-0.03l-2.52,4.86
			c-0.05,0.11-0.13,0.17-0.26,0.17h-0.27c-0.12,0-0.21-0.06-0.25-0.17l-2.54-4.86h-0.03l-0.66,4.63c-0.02,0.16-0.12,0.24-0.29,0.24
			h-1.77c-0.09,0-0.16-0.03-0.22-0.09C999.04,776.36,999.02,776.28,999.03,776.18z"/>
		<path class="st0" d="M1021.78,778.94v-15.34c0-0.08,0.03-0.15,0.08-0.2s0.12-0.08,0.2-0.08h0.26c0.08,0,0.14,0.03,0.2,0.08
			c0.05,0.05,0.07,0.12,0.07,0.2v15.34c0,0.07-0.03,0.13-0.08,0.19s-0.12,0.08-0.2,0.08h-0.24c-0.08,0-0.15-0.03-0.2-0.08
			S1021.78,779.01,1021.78,778.94z"/>
		<path class="st0" d="M1037.19,776.22v-0.17l4.19-8.75h-4.91c-0.07,0-0.13-0.03-0.19-0.08c-0.06-0.05-0.09-0.12-0.09-0.2v-0.43
			c0-0.07,0.03-0.13,0.09-0.2c0.06-0.06,0.12-0.09,0.19-0.09h6.03c0.07,0,0.13,0.03,0.2,0.09c0.06,0.06,0.09,0.13,0.09,0.2v0.11
			l-4.38,9.42c-0.12,0.26-0.29,0.39-0.49,0.39h-0.44c-0.08,0-0.15-0.03-0.2-0.09C1037.21,776.36,1037.19,776.29,1037.19,776.22z"/>
		<path class="st0" d="M1048.89,776.22v-0.17l4.18-8.75h-4.9c-0.07,0-0.13-0.03-0.2-0.08s-0.09-0.12-0.09-0.2v-0.43
			c0-0.07,0.03-0.13,0.09-0.2c0.06-0.06,0.12-0.09,0.2-0.09h6.03c0.07,0,0.13,0.03,0.2,0.09c0.06,0.06,0.09,0.13,0.09,0.2v0.11
			l-4.38,9.42c-0.12,0.26-0.29,0.39-0.5,0.39h-0.43c-0.08,0-0.15-0.03-0.2-0.09C1048.92,776.36,1048.89,776.29,1048.89,776.22z"/>
		<path class="st0" d="M1063.11,769.3c-0.39,0.39-0.87,0.59-1.43,0.59s-1.04-0.2-1.43-0.59c-0.39-0.4-0.59-0.87-0.59-1.43
			c0-0.56,0.2-1.04,0.59-1.43c0.4-0.4,0.87-0.59,1.43-0.59s1.04,0.2,1.43,0.59c0.39,0.39,0.59,0.87,0.59,1.43
			C1063.71,768.43,1063.51,768.91,1063.11,769.3z M1061.68,769.04c0.31,0,0.58-0.11,0.8-0.34c0.22-0.22,0.34-0.5,0.34-0.83
			c0-0.31-0.11-0.58-0.34-0.8c-0.22-0.23-0.49-0.34-0.8-0.34c-0.33,0-0.61,0.11-0.83,0.34c-0.23,0.22-0.34,0.49-0.34,0.8
			c0,0.33,0.11,0.61,0.34,0.83C1061.08,768.93,1061.35,769.04,1061.68,769.04z M1061.05,776.1l5.15-9.94
			c0.06-0.1,0.14-0.15,0.25-0.15h0.24c0.11,0,0.19,0.04,0.25,0.13c0.05,0.08,0.06,0.18,0.01,0.28l-5.18,9.94
			c-0.05,0.1-0.13,0.15-0.26,0.15h-0.21c-0.11,0-0.19-0.04-0.25-0.13C1061.01,776.3,1061,776.2,1061.05,776.1z M1064.99,776.08
			c-0.39-0.39-0.59-0.87-0.59-1.43c0-0.56,0.2-1.04,0.59-1.43c0.39-0.39,0.87-0.59,1.43-0.59c0.56,0,1.04,0.2,1.43,0.59
			c0.39,0.4,0.59,0.87,0.59,1.43c0,0.56-0.2,1.04-0.59,1.43c-0.39,0.4-0.87,0.59-1.43,0.59
			C1065.86,776.67,1065.38,776.48,1064.99,776.08z M1065.25,774.65c0,0.33,0.11,0.61,0.34,0.83c0.23,0.22,0.5,0.34,0.83,0.34
			c0.31,0,0.58-0.11,0.8-0.34c0.22-0.23,0.34-0.5,0.34-0.83c0-0.31-0.11-0.58-0.34-0.8c-0.23-0.23-0.49-0.34-0.8-0.34
			c-0.33,0-0.61,0.11-0.83,0.34C1065.36,774.07,1065.25,774.34,1065.25,774.65z"/>
		<path class="st0" d="M1001.62,802.22v-4.77l-3.31-5.01c-0.06-0.1-0.07-0.2-0.02-0.29s0.13-0.14,0.26-0.14h1.95
			c0.09,0,0.17,0.04,0.24,0.13l2.08,3.08l2.09-3.08c0.07-0.09,0.15-0.13,0.24-0.13h1.95c0.12,0,0.21,0.05,0.26,0.14
			c0.05,0.09,0.04,0.19-0.02,0.29l-3.36,5v4.79c0,0.07-0.03,0.13-0.09,0.2c-0.06,0.06-0.12,0.09-0.2,0.09h-1.79
			c-0.08,0-0.15-0.03-0.2-0.08C1001.65,802.37,1001.62,802.3,1001.62,802.22z"/>
		<path class="st0" d="M1021.66,804.94v-15.34c0-0.08,0.03-0.15,0.08-0.2s0.12-0.08,0.2-0.08h0.26c0.08,0,0.14,0.03,0.19,0.08
			c0.05,0.05,0.08,0.12,0.08,0.2v15.34c0,0.07-0.03,0.13-0.08,0.19c-0.06,0.05-0.12,0.08-0.2,0.08h-0.24c-0.08,0-0.15-0.03-0.2-0.08
			S1021.66,805.01,1021.66,804.94z"/>
		<path class="st0" d="M1036.63,799.76c0-0.58,0.19-1.09,0.58-1.54c0.38-0.45,0.8-0.77,1.24-0.96v-0.04
			c-0.4-0.18-0.76-0.48-1.07-0.89s-0.47-0.89-0.47-1.42c0-0.82,0.29-1.48,0.87-1.99c0.58-0.5,1.32-0.76,2.22-0.76
			c0.91,0,1.66,0.25,2.24,0.76c0.59,0.5,0.88,1.17,0.88,1.99c0,0.53-0.16,1-0.47,1.42c-0.32,0.42-0.67,0.71-1.07,0.89v0.04
			c0.44,0.19,0.85,0.51,1.24,0.96s0.58,0.96,0.58,1.54c0,0.84-0.31,1.53-0.92,2.08c-0.62,0.55-1.44,0.82-2.48,0.82
			c-1.01,0-1.82-0.27-2.43-0.82C1036.94,801.3,1036.63,800.6,1036.63,799.76z M1037.76,799.87c0,0.56,0.22,1.01,0.65,1.36
			c0.44,0.35,0.96,0.53,1.57,0.53c0.66,0,1.2-0.17,1.63-0.51c0.43-0.34,0.64-0.8,0.64-1.38c0-0.49-0.21-0.93-0.62-1.33
			c-0.41-0.39-0.96-0.63-1.63-0.7c-0.69,0.07-1.24,0.3-1.64,0.7C1037.96,798.94,1037.76,799.38,1037.76,799.87z M1040.01,796.73
			c0.66-0.07,1.16-0.26,1.49-0.58s0.5-0.72,0.5-1.21c0-0.56-0.19-1.02-0.58-1.37c-0.38-0.35-0.88-0.53-1.48-0.53
			c-0.55,0-1.01,0.18-1.38,0.53c-0.37,0.36-0.56,0.81-0.56,1.36c0,0.49,0.17,0.89,0.5,1.21S1039.34,796.67,1040.01,796.73z"/>
		<path class="st0" d="M1049.8,801.41c-0.17-0.19-0.18-0.36-0.03-0.51c0.04-0.03,0.1-0.08,0.17-0.16c0.07-0.08,0.13-0.13,0.17-0.17
			c0.15-0.13,0.28-0.12,0.38,0.01c0.09,0.13,0.2,0.26,0.34,0.4s0.38,0.29,0.73,0.46c0.36,0.17,0.74,0.26,1.15,0.26
			c0.69,0,1.25-0.25,1.7-0.76c0.44-0.5,0.66-1.07,0.66-1.7c0-0.62-0.2-1.14-0.61-1.55c-0.4-0.41-0.99-0.61-1.75-0.61h-2.28
			c-0.14,0-0.25-0.05-0.34-0.17c-0.09-0.11-0.13-0.23-0.13-0.36v-3.96c0-0.08,0.03-0.15,0.08-0.2c0.05-0.05,0.12-0.08,0.2-0.08h4.53
			c0.08,0,0.15,0.03,0.2,0.08s0.08,0.12,0.08,0.2v0.43c0,0.08-0.03,0.15-0.08,0.2s-0.12,0.08-0.2,0.08h-3.81v2.76h1.74
			c1.12,0,1.98,0.28,2.57,0.83c0.59,0.55,0.89,1.33,0.89,2.32c0,0.95-0.33,1.76-0.99,2.43c-0.66,0.67-1.49,1.01-2.49,1.01
			C1051.46,802.66,1050.49,802.24,1049.8,801.41z"/>
		<path class="st0" d="M1065.27,795.3c-0.4,0.39-0.87,0.59-1.43,0.59c-0.56,0-1.04-0.2-1.43-0.59c-0.39-0.4-0.59-0.87-0.59-1.43
			c0-0.56,0.2-1.04,0.59-1.43c0.39-0.4,0.87-0.59,1.43-0.59c0.56,0,1.04,0.2,1.43,0.59c0.39,0.39,0.59,0.87,0.59,1.43
			C1065.87,794.43,1065.67,794.91,1065.27,795.3z M1063.84,795.04c0.31,0,0.58-0.11,0.8-0.34c0.22-0.22,0.34-0.5,0.34-0.83
			c0-0.31-0.11-0.58-0.34-0.8c-0.22-0.23-0.49-0.34-0.8-0.34c-0.33,0-0.61,0.11-0.83,0.34c-0.22,0.22-0.34,0.49-0.34,0.8
			c0,0.33,0.11,0.61,0.34,0.83C1063.23,794.93,1063.51,795.04,1063.84,795.04z M1063.21,802.1l5.14-9.94
			c0.06-0.1,0.14-0.15,0.26-0.15h0.24c0.11,0,0.19,0.04,0.25,0.13s0.06,0.18,0.01,0.28l-5.18,9.94c-0.05,0.1-0.13,0.15-0.25,0.15
			h-0.21c-0.11,0-0.19-0.04-0.25-0.13C1063.16,802.3,1063.16,802.2,1063.21,802.1z M1067.15,802.08c-0.4-0.39-0.59-0.87-0.59-1.43
			c0-0.56,0.2-1.04,0.59-1.43c0.39-0.39,0.87-0.59,1.43-0.59s1.04,0.2,1.43,0.59c0.39,0.4,0.59,0.87,0.59,1.43
			c0,0.56-0.2,1.04-0.59,1.43c-0.4,0.4-0.87,0.59-1.43,0.59S1067.54,802.48,1067.15,802.08z M1067.41,800.65
			c0,0.33,0.11,0.61,0.34,0.83c0.22,0.22,0.5,0.34,0.83,0.34c0.31,0,0.58-0.11,0.8-0.34c0.22-0.23,0.34-0.5,0.34-0.83
			c0-0.31-0.11-0.58-0.34-0.8c-0.22-0.23-0.49-0.34-0.8-0.34c-0.33,0-0.61,0.11-0.83,0.34
			C1067.52,800.07,1067.41,800.34,1067.41,800.65z"/>
		<path class="st0" d="M999.69,828.15v-9.78c0-0.1,0.04-0.19,0.11-0.25c0.07-0.07,0.15-0.11,0.26-0.11h1.75
			c0.1,0,0.19,0.04,0.26,0.11c0.07,0.07,0.1,0.15,0.1,0.25v3.94l3.33-4.15c0.08-0.1,0.18-0.15,0.29-0.15h1.89
			c0.14,0,0.24,0.07,0.3,0.2c0.06,0.13,0.05,0.25-0.03,0.36l-3.51,4.4l3.83,4.98c0.08,0.11,0.09,0.23,0.02,0.36s-0.17,0.2-0.31,0.2
			h-2.07c-0.13,0-0.22-0.04-0.27-0.11l-3.47-4.71v4.47c0,0.1-0.04,0.19-0.1,0.25c-0.07,0.07-0.16,0.11-0.26,0.11h-1.75
			c-0.1,0-0.19-0.04-0.26-0.11C999.72,828.33,999.69,828.25,999.69,828.15z"/>
		<path class="st0" d="M1021.71,830.94v-15.34c0-0.08,0.03-0.15,0.08-0.2s0.12-0.08,0.2-0.08h0.26c0.08,0,0.14,0.03,0.19,0.08
			c0.05,0.05,0.08,0.12,0.08,0.2v15.34c0,0.07-0.03,0.13-0.08,0.19c-0.06,0.05-0.12,0.08-0.2,0.08h-0.24c-0.08,0-0.15-0.03-0.2-0.08
			S1021.71,831.01,1021.71,830.94z"/>
		<path class="st0" d="M1043.18,827.27c-0.63,0.92-1.53,1.39-2.69,1.39s-2.06-0.46-2.69-1.39s-0.95-2.21-0.95-3.86
			c0-1.65,0.32-2.94,0.95-3.86c0.63-0.92,1.53-1.39,2.69-1.39s2.06,0.46,2.69,1.39c0.63,0.93,0.95,2.21,0.95,3.86
			C1044.13,825.06,1043.81,826.35,1043.18,827.27z M1038.57,826.57c0.45,0.74,1.08,1.11,1.91,1.11s1.47-0.37,1.91-1.11
			c0.45-0.74,0.67-1.79,0.67-3.17c0-1.36-0.23-2.41-0.68-3.16c-0.45-0.74-1.09-1.12-1.9-1.12c-0.82,0-1.46,0.37-1.91,1.12
			c-0.45,0.75-0.67,1.8-0.67,3.16C1037.91,824.78,1038.13,825.83,1038.57,826.57z"/>
		<path class="st0" d="M1053.71,821.3c-0.39,0.39-0.87,0.59-1.43,0.59s-1.04-0.2-1.43-0.59c-0.39-0.4-0.59-0.87-0.59-1.43
			c0-0.56,0.2-1.04,0.59-1.43c0.4-0.4,0.87-0.59,1.43-0.59s1.04,0.2,1.43,0.59c0.39,0.39,0.59,0.87,0.59,1.43
			C1054.3,820.43,1054.1,820.91,1053.71,821.3z M1052.28,821.04c0.31,0,0.58-0.11,0.8-0.34c0.22-0.22,0.34-0.5,0.34-0.83
			c0-0.31-0.11-0.58-0.34-0.8c-0.22-0.23-0.49-0.34-0.8-0.34c-0.33,0-0.61,0.11-0.83,0.34c-0.23,0.22-0.34,0.49-0.34,0.8
			c0,0.33,0.11,0.61,0.34,0.83C1051.67,820.93,1051.95,821.04,1052.28,821.04z M1051.65,828.1l5.15-9.94
			c0.06-0.1,0.14-0.15,0.25-0.15h0.24c0.11,0,0.19,0.04,0.25,0.13c0.05,0.08,0.06,0.18,0.01,0.28l-5.18,9.94
			c-0.05,0.1-0.13,0.15-0.26,0.15h-0.21c-0.11,0-0.19-0.04-0.25-0.13C1051.6,828.3,1051.6,828.2,1051.65,828.1z M1055.58,828.08
			c-0.39-0.39-0.59-0.87-0.59-1.43c0-0.56,0.2-1.04,0.59-1.43c0.39-0.39,0.87-0.59,1.43-0.59c0.56,0,1.04,0.2,1.43,0.59
			c0.39,0.4,0.59,0.87,0.59,1.43c0,0.56-0.2,1.04-0.59,1.43c-0.39,0.4-0.87,0.59-1.43,0.59
			C1056.46,828.67,1055.98,828.48,1055.58,828.08z M1055.85,826.65c0,0.33,0.11,0.61,0.34,0.83c0.23,0.22,0.5,0.34,0.83,0.34
			c0.31,0,0.58-0.11,0.8-0.34c0.22-0.23,0.34-0.5,0.34-0.83c0-0.31-0.11-0.58-0.34-0.8c-0.23-0.23-0.49-0.34-0.8-0.34
			c-0.33,0-0.61,0.11-0.83,0.34C1055.96,826.07,1055.85,826.34,1055.85,826.65z"/>
	</g>
	<g>
		<path class="st0" d="M43.68,55.17v-9.93c0-0.08,0.03-0.15,0.08-0.2c0.06-0.05,0.12-0.08,0.2-0.08h3.31c0.92,0,1.71,0.32,2.37,0.97
			s0.99,1.43,0.99,2.34c0,0.93-0.33,1.72-0.98,2.38s-1.44,0.99-2.36,0.99h-2.48v3.53c0,0.07-0.03,0.13-0.09,0.2
			c-0.06,0.06-0.12,0.09-0.2,0.09h-0.57c-0.08,0-0.15-0.03-0.2-0.08C43.7,55.32,43.68,55.25,43.68,55.17z M44.82,50.53h2.39
			c0.62,0,1.15-0.22,1.6-0.67c0.45-0.45,0.67-0.99,0.67-1.63c0-0.6-0.23-1.11-0.67-1.52c-0.45-0.41-0.99-0.62-1.6-0.62h-2.39V50.53z
			"/>
		<path class="st0" d="M55.48,55.45c-0.11,0-0.19-0.04-0.25-0.12c-0.06-0.08-0.06-0.17-0.01-0.27l4.56-10.09
			c0.06-0.11,0.15-0.17,0.25-0.17h0.15c0.11,0,0.19,0.05,0.25,0.17l4.53,10.09c0.05,0.1,0.05,0.19-0.01,0.27
			c-0.06,0.08-0.14,0.12-0.25,0.12h-0.6c-0.13,0-0.21-0.05-0.25-0.17l-1.11-2.47h-5.33l-1.09,2.47c-0.04,0.11-0.13,0.17-0.26,0.17
			H55.48z M57.85,51.88h4.5c-0.25-0.55-0.61-1.37-1.09-2.46s-0.85-1.91-1.1-2.46h-0.12L57.85,51.88z"/>
		<path class="st0" d="M71.11,55.17v-9.93c0-0.08,0.03-0.15,0.08-0.2c0.06-0.05,0.12-0.08,0.2-0.08h0.58c0.08,0,0.15,0.03,0.2,0.09
			c0.05,0.06,0.08,0.12,0.08,0.2v9.21h4.32c0.08,0,0.15,0.03,0.2,0.08c0.05,0.06,0.08,0.12,0.08,0.2v0.44c0,0.08-0.03,0.15-0.08,0.2
			c-0.06,0.06-0.12,0.08-0.2,0.08H71.4c-0.08,0-0.15-0.03-0.2-0.08C71.14,55.32,71.11,55.25,71.11,55.17z"/>
		<path class="st0" d="M82.97,55.17v-9.93c0-0.08,0.03-0.15,0.08-0.2c0.06-0.05,0.12-0.08,0.2-0.08h5.91c0.08,0,0.15,0.03,0.2,0.08
			c0.05,0.05,0.08,0.12,0.08,0.2v0.43c0,0.08-0.03,0.15-0.08,0.2c-0.06,0.05-0.12,0.08-0.2,0.08h-5.04v3.66h4.31
			c0.08,0,0.15,0.03,0.2,0.08c0.06,0.06,0.08,0.12,0.08,0.2v0.44c0,0.08-0.03,0.15-0.08,0.2c-0.06,0.06-0.12,0.08-0.2,0.08h-4.31
			v3.82h5.04c0.08,0,0.15,0.03,0.2,0.08c0.05,0.06,0.08,0.12,0.08,0.2v0.44c0,0.08-0.03,0.15-0.08,0.2
			c-0.06,0.06-0.12,0.08-0.2,0.08h-5.91c-0.08,0-0.15-0.03-0.2-0.08C83,55.32,82.97,55.25,82.97,55.17z"/>
		<path class="st0" d="M97.84,55.17v-9.21h-2.61c-0.08,0-0.15-0.03-0.2-0.08c-0.06-0.05-0.08-0.12-0.08-0.2v-0.43
			c0-0.08,0.03-0.15,0.08-0.2c0.05-0.05,0.12-0.08,0.2-0.08h6.36c0.08,0,0.15,0.03,0.2,0.08c0.06,0.05,0.08,0.12,0.08,0.2v0.43
			c0,0.08-0.03,0.15-0.08,0.2c-0.05,0.05-0.12,0.08-0.2,0.08h-2.61v9.21c0,0.07-0.03,0.13-0.08,0.2c-0.05,0.06-0.12,0.09-0.2,0.09
			h-0.57c-0.08,0-0.15-0.03-0.2-0.09C97.87,55.3,97.84,55.24,97.84,55.17z"/>
		<path class="st0" d="M106.27,55.45c-0.11,0-0.19-0.04-0.25-0.12c-0.06-0.08-0.06-0.17-0.01-0.27l4.56-10.09
			c0.06-0.11,0.15-0.17,0.25-0.17h0.15c0.11,0,0.19,0.05,0.25,0.17l4.53,10.09c0.05,0.1,0.05,0.19-0.01,0.27
			c-0.06,0.08-0.14,0.12-0.25,0.12h-0.6c-0.13,0-0.21-0.05-0.25-0.17l-1.11-2.47h-5.33l-1.09,2.47c-0.04,0.11-0.13,0.17-0.26,0.17
			H106.27z M108.64,51.88h4.5c-0.25-0.55-0.61-1.37-1.09-2.46s-0.85-1.91-1.1-2.46h-0.12L108.64,51.88z"/>
		<path class="st0" d="M129.73,55.17v-9.93c0-0.08,0.03-0.15,0.08-0.2c0.06-0.05,0.12-0.08,0.19-0.08h3.36
			c1.45,0,2.69,0.51,3.72,1.54s1.54,2.26,1.54,3.7c0,1.45-0.52,2.69-1.54,3.72c-1.03,1.03-2.27,1.54-3.72,1.54H130
			c-0.07,0-0.13-0.03-0.19-0.08C129.76,55.32,129.73,55.25,129.73,55.17z M130.87,54.42h2.25c1.23,0,2.25-0.4,3.04-1.19
			c0.8-0.79,1.2-1.81,1.2-3.04s-0.4-2.24-1.2-3.03c-0.8-0.79-1.81-1.19-3.04-1.19h-2.25V54.42z"/>
		<path class="st0" d="M145.43,55.17v-9.93c0-0.08,0.03-0.15,0.08-0.2c0.06-0.05,0.12-0.08,0.2-0.08h5.91c0.08,0,0.15,0.03,0.2,0.08
			c0.05,0.05,0.08,0.12,0.08,0.2v0.43c0,0.08-0.03,0.15-0.08,0.2c-0.06,0.05-0.12,0.08-0.2,0.08h-5.04v3.66h4.31
			c0.08,0,0.15,0.03,0.2,0.08c0.06,0.06,0.08,0.12,0.08,0.2v0.44c0,0.08-0.03,0.15-0.08,0.2c-0.06,0.06-0.12,0.08-0.2,0.08h-4.31
			v3.82h5.04c0.08,0,0.15,0.03,0.2,0.08c0.05,0.06,0.08,0.12,0.08,0.2v0.44c0,0.08-0.03,0.15-0.08,0.2
			c-0.06,0.06-0.12,0.08-0.2,0.08h-5.91c-0.08,0-0.15-0.03-0.2-0.08C145.46,55.32,145.43,55.25,145.43,55.17z"/>
		<path class="st0" d="M167.46,54.04c-1.06-1.04-1.58-2.32-1.58-3.82s0.53-2.78,1.58-3.83c1.05-1.05,2.33-1.58,3.83-1.58
			c1.33,0,2.54,0.46,3.63,1.39c0.14,0.15,0.15,0.29,0.02,0.42l-0.41,0.41c-0.11,0.14-0.24,0.14-0.39-0.01
			c-0.87-0.75-1.82-1.12-2.86-1.12c-1.17,0-2.16,0.42-2.97,1.28c-0.81,0.85-1.21,1.87-1.21,3.04c0,1.17,0.4,2.18,1.21,3.03
			s1.8,1.28,2.97,1.28c0.41,0,0.8-0.06,1.16-0.17c0.36-0.11,0.66-0.24,0.88-0.38c0.22-0.13,0.5-0.33,0.82-0.58
			c0.13-0.1,0.25-0.12,0.36-0.04l0.45,0.4c0.06,0.05,0.09,0.12,0.08,0.2s-0.04,0.15-0.1,0.21c-1,0.97-2.22,1.46-3.65,1.46
			C169.79,55.6,168.52,55.08,167.46,54.04z"/>
		<path class="st0" d="M182.51,54.04c-1.04-1.04-1.57-2.32-1.57-3.82s0.52-2.78,1.57-3.83c1.04-1.05,2.32-1.58,3.82-1.58
			s2.77,0.53,3.83,1.58c1.05,1.06,1.57,2.33,1.57,3.83s-0.52,2.77-1.57,3.82c-1.05,1.04-2.33,1.57-3.83,1.57
			S183.55,55.08,182.51,54.04z M183.26,47.14c-0.85,0.86-1.27,1.88-1.27,3.08s0.42,2.21,1.27,3.06c0.85,0.85,1.87,1.28,3.06,1.28
			s2.21-0.42,3.07-1.28c0.85-0.85,1.28-1.87,1.28-3.06s-0.43-2.21-1.28-3.08c-0.85-0.86-1.88-1.29-3.07-1.29
			S184.11,46.28,183.26,47.14z"/>
		<path class="st0" d="M198.52,55.17v-9.93c0-0.08,0.03-0.15,0.08-0.2c0.06-0.05,0.12-0.08,0.2-0.08h0.58c0.08,0,0.15,0.03,0.2,0.09
			c0.05,0.06,0.08,0.12,0.08,0.2v9.21h4.32c0.08,0,0.15,0.03,0.2,0.08c0.05,0.06,0.08,0.12,0.08,0.2v0.44c0,0.08-0.03,0.15-0.08,0.2
			c-0.06,0.06-0.12,0.08-0.2,0.08h-5.19c-0.08,0-0.15-0.03-0.2-0.08C198.55,55.32,198.52,55.25,198.52,55.17z"/>
		<path class="st0" d="M211.04,54.04c-1.04-1.04-1.57-2.32-1.57-3.82s0.52-2.78,1.57-3.83c1.04-1.05,2.32-1.58,3.82-1.58
			s2.77,0.53,3.83,1.58c1.05,1.06,1.57,2.33,1.57,3.83s-0.52,2.77-1.57,3.82c-1.05,1.04-2.33,1.57-3.83,1.57
			S212.08,55.08,211.04,54.04z M211.79,47.14c-0.85,0.86-1.27,1.88-1.27,3.08s0.42,2.21,1.27,3.06c0.85,0.85,1.87,1.28,3.06,1.28
			s2.21-0.42,3.07-1.28c0.85-0.85,1.28-1.87,1.28-3.06s-0.43-2.21-1.28-3.08c-0.85-0.86-1.88-1.29-3.07-1.29
			S212.64,46.28,211.79,47.14z"/>
		<path class="st0" d="M227.05,55.17v-9.93c0-0.08,0.03-0.15,0.08-0.2c0.06-0.05,0.12-0.08,0.2-0.08h3.89c0.9,0,1.67,0.31,2.31,0.93
			c0.64,0.62,0.96,1.38,0.96,2.26c0,0.68-0.2,1.29-0.61,1.84c-0.4,0.54-0.94,0.95-1.61,1.22l2.06,3.81c0.06,0.1,0.06,0.2,0.01,0.29
			c-0.06,0.09-0.14,0.14-0.26,0.14h-0.76c-0.11,0-0.19-0.04-0.24-0.13l-2-3.98h-2.86v3.83c0,0.07-0.03,0.13-0.08,0.2
			c-0.06,0.06-0.12,0.09-0.2,0.09h-0.58c-0.08,0-0.15-0.03-0.2-0.08C227.08,55.32,227.05,55.25,227.05,55.17z M228.23,50.35h2.91
			c0.58,0,1.08-0.21,1.52-0.64c0.43-0.42,0.65-0.94,0.65-1.55c0-0.57-0.22-1.06-0.65-1.48c-0.43-0.42-0.94-0.63-1.52-0.63h-2.91
			V50.35z"/>
		<path class="st0" d="M241.46,55.17v-9.93c0-0.08,0.03-0.15,0.08-0.2c0.06-0.05,0.12-0.08,0.2-0.08h5.91c0.08,0,0.15,0.03,0.2,0.08
			c0.05,0.05,0.08,0.12,0.08,0.2v0.43c0,0.08-0.03,0.15-0.08,0.2c-0.06,0.05-0.12,0.08-0.2,0.08h-5.04v3.66h4.31
			c0.08,0,0.15,0.03,0.2,0.08c0.06,0.06,0.08,0.12,0.08,0.2v0.44c0,0.08-0.03,0.15-0.08,0.2c-0.06,0.06-0.12,0.08-0.2,0.08h-4.31
			v3.82h5.04c0.08,0,0.15,0.03,0.2,0.08c0.05,0.06,0.08,0.12,0.08,0.2v0.44c0,0.08-0.03,0.15-0.08,0.2
			c-0.06,0.06-0.12,0.08-0.2,0.08h-5.91c-0.08,0-0.15-0.03-0.2-0.08C241.49,55.32,241.46,55.25,241.46,55.17z"/>
		<path class="st0" d="M254.26,54.39c-0.18-0.15-0.21-0.32-0.09-0.51c0.03-0.03,0.07-0.08,0.12-0.14c0.05-0.07,0.08-0.11,0.1-0.14
			c0.18-0.24,0.35-0.29,0.52-0.14c0.89,0.76,1.73,1.14,2.54,1.14c0.59,0,1.07-0.16,1.45-0.48c0.38-0.32,0.56-0.71,0.56-1.17
			c0-0.49-0.21-0.91-0.62-1.27c-0.42-0.35-1.08-0.72-2-1.1c-0.92-0.4-1.59-0.82-2.01-1.25s-0.63-1.05-0.63-1.85
			c0-0.28,0.06-0.56,0.17-0.86c0.11-0.29,0.29-0.57,0.52-0.85s0.57-0.51,1-0.69c0.44-0.18,0.93-0.27,1.49-0.27
			c0.44,0,0.87,0.06,1.3,0.2c0.42,0.13,0.74,0.25,0.95,0.38l0.31,0.2c0.07,0.03,0.12,0.08,0.15,0.16c0.03,0.08,0.01,0.2-0.06,0.35
			c-0.02,0.03-0.05,0.08-0.09,0.14c-0.04,0.06-0.07,0.11-0.09,0.14c-0.14,0.21-0.31,0.25-0.53,0.13c-0.81-0.46-1.46-0.69-1.96-0.69
			c-0.71,0-1.23,0.17-1.57,0.52c-0.34,0.35-0.5,0.73-0.5,1.12c0,0.48,0.17,0.88,0.5,1.21c0.33,0.33,0.84,0.63,1.52,0.91
			c1.15,0.47,1.99,0.94,2.53,1.41c0.54,0.47,0.8,1.11,0.8,1.92c0,0.77-0.32,1.41-0.95,1.93c-0.64,0.52-1.4,0.77-2.29,0.77
			c-0.53,0-1.05-0.1-1.57-0.29c-0.52-0.2-0.88-0.37-1.08-0.51C254.57,54.66,254.4,54.52,254.26,54.39z"/>
	</g>
	<circle class="st1" cx="797.82" cy="336.27" r="132.47"/>
	<circle class="st29" cx="797.82" cy="707.86" r="132.47"/>
	<g>
		<g>
			<path class="st0" d="M1842.49,1035.91c-0.41,0-0.75,0.33-0.75,0.75v10.95c0,0.41,0.33,0.75,0.75,0.75s0.75-0.33,0.75-0.75v-10.95
				C1843.23,1036.24,1842.9,1035.91,1842.49,1035.91z"/>
			<path class="st0" d="M1839.58,1034.2c-0.41,0-0.75,0.33-0.75,0.75v4.9c0,0.41,0.33,0.75,0.75,0.75c0.41,0,0.75-0.33,0.75-0.75
				v-4.9C1840.33,1034.54,1840,1034.2,1839.58,1034.2z"/>
			<path class="st0" d="M1845.39,1034.2c-0.41,0-0.75,0.33-0.75,0.75v4.9c0,0.41,0.33,0.75,0.75,0.75c0.41,0,0.75-0.33,0.75-0.75
				v-4.9C1846.14,1034.54,1845.8,1034.2,1845.39,1034.2z"/>
		</g>
		<g>
			<path class="st0" d="M1805.22,1008.96v14.43c0,1.25-0.4,3.04,1.42,3.04c1.12,0,1.45-0.52,1.5-1.42v-16.02h3.74v16.02
				c0,0.05,0,0.07,0,0.12c0.07,0.72,0.37,1.3,1.42,1.3c1.37,0,1.52-0.75,1.52-1.92c0-5.17-0.03-10.36-0.03-15.55h3.74v16.05
				c0,3.04-2.22,5.17-5.24,5.17c-1.3,0-2.42-0.4-3.29-1.1c-0.9,0.7-2.05,1.1-3.37,1.1c-2.99,0-5.17-2.17-5.17-5.17v-16.05H1805.22z"
				/>
			<path class="st0" d="M1872.47,1009.01c3,0,5.17,2.17,5.17,5.17v5.89h-6.66v4.99c0,0.92,0.5,1.42,1.42,1.42
				c1.17,0,1.52-0.57,1.52-1.62c0-0.9-0.02-1.8-0.02-2.67h3.74v2.87c0,3.05-2.22,5.17-5.24,5.17c-3,0-5.17-2.17-5.17-5.17v-10.88
				C1867.23,1011.15,1869.45,1009.01,1872.47,1009.01z M1873.92,1016.32c0-0.92,0.05-2.47-0.17-2.95c-0.25-0.47-0.77-0.62-1.27-0.62
				c-0.95,0-1.5,0.45-1.5,1.42v2.15H1873.92z"/>
			<path class="st0" d="M1830.45,1022.68v-0.54h-3.74c0,0.87,0.03,1.77,0.03,2.67c0,1.05-0.35,1.62-1.52,1.62
				c-0.92,0-1.42-0.5-1.42-1.42v-4.99h6.66v-5.89c0-2.99-2.17-5.17-5.17-5.17c-3.02,0-5.24,2.15-5.24,5.17v10.88
				c0,2.99,2.17,5.17,5.17,5.17c1.37,0,2.58-0.44,3.49-1.2C1828.79,1026.71,1829.4,1024.54,1830.45,1022.68z M1823.79,1014.13
				c0-0.97,0.55-1.42,1.5-1.42c0.5,0,1.02,0.15,1.27,0.62c0.22,0.47,0.17,2.02,0.17,2.95h-2.95V1014.13z"/>
			<path class="st0" d="M1863.49,1021.46c1.27-1.07,2.05-2.75,2.05-4.69v-1.65c0-3.57-2.55-6.12-6.12-6.12h-4.29v14.89
				c0.75,1.73,1.17,3.67,1.17,5.66c0,0.2,0,0.41-0.01,0.63l0,0.03h2.59v-7.34h0.55c0.2,0,0.37,0,0.57-0.02l1.9,7.36h3.84
				L1863.49,1021.46z M1861.79,1016.92c-0.27,1.9-1.22,2.22-2.92,2.22v-6.39c0.25,0,0.52,0,0.8,0c1.37,0.08,2.12,1.02,2.12,2.37
				V1016.92z"/>
			<path class="st0" d="M1851.46,1020.2l-0.11-0.09l-0.02,0.15c-0.11,0.95-0.32,1.88-0.62,2.77c0.06-0.69,0.09-1.38,0.09-2.06
				c0-7.09-3.05-13.51-8.16-17.2l-0.04-0.03l-0.04,0.03c-5.11,3.68-8.16,10.11-8.16,17.2c0,0.78,0.04,1.57,0.12,2.35
				c-0.38-1.01-0.62-2.08-0.74-3.18l-0.02-0.15l-0.11,0.09c-2.59,2.18-4.13,5.72-4.13,9.48c0,0.19,0,0.39,0.01,0.6l0,0.09h6.77
				l0.02,0.06c0.01,0.03,0.02,0.05,0.03,0.08l0.03,0.05c0.4,0.89,0.85,1.74,1.35,2.53l0.02,0.04h2.99v-5.46h3.48
				c0.02,1.82,0.02,3.64,0.03,5.46h3.18l0.02-0.04c0.5-0.79,0.95-1.65,1.35-2.53l0.03-0.05c0.01-0.03,0.02-0.05,0.03-0.08l0.02-0.06
				h6.54l0-0.09c0.01-0.22,0.01-0.41,0.01-0.6C1855.45,1025.88,1853.96,1022.39,1851.46,1020.2z M1844.28,1016.67
				c0,0.74-0.6,1.33-1.33,1.33h-0.9c-0.74,0-1.33-0.6-1.33-1.33v-2.9c0-0.74,0.6-1.33,1.33-1.33h0.9c0.74,0,1.33,0.6,1.33,1.33
				V1016.67z"/>
		</g>
	</g>
</g>
</svg>
