<?xml version="1.0" encoding="utf-8"?>
<!-- Generator: Adobe Illustrator 24.3.0, SVG Export Plug-In . SVG Version: 6.00 Build 0)  -->
<svg version="1.1" xmlns="http://www.w3.org/2000/svg" xmlns:xlink="http://www.w3.org/1999/xlink" x="0px" y="0px"
	 viewBox="0 0 1920 1080" style="enable-background:new 0 0 1920 1080;" xml:space="preserve">
<style type="text/css">
	.st0{fill:#1D1D1B;}
	.st1{fill:#293D51;}
	.st2{fill:#FFFFFF;}
	.st3{fill:url(#SVGID_5_);}
	.st4{clip-path:url(#SVGID_7_);}
	.st5{opacity:0.28;}
	.st6{fill:url(#SVGID_8_);}
	.st7{fill:url(#SVGID_9_);}
	.st8{fill:url(#SVGID_10_);}
	.st9{fill:url(#SVGID_11_);}
	.st10{fill:url(#SVGID_12_);}
	.st11{fill:url(#SVGID_13_);}
	.st12{fill:url(#SVGID_14_);}
	.st13{fill:url(#SVGID_15_);}
	.st14{fill:url(#SVGID_16_);}
	.st15{fill:url(#SVGID_17_);}
	.st16{fill:url(#SVGID_18_);}
	.st17{fill:url(#SVGID_19_);}
	.st18{fill:url(#SVGID_20_);}
	.st19{fill:url(#SVGID_21_);}
	.st20{fill:url(#SVGID_22_);}
	.st21{fill:url(#SVGID_23_);}
	.st22{fill:url(#SVGID_24_);}
	.st23{fill:url(#SVGID_25_);}
	.st24{fill:url(#SVGID_26_);}
	.st25{fill:url(#SVGID_27_);}
	.st26{fill:url(#SVGID_28_);}
	.st27{fill:url(#SVGID_29_);}
	.st28{fill:url(#SVGID_30_);}
	.st29{fill:#F34D23;}
	.st30{fill:#FFFFFF;stroke:#1D1D1B;stroke-miterlimit:10;}
	.st31{fill:none;stroke:#03FFFF;stroke-miterlimit:10;stroke-dasharray:10;}
	.st32{fill:none;stroke:#03FFFF;stroke-miterlimit:10;}
	.st33{fill:none;stroke:#03FFFF;stroke-miterlimit:10;stroke-dasharray:9.9851,9.9851;}
	.st34{fill:none;stroke:#03FFFF;stroke-miterlimit:10;stroke-dasharray:10.0327,10.0327;}
	.st35{fill:none;stroke:#03FFFF;stroke-miterlimit:10;stroke-dasharray:9.9349,9.9349;}
	.st36{fill:none;stroke:#03FFFF;stroke-miterlimit:10;stroke-dasharray:10.1175,10.1175;}
	.st37{fill:#FFFFFF;stroke:#1D1D1B;stroke-width:0.5196;stroke-miterlimit:10;}
</style>
<g id="Layer_3">
</g>
<g id="Layer_2">
	<g>
		<g>
			<defs>
				<rect id="SVGID_6_" x="8.79" y="1133.42" width="1920" height="1080"/>
			</defs>
			<clipPath id="SVGID_2_">
				<use xlink:href="#SVGID_6_"  style="overflow:visible;"/>
			</clipPath>
			<g style="clip-path:url(#SVGID_2_);">
				<g>
					<g class="st5">
						<g>
							<path class="st2" d="M1847.12,1040.19c0.65,1.43-0.73,2.82-2.16,2.16c-0.3-0.14-0.55-0.39-0.69-0.69
								c-0.66-1.43,0.73-2.82,2.17-2.16C1846.74,1039.64,1846.99,1039.89,1847.12,1040.19z"/>
						</g>
					</g>
				</g>
			</g>
		</g>
	</g>
	<g>
		<path class="st0" d="M45.44,1024.54l-2.83-10.08c-0.03-0.1-0.02-0.19,0.03-0.25c0.05-0.07,0.13-0.11,0.24-0.11h1.75
			c0.14,0,0.23,0.07,0.27,0.21l1.29,5.08h0.06l2.33-5.28c0.06-0.11,0.14-0.17,0.25-0.17h0.27c0.13,0,0.21,0.06,0.25,0.17l2.32,5.28
			h0.06l1.29-5.08c0.04-0.14,0.13-0.21,0.27-0.21h1.75c0.11,0,0.19,0.04,0.24,0.11c0.05,0.07,0.06,0.15,0.03,0.25l-2.83,10.08
			c-0.03,0.14-0.12,0.21-0.27,0.21h-0.24c-0.11,0-0.2-0.06-0.25-0.17l-2.75-6.14h-0.04l-2.73,6.14c-0.06,0.11-0.15,0.17-0.25,0.17
			h-0.24C45.56,1024.75,45.47,1024.68,45.44,1024.54z"/>
		<path class="st0" d="M61.43,1024.31v-9.93c0-0.08,0.03-0.15,0.08-0.2c0.06-0.05,0.12-0.08,0.2-0.08h6.21
			c0.08,0,0.15,0.03,0.2,0.08c0.05,0.06,0.08,0.12,0.08,0.2v1.63c0,0.08-0.03,0.15-0.08,0.2c-0.05,0.06-0.12,0.08-0.2,0.08h-4.16
			v1.86h3.42c0.08,0,0.15,0.03,0.2,0.08c0.05,0.05,0.08,0.12,0.08,0.2v1.64c0,0.08-0.03,0.15-0.08,0.2
			c-0.06,0.05-0.12,0.08-0.2,0.08h-3.42v2.03h4.16c0.08,0,0.15,0.03,0.2,0.08c0.05,0.05,0.08,0.12,0.08,0.2v1.63
			c0,0.08-0.03,0.15-0.08,0.2c-0.05,0.05-0.12,0.08-0.2,0.08h-6.21c-0.08,0-0.15-0.03-0.2-0.08
			C61.45,1024.46,61.43,1024.39,61.43,1024.31z"/>
		<path class="st0" d="M81.44,1024.6c-0.11,0-0.19-0.04-0.25-0.12s-0.06-0.17-0.01-0.27l4.69-10.1c0.05-0.11,0.13-0.17,0.25-0.17
			h0.15c0.12,0,0.21,0.06,0.25,0.17l4.7,10.1c0.05,0.1,0.05,0.19-0.01,0.27s-0.14,0.12-0.25,0.12h-1.67c-0.23,0-0.41-0.12-0.53-0.38
			l-0.54-1.18h-4.08l-0.54,1.2c-0.1,0.24-0.28,0.36-0.54,0.36H81.44z M85.07,1021h2.28l-1.14-2.48h-0.01L85.07,1021z"/>
		<path class="st0" d="M96.96,1024.31v-9.93c0-0.08,0.03-0.15,0.08-0.2c0.06-0.05,0.12-0.08,0.2-0.08h4.48
			c0.9,0,1.67,0.32,2.31,0.95c0.64,0.64,0.96,1.4,0.96,2.29c0,0.67-0.2,1.27-0.61,1.81s-0.94,0.94-1.61,1.21l2.05,3.81
			c0.06,0.1,0.06,0.2,0.01,0.29c-0.06,0.1-0.14,0.14-0.26,0.14h-2c-0.11,0-0.19-0.04-0.24-0.13l-2-3.98h-1.04v3.83
			c0,0.07-0.03,0.13-0.08,0.2c-0.05,0.06-0.12,0.09-0.2,0.09h-1.79c-0.08,0-0.15-0.03-0.2-0.08
			C96.99,1024.46,96.96,1024.39,96.96,1024.31z M99.32,1018.58h2.22c0.31,0,0.58-0.12,0.8-0.36c0.22-0.24,0.34-0.52,0.34-0.84
			c0-0.31-0.11-0.58-0.34-0.8c-0.23-0.22-0.49-0.34-0.8-0.34h-2.22V1018.58z"/>
		<path class="st0" d="M111.51,1024.31v-9.93c0-0.08,0.03-0.15,0.08-0.2c0.06-0.05,0.12-0.08,0.2-0.08h6.21
			c0.08,0,0.15,0.03,0.2,0.08c0.05,0.06,0.08,0.12,0.08,0.2v1.63c0,0.08-0.03,0.15-0.08,0.2c-0.05,0.06-0.12,0.08-0.2,0.08h-4.16
			v1.86h3.42c0.08,0,0.15,0.03,0.2,0.08c0.05,0.05,0.08,0.12,0.08,0.2v1.64c0,0.08-0.03,0.15-0.08,0.2
			c-0.06,0.05-0.12,0.08-0.2,0.08h-3.42v2.03h4.16c0.08,0,0.15,0.03,0.2,0.08c0.05,0.05,0.08,0.12,0.08,0.2v1.63
			c0,0.08-0.03,0.15-0.08,0.2c-0.05,0.05-0.12,0.08-0.2,0.08h-6.21c-0.08,0-0.15-0.03-0.2-0.08
			C111.54,1024.46,111.51,1024.39,111.51,1024.31z"/>
		<path class="st0" d="M132.23,1027.03v-15.34c0-0.08,0.03-0.15,0.08-0.2s0.12-0.08,0.2-0.08h0.26c0.08,0,0.14,0.03,0.19,0.08
			s0.08,0.12,0.08,0.2v15.34c0,0.07-0.03,0.13-0.08,0.19c-0.06,0.05-0.12,0.08-0.2,0.08h-0.24c-0.08,0-0.15-0.03-0.2-0.08
			S132.23,1027.1,132.23,1027.03z"/>
		<path class="st0" d="M147.8,1024.31v-9.93c0-0.07,0.03-0.13,0.09-0.2c0.06-0.06,0.12-0.09,0.2-0.09h0.6c0.07,0,0.13,0.03,0.2,0.09
			c0.06,0.06,0.09,0.12,0.09,0.2v9.93c0,0.07-0.03,0.13-0.09,0.2c-0.06,0.06-0.13,0.09-0.2,0.09h-0.6c-0.07,0-0.14-0.03-0.2-0.09
			C147.83,1024.45,147.8,1024.38,147.8,1024.31z"/>
		<path class="st0" d="M156.53,1024.31v-9.93c0-0.08,0.03-0.15,0.08-0.2c0.05-0.05,0.12-0.08,0.19-0.08h3.36
			c1.45,0,2.69,0.51,3.72,1.54c1.03,1.03,1.54,2.26,1.54,3.7c0,1.45-0.51,2.69-1.54,3.72s-2.27,1.54-3.72,1.54h-3.36
			c-0.07,0-0.13-0.03-0.19-0.08C156.55,1024.46,156.53,1024.39,156.53,1024.31z M157.67,1023.56h2.25c1.23,0,2.25-0.4,3.04-1.19
			s1.2-1.81,1.2-3.04c0-1.23-0.4-2.24-1.2-3.03s-1.81-1.19-3.04-1.19h-2.25V1023.56z"/>
		<path class="st0" d="M172.23,1024.31v-9.93c0-0.08,0.03-0.15,0.08-0.2c0.05-0.05,0.12-0.08,0.2-0.08h5.91
			c0.08,0,0.15,0.03,0.2,0.08c0.05,0.06,0.08,0.12,0.08,0.2v0.43c0,0.08-0.03,0.15-0.08,0.2c-0.06,0.05-0.12,0.08-0.2,0.08h-5.04
			v3.66h4.31c0.08,0,0.15,0.03,0.2,0.08c0.05,0.06,0.08,0.12,0.08,0.2v0.43c0,0.08-0.03,0.15-0.08,0.2
			c-0.05,0.05-0.12,0.08-0.2,0.08h-4.31v3.83h5.04c0.08,0,0.15,0.03,0.2,0.08c0.05,0.06,0.08,0.12,0.08,0.2v0.43
			c0,0.08-0.03,0.15-0.08,0.2c-0.06,0.05-0.12,0.08-0.2,0.08h-5.91c-0.08,0-0.15-0.03-0.2-0.08
			C172.26,1024.46,172.23,1024.39,172.23,1024.31z"/>
		<path class="st0" d="M185.61,1024.31v-10.09c0-0.07,0.03-0.13,0.08-0.19s0.12-0.08,0.2-0.08h0.38l6.76,8.43h0.03v-8
			c0-0.08,0.03-0.15,0.08-0.2c0.05-0.05,0.12-0.08,0.2-0.08h0.53c0.07,0,0.13,0.03,0.2,0.09c0.06,0.06,0.09,0.12,0.09,0.2v10.09
			c0,0.07-0.03,0.13-0.08,0.19c-0.05,0.05-0.12,0.08-0.2,0.08h-0.27l-6.89-8.6h-0.01v8.16c0,0.08-0.03,0.15-0.08,0.2
			c-0.06,0.05-0.12,0.08-0.2,0.08h-0.52c-0.07,0-0.14-0.03-0.2-0.09C185.64,1024.45,185.61,1024.38,185.61,1024.31z"/>
		<path class="st0" d="M203.21,1024.31v-9.21h-2.61c-0.08,0-0.15-0.03-0.2-0.08c-0.05-0.06-0.08-0.12-0.08-0.2v-0.43
			c0-0.08,0.03-0.15,0.08-0.2c0.06-0.05,0.12-0.08,0.2-0.08h6.36c0.08,0,0.15,0.03,0.2,0.08c0.05,0.06,0.08,0.12,0.08,0.2v0.43
			c0,0.08-0.03,0.15-0.08,0.2c-0.06,0.05-0.12,0.08-0.2,0.08h-2.61v9.21c0,0.07-0.03,0.13-0.08,0.2c-0.05,0.06-0.12,0.09-0.2,0.09
			h-0.57c-0.08,0-0.15-0.03-0.2-0.09C203.23,1024.45,203.21,1024.38,203.21,1024.31z"/>
		<path class="st0" d="M213.39,1024.31v-9.93c0-0.07,0.03-0.13,0.09-0.2c0.06-0.06,0.12-0.09,0.2-0.09h0.6
			c0.07,0,0.13,0.03,0.2,0.09c0.06,0.06,0.09,0.12,0.09,0.2v9.93c0,0.07-0.03,0.13-0.09,0.2c-0.06,0.06-0.13,0.09-0.2,0.09h-0.6
			c-0.07,0-0.14-0.03-0.2-0.09C213.42,1024.45,213.39,1024.38,213.39,1024.31z"/>
		<path class="st0" d="M222.12,1024.31v-9.93c0-0.08,0.03-0.15,0.08-0.2c0.05-0.05,0.12-0.08,0.19-0.08h3.36
			c1.45,0,2.69,0.51,3.72,1.54c1.03,1.03,1.54,2.26,1.54,3.7c0,1.45-0.51,2.69-1.54,3.72s-2.27,1.54-3.72,1.54h-3.36
			c-0.07,0-0.13-0.03-0.19-0.08C222.15,1024.46,222.12,1024.39,222.12,1024.31z M223.26,1023.56h2.25c1.23,0,2.25-0.4,3.04-1.19
			s1.2-1.81,1.2-3.04c0-1.23-0.4-2.24-1.2-3.03s-1.81-1.19-3.04-1.19h-2.25V1023.56z"/>
		<path class="st0" d="M236.58,1024.6c-0.11,0-0.19-0.04-0.25-0.12c-0.06-0.08-0.06-0.17-0.01-0.27l4.56-10.1
			c0.06-0.11,0.14-0.17,0.25-0.17h0.15c0.11,0,0.2,0.06,0.25,0.17l4.53,10.1c0.05,0.1,0.05,0.19-0.01,0.27
			c-0.05,0.08-0.14,0.12-0.25,0.12h-0.6c-0.13,0-0.22-0.05-0.25-0.17l-1.11-2.47h-5.33l-1.09,2.47c-0.04,0.11-0.12,0.17-0.25,0.17
			H236.58z M238.95,1021.03h4.5c-0.25-0.55-0.62-1.37-1.09-2.46c-0.48-1.09-0.85-1.91-1.09-2.46h-0.12L238.95,1021.03z"/>
		<path class="st0" d="M252.21,1024.31v-9.93c0-0.08,0.03-0.15,0.08-0.2c0.05-0.05,0.12-0.08,0.19-0.08h3.36
			c1.45,0,2.69,0.51,3.72,1.54c1.03,1.03,1.54,2.26,1.54,3.7c0,1.45-0.51,2.69-1.54,3.72s-2.27,1.54-3.72,1.54h-3.36
			c-0.07,0-0.13-0.03-0.19-0.08C252.24,1024.46,252.21,1024.39,252.21,1024.31z M253.35,1023.56h2.25c1.23,0,2.25-0.4,3.04-1.19
			s1.2-1.81,1.2-3.04c0-1.23-0.4-2.24-1.2-3.03s-1.81-1.19-3.04-1.19h-2.25V1023.56z"/>
		<path class="st0" d="M275.75,1024.31v-9.93c0-0.08,0.03-0.15,0.08-0.2c0.05-0.05,0.12-0.08,0.19-0.08h3.36
			c1.45,0,2.69,0.51,3.72,1.54c1.03,1.03,1.54,2.26,1.54,3.7c0,1.45-0.51,2.69-1.54,3.72s-2.27,1.54-3.72,1.54h-3.36
			c-0.07,0-0.13-0.03-0.19-0.08C275.77,1024.46,275.75,1024.39,275.75,1024.31z M276.89,1023.56h2.25c1.23,0,2.25-0.4,3.04-1.19
			s1.2-1.81,1.2-3.04c0-1.23-0.4-2.24-1.2-3.03s-1.81-1.19-3.04-1.19h-2.25V1023.56z"/>
		<path class="st0" d="M291.45,1024.31v-9.93c0-0.08,0.03-0.15,0.08-0.2c0.05-0.05,0.12-0.08,0.2-0.08h5.91
			c0.08,0,0.15,0.03,0.2,0.08c0.05,0.06,0.08,0.12,0.08,0.2v0.43c0,0.08-0.03,0.15-0.08,0.2c-0.06,0.05-0.12,0.08-0.2,0.08h-5.04
			v3.66h4.31c0.08,0,0.15,0.03,0.2,0.08c0.05,0.06,0.08,0.12,0.08,0.2v0.43c0,0.08-0.03,0.15-0.08,0.2
			c-0.05,0.05-0.12,0.08-0.2,0.08h-4.31v3.83h5.04c0.08,0,0.15,0.03,0.2,0.08c0.05,0.06,0.08,0.12,0.08,0.2v0.43
			c0,0.08-0.03,0.15-0.08,0.2c-0.06,0.05-0.12,0.08-0.2,0.08h-5.91c-0.08,0-0.15-0.03-0.2-0.08
			C291.48,1024.46,291.45,1024.39,291.45,1024.31z"/>
		<path class="st0" d="M311.91,1024.24l1.93-10.08c0.03-0.14,0.12-0.21,0.27-0.21h0.24c0.13,0,0.21,0.06,0.26,0.17l2.97,8.27h0.08
			l2.92-8.27c0.04-0.11,0.12-0.17,0.25-0.17h0.24c0.15,0,0.24,0.07,0.27,0.21l1.94,10.08c0.05,0.24-0.04,0.36-0.27,0.36h-0.6
			c-0.14,0-0.23-0.07-0.27-0.21l-1.33-7.72h-0.06l-2.76,7.92c-0.04,0.11-0.13,0.17-0.26,0.17h-0.27c-0.13,0-0.21-0.06-0.25-0.17
			l-2.79-7.92h-0.06l-1.3,7.72c-0.01,0.05-0.04,0.1-0.1,0.14s-0.11,0.07-0.17,0.07h-0.6
			C311.95,1024.6,311.86,1024.48,311.91,1024.24z"/>
		<path class="st0" d="M328.91,1024.6c-0.11,0-0.19-0.04-0.25-0.12c-0.06-0.08-0.06-0.17-0.01-0.27l4.56-10.1
			c0.06-0.11,0.14-0.17,0.25-0.17h0.15c0.11,0,0.2,0.06,0.25,0.17l4.53,10.1c0.05,0.1,0.05,0.19-0.01,0.27
			c-0.05,0.08-0.14,0.12-0.25,0.12h-0.6c-0.13,0-0.22-0.05-0.25-0.17l-1.11-2.47h-5.33l-1.09,2.47c-0.04,0.11-0.12,0.17-0.25,0.17
			H328.91z M331.28,1021.03h4.5c-0.25-0.55-0.62-1.37-1.09-2.46c-0.48-1.09-0.85-1.91-1.09-2.46h-0.12L331.28,1021.03z"/>
		<path class="st0" d="M344.54,1024.31v-9.93c0-0.08,0.03-0.15,0.08-0.2c0.05-0.05,0.12-0.08,0.2-0.08h3.88
			c0.9,0,1.67,0.31,2.31,0.93c0.64,0.62,0.96,1.38,0.96,2.27c0,0.68-0.2,1.29-0.61,1.84c-0.41,0.55-0.94,0.95-1.61,1.22l2.05,3.81
			c0.06,0.1,0.06,0.2,0.01,0.29c-0.05,0.1-0.14,0.14-0.26,0.14h-0.76c-0.11,0-0.19-0.04-0.24-0.13l-2-3.98h-2.87v3.83
			c0,0.07-0.03,0.13-0.08,0.2c-0.05,0.06-0.12,0.09-0.2,0.09h-0.58c-0.08,0-0.15-0.03-0.2-0.08
			C344.56,1024.46,344.54,1024.39,344.54,1024.31z M345.72,1019.5h2.91c0.58,0,1.08-0.21,1.51-0.64c0.43-0.42,0.65-0.94,0.65-1.55
			c0-0.57-0.21-1.07-0.65-1.49c-0.43-0.42-0.93-0.63-1.51-0.63h-2.91V1019.5z"/>
		<path class="st0" d="M359.77,1023.18c-1.06-1.04-1.58-2.32-1.58-3.82s0.53-2.78,1.58-3.83c1.05-1.05,2.33-1.58,3.83-1.58
			c1.33,0,2.54,0.47,3.63,1.4c0.14,0.15,0.15,0.29,0.02,0.42l-0.41,0.41c-0.11,0.14-0.24,0.13-0.39-0.02
			c-0.87-0.75-1.83-1.12-2.87-1.12c-1.17,0-2.16,0.43-2.97,1.28c-0.81,0.85-1.21,1.87-1.21,3.04c0,1.17,0.4,2.18,1.21,3.03
			c0.81,0.85,1.8,1.27,2.97,1.27c0.41,0,0.8-0.06,1.16-0.17s0.66-0.24,0.88-0.38c0.22-0.14,0.5-0.33,0.83-0.58
			c0.13-0.1,0.25-0.11,0.36-0.04l0.45,0.41c0.06,0.05,0.09,0.12,0.08,0.2c-0.01,0.08-0.04,0.15-0.1,0.21
			c-1,0.97-2.21,1.46-3.65,1.46C362.1,1024.75,360.82,1024.22,359.77,1023.18z"/>
		<path class="st0" d="M372.87,1024.6c-0.11,0-0.19-0.04-0.25-0.12c-0.06-0.08-0.06-0.17-0.01-0.27l4.56-10.1
			c0.06-0.11,0.14-0.17,0.25-0.17h0.15c0.11,0,0.2,0.06,0.25,0.17l4.53,10.1c0.05,0.1,0.05,0.19-0.01,0.27
			c-0.05,0.08-0.14,0.12-0.25,0.12h-0.6c-0.13,0-0.22-0.05-0.25-0.17l-1.11-2.47h-5.33l-1.09,2.47c-0.04,0.11-0.12,0.17-0.25,0.17
			H372.87z M375.24,1021.03h4.5c-0.25-0.55-0.62-1.37-1.09-2.46c-0.48-1.09-0.85-1.91-1.09-2.46h-0.12L375.24,1021.03z"/>
	</g>
	<g>
		<path class="st0" d="M45.44,1024.54l-2.83-10.08c-0.03-0.1-0.02-0.19,0.03-0.25c0.05-0.07,0.13-0.11,0.24-0.11h1.75
			c0.14,0,0.23,0.07,0.27,0.21l1.29,5.08h0.06l2.33-5.28c0.06-0.11,0.14-0.17,0.25-0.17h0.27c0.13,0,0.21,0.06,0.25,0.17l2.32,5.28
			h0.06l1.29-5.08c0.04-0.14,0.13-0.21,0.27-0.21h1.75c0.11,0,0.19,0.04,0.24,0.11c0.05,0.07,0.06,0.15,0.03,0.25l-2.83,10.08
			c-0.03,0.14-0.12,0.21-0.27,0.21h-0.24c-0.11,0-0.2-0.06-0.25-0.17l-2.75-6.14h-0.04l-2.73,6.14c-0.06,0.11-0.15,0.17-0.25,0.17
			h-0.24C45.56,1024.75,45.47,1024.68,45.44,1024.54z"/>
		<path class="st0" d="M61.43,1024.31v-9.93c0-0.08,0.03-0.15,0.08-0.2c0.06-0.05,0.12-0.08,0.2-0.08h6.21
			c0.08,0,0.15,0.03,0.2,0.08c0.05,0.06,0.08,0.12,0.08,0.2v1.63c0,0.08-0.03,0.15-0.08,0.2c-0.05,0.06-0.12,0.08-0.2,0.08h-4.16
			v1.86h3.42c0.08,0,0.15,0.03,0.2,0.08c0.05,0.05,0.08,0.12,0.08,0.2v1.64c0,0.08-0.03,0.15-0.08,0.2
			c-0.06,0.05-0.12,0.08-0.2,0.08h-3.42v2.03h4.16c0.08,0,0.15,0.03,0.2,0.08c0.05,0.05,0.08,0.12,0.08,0.2v1.63
			c0,0.08-0.03,0.15-0.08,0.2c-0.05,0.05-0.12,0.08-0.2,0.08h-6.21c-0.08,0-0.15-0.03-0.2-0.08
			C61.45,1024.46,61.43,1024.39,61.43,1024.31z"/>
		<path class="st0" d="M81.44,1024.6c-0.11,0-0.19-0.04-0.25-0.12s-0.06-0.17-0.01-0.27l4.69-10.1c0.05-0.11,0.13-0.17,0.25-0.17
			h0.15c0.12,0,0.21,0.06,0.25,0.17l4.7,10.1c0.05,0.1,0.05,0.19-0.01,0.27s-0.14,0.12-0.25,0.12h-1.67c-0.23,0-0.41-0.12-0.53-0.38
			l-0.54-1.18h-4.08l-0.54,1.2c-0.1,0.24-0.28,0.36-0.54,0.36H81.44z M85.07,1021h2.28l-1.14-2.48h-0.01L85.07,1021z"/>
		<path class="st0" d="M96.96,1024.31v-9.93c0-0.08,0.03-0.15,0.08-0.2c0.06-0.05,0.12-0.08,0.2-0.08h4.48
			c0.9,0,1.67,0.32,2.31,0.95c0.64,0.64,0.96,1.4,0.96,2.29c0,0.67-0.2,1.27-0.61,1.81s-0.94,0.94-1.61,1.21l2.05,3.81
			c0.06,0.1,0.06,0.2,0.01,0.29c-0.06,0.1-0.14,0.14-0.26,0.14h-2c-0.11,0-0.19-0.04-0.24-0.13l-2-3.98h-1.04v3.83
			c0,0.07-0.03,0.13-0.08,0.2c-0.05,0.06-0.12,0.09-0.2,0.09h-1.79c-0.08,0-0.15-0.03-0.2-0.08
			C96.99,1024.46,96.96,1024.39,96.96,1024.31z M99.32,1018.58h2.22c0.31,0,0.58-0.12,0.8-0.36c0.22-0.24,0.34-0.52,0.34-0.84
			c0-0.31-0.11-0.58-0.34-0.8c-0.23-0.22-0.49-0.34-0.8-0.34h-2.22V1018.58z"/>
		<path class="st0" d="M111.51,1024.31v-9.93c0-0.08,0.03-0.15,0.08-0.2c0.06-0.05,0.12-0.08,0.2-0.08h6.21
			c0.08,0,0.15,0.03,0.2,0.08c0.05,0.06,0.08,0.12,0.08,0.2v1.63c0,0.08-0.03,0.15-0.08,0.2c-0.05,0.06-0.12,0.08-0.2,0.08h-4.16
			v1.86h3.42c0.08,0,0.15,0.03,0.2,0.08c0.05,0.05,0.08,0.12,0.08,0.2v1.64c0,0.08-0.03,0.15-0.08,0.2
			c-0.06,0.05-0.12,0.08-0.2,0.08h-3.42v2.03h4.16c0.08,0,0.15,0.03,0.2,0.08c0.05,0.05,0.08,0.12,0.08,0.2v1.63
			c0,0.08-0.03,0.15-0.08,0.2c-0.05,0.05-0.12,0.08-0.2,0.08h-6.21c-0.08,0-0.15-0.03-0.2-0.08
			C111.54,1024.46,111.51,1024.39,111.51,1024.31z"/>
		<path class="st0" d="M132.23,1027.03v-15.34c0-0.08,0.03-0.15,0.08-0.2s0.12-0.08,0.2-0.08h0.26c0.08,0,0.14,0.03,0.19,0.08
			s0.08,0.12,0.08,0.2v15.34c0,0.07-0.03,0.13-0.08,0.19c-0.06,0.05-0.12,0.08-0.2,0.08h-0.24c-0.08,0-0.15-0.03-0.2-0.08
			S132.23,1027.1,132.23,1027.03z"/>
		<path class="st0" d="M147.8,1024.31v-9.93c0-0.07,0.03-0.13,0.09-0.2c0.06-0.06,0.12-0.09,0.2-0.09h0.6c0.07,0,0.13,0.03,0.2,0.09
			c0.06,0.06,0.09,0.12,0.09,0.2v9.93c0,0.07-0.03,0.13-0.09,0.2c-0.06,0.06-0.13,0.09-0.2,0.09h-0.6c-0.07,0-0.14-0.03-0.2-0.09
			C147.83,1024.45,147.8,1024.38,147.8,1024.31z"/>
		<path class="st0" d="M156.53,1024.31v-9.93c0-0.08,0.03-0.15,0.08-0.2c0.05-0.05,0.12-0.08,0.19-0.08h3.36
			c1.45,0,2.69,0.51,3.72,1.54c1.03,1.03,1.54,2.26,1.54,3.7c0,1.45-0.51,2.69-1.54,3.72s-2.27,1.54-3.72,1.54h-3.36
			c-0.07,0-0.13-0.03-0.19-0.08C156.55,1024.46,156.53,1024.39,156.53,1024.31z M157.67,1023.56h2.25c1.23,0,2.25-0.4,3.04-1.19
			s1.2-1.81,1.2-3.04c0-1.23-0.4-2.24-1.2-3.03s-1.81-1.19-3.04-1.19h-2.25V1023.56z"/>
		<path class="st0" d="M172.23,1024.31v-9.93c0-0.08,0.03-0.15,0.08-0.2c0.05-0.05,0.12-0.08,0.2-0.08h5.91
			c0.08,0,0.15,0.03,0.2,0.08c0.05,0.06,0.08,0.12,0.08,0.2v0.43c0,0.08-0.03,0.15-0.08,0.2c-0.06,0.05-0.12,0.08-0.2,0.08h-5.04
			v3.66h4.31c0.08,0,0.15,0.03,0.2,0.08c0.05,0.06,0.08,0.12,0.08,0.2v0.43c0,0.08-0.03,0.15-0.08,0.2
			c-0.05,0.05-0.12,0.08-0.2,0.08h-4.31v3.83h5.04c0.08,0,0.15,0.03,0.2,0.08c0.05,0.06,0.08,0.12,0.08,0.2v0.43
			c0,0.08-0.03,0.15-0.08,0.2c-0.06,0.05-0.12,0.08-0.2,0.08h-5.91c-0.08,0-0.15-0.03-0.2-0.08
			C172.26,1024.46,172.23,1024.39,172.23,1024.31z"/>
		<path class="st0" d="M185.61,1024.31v-10.09c0-0.07,0.03-0.13,0.08-0.19s0.12-0.08,0.2-0.08h0.38l6.76,8.43h0.03v-8
			c0-0.08,0.03-0.15,0.08-0.2c0.05-0.05,0.12-0.08,0.2-0.08h0.53c0.07,0,0.13,0.03,0.2,0.09c0.06,0.06,0.09,0.12,0.09,0.2v10.09
			c0,0.07-0.03,0.13-0.08,0.19c-0.05,0.05-0.12,0.08-0.2,0.08h-0.27l-6.89-8.6h-0.01v8.16c0,0.08-0.03,0.15-0.08,0.2
			c-0.06,0.05-0.12,0.08-0.2,0.08h-0.52c-0.07,0-0.14-0.03-0.2-0.09C185.64,1024.45,185.61,1024.38,185.61,1024.31z"/>
		<path class="st0" d="M203.21,1024.31v-9.21h-2.61c-0.08,0-0.15-0.03-0.2-0.08c-0.05-0.06-0.08-0.12-0.08-0.2v-0.43
			c0-0.08,0.03-0.15,0.08-0.2c0.06-0.05,0.12-0.08,0.2-0.08h6.36c0.08,0,0.15,0.03,0.2,0.08c0.05,0.06,0.08,0.12,0.08,0.2v0.43
			c0,0.08-0.03,0.15-0.08,0.2c-0.06,0.05-0.12,0.08-0.2,0.08h-2.61v9.21c0,0.07-0.03,0.13-0.08,0.2c-0.05,0.06-0.12,0.09-0.2,0.09
			h-0.57c-0.08,0-0.15-0.03-0.2-0.09C203.23,1024.45,203.21,1024.38,203.21,1024.31z"/>
		<path class="st0" d="M213.39,1024.31v-9.93c0-0.07,0.03-0.13,0.09-0.2c0.06-0.06,0.12-0.09,0.2-0.09h0.6
			c0.07,0,0.13,0.03,0.2,0.09c0.06,0.06,0.09,0.12,0.09,0.2v9.93c0,0.07-0.03,0.13-0.09,0.2c-0.06,0.06-0.13,0.09-0.2,0.09h-0.6
			c-0.07,0-0.14-0.03-0.2-0.09C213.42,1024.45,213.39,1024.38,213.39,1024.31z"/>
		<path class="st0" d="M222.12,1024.31v-9.93c0-0.08,0.03-0.15,0.08-0.2c0.05-0.05,0.12-0.08,0.19-0.08h3.36
			c1.45,0,2.69,0.51,3.72,1.54c1.03,1.03,1.54,2.26,1.54,3.7c0,1.45-0.51,2.69-1.54,3.72s-2.27,1.54-3.72,1.54h-3.36
			c-0.07,0-0.13-0.03-0.19-0.08C222.15,1024.46,222.12,1024.39,222.12,1024.31z M223.26,1023.56h2.25c1.23,0,2.25-0.4,3.04-1.19
			s1.2-1.81,1.2-3.04c0-1.23-0.4-2.24-1.2-3.03s-1.81-1.19-3.04-1.19h-2.25V1023.56z"/>
		<path class="st0" d="M236.58,1024.6c-0.11,0-0.19-0.04-0.25-0.12c-0.06-0.08-0.06-0.17-0.01-0.27l4.56-10.1
			c0.06-0.11,0.14-0.17,0.25-0.17h0.15c0.11,0,0.2,0.06,0.25,0.17l4.53,10.1c0.05,0.1,0.05,0.19-0.01,0.27
			c-0.05,0.08-0.14,0.12-0.25,0.12h-0.6c-0.13,0-0.22-0.05-0.25-0.17l-1.11-2.47h-5.33l-1.09,2.47c-0.04,0.11-0.12,0.17-0.25,0.17
			H236.58z M238.95,1021.03h4.5c-0.25-0.55-0.62-1.37-1.09-2.46c-0.48-1.09-0.85-1.91-1.09-2.46h-0.12L238.95,1021.03z"/>
		<path class="st0" d="M252.21,1024.31v-9.93c0-0.08,0.03-0.15,0.08-0.2c0.05-0.05,0.12-0.08,0.19-0.08h3.36
			c1.45,0,2.69,0.51,3.72,1.54c1.03,1.03,1.54,2.26,1.54,3.7c0,1.45-0.51,2.69-1.54,3.72s-2.27,1.54-3.72,1.54h-3.36
			c-0.07,0-0.13-0.03-0.19-0.08C252.24,1024.46,252.21,1024.39,252.21,1024.31z M253.35,1023.56h2.25c1.23,0,2.25-0.4,3.04-1.19
			s1.2-1.81,1.2-3.04c0-1.23-0.4-2.24-1.2-3.03s-1.81-1.19-3.04-1.19h-2.25V1023.56z"/>
		<path class="st0" d="M275.75,1024.31v-9.93c0-0.08,0.03-0.15,0.08-0.2c0.05-0.05,0.12-0.08,0.19-0.08h3.36
			c1.45,0,2.69,0.51,3.72,1.54c1.03,1.03,1.54,2.26,1.54,3.7c0,1.45-0.51,2.69-1.54,3.72s-2.27,1.54-3.72,1.54h-3.36
			c-0.07,0-0.13-0.03-0.19-0.08C275.77,1024.46,275.75,1024.39,275.75,1024.31z M276.89,1023.56h2.25c1.23,0,2.25-0.4,3.04-1.19
			s1.2-1.81,1.2-3.04c0-1.23-0.4-2.24-1.2-3.03s-1.81-1.19-3.04-1.19h-2.25V1023.56z"/>
		<path class="st0" d="M291.45,1024.31v-9.93c0-0.08,0.03-0.15,0.08-0.2c0.05-0.05,0.12-0.08,0.2-0.08h5.91
			c0.08,0,0.15,0.03,0.2,0.08c0.05,0.06,0.08,0.12,0.08,0.2v0.43c0,0.08-0.03,0.15-0.08,0.2c-0.06,0.05-0.12,0.08-0.2,0.08h-5.04
			v3.66h4.31c0.08,0,0.15,0.03,0.2,0.08c0.05,0.06,0.08,0.12,0.08,0.2v0.43c0,0.08-0.03,0.15-0.08,0.2
			c-0.05,0.05-0.12,0.08-0.2,0.08h-4.31v3.83h5.04c0.08,0,0.15,0.03,0.2,0.08c0.05,0.06,0.08,0.12,0.08,0.2v0.43
			c0,0.08-0.03,0.15-0.08,0.2c-0.06,0.05-0.12,0.08-0.2,0.08h-5.91c-0.08,0-0.15-0.03-0.2-0.08
			C291.48,1024.46,291.45,1024.39,291.45,1024.31z"/>
		<path class="st0" d="M311.91,1024.24l1.93-10.08c0.03-0.14,0.12-0.21,0.27-0.21h0.24c0.13,0,0.21,0.06,0.26,0.17l2.97,8.27h0.08
			l2.92-8.27c0.04-0.11,0.12-0.17,0.25-0.17h0.24c0.15,0,0.24,0.07,0.27,0.21l1.94,10.08c0.05,0.24-0.04,0.36-0.27,0.36h-0.6
			c-0.14,0-0.23-0.07-0.27-0.21l-1.33-7.72h-0.06l-2.76,7.92c-0.04,0.11-0.13,0.17-0.26,0.17h-0.27c-0.13,0-0.21-0.06-0.25-0.17
			l-2.79-7.92h-0.06l-1.3,7.72c-0.01,0.05-0.04,0.1-0.1,0.14s-0.11,0.07-0.17,0.07h-0.6
			C311.95,1024.6,311.86,1024.48,311.91,1024.24z"/>
		<path class="st0" d="M328.91,1024.6c-0.11,0-0.19-0.04-0.25-0.12c-0.06-0.08-0.06-0.17-0.01-0.27l4.56-10.1
			c0.06-0.11,0.14-0.17,0.25-0.17h0.15c0.11,0,0.2,0.06,0.25,0.17l4.53,10.1c0.05,0.1,0.05,0.19-0.01,0.27
			c-0.05,0.08-0.14,0.12-0.25,0.12h-0.6c-0.13,0-0.22-0.05-0.25-0.17l-1.11-2.47h-5.33l-1.09,2.47c-0.04,0.11-0.12,0.17-0.25,0.17
			H328.91z M331.28,1021.03h4.5c-0.25-0.55-0.62-1.37-1.09-2.46c-0.48-1.09-0.85-1.91-1.09-2.46h-0.12L331.28,1021.03z"/>
		<path class="st0" d="M344.54,1024.31v-9.93c0-0.08,0.03-0.15,0.08-0.2c0.05-0.05,0.12-0.08,0.2-0.08h3.88
			c0.9,0,1.67,0.31,2.31,0.93c0.64,0.62,0.96,1.38,0.96,2.27c0,0.68-0.2,1.29-0.61,1.84c-0.41,0.55-0.94,0.95-1.61,1.22l2.05,3.81
			c0.06,0.1,0.06,0.2,0.01,0.29c-0.05,0.1-0.14,0.14-0.26,0.14h-0.76c-0.11,0-0.19-0.04-0.24-0.13l-2-3.98h-2.87v3.83
			c0,0.07-0.03,0.13-0.08,0.2c-0.05,0.06-0.12,0.09-0.2,0.09h-0.58c-0.08,0-0.15-0.03-0.2-0.08
			C344.56,1024.46,344.54,1024.39,344.54,1024.31z M345.72,1019.5h2.91c0.58,0,1.08-0.21,1.51-0.64c0.43-0.42,0.65-0.94,0.65-1.55
			c0-0.57-0.21-1.07-0.65-1.49c-0.43-0.42-0.93-0.63-1.51-0.63h-2.91V1019.5z"/>
		<path class="st0" d="M359.77,1023.18c-1.06-1.04-1.58-2.32-1.58-3.82s0.53-2.78,1.58-3.83c1.05-1.05,2.33-1.58,3.83-1.58
			c1.33,0,2.54,0.47,3.63,1.4c0.14,0.15,0.15,0.29,0.02,0.42l-0.41,0.41c-0.11,0.14-0.24,0.13-0.39-0.02
			c-0.87-0.75-1.83-1.12-2.87-1.12c-1.17,0-2.16,0.43-2.97,1.28c-0.81,0.85-1.21,1.87-1.21,3.04c0,1.17,0.4,2.18,1.21,3.03
			c0.81,0.85,1.8,1.27,2.97,1.27c0.41,0,0.8-0.06,1.16-0.17s0.66-0.24,0.88-0.38c0.22-0.14,0.5-0.33,0.83-0.58
			c0.13-0.1,0.25-0.11,0.36-0.04l0.45,0.41c0.06,0.05,0.09,0.12,0.08,0.2c-0.01,0.08-0.04,0.15-0.1,0.21
			c-1,0.97-2.21,1.46-3.65,1.46C362.1,1024.75,360.82,1024.22,359.77,1023.18z"/>
		<path class="st0" d="M372.87,1024.6c-0.11,0-0.19-0.04-0.25-0.12c-0.06-0.08-0.06-0.17-0.01-0.27l4.56-10.1
			c0.06-0.11,0.14-0.17,0.25-0.17h0.15c0.11,0,0.2,0.06,0.25,0.17l4.53,10.1c0.05,0.1,0.05,0.19-0.01,0.27
			c-0.05,0.08-0.14,0.12-0.25,0.12h-0.6c-0.13,0-0.22-0.05-0.25-0.17l-1.11-2.47h-5.33l-1.09,2.47c-0.04,0.11-0.12,0.17-0.25,0.17
			H372.87z M375.24,1021.03h4.5c-0.25-0.55-0.62-1.37-1.09-2.46c-0.48-1.09-0.85-1.91-1.09-2.46h-0.12L375.24,1021.03z"/>
	</g>
	<g>
		<path class="st0" d="M46.86,69.53l-4.68-10.1c-0.05-0.1-0.05-0.19,0.01-0.27s0.14-0.12,0.25-0.12h2c0.13,0,0.21,0.05,0.25,0.17
			l2.47,5.47h0.09l2.48-5.47c0.04-0.11,0.12-0.17,0.25-0.17h2c0.11,0,0.19,0.04,0.25,0.12s0.06,0.17,0.01,0.27l-4.71,10.1
			c-0.06,0.11-0.15,0.17-0.25,0.17h-0.15C47.01,69.7,46.92,69.64,46.86,69.53z"/>
		<path class="st0" d="M57.96,69.26v-9.93c0-0.08,0.03-0.15,0.08-0.2c0.06-0.05,0.12-0.08,0.2-0.08h6.21c0.08,0,0.15,0.03,0.2,0.08
			c0.05,0.06,0.08,0.12,0.08,0.2v1.63c0,0.08-0.03,0.15-0.08,0.2c-0.05,0.06-0.12,0.08-0.2,0.08H60.3v1.86h3.42
			c0.08,0,0.15,0.03,0.2,0.08c0.05,0.05,0.08,0.12,0.08,0.2v1.64c0,0.08-0.03,0.15-0.08,0.2c-0.06,0.05-0.12,0.08-0.2,0.08H60.3
			v2.03h4.16c0.08,0,0.15,0.03,0.2,0.08c0.05,0.05,0.08,0.12,0.08,0.2v1.63c0,0.08-0.03,0.15-0.08,0.2
			c-0.05,0.05-0.12,0.08-0.2,0.08h-6.21c-0.08,0-0.15-0.03-0.2-0.08C57.99,69.41,57.96,69.34,57.96,69.26z"/>
		<path class="st0" d="M71.25,69.26v-9.93c0-0.08,0.03-0.15,0.08-0.2c0.06-0.05,0.12-0.08,0.2-0.08h4.48c0.9,0,1.67,0.32,2.31,0.95
			c0.64,0.64,0.96,1.4,0.96,2.29c0,0.67-0.2,1.27-0.61,1.81s-0.94,0.94-1.61,1.21l2.05,3.81c0.06,0.1,0.06,0.2,0.01,0.29
			c-0.06,0.1-0.14,0.14-0.26,0.14h-2c-0.11,0-0.19-0.04-0.24-0.13l-2-3.98h-1.04v3.83c0,0.07-0.03,0.13-0.08,0.2
			c-0.05,0.06-0.12,0.09-0.2,0.09h-1.79c-0.08,0-0.15-0.03-0.2-0.08C71.28,69.41,71.25,69.34,71.25,69.26z M73.61,63.53h2.22
			c0.31,0,0.58-0.12,0.8-0.36c0.22-0.24,0.34-0.52,0.34-0.84c0-0.31-0.11-0.58-0.34-0.8c-0.23-0.22-0.49-0.34-0.8-0.34h-2.22V63.53z
			"/>
		<path class="st0" d="M85.28,68.54c-0.08-0.08-0.12-0.14-0.13-0.19s0.01-0.12,0.06-0.23l0.7-1.25c0.05-0.09,0.14-0.14,0.26-0.15
			c0.12-0.01,0.2,0.01,0.25,0.06l0.1,0.06c0.07,0.05,0.15,0.11,0.25,0.17c0.09,0.06,0.21,0.12,0.36,0.2
			c0.15,0.07,0.29,0.13,0.44,0.2c0.14,0.06,0.3,0.11,0.48,0.15s0.34,0.06,0.5,0.06c0.3,0,0.55-0.08,0.74-0.26
			c0.2-0.17,0.29-0.38,0.29-0.64c0-0.6-0.52-1.1-1.54-1.51c-1.94-0.77-2.91-1.88-2.91-3.32c0-0.81,0.3-1.51,0.92-2.1
			c0.61-0.59,1.46-0.89,2.55-0.89c1.12,0,2.19,0.38,3.21,1.12c0.08,0.05,0.12,0.13,0.13,0.24c0.01,0.11,0,0.19-0.04,0.24l-0.76,1.16
			c-0.06,0.09-0.14,0.16-0.25,0.2c-0.1,0.04-0.19,0.04-0.26-0.01c-0.01,0-0.07-0.04-0.18-0.12c-0.11-0.08-0.24-0.16-0.38-0.23
			c-0.14-0.07-0.3-0.16-0.47-0.25s-0.36-0.16-0.56-0.22c-0.2-0.05-0.38-0.08-0.55-0.08c-0.27,0-0.5,0.08-0.67,0.22
			c-0.18,0.15-0.27,0.33-0.27,0.54c0,0.28,0.12,0.53,0.38,0.76c0.25,0.22,0.67,0.46,1.26,0.7c2.02,0.8,3.03,1.94,3.03,3.42
			c0,0.82-0.33,1.54-0.98,2.17s-1.51,0.94-2.56,0.94c-0.85,0-1.56-0.13-2.12-0.38C85.96,69.07,85.55,68.81,85.28,68.54z"/>
		<path class="st0" d="M98.52,69.26v-9.93c0-0.07,0.03-0.13,0.09-0.2c0.06-0.06,0.12-0.09,0.2-0.09h1.8c0.07,0,0.13,0.03,0.2,0.09
			c0.06,0.06,0.09,0.12,0.09,0.2v9.93c0,0.07-0.03,0.13-0.09,0.2c-0.06,0.06-0.12,0.09-0.2,0.09h-1.8c-0.07,0-0.13-0.03-0.2-0.09
			C98.55,69.4,98.52,69.33,98.52,69.26z"/>
		<path class="st0" d="M108.77,68.13c-1.04-1.04-1.57-2.32-1.57-3.82s0.52-2.78,1.57-3.83s2.32-1.58,3.82-1.58s2.77,0.53,3.83,1.58
			c1.05,1.05,1.57,2.33,1.57,3.83s-0.52,2.77-1.57,3.82c-1.05,1.05-2.33,1.57-3.83,1.57S109.82,69.17,108.77,68.13z M109.61,64.31
			c0,0.82,0.29,1.52,0.88,2.11s1.29,0.88,2.11,0.88c0.82,0,1.52-0.29,2.12-0.88c0.59-0.58,0.88-1.29,0.88-2.11
			c0-0.83-0.29-1.54-0.88-2.13c-0.59-0.59-1.3-0.88-2.12-0.88c-0.82,0-1.52,0.29-2.11,0.88C109.9,62.77,109.61,63.48,109.61,64.31z
			 M111.53,58.12c-0.17,0.11-0.3,0.06-0.4-0.14l-0.32-0.63c-0.05-0.1-0.02-0.19,0.09-0.29l2.55-1.56c0.04-0.04,0.11-0.06,0.2-0.05
			c0.09,0.01,0.16,0.04,0.19,0.1l0.51,0.88c0.11,0.2,0.08,0.35-0.09,0.45L111.53,58.12z"/>
		<path class="st0" d="M124.31,69.26l-0.01-10.09c0-0.07,0.03-0.13,0.08-0.19s0.12-0.08,0.2-0.08h0.38l5.99,5.76h0.01v-5.33
			c0-0.08,0.03-0.15,0.08-0.2c0.05-0.05,0.12-0.08,0.2-0.08h1.8c0.08,0,0.15,0.03,0.2,0.09c0.05,0.06,0.08,0.12,0.08,0.2v10.09
			c0,0.07-0.03,0.13-0.08,0.19c-0.06,0.05-0.12,0.08-0.2,0.08h-0.24c-0.08,0-0.15-0.03-0.2-0.08l-5.92-5.96h-0.02v5.59
			c0,0.08-0.03,0.15-0.08,0.2c-0.05,0.05-0.12,0.08-0.2,0.08h-1.79c-0.07,0-0.13-0.03-0.2-0.09
			C124.34,69.4,124.31,69.33,124.31,69.26z"/>
		<path class="st0" d="M147.83,71.98V56.63c0-0.08,0.03-0.15,0.08-0.2s0.12-0.08,0.2-0.08h0.26c0.08,0,0.14,0.03,0.19,0.08
			s0.08,0.12,0.08,0.2v15.34c0,0.07-0.03,0.13-0.08,0.19c-0.06,0.05-0.12,0.08-0.2,0.08h-0.24c-0.08,0-0.15-0.03-0.2-0.08
			S147.83,72.05,147.83,71.98z"/>
		<path class="st0" d="M164.21,68.13c-1.06-1.04-1.58-2.32-1.58-3.82s0.53-2.78,1.58-3.83c1.05-1.05,2.33-1.58,3.83-1.58
			c1.33,0,2.54,0.47,3.63,1.4c0.14,0.15,0.15,0.29,0.02,0.42l-0.42,0.42c-0.11,0.12-0.24,0.12-0.39-0.01
			c-0.4-0.35-0.85-0.63-1.36-0.85s-1-0.32-1.49-0.32c-1.17,0-2.16,0.42-2.96,1.27c-0.8,0.84-1.21,1.86-1.21,3.04
			c0,1.17,0.4,2.18,1.21,3.04c0.81,0.86,1.79,1.29,2.96,1.29c0.49,0,0.96-0.05,1.41-0.16c0.45-0.11,0.77-0.21,0.97-0.32l0.32-0.15
			v-2.1h-1.73c-0.08,0-0.15-0.02-0.2-0.07s-0.08-0.12-0.08-0.2v-0.55c0-0.19,0.09-0.29,0.28-0.29h2.6c0.07,0,0.13,0.03,0.19,0.08
			c0.05,0.06,0.08,0.12,0.08,0.2v3.43c0,0.1-0.04,0.18-0.12,0.24c-0.11,0.07-0.27,0.16-0.48,0.27c-0.21,0.11-0.64,0.26-1.29,0.44
			c-0.65,0.19-1.29,0.28-1.94,0.28C166.55,69.7,165.27,69.17,164.21,68.13z"/>
		<path class="st0" d="M178.88,69.26v-9.93c0-0.08,0.03-0.15,0.08-0.2c0.05-0.05,0.12-0.08,0.2-0.08h3.88c0.9,0,1.67,0.31,2.31,0.93
			c0.64,0.62,0.96,1.38,0.96,2.27c0,0.68-0.2,1.29-0.61,1.84c-0.41,0.55-0.94,0.95-1.61,1.22l2.05,3.81c0.06,0.1,0.06,0.2,0.01,0.29
			c-0.05,0.1-0.14,0.14-0.26,0.14h-0.76c-0.11,0-0.19-0.04-0.24-0.13l-2-3.98h-2.87v3.83c0,0.07-0.03,0.13-0.08,0.2
			c-0.05,0.06-0.12,0.09-0.2,0.09h-0.58c-0.08,0-0.15-0.03-0.2-0.08C178.9,69.41,178.88,69.34,178.88,69.26z M180.06,64.45h2.91
			c0.58,0,1.08-0.21,1.51-0.64c0.43-0.42,0.65-0.94,0.65-1.55c0-0.57-0.21-1.07-0.65-1.49c-0.43-0.42-0.93-0.63-1.51-0.63h-2.91
			V64.45z"/>
		<path class="st0" d="M193.29,69.26v-9.93c0-0.07,0.03-0.13,0.09-0.2c0.06-0.06,0.12-0.09,0.2-0.09h0.6c0.07,0,0.13,0.03,0.2,0.09
			c0.06,0.06,0.09,0.12,0.09,0.2v9.93c0,0.07-0.03,0.13-0.09,0.2c-0.06,0.06-0.13,0.09-0.2,0.09h-0.6c-0.07,0-0.14-0.03-0.2-0.09
			C193.32,69.4,193.29,69.33,193.29,69.26z"/>
		<path class="st0" d="M202.02,69.26v-9.93c0-0.08,0.03-0.15,0.08-0.2c0.05-0.05,0.12-0.08,0.2-0.08h0.58c0.08,0,0.15,0.03,0.2,0.09
			c0.05,0.06,0.08,0.12,0.08,0.2v9.21h4.32c0.08,0,0.15,0.03,0.2,0.08c0.06,0.06,0.08,0.12,0.08,0.2v0.43c0,0.08-0.03,0.15-0.08,0.2
			c-0.05,0.05-0.12,0.08-0.2,0.08h-5.19c-0.08,0-0.15-0.03-0.2-0.08C202.05,69.41,202.02,69.34,202.02,69.26z"/>
		<path class="st0" d="M213.89,69.26v-9.93c0-0.08,0.03-0.15,0.08-0.2c0.05-0.05,0.12-0.08,0.2-0.08h0.58c0.08,0,0.15,0.03,0.2,0.09
			c0.05,0.06,0.08,0.12,0.08,0.2v9.21h4.32c0.08,0,0.15,0.03,0.2,0.08c0.06,0.06,0.08,0.12,0.08,0.2v0.43c0,0.08-0.03,0.15-0.08,0.2
			c-0.05,0.05-0.12,0.08-0.2,0.08h-5.19c-0.08,0-0.15-0.03-0.2-0.08C213.91,69.41,213.89,69.34,213.89,69.26z"/>
		<path class="st0" d="M225.03,69.55c-0.11,0-0.19-0.04-0.25-0.12c-0.06-0.08-0.06-0.17-0.01-0.27l4.56-10.1
			c0.06-0.11,0.14-0.17,0.25-0.17h0.15c0.11,0,0.2,0.06,0.25,0.17l4.53,10.1c0.05,0.1,0.05,0.19-0.01,0.27
			c-0.05,0.08-0.14,0.12-0.25,0.12h-0.6c-0.13,0-0.22-0.05-0.25-0.17l-1.11-2.47h-5.33l-1.09,2.47c-0.04,0.11-0.12,0.17-0.25,0.17
			H225.03z M227.4,65.98h4.5c-0.25-0.55-0.62-1.37-1.09-2.46c-0.48-1.09-0.85-1.91-1.09-2.46h-0.12L227.4,65.98z"/>
		<path class="st0" d="M249.31,68.13c-1.06-1.04-1.58-2.32-1.58-3.82s0.53-2.78,1.58-3.83c1.05-1.05,2.33-1.58,3.83-1.58
			c1.33,0,2.54,0.47,3.63,1.4c0.14,0.15,0.15,0.29,0.02,0.42l-0.41,0.41c-0.11,0.14-0.24,0.13-0.39-0.02
			c-0.87-0.75-1.83-1.12-2.87-1.12c-1.17,0-2.16,0.43-2.97,1.28c-0.81,0.85-1.21,1.87-1.21,3.04c0,1.17,0.4,2.18,1.21,3.03
			c0.81,0.85,1.8,1.27,2.97,1.27c0.41,0,0.8-0.06,1.16-0.17s0.66-0.24,0.88-0.38c0.22-0.14,0.5-0.33,0.83-0.58
			c0.13-0.1,0.25-0.11,0.36-0.04l0.45,0.41c0.06,0.05,0.09,0.12,0.08,0.2c-0.01,0.08-0.04,0.15-0.1,0.21
			c-1,0.97-2.21,1.46-3.65,1.46C251.64,69.7,250.36,69.17,249.31,68.13z"/>
		<path class="st0" d="M264.35,68.13c-1.04-1.04-1.57-2.32-1.57-3.82s0.52-2.78,1.57-3.83s2.32-1.58,3.82-1.58s2.77,0.53,3.82,1.58
			c1.05,1.05,1.58,2.33,1.58,3.83s-0.52,2.77-1.58,3.82c-1.05,1.05-2.32,1.57-3.82,1.57S265.4,69.17,264.35,68.13z M265.11,61.24
			c-0.85,0.86-1.27,1.88-1.27,3.07c0,1.19,0.42,2.21,1.27,3.06s1.87,1.27,3.06,1.27c1.19,0,2.21-0.42,3.07-1.27
			c0.85-0.85,1.28-1.87,1.28-3.06c0-1.19-0.43-2.21-1.28-3.07c-0.86-0.86-1.88-1.29-3.07-1.29
			C266.98,59.95,265.96,60.38,265.11,61.24z"/>
		<path class="st0" d="M280.37,69.26V59.17c0-0.07,0.03-0.13,0.08-0.19s0.12-0.08,0.2-0.08h0.38l6.76,8.43h0.03v-8
			c0-0.08,0.03-0.15,0.08-0.2c0.05-0.05,0.12-0.08,0.2-0.08h0.53c0.07,0,0.13,0.03,0.2,0.09c0.06,0.06,0.09,0.12,0.09,0.2v10.09
			c0,0.07-0.03,0.13-0.08,0.19c-0.05,0.05-0.12,0.08-0.2,0.08h-0.27l-6.89-8.6h-0.01v8.16c0,0.08-0.03,0.15-0.08,0.2
			c-0.06,0.05-0.12,0.08-0.2,0.08h-0.52c-0.07,0-0.14-0.03-0.2-0.09C280.4,69.4,280.37,69.33,280.37,69.26z"/>
		<path class="st0" d="M295.89,68.48c-0.18-0.15-0.21-0.32-0.09-0.51c0.03-0.03,0.07-0.08,0.12-0.14c0.05-0.06,0.08-0.11,0.11-0.14
			c0.18-0.24,0.35-0.28,0.53-0.13c0.89,0.76,1.73,1.14,2.53,1.14c0.59,0,1.07-0.16,1.45-0.48s0.56-0.71,0.56-1.17
			c0-0.49-0.21-0.91-0.62-1.27c-0.42-0.35-1.08-0.72-2-1.1c-0.92-0.4-1.59-0.82-2.01-1.25c-0.42-0.43-0.63-1.05-0.63-1.85
			c0-0.28,0.06-0.56,0.17-0.85c0.11-0.29,0.29-0.58,0.52-0.86c0.24-0.28,0.57-0.51,1.01-0.69c0.43-0.18,0.93-0.27,1.49-0.27
			c0.44,0,0.87,0.07,1.3,0.2c0.42,0.13,0.74,0.25,0.95,0.38l0.31,0.2c0.07,0.03,0.12,0.08,0.15,0.17s0.01,0.19-0.06,0.34
			c-0.02,0.03-0.05,0.08-0.09,0.14s-0.07,0.11-0.09,0.14c-0.14,0.21-0.31,0.25-0.52,0.13c-0.81-0.46-1.47-0.69-1.96-0.69
			c-0.71,0-1.23,0.17-1.57,0.52c-0.33,0.35-0.5,0.73-0.5,1.12c0,0.48,0.17,0.88,0.5,1.21c0.33,0.32,0.84,0.63,1.52,0.91
			c1.15,0.47,1.99,0.94,2.53,1.41c0.53,0.47,0.8,1.11,0.8,1.92c0,0.77-0.32,1.41-0.95,1.93c-0.63,0.51-1.4,0.77-2.29,0.77
			c-0.53,0-1.05-0.1-1.57-0.29c-0.52-0.2-0.88-0.37-1.08-0.51C296.2,68.75,296.03,68.61,295.89,68.48z"/>
		<path class="st0" d="M310.46,69.26v-9.21h-2.61c-0.08,0-0.15-0.03-0.2-0.08c-0.05-0.06-0.08-0.12-0.08-0.2v-0.43
			c0-0.08,0.03-0.15,0.08-0.2c0.06-0.05,0.12-0.08,0.2-0.08h6.36c0.08,0,0.15,0.03,0.2,0.08c0.05,0.06,0.08,0.12,0.08,0.2v0.43
			c0,0.08-0.03,0.15-0.08,0.2c-0.06,0.05-0.12,0.08-0.2,0.08h-2.61v9.21c0,0.07-0.03,0.13-0.08,0.2c-0.05,0.06-0.12,0.09-0.2,0.09
			h-0.57c-0.08,0-0.15-0.03-0.2-0.09C310.48,69.4,310.46,69.33,310.46,69.26z"/>
		<path class="st0" d="M320.64,69.26v-9.93c0-0.08,0.03-0.15,0.08-0.2c0.05-0.05,0.12-0.08,0.2-0.08h3.88c0.9,0,1.67,0.31,2.31,0.93
			c0.64,0.62,0.96,1.38,0.96,2.27c0,0.68-0.2,1.29-0.61,1.84c-0.41,0.55-0.94,0.95-1.61,1.22l2.05,3.81c0.06,0.1,0.06,0.2,0.01,0.29
			c-0.05,0.1-0.14,0.14-0.26,0.14h-0.76c-0.11,0-0.19-0.04-0.24-0.13l-2-3.98h-2.87v3.83c0,0.07-0.03,0.13-0.08,0.2
			c-0.05,0.06-0.12,0.09-0.2,0.09h-0.58c-0.08,0-0.15-0.03-0.2-0.08C320.67,69.41,320.64,69.34,320.64,69.26z M321.83,64.45h2.91
			c0.58,0,1.08-0.21,1.51-0.64c0.43-0.42,0.65-0.94,0.65-1.55c0-0.57-0.21-1.07-0.65-1.49c-0.43-0.42-0.93-0.63-1.51-0.63h-2.91
			V64.45z"/>
		<path class="st0" d="M334.92,65.68v-6.34c0-0.07,0.03-0.13,0.08-0.2c0.05-0.06,0.12-0.09,0.2-0.09h0.57c0.08,0,0.15,0.03,0.2,0.08
			c0.06,0.06,0.08,0.12,0.08,0.2v6.25c0,0.88,0.25,1.61,0.76,2.18s1.2,0.86,2.06,0.86c0.87,0,1.56-0.29,2.08-0.85
			c0.51-0.57,0.77-1.29,0.77-2.16v-6.29c0-0.08,0.03-0.15,0.08-0.2c0.06-0.05,0.12-0.08,0.2-0.08h0.57c0.08,0,0.15,0.03,0.2,0.09
			c0.05,0.06,0.08,0.12,0.08,0.2v6.34c0,1.15-0.37,2.11-1.12,2.87c-0.75,0.76-1.7,1.15-2.87,1.15c-1.16,0-2.11-0.38-2.85-1.15
			C335.29,67.78,334.92,66.83,334.92,65.68z"/>
		<path class="st0" d="M351.11,68.13c-1.06-1.04-1.58-2.32-1.58-3.82s0.53-2.78,1.58-3.83c1.05-1.05,2.33-1.58,3.83-1.58
			c1.33,0,2.54,0.47,3.63,1.4c0.14,0.15,0.15,0.29,0.02,0.42l-0.41,0.41c-0.11,0.14-0.24,0.13-0.39-0.02
			c-0.87-0.75-1.83-1.12-2.87-1.12c-1.17,0-2.16,0.43-2.97,1.28c-0.81,0.85-1.21,1.87-1.21,3.04c0,1.17,0.4,2.18,1.21,3.03
			c0.81,0.85,1.8,1.27,2.97,1.27c0.41,0,0.8-0.06,1.16-0.17s0.66-0.24,0.88-0.38c0.22-0.14,0.5-0.33,0.83-0.58
			c0.13-0.1,0.25-0.11,0.36-0.04l0.45,0.41c0.06,0.05,0.09,0.12,0.08,0.2c-0.01,0.08-0.04,0.15-0.1,0.21
			c-1,0.97-2.21,1.46-3.65,1.46C353.45,69.7,352.17,69.17,351.11,68.13z"/>
		<path class="st0" d="M366.88,69.26v-9.21h-2.61c-0.08,0-0.15-0.03-0.2-0.08c-0.05-0.06-0.08-0.12-0.08-0.2v-0.43
			c0-0.08,0.03-0.15,0.08-0.2c0.06-0.05,0.12-0.08,0.2-0.08h6.36c0.08,0,0.15,0.03,0.2,0.08c0.05,0.06,0.08,0.12,0.08,0.2v0.43
			c0,0.08-0.03,0.15-0.08,0.2c-0.06,0.05-0.12,0.08-0.2,0.08h-2.61v9.21c0,0.07-0.03,0.13-0.08,0.2c-0.05,0.06-0.12,0.09-0.2,0.09
			h-0.57c-0.08,0-0.15-0.03-0.2-0.09C366.91,69.4,366.88,69.33,366.88,69.26z"/>
		<path class="st0" d="M377.07,69.26v-9.93c0-0.07,0.03-0.13,0.09-0.2c0.06-0.06,0.12-0.09,0.2-0.09h0.6c0.07,0,0.13,0.03,0.2,0.09
			c0.06,0.06,0.09,0.12,0.09,0.2v9.93c0,0.07-0.03,0.13-0.09,0.2c-0.06,0.06-0.13,0.09-0.2,0.09h-0.6c-0.07,0-0.14-0.03-0.2-0.09
			C377.1,69.4,377.07,69.33,377.07,69.26z"/>
		<path class="st0" d="M388.9,69.53l-4.53-10.1c-0.05-0.1-0.05-0.19,0.01-0.27s0.14-0.12,0.25-0.12h0.6c0.13,0,0.21,0.05,0.25,0.17
			l3.74,8.4h0.06l3.74-8.4c0.04-0.11,0.12-0.17,0.25-0.17h0.6c0.11,0,0.19,0.04,0.25,0.12c0.05,0.08,0.06,0.17,0.01,0.27l-4.56,10.1
			c-0.05,0.11-0.13,0.17-0.25,0.17h-0.15C389.04,69.7,388.95,69.64,388.9,69.53z"/>
		<path class="st0" d="M398.47,69.55c-0.11,0-0.19-0.04-0.25-0.12c-0.06-0.08-0.06-0.17-0.01-0.27l4.56-10.1
			c0.06-0.11,0.14-0.17,0.25-0.17h0.15c0.11,0,0.2,0.06,0.25,0.17l4.53,10.1c0.05,0.1,0.05,0.19-0.01,0.27
			c-0.05,0.08-0.14,0.12-0.25,0.12h-0.6c-0.13,0-0.22-0.05-0.25-0.17l-1.11-2.47h-5.33l-1.09,2.47c-0.04,0.11-0.12,0.17-0.25,0.17
			H398.47z M400.84,65.98h4.5c-0.25-0.55-0.62-1.37-1.09-2.46c-0.48-1.09-0.85-1.91-1.09-2.46h-0.12L400.84,65.98z"/>
	</g>
	<g>
		<g>
			<path class="st30" d="M947.49,685.56c-3.53,0-6.4,2.86-6.4,6.4v93.77c0,3.53,2.86,6.4,6.4,6.4s6.4-2.86,6.4-6.4v-93.77
				C953.89,688.42,951.03,685.56,947.49,685.56z"/>
			<path class="st30" d="M922.63,670.97c-3.53,0-6.4,2.86-6.4,6.4v41.97c0,3.53,2.86,6.4,6.4,6.4s6.4-2.86,6.4-6.4v-41.97
				C929.03,673.84,926.17,670.97,922.63,670.97z"/>
			<path class="st30" d="M972.35,670.97c-3.53,0-6.4,2.86-6.4,6.4v41.97c0,3.53,2.86,6.4,6.4,6.4c3.53,0,6.4-2.86,6.4-6.4v-41.97
				C978.75,673.84,975.88,670.97,972.35,670.97z"/>
		</g>
		<g>
			<path class="st30" d="M628.38,454.85v123.52c0,10.69-3.42,26.07,12.18,26.07c9.62,0,12.4-4.49,12.82-12.18V455.05h32.06v137.22
				c0,0.43,0,0.64,0,1.07c0.64,6.2,3.21,11.11,12.18,11.11c11.75,0,13.04-6.41,13.04-16.46c0-44.24-0.21-88.69-0.21-133.14h32.06
				v137.41c0,26.07-19.02,44.24-44.88,44.24c-11.11,0-20.73-3.42-28.21-9.4c-7.69,5.98-17.52,9.4-28.85,9.4
				c-25.65,0-44.24-18.59-44.24-44.24V454.85H628.38z"/>
			<path class="st30" d="M1204.24,455.21c25.65,0,44.24,18.59,44.24,44.24v50.44h-57.07v42.74c0,7.91,4.28,12.18,12.18,12.18
				c10.05,0,13.04-4.91,13.04-13.89c0-7.69-0.21-15.39-0.21-22.87h32.06v24.58c0,26.08-19.02,44.24-44.88,44.24
				c-25.65,0-44.24-18.59-44.24-44.24v-93.18C1159.36,473.59,1178.38,455.21,1204.24,455.21z M1216.64,517.84
				c0-7.91,0.43-21.16-1.5-25.22c-2.14-4.06-6.63-5.35-10.9-5.35c-8.12,0-12.83,3.85-12.83,12.18v18.38H1216.64z"/>
			<path class="st30" d="M844.44,572.32v-4.63h-32.06c0,7.48,0.21,15.17,0.21,22.87c0,8.98-2.99,13.89-13.04,13.89
				c-7.91,0-12.18-4.27-12.18-12.18v-42.74h57.06v-50.43c0-25.64-18.59-44.24-44.24-44.24c-25.86,0-44.88,18.38-44.88,44.24v93.18
				c0,25.65,18.59,44.24,44.24,44.24c11.74,0,22.06-3.76,29.85-10.29C830.19,606.83,835.47,588.22,844.44,572.32z M787.38,499.09
				c0-8.33,4.7-12.18,12.82-12.18c4.27,0,8.76,1.28,10.9,5.34c1.92,4.06,1.5,17.31,1.5,25.22h-25.22V499.09z"/>
			<path class="st30" d="M1127.31,561.86c10.9-9.19,17.53-23.51,17.53-40.18v-14.11c0-30.56-21.8-52.36-52.36-52.36h-36.76v127.54
				c6.46,14.85,10,31.45,10,48.46c0,1.7-0.04,3.47-0.11,5.43l-0.01,0.25h22.18v-62.84h4.7c1.71,0,3.2,0,4.91-0.21l16.24,63.05h32.91
				L1127.31,561.86z M1112.77,522.96c-2.35,16.24-10.47,19.02-25.01,19.02v-54.71c2.14,0,4.49,0,6.84,0
				c11.75,0.64,18.16,8.76,18.16,20.31V522.96z"/>
			<path class="st30" d="M1024.34,551.1l-0.9-0.79l-0.15,1.32c-0.92,8.13-2.71,16.07-5.33,23.68c0.51-5.88,0.76-11.78,0.76-17.6
				c0-60.68-26.13-115.72-69.9-147.25l-0.34-0.25l-0.34,0.25c-43.77,31.53-69.9,86.58-69.9,147.25c0,6.67,0.33,13.42,1,20.12
				c-3.22-8.67-5.35-17.81-6.33-27.23l-0.14-1.31l-0.9,0.76c-22.15,18.63-35.37,48.97-35.37,81.16c0,1.61,0.03,3.3,0.11,5.15
				l0.03,0.75h57.95l0.21,0.48c0.1,0.22,0.19,0.45,0.29,0.67l0.21,0.41c3.42,7.6,7.31,14.9,11.57,21.7l0.2,0.32h25.57v-46.76h29.83
				c0.15,15.59,0.21,31.17,0.23,46.76h27.21l0.2-0.32c4.26-6.8,8.15-14.09,11.57-21.7l0.22-0.42c0.1-0.22,0.2-0.45,0.29-0.67
				l0.21-0.48h55.97l0.03-0.75c0.07-1.85,0.11-3.53,0.11-5.15C1058.49,599.73,1045.72,569.78,1024.34,551.1z M962.83,520.82
				c0,6.31-5.11,11.42-11.42,11.42h-7.66c-6.31,0-11.42-5.11-11.42-11.42v-24.83c0-6.31,5.11-11.42,11.42-11.42h7.66
				c6.31,0,11.42,5.11,11.42,11.42V520.82z"/>
		</g>
	</g>
	<g>
		<ellipse class="st31" cx="947.57" cy="634.73" rx="111.55" ry="116.79"/>
		<g>
			<g>
				<g>
					<line class="st32" x1="526.16" y1="638.07" x2="531.16" y2="638.07"/>
					<line class="st33" x1="541.15" y1="638.07" x2="1334.97" y2="638.07"/>
					<line class="st32" x1="1339.96" y1="638.07" x2="1344.96" y2="638.07"/>
				</g>
			</g>
			<g>
				<g>
					<line class="st32" x1="527.31" y1="666.67" x2="532.31" y2="666.67"/>
					<line class="st33" x1="542.29" y1="666.67" x2="1336.11" y2="666.67"/>
					<line class="st32" x1="1341.1" y1="666.67" x2="1346.1" y2="666.67"/>
				</g>
			</g>
			<g>
				<g>
					<ellipse class="st34" cx="1082.01" cy="557.98" rx="204.03" ry="198.31"/>
				</g>
				<g>
					<ellipse class="st34" cx="815.05" cy="557.98" rx="204.03" ry="198.31"/>
				</g>
				<g>
					<ellipse class="st35" cx="969.5" cy="518.18" rx="101.06" ry="119.89"/>
				</g>
				<g>
					<ellipse class="st35" cx="927.55" cy="518.18" rx="101.06" ry="119.89"/>
				</g>
				<g>
					<g>
						<line class="st32" x1="961.88" y1="349.18" x2="961.88" y2="354.18"/>
						<line class="st36" x1="961.88" y1="364.3" x2="961.88" y2="784.18"/>
						<line class="st32" x1="961.88" y1="789.24" x2="961.88" y2="794.24"/>
					</g>
				</g>
				<g>
					<g>
						<line class="st32" x1="933.27" y1="350.33" x2="933.27" y2="355.33"/>
						<line class="st36" x1="933.27" y1="365.45" x2="933.27" y2="785.32"/>
						<line class="st32" x1="933.27" y1="790.38" x2="933.27" y2="795.38"/>
					</g>
				</g>
			</g>
			<g>
				<g>
					<line class="st32" x1="526.16" y1="426.41" x2="531.16" y2="426.41"/>
					<line class="st33" x1="541.15" y1="426.41" x2="1334.97" y2="426.41"/>
					<line class="st32" x1="1339.96" y1="426.41" x2="1344.96" y2="426.41"/>
				</g>
			</g>
			<g>
				<g>
					<line class="st32" x1="527.31" y1="455.01" x2="532.31" y2="455.01"/>
					<line class="st33" x1="542.29" y1="455.01" x2="1336.11" y2="455.01"/>
					<line class="st32" x1="1341.1" y1="455.01" x2="1346.1" y2="455.01"/>
				</g>
			</g>
			<g>
				<g>
					<line class="st32" x1="527.31" y1="483.61" x2="532.31" y2="483.61"/>
					<line class="st33" x1="542.29" y1="483.61" x2="1336.11" y2="483.61"/>
					<line class="st32" x1="1341.1" y1="483.61" x2="1346.1" y2="483.61"/>
				</g>
			</g>
		</g>
	</g>
	<g>
		<g>
			<path class="st0" d="M1842.49,1035.91c-0.41,0-0.75,0.33-0.75,0.75v10.95c0,0.41,0.33,0.75,0.75,0.75s0.75-0.33,0.75-0.75v-10.95
				C1843.23,1036.24,1842.9,1035.91,1842.49,1035.91z"/>
			<path class="st0" d="M1839.58,1034.2c-0.41,0-0.75,0.33-0.75,0.75v4.9c0,0.41,0.33,0.75,0.75,0.75c0.41,0,0.75-0.33,0.75-0.75
				v-4.9C1840.33,1034.54,1840,1034.2,1839.58,1034.2z"/>
			<path class="st0" d="M1845.39,1034.2c-0.41,0-0.75,0.33-0.75,0.75v4.9c0,0.41,0.33,0.75,0.75,0.75c0.41,0,0.75-0.33,0.75-0.75
				v-4.9C1846.14,1034.54,1845.8,1034.2,1845.39,1034.2z"/>
		</g>
		<g>
			<path class="st0" d="M1805.22,1008.96v14.43c0,1.25-0.4,3.04,1.42,3.04c1.12,0,1.45-0.52,1.5-1.42v-16.02h3.74v16.02
				c0,0.05,0,0.07,0,0.12c0.07,0.72,0.37,1.3,1.42,1.3c1.37,0,1.52-0.75,1.52-1.92c0-5.17-0.03-10.36-0.03-15.55h3.74v16.05
				c0,3.04-2.22,5.17-5.24,5.17c-1.3,0-2.42-0.4-3.29-1.1c-0.9,0.7-2.05,1.1-3.37,1.1c-2.99,0-5.17-2.17-5.17-5.17v-16.05H1805.22z"
				/>
			<path class="st0" d="M1872.47,1009.01c3,0,5.17,2.17,5.17,5.17v5.89h-6.66v4.99c0,0.92,0.5,1.42,1.42,1.42
				c1.17,0,1.52-0.57,1.52-1.62c0-0.9-0.02-1.8-0.02-2.67h3.74v2.87c0,3.05-2.22,5.17-5.24,5.17c-3,0-5.17-2.17-5.17-5.17v-10.88
				C1867.23,1011.15,1869.45,1009.01,1872.47,1009.01z M1873.92,1016.32c0-0.92,0.05-2.47-0.17-2.95c-0.25-0.47-0.77-0.62-1.27-0.62
				c-0.95,0-1.5,0.45-1.5,1.42v2.15H1873.92z"/>
			<path class="st0" d="M1830.45,1022.68v-0.54h-3.74c0,0.87,0.03,1.77,0.03,2.67c0,1.05-0.35,1.62-1.52,1.62
				c-0.92,0-1.42-0.5-1.42-1.42v-4.99h6.66v-5.89c0-2.99-2.17-5.17-5.17-5.17c-3.02,0-5.24,2.15-5.24,5.17v10.88
				c0,2.99,2.17,5.17,5.17,5.17c1.37,0,2.58-0.44,3.49-1.2C1828.79,1026.71,1829.4,1024.54,1830.45,1022.68z M1823.79,1014.13
				c0-0.97,0.55-1.42,1.5-1.42c0.5,0,1.02,0.15,1.27,0.62c0.22,0.47,0.17,2.02,0.17,2.95h-2.95V1014.13z"/>
			<path class="st0" d="M1863.49,1021.46c1.27-1.07,2.05-2.75,2.05-4.69v-1.65c0-3.57-2.55-6.12-6.12-6.12h-4.29v14.89
				c0.75,1.73,1.17,3.67,1.17,5.66c0,0.2,0,0.41-0.01,0.63l0,0.03h2.59v-7.34h0.55c0.2,0,0.37,0,0.57-0.02l1.9,7.36h3.84
				L1863.49,1021.46z M1861.79,1016.92c-0.27,1.9-1.22,2.22-2.92,2.22v-6.39c0.25,0,0.52,0,0.8,0c1.37,0.08,2.12,1.02,2.12,2.37
				V1016.92z"/>
			<path class="st0" d="M1851.46,1020.2l-0.11-0.09l-0.02,0.15c-0.11,0.95-0.32,1.88-0.62,2.77c0.06-0.69,0.09-1.38,0.09-2.06
				c0-7.09-3.05-13.51-8.16-17.2l-0.04-0.03l-0.04,0.03c-5.11,3.68-8.16,10.11-8.16,17.2c0,0.78,0.04,1.57,0.12,2.35
				c-0.38-1.01-0.62-2.08-0.74-3.18l-0.02-0.15l-0.11,0.09c-2.59,2.18-4.13,5.72-4.13,9.48c0,0.19,0,0.39,0.01,0.6l0,0.09h6.77
				l0.02,0.06c0.01,0.03,0.02,0.05,0.03,0.08l0.03,0.05c0.4,0.89,0.85,1.74,1.35,2.53l0.02,0.04h2.99v-5.46h3.48
				c0.02,1.82,0.02,3.64,0.03,5.46h3.18l0.02-0.04c0.5-0.79,0.95-1.65,1.35-2.53l0.03-0.05c0.01-0.03,0.02-0.05,0.03-0.08l0.02-0.06
				h6.54l0-0.09c0.01-0.22,0.01-0.41,0.01-0.6C1855.45,1025.88,1853.96,1022.39,1851.46,1020.2z M1844.28,1016.67
				c0,0.74-0.6,1.33-1.33,1.33h-0.9c-0.74,0-1.33-0.6-1.33-1.33v-2.9c0-0.74,0.6-1.33,1.33-1.33h0.9c0.74,0,1.33,0.6,1.33,1.33
				V1016.67z"/>
		</g>
	</g>
</g>
</svg>
