<?xml version="1.0" encoding="utf-8"?>
<!-- Generator: Adobe Illustrator 24.3.0, SVG Export Plug-In . SVG Version: 6.00 Build 0)  -->
<svg version="1.1" xmlns="http://www.w3.org/2000/svg" xmlns:xlink="http://www.w3.org/1999/xlink" x="0px" y="0px"
	 viewBox="0 0 1920 1080" style="enable-background:new 0 0 1920 1080;" xml:space="preserve">
<style type="text/css">
	.st0{fill:#1D1D1B;}
	.st1{fill:#293D51;}
	.st2{fill:#FFFFFF;}
	.st3{fill:url(#SVGID_5_);}
	.st4{clip-path:url(#SVGID_7_);}
	.st5{opacity:0.28;}
	.st6{fill:url(#SVGID_8_);}
	.st7{fill:url(#SVGID_9_);}
	.st8{fill:url(#SVGID_10_);}
	.st9{fill:url(#SVGID_11_);}
	.st10{fill:url(#SVGID_12_);}
	.st11{fill:url(#SVGID_13_);}
	.st12{fill:url(#SVGID_14_);}
	.st13{fill:url(#SVGID_15_);}
	.st14{fill:url(#SVGID_16_);}
	.st15{fill:url(#SVGID_17_);}
	.st16{fill:url(#SVGID_18_);}
	.st17{fill:url(#SVGID_19_);}
	.st18{fill:url(#SVGID_20_);}
	.st19{fill:url(#SVGID_21_);}
	.st20{fill:url(#SVGID_22_);}
	.st21{fill:url(#SVGID_23_);}
	.st22{fill:url(#SVGID_24_);}
	.st23{fill:url(#SVGID_25_);}
	.st24{fill:url(#SVGID_26_);}
	.st25{fill:url(#SVGID_27_);}
	.st26{fill:url(#SVGID_28_);}
	.st27{fill:url(#SVGID_29_);}
	.st28{fill:url(#SVGID_30_);}
	.st29{fill:#F34D23;}
	.st30{fill:#FFFFFF;stroke:#1D1D1B;stroke-miterlimit:10;}
	.st31{fill:none;stroke:#03FFFF;stroke-miterlimit:10;stroke-dasharray:10;}
	.st32{fill:none;stroke:#03FFFF;stroke-miterlimit:10;}
	.st33{fill:none;stroke:#03FFFF;stroke-miterlimit:10;stroke-dasharray:9.9851,9.9851;}
	.st34{fill:none;stroke:#03FFFF;stroke-miterlimit:10;stroke-dasharray:10.0327,10.0327;}
	.st35{fill:none;stroke:#03FFFF;stroke-miterlimit:10;stroke-dasharray:9.9349,9.9349;}
	.st36{fill:none;stroke:#03FFFF;stroke-miterlimit:10;stroke-dasharray:10.1175,10.1175;}
	.st37{fill:#FFFFFF;stroke:#1D1D1B;stroke-width:0.5196;stroke-miterlimit:10;}
</style>
<g id="Layer_3">
	<rect class="st1" width="1920" height="1080"/>
	<g>
		<path class="st2" d="M849.93,520.26l-8.5-30.24c-0.09-0.3-0.06-0.55,0.09-0.76c0.15-0.21,0.39-0.32,0.72-0.32h5.27
			c0.42,0,0.69,0.21,0.81,0.63l3.87,15.25h0.18l6.98-15.84c0.18-0.33,0.43-0.5,0.76-0.5h0.81c0.39,0,0.64,0.17,0.76,0.5l6.97,15.84
			h0.18l3.87-15.25c0.12-0.42,0.39-0.63,0.81-0.63h5.26c0.33,0,0.57,0.11,0.72,0.32c0.15,0.21,0.18,0.46,0.09,0.76l-8.5,30.24
			c-0.09,0.42-0.36,0.63-0.81,0.63h-0.72c-0.33,0-0.58-0.17-0.76-0.5l-8.24-18.41h-0.13l-8.19,18.41c-0.18,0.33-0.44,0.5-0.76,0.5
			h-0.72C850.29,520.89,850.02,520.68,849.93,520.26z"/>
		<path class="st2" d="M897.9,519.59V489.8c0-0.24,0.08-0.44,0.25-0.61c0.17-0.16,0.37-0.25,0.61-0.25h18.63
			c0.24,0,0.44,0.08,0.61,0.25c0.16,0.17,0.25,0.37,0.25,0.61v4.9c0,0.24-0.08,0.44-0.25,0.61c-0.17,0.17-0.37,0.25-0.61,0.25
			h-12.47v5.58h10.26c0.24,0,0.44,0.08,0.61,0.25c0.16,0.17,0.25,0.37,0.25,0.61v4.91c0,0.24-0.08,0.44-0.25,0.61
			c-0.17,0.17-0.37,0.25-0.61,0.25h-10.26v6.08h12.47c0.24,0,0.44,0.08,0.61,0.25c0.16,0.17,0.25,0.37,0.25,0.61v4.9
			c0,0.24-0.08,0.44-0.25,0.61c-0.17,0.17-0.37,0.25-0.61,0.25h-18.63c-0.24,0-0.44-0.08-0.61-0.25S897.9,519.83,897.9,519.59z"/>
		<path class="st2" d="M957.93,520.44c-0.33,0-0.58-0.12-0.74-0.36c-0.17-0.24-0.17-0.51-0.02-0.81l14.08-30.29
			c0.15-0.33,0.4-0.5,0.76-0.5h0.45c0.36,0,0.61,0.17,0.76,0.5l14.08,30.29c0.15,0.3,0.14,0.57-0.02,0.81
			c-0.17,0.24-0.41,0.36-0.74,0.36h-5c-0.69,0-1.21-0.38-1.58-1.12l-1.62-3.55h-12.24l-1.62,3.6c-0.3,0.72-0.84,1.08-1.62,1.08
			H957.93z M968.82,509.64h6.84l-3.42-7.42h-0.04L968.82,509.64z"/>
		<path class="st2" d="M1004.5,519.59V489.8c0-0.24,0.08-0.44,0.25-0.61c0.17-0.16,0.37-0.25,0.61-0.25h13.46
			c2.7,0,5.01,0.95,6.93,2.86c1.92,1.91,2.88,4.19,2.88,6.86c0,2.01-0.61,3.82-1.82,5.42c-1.22,1.61-2.83,2.81-4.84,3.62l6.17,11.43
			c0.18,0.3,0.19,0.59,0.02,0.88c-0.17,0.29-0.43,0.43-0.79,0.43h-5.99c-0.33,0-0.57-0.13-0.72-0.41l-5.99-11.92h-3.11v11.47
			c0,0.21-0.08,0.41-0.25,0.59c-0.17,0.18-0.37,0.27-0.61,0.27h-5.36c-0.24,0-0.44-0.08-0.61-0.25S1004.5,519.83,1004.5,519.59z
			 M1011.57,502.4h6.66c0.93,0,1.73-0.36,2.41-1.08c0.67-0.72,1.01-1.56,1.01-2.52c0-0.93-0.34-1.73-1.01-2.41
			c-0.68-0.67-1.48-1.01-2.41-1.01h-6.66V502.4z"/>
		<path class="st2" d="M1048.15,519.59V489.8c0-0.24,0.08-0.44,0.25-0.61c0.17-0.16,0.37-0.25,0.61-0.25h18.63
			c0.24,0,0.44,0.08,0.61,0.25c0.16,0.17,0.25,0.37,0.25,0.61v4.9c0,0.24-0.08,0.44-0.25,0.61c-0.17,0.17-0.37,0.25-0.61,0.25
			h-12.47v5.58h10.26c0.24,0,0.44,0.08,0.61,0.25c0.16,0.17,0.25,0.37,0.25,0.61v4.91c0,0.24-0.08,0.44-0.25,0.61
			c-0.17,0.17-0.37,0.25-0.61,0.25h-10.26v6.08h12.47c0.24,0,0.44,0.08,0.61,0.25c0.16,0.17,0.25,0.37,0.25,0.61v4.9
			c0,0.24-0.08,0.44-0.25,0.61c-0.17,0.17-0.37,0.25-0.61,0.25h-18.63c-0.24,0-0.44-0.08-0.61-0.25S1048.15,519.83,1048.15,519.59z"
			/>
		<path class="st2" d="M722.36,585.87v-19.86c0-0.14,0.06-0.27,0.18-0.39c0.12-0.12,0.25-0.18,0.39-0.18h1.2
			c0.14,0,0.27,0.06,0.39,0.18c0.12,0.12,0.18,0.25,0.18,0.39v19.86c0,0.14-0.06,0.27-0.18,0.39c-0.12,0.12-0.25,0.18-0.39,0.18
			h-1.2c-0.14,0-0.27-0.06-0.39-0.18C722.42,586.14,722.36,586.01,722.36,585.87z"/>
		<path class="st2" d="M739.82,585.87v-19.86c0-0.16,0.06-0.29,0.17-0.41c0.11-0.11,0.24-0.16,0.38-0.16h6.72
			c2.9,0,5.38,1.03,7.44,3.07c2.06,2.05,3.09,4.52,3.09,7.39c0,2.9-1.03,5.38-3.09,7.44c-2.06,2.06-4.54,3.09-7.44,3.09h-6.72
			c-0.14,0-0.26-0.05-0.38-0.17C739.87,586.17,739.82,586.03,739.82,585.87z M742.1,584.37h4.5c2.46,0,4.49-0.79,6.09-2.38
			c1.6-1.59,2.4-3.62,2.4-6.08c0-2.46-0.8-4.48-2.4-6.06c-1.6-1.58-3.63-2.37-6.09-2.37h-4.5V584.37z"/>
		<path class="st2" d="M771.23,585.87v-19.86c0-0.16,0.06-0.29,0.17-0.41c0.11-0.11,0.25-0.16,0.41-0.16h11.82
			c0.16,0,0.29,0.05,0.41,0.16c0.11,0.11,0.16,0.25,0.16,0.41v0.87c0,0.16-0.05,0.29-0.16,0.4c-0.11,0.11-0.25,0.17-0.41,0.17
			h-10.08v7.32h8.61c0.16,0,0.29,0.05,0.4,0.16c0.11,0.11,0.17,0.25,0.17,0.41v0.87c0,0.16-0.05,0.29-0.17,0.4
			c-0.11,0.11-0.25,0.17-0.4,0.17h-8.61v7.65h10.08c0.16,0,0.29,0.05,0.41,0.16c0.11,0.11,0.16,0.25,0.16,0.4v0.87
			c0,0.16-0.05,0.29-0.16,0.4c-0.11,0.11-0.25,0.17-0.41,0.17H771.8c-0.16,0-0.29-0.05-0.41-0.17
			C771.28,586.17,771.23,586.03,771.23,585.87z"/>
		<path class="st2" d="M797.99,585.87v-20.19c0-0.14,0.06-0.27,0.17-0.38c0.11-0.11,0.25-0.17,0.41-0.17h0.75L812.84,582h0.06
			v-15.99c0-0.16,0.05-0.29,0.17-0.41c0.11-0.11,0.25-0.16,0.41-0.16h1.05c0.14,0,0.27,0.06,0.39,0.18
			c0.12,0.12,0.18,0.25,0.18,0.39v20.19c0,0.14-0.06,0.26-0.17,0.38c-0.11,0.11-0.25,0.16-0.41,0.16h-0.54l-13.77-17.19h-0.03v16.32
			c0,0.16-0.06,0.29-0.17,0.4c-0.11,0.11-0.25,0.17-0.41,0.17h-1.05c-0.14,0-0.27-0.06-0.39-0.18
			C798.05,586.14,797.99,586.01,797.99,585.87z"/>
		<path class="st2" d="M833.18,585.87v-18.42h-5.22c-0.16,0-0.29-0.05-0.4-0.17c-0.11-0.11-0.17-0.24-0.17-0.4v-0.87
			c0-0.16,0.05-0.29,0.17-0.41c0.11-0.11,0.24-0.16,0.4-0.16h12.72c0.16,0,0.29,0.05,0.4,0.16c0.11,0.11,0.17,0.25,0.17,0.41v0.87
			c0,0.16-0.05,0.29-0.17,0.4c-0.11,0.11-0.25,0.17-0.4,0.17h-5.22v18.42c0,0.14-0.05,0.27-0.17,0.39c-0.11,0.12-0.25,0.18-0.4,0.18
			h-1.14c-0.16,0-0.29-0.06-0.4-0.18C833.23,586.14,833.18,586.01,833.18,585.87z"/>
		<path class="st2" d="M853.54,585.87v-19.86c0-0.14,0.06-0.27,0.18-0.39c0.12-0.12,0.25-0.18,0.39-0.18h1.2
			c0.14,0,0.27,0.06,0.39,0.18c0.12,0.12,0.18,0.25,0.18,0.39v19.86c0,0.14-0.06,0.27-0.18,0.39c-0.12,0.12-0.25,0.18-0.39,0.18
			h-1.2c-0.14,0-0.27-0.06-0.39-0.18C853.61,586.14,853.54,586.01,853.54,585.87z"/>
		<path class="st2" d="M871,585.87v-19.86c0-0.16,0.06-0.29,0.17-0.41c0.11-0.11,0.24-0.16,0.38-0.16h6.72
			c2.9,0,5.38,1.03,7.44,3.07c2.06,2.05,3.09,4.52,3.09,7.39c0,2.9-1.03,5.38-3.09,7.44c-2.06,2.06-4.54,3.09-7.44,3.09h-6.72
			c-0.14,0-0.26-0.05-0.38-0.17C871.06,586.17,871,586.03,871,585.87z M873.29,584.37h4.5c2.46,0,4.49-0.79,6.09-2.38
			c1.6-1.59,2.4-3.62,2.4-6.08c0-2.46-0.8-4.48-2.4-6.06c-1.6-1.58-3.63-2.37-6.09-2.37h-4.5V584.37z"/>
		<path class="st2" d="M899.93,586.44c-0.22,0-0.39-0.08-0.5-0.24c-0.11-0.16-0.12-0.34-0.02-0.54l9.12-20.19
			c0.12-0.22,0.29-0.33,0.51-0.33h0.3c0.22,0,0.39,0.11,0.51,0.33l9.06,20.19c0.1,0.2,0.09,0.38-0.01,0.54
			c-0.11,0.16-0.28,0.24-0.5,0.24h-1.2c-0.26,0-0.43-0.11-0.51-0.33l-2.22-4.95h-10.65l-2.19,4.95c-0.08,0.22-0.25,0.33-0.51,0.33
			H899.93z M904.67,579.3h9c-0.5-1.1-1.23-2.74-2.19-4.92s-1.69-3.82-2.19-4.92h-0.24L904.67,579.3z"/>
		<path class="st2" d="M931.18,585.87v-19.86c0-0.16,0.06-0.29,0.17-0.41c0.11-0.11,0.24-0.16,0.38-0.16h6.72
			c2.9,0,5.38,1.03,7.44,3.07c2.06,2.05,3.09,4.52,3.09,7.39c0,2.9-1.03,5.38-3.09,7.44c-2.06,2.06-4.54,3.09-7.44,3.09h-6.72
			c-0.14,0-0.26-0.05-0.38-0.17C931.24,586.17,931.18,586.03,931.18,585.87z M933.46,584.37h4.5c2.46,0,4.49-0.79,6.09-2.38
			c1.6-1.59,2.4-3.62,2.4-6.08c0-2.46-0.8-4.48-2.4-6.06c-1.6-1.58-3.63-2.37-6.09-2.37h-4.5V584.37z"/>
		<path class="st2" d="M978.25,585.87v-19.86c0-0.16,0.06-0.29,0.17-0.41c0.11-0.11,0.24-0.16,0.38-0.16h6.72
			c2.9,0,5.38,1.03,7.44,3.07c2.06,2.05,3.09,4.52,3.09,7.39c0,2.9-1.03,5.38-3.09,7.44c-2.06,2.06-4.54,3.09-7.44,3.09h-6.72
			c-0.14,0-0.26-0.05-0.38-0.17C978.31,586.17,978.25,586.03,978.25,585.87z M980.53,584.37h4.5c2.46,0,4.49-0.79,6.09-2.38
			c1.6-1.59,2.4-3.62,2.4-6.08c0-2.46-0.8-4.48-2.4-6.06c-1.6-1.58-3.63-2.37-6.09-2.37h-4.5V584.37z"/>
		<path class="st2" d="M1009.66,585.87v-19.86c0-0.16,0.06-0.29,0.17-0.41c0.11-0.11,0.25-0.16,0.41-0.16h11.82
			c0.16,0,0.29,0.05,0.41,0.16c0.11,0.11,0.16,0.25,0.16,0.41v0.87c0,0.16-0.05,0.29-0.16,0.4c-0.11,0.11-0.25,0.17-0.41,0.17
			h-10.08v7.32h8.61c0.16,0,0.29,0.05,0.4,0.16c0.11,0.11,0.17,0.25,0.17,0.41v0.87c0,0.16-0.05,0.29-0.17,0.4
			c-0.11,0.11-0.25,0.17-0.4,0.17h-8.61v7.65h10.08c0.16,0,0.29,0.05,0.41,0.16c0.11,0.11,0.16,0.25,0.16,0.4v0.87
			c0,0.16-0.05,0.29-0.16,0.4c-0.11,0.11-0.25,0.17-0.41,0.17h-11.82c-0.16,0-0.29-0.05-0.41-0.17
			C1009.72,586.17,1009.66,586.03,1009.66,585.87z"/>
		<path class="st2" d="M1050.58,585.72l3.87-20.16c0.06-0.28,0.24-0.42,0.54-0.42h0.48c0.26,0,0.43,0.11,0.51,0.33l5.94,16.53h0.15
			l5.85-16.53c0.08-0.22,0.25-0.33,0.51-0.33h0.48c0.3,0,0.48,0.14,0.54,0.42l3.87,20.16c0.1,0.48-0.08,0.72-0.54,0.72h-1.2
			c-0.28,0-0.46-0.14-0.54-0.42l-2.67-15.45h-0.12l-5.52,15.84c-0.08,0.22-0.25,0.33-0.51,0.33h-0.54c-0.26,0-0.43-0.11-0.51-0.33
			l-5.58-15.84h-0.12l-2.61,15.45c-0.02,0.1-0.08,0.2-0.2,0.29c-0.11,0.09-0.22,0.13-0.34,0.13h-1.2
			C1050.66,586.44,1050.48,586.2,1050.58,585.72z"/>
		<path class="st2" d="M1084.57,586.44c-0.22,0-0.39-0.08-0.5-0.24c-0.11-0.16-0.12-0.34-0.02-0.54l9.12-20.19
			c0.12-0.22,0.29-0.33,0.51-0.33h0.3c0.22,0,0.39,0.11,0.51,0.33l9.06,20.19c0.1,0.2,0.09,0.38-0.01,0.54
			c-0.11,0.16-0.28,0.24-0.5,0.24h-1.2c-0.26,0-0.43-0.11-0.51-0.33l-2.22-4.95h-10.65l-2.19,4.95c-0.08,0.22-0.25,0.33-0.51,0.33
			H1084.57z M1089.31,579.3h9c-0.5-1.1-1.23-2.74-2.19-4.92s-1.69-3.82-2.19-4.92h-0.24L1089.31,579.3z"/>
		<path class="st2" d="M1115.83,585.87v-19.86c0-0.16,0.06-0.29,0.17-0.41c0.11-0.11,0.25-0.16,0.41-0.16h7.77
			c1.8,0,3.34,0.62,4.62,1.86c1.28,1.24,1.92,2.75,1.92,4.53c0,1.36-0.41,2.59-1.22,3.68c-0.81,1.09-1.88,1.9-3.22,2.45l4.11,7.62
			c0.12,0.2,0.12,0.4,0.01,0.59c-0.11,0.19-0.29,0.29-0.53,0.29h-1.53c-0.22,0-0.38-0.09-0.48-0.27l-3.99-7.95h-5.73v7.65
			c0,0.14-0.06,0.27-0.17,0.39c-0.11,0.12-0.25,0.18-0.41,0.18h-1.17c-0.16,0-0.29-0.05-0.41-0.17
			C1115.89,586.17,1115.83,586.03,1115.83,585.87z M1118.2,576.24h5.82c1.16,0,2.17-0.42,3.03-1.27c0.86-0.85,1.29-1.88,1.29-3.11
			c0-1.14-0.43-2.13-1.29-2.97c-0.86-0.84-1.87-1.26-3.03-1.26h-5.82V576.24z"/>
		<path class="st2" d="M1146.3,583.61c-2.11-2.09-3.17-4.63-3.17-7.63s1.05-5.55,3.17-7.66c2.11-2.11,4.67-3.17,7.67-3.17
			c2.66,0,5.08,0.93,7.26,2.79c0.28,0.3,0.29,0.58,0.03,0.84l-0.81,0.81c-0.22,0.28-0.48,0.27-0.78-0.03
			c-1.74-1.5-3.65-2.25-5.73-2.25c-2.34,0-4.32,0.85-5.94,2.55c-1.62,1.7-2.43,3.73-2.43,6.09c0,2.34,0.81,4.36,2.43,6.06
			c1.62,1.7,3.6,2.55,5.94,2.55c0.82,0,1.59-0.12,2.33-0.35c0.73-0.23,1.31-0.48,1.75-0.75c0.44-0.27,0.99-0.65,1.65-1.15
			c0.26-0.2,0.5-0.23,0.72-0.09l0.9,0.81c0.12,0.1,0.17,0.23,0.17,0.39c-0.01,0.16-0.08,0.3-0.19,0.42c-2,1.94-4.43,2.91-7.29,2.91
			C1150.96,586.74,1148.41,585.69,1146.3,583.61z"/>
		<path class="st2" d="M1172.5,586.44c-0.22,0-0.39-0.08-0.5-0.24c-0.11-0.16-0.12-0.34-0.02-0.54l9.12-20.19
			c0.12-0.22,0.29-0.33,0.51-0.33h0.3c0.22,0,0.39,0.11,0.51,0.33l9.06,20.19c0.1,0.2,0.09,0.38-0.01,0.54
			c-0.11,0.16-0.28,0.24-0.5,0.24h-1.2c-0.26,0-0.43-0.11-0.51-0.33l-2.22-4.95h-10.65l-2.19,4.95c-0.08,0.22-0.25,0.33-0.51,0.33
			H1172.5z M1177.24,579.3h9c-0.5-1.1-1.23-2.74-2.19-4.92s-1.69-3.82-2.19-4.92h-0.24L1177.24,579.3z"/>
	</g>
</g>
<g id="Layer_2">
</g>
</svg>
